<?xml version="1.0" encoding="UTF-8" standalone="no"?>
<!DOCTYPE svg PUBLIC "-//W3C//DTD SVG 1.1//EN" "http://www.w3.org/Graphics/SVG/1.1/DTD/svg11.dtd">
<svg xmlns="http://www.w3.org/2000/svg" version="1.1" viewBox="0 0 266 252">
<g stroke-width="2.00" fill="none" stroke-linecap="butt">
<path stroke="#7a7a7a" vector-effect="non-scaling-stroke" d="
  M 84.00 196.00
  L 111.00 196.02
  A 1.00 1.00 0.0 0 1 112.00 197.02
  L 112.00 208.99
  A 1.00 1.00 0.0 0 0 113.00 209.99
  L 139.75 209.96"
/>
<path stroke="#6d6d6d" vector-effect="non-scaling-stroke" d="
  M 139.75 209.96
  L 153.00 209.95
  A 1.00 1.00 0.0 0 0 154.00 208.95
  L 154.00 197.00
  A 1.00 1.00 0.0 0 1 155.00 196.00
  L 180.96 196.00
  A 1.00 1.00 0.0 0 0 181.96 195.00
  L 181.96 154.25"
/>
<path stroke="#7a7a7a" vector-effect="non-scaling-stroke" d="
  M 181.96 154.25
  L 182.00 140.04"
/>
<path stroke="#676015" vector-effect="non-scaling-stroke" d="
  M 182.00 140.04
  L 209.00 139.98
  A 1.00 1.00 0.0 0 0 210.00 138.98
  L 210.00 127.00
  A 1.00 1.00 0.0 0 1 211.00 126.00
  L 222.99 126.00
  A 1.00 1.00 0.0 0 0 223.99 125.00
  L 223.96 112.00"
/>
<path stroke="#7f7a3d" vector-effect="non-scaling-stroke" d="
  M 223.96 112.00
  L 223.96 98.00"
/>
<path stroke="#7a7a7a" vector-effect="non-scaling-stroke" d="
  M 223.96 98.00
  L 223.96 83.75"
/>
<path stroke="#7f7a3d" vector-effect="non-scaling-stroke" d="
  M 223.96 83.75
  L 223.99 70.99
  A 1.00 1.00 0.0 0 0 222.99 69.99
  L 196.00 69.96"
/>
<path stroke="#7a7a7a" vector-effect="non-scaling-stroke" d="
  M 196.00 69.96
  L 195.94 57.06
  A 1.00 1.00 0.0 0 0 194.94 56.06
  L 182.25 56.04"
/>
<path stroke="#7f7a3d" vector-effect="non-scaling-stroke" d="
  M 182.25 56.04
  L 155.00 55.99
  A 1.00 1.00 0.0 0 1 154.00 54.99
  L 154.00 43.00
  A 1.00 1.00 0.0 0 0 153.00 42.00
  L 113.00 42.00
  A 1.00 1.00 0.0 0 0 112.00 43.00
  L 112.00 54.97
  A 1.00 1.00 0.0 0 1 111.00 55.97
  L 84.25 56.04"
/>
<path stroke="#7a7a7a" vector-effect="non-scaling-stroke" d="
  M 84.25 56.04
  L 71.02 56.01
  A 1.00 1.00 0.0 0 0 70.02 57.01
  L 70.00 69.96"
/>
<path stroke="#7f7a3d" vector-effect="non-scaling-stroke" d="
  M 70.00 69.96
  L 43.01 69.99
  A 1.00 1.00 0.0 0 0 42.01 70.99
  L 42.04 84.25"
/>
<path stroke="#7a7a7a" vector-effect="non-scaling-stroke" d="
  M 42.04 84.25
  L 42.04 98.50"
/>
<path stroke="#7f7a3d" vector-effect="non-scaling-stroke" d="
  M 42.04 98.50
  L 42.04 112.25"
/>
<path stroke="#676015" vector-effect="non-scaling-stroke" d="
  M 42.04 112.25
  L 42.01 125.00
  A 1.00 1.00 0.0 0 0 43.01 126.00
  L 55.00 126.00
  A 1.00 1.00 0.0 0 1 56.00 127.00
  L 56.00 139.01
  A 1.00 1.00 0.0 0 0 57.00 140.01
  L 84.00 140.04"
/>
<path stroke="#7a7a7a" vector-effect="non-scaling-stroke" d="
  M 84.00 140.04
  L 84.00 196.00"
/>
<path stroke="#e7e7e7" vector-effect="non-scaling-stroke" d="
  M 181.96 154.25
  L 169.01 154.12
  A 1.00 1.00 0.0 0 0 168.00 155.12
  L 168.00 167.00
  A 1.00 1.00 0.0 0 1 167.00 168.00
  L 155.07 168.00
  A 1.00 0.99 0.3 0 0 154.07 168.98
  L 153.85 180.79
  A 1.00 1.00 0.0 0 1 152.88 181.77
  L 140.90 182.07
  A 1.00 1.00 0.0 0 0 139.93 183.07
  L 139.75 209.96"
/>
<path stroke="#f8f4b6" vector-effect="non-scaling-stroke" d="
  M 182.25 56.04
  Q 181.71 62.47 182.12 68.90
  A 1.00 1.00 0.0 0 0 183.11 69.84
  L 196.00 69.96"
/>
<path stroke="#f8f4b6" vector-effect="non-scaling-stroke" d="
  M 223.96 83.75
  L 210.98 84.08
  A 1.00 0.99 -0.6 0 0 210.00 85.07
  L 210.00 96.90
  A 1.00 1.00 0.0 0 0 210.99 97.90
  L 223.96 98.00"
/>
<path stroke="#e5da51" vector-effect="non-scaling-stroke" d="
  M 223.96 112.00
  L 195.96 112.25"
/>
<path stroke="#f8f4b6" vector-effect="non-scaling-stroke" d="
  M 195.96 112.25
  Q 189.53 111.71 183.10 112.12
  A 1.00 1.00 0.0 0 0 182.16 113.11
  L 181.96 125.75"
/>
<path stroke="#e5da51" vector-effect="non-scaling-stroke" d="
  M 181.96 125.75
  L 140.00 125.96"
/>
<path stroke="#f8f4b6" vector-effect="non-scaling-stroke" d="
  M 140.00 125.96
  L 139.95 112.99
  A 1.00 1.00 0.0 0 0 138.95 112.00
  L 127.08 112.00
  A 1.00 1.00 0.0 0 0 126.08 112.99
  L 125.96 125.75"
/>
<path stroke="#e5da51" vector-effect="non-scaling-stroke" d="
  M 125.96 125.75
  L 84.00 125.96"
/>
<path stroke="#f8f4b6" vector-effect="non-scaling-stroke" d="
  M 84.00 125.96
  L 83.79 113.15
  A 1.01 1.01 0.0 0 0 82.87 112.17
  Q 76.43 111.64 70.00 112.29"
/>
<path stroke="#e5da51" vector-effect="non-scaling-stroke" d="
  M 70.00 112.29
  Q 56.02 111.59 42.04 112.25"
/>
<path stroke="#f8f4b6" vector-effect="non-scaling-stroke" d="
  M 42.04 98.50
  Q 48.44 97.56 54.93 98.10
  A 1.00 1.00 0.0 0 0 56.01 97.10
  L 55.98 85.14
  A 1.00 0.99 89.7 0 0 54.98 84.14
  L 42.04 84.25"
/>
<path stroke="#f8f4b6" vector-effect="non-scaling-stroke" d="
  M 70.00 69.96
  L 82.85 69.84
  A 0.99 0.99 0.0 0 0 83.84 68.88
  L 84.25 56.04"
/>
<path stroke="#e0da8e" vector-effect="non-scaling-stroke" d="
  M 70.00 112.29
  L 70.16 124.85
  A 1.00 1.00 0.0 0 0 71.15 125.84
  L 84.00 125.96"
/>
<path stroke="#e0da8e" vector-effect="non-scaling-stroke" d="
  M 125.96 125.75
  L 140.00 125.96"
/>
<path stroke="#e0da8e" vector-effect="non-scaling-stroke" d="
  M 181.96 125.75
  Q 188.43 126.29 194.91 125.88
  A 1.00 0.99 88.5 0 0 195.84 124.89
  L 195.96 112.25"
/>
<path stroke="#e0da8e" vector-effect="non-scaling-stroke" d="
  M 182.00 140.04
  L 84.00 140.04"
/>
<path stroke="#f8f4b6" vector-effect="non-scaling-stroke" d="
  M 139.9888 56.5878
  A 0.60 0.60 0.0 0 0 139.3878 55.9888
  L 126.5878 56.0112
  A 0.60 0.60 0.0 0 0 125.9888 56.6122
  L 126.0112 69.4122
  A 0.60 0.60 0.0 0 0 126.6122 70.0112
  L 139.4122 69.9888
  A 0.60 0.60 0.0 0 0 140.0112 69.3878
  L 139.9888 56.5878"
/>
<path stroke="#f8f4b6" vector-effect="non-scaling-stroke" d="
  M 112.0207 84.8622
  A 0.85 0.85 0.0 0 0 111.1722 84.0107
  L 98.8722 83.9893
  A 0.85 0.85 0.0 0 0 98.0207 84.8378
  L 97.9993 97.1378
  A 0.85 0.85 0.0 0 0 98.8478 97.9893
  L 111.1478 98.0107
  A 0.85 0.85 0.0 0 0 111.9993 97.1622
  L 112.0207 84.8622"
/>
<path stroke="#f8f4b6" vector-effect="non-scaling-stroke" d="
  M 168.0207 84.8622
  A 0.85 0.85 0.0 0 0 167.1722 84.0107
  L 154.8722 83.9893
  A 0.85 0.85 0.0 0 0 154.0207 84.8378
  L 153.9993 97.1378
  A 0.85 0.85 0.0 0 0 154.8478 97.9893
  L 167.1478 98.0107
  A 0.85 0.85 0.0 0 0 167.9993 97.1622
  L 168.0207 84.8622"
/>
</g>
<path fill="#000000" d="
  M 84.00 196.00
  L 111.00 196.02
  A 1.00 1.00 0.0 0 1 112.00 197.02
  L 112.00 208.99
  A 1.00 1.00 0.0 0 0 113.00 209.99
  L 139.75 209.96
  L 153.00 209.95
  A 1.00 1.00 0.0 0 0 154.00 208.95
  L 154.00 197.00
  A 1.00 1.00 0.0 0 1 155.00 196.00
  L 180.96 196.00
  A 1.00 1.00 0.0 0 0 181.96 195.00
  L 181.96 154.25
  L 182.00 140.04
  L 209.00 139.98
  A 1.00 1.00 0.0 0 0 210.00 138.98
  L 210.00 127.00
  A 1.00 1.00 0.0 0 1 211.00 126.00
  L 222.99 126.00
  A 1.00 1.00 0.0 0 0 223.99 125.00
  L 223.96 112.00
  L 223.96 98.00
  L 223.96 83.75
  L 223.99 70.99
  A 1.00 1.00 0.0 0 0 222.99 69.99
  L 196.00 69.96
  L 195.94 57.06
  A 1.00 1.00 0.0 0 0 194.94 56.06
  L 182.25 56.04
  L 155.00 55.99
  A 1.00 1.00 0.0 0 1 154.00 54.99
  L 154.00 43.00
  A 1.00 1.00 0.0 0 0 153.00 42.00
  L 113.00 42.00
  A 1.00 1.00 0.0 0 0 112.00 43.00
  L 112.00 54.97
  A 1.00 1.00 0.0 0 1 111.00 55.97
  L 84.25 56.04
  L 71.02 56.01
  A 1.00 1.00 0.0 0 0 70.02 57.01
  L 70.00 69.96
  L 43.01 69.99
  A 1.00 1.00 0.0 0 0 42.01 70.99
  L 42.04 84.25
  L 42.04 98.50
  L 42.04 112.25
  L 42.01 125.00
  A 1.00 1.00 0.0 0 0 43.01 126.00
  L 55.00 126.00
  A 1.00 1.00 0.0 0 1 56.00 127.00
  L 56.00 139.01
  A 1.00 1.00 0.0 0 0 57.00 140.01
  L 84.00 140.04
  L 84.00 196.00
  L 70.99 195.88
  A 1.00 1.00 0.0 0 1 70.00 194.88
  L 70.00 155.00
  A 1.00 1.00 0.0 0 0 69.00 154.00
  L 57.00 154.00
  A 1.00 1.00 0.0 0 1 56.00 153.00
  L 56.00 141.00
  A 1.00 1.00 0.0 0 0 55.00 140.00
  L 43.00 140.00
  A 1.00 1.00 0.0 0 1 42.00 139.00
  L 42.00 127.00
  A 1.00 1.00 0.0 0 0 41.00 126.00
  L 29.00 126.00
  A 1.00 1.00 0.0 0 1 28.00 125.00
  L 28.00 71.00
  A 1.00 1.00 0.0 0 1 29.00 70.00
  L 41.00 70.00
  A 1.00 1.00 0.0 0 0 42.00 69.00
  L 42.00 57.00
  A 1.00 1.00 0.0 0 1 43.00 56.00
  L 69.00 56.00
  A 1.00 1.00 0.0 0 0 70.00 55.00
  L 70.00 43.00
  A 1.00 1.00 0.0 0 1 71.00 42.00
  L 97.00 42.00
  A 1.00 1.00 0.0 0 0 98.00 41.00
  L 98.00 29.00
  A 1.00 1.00 0.0 0 1 99.00 28.00
  L 153.00 28.00
  A 1.00 1.00 0.0 0 1 154.00 29.00
  L 154.00 41.00
  A 1.00 1.00 0.0 0 0 155.00 42.00
  L 194.99 42.00
  A 1.00 1.00 0.0 0 1 195.99 43.00
  L 196.01 55.00
  A 1.00 1.00 0.0 0 0 197.01 56.00
  L 223.00 56.00
  A 1.00 1.00 0.0 0 1 224.00 57.00
  L 224.00 69.00
  A 1.00 1.00 0.0 0 0 225.00 70.00
  L 237.00 70.00
  A 1.00 1.00 0.0 0 1 238.00 71.00
  L 238.00 125.00
  A 1.00 1.00 0.0 0 1 237.00 126.00
  L 225.00 126.00
  A 1.00 1.00 0.0 0 0 224.00 127.00
  L 224.00 139.00
  A 1.00 1.00 0.0 0 1 223.00 140.00
  L 211.00 140.00
  A 1.00 1.00 0.0 0 0 210.00 141.00
  L 210.00 153.00
  A 1.00 1.00 0.0 0 1 209.00 154.00
  L 197.00 154.00
  A 1.00 1.00 0.0 0 0 196.00 155.00
  L 196.00 195.00
  A 1.00 1.00 0.0 0 1 195.00 196.00
  L 183.00 196.00
  A 1.00 1.00 0.0 0 0 182.00 197.00
  L 182.00 209.00
  A 1.00 1.00 0.0 0 1 181.00 210.00
  L 155.00 210.00
  A 1.00 1.00 0.0 0 0 154.00 211.00
  L 154.00 223.00
  A 1.00 1.00 0.0 0 1 153.00 224.00
  L 113.00 224.00
  A 1.00 1.00 0.0 0 1 112.00 223.00
  L 112.00 211.00
  A 1.00 1.00 0.0 0 0 111.00 210.00
  L 85.11 210.00
  A 1.00 1.00 0.0 0 1 84.11 209.01
  L 84.00 196.00
  Z"
/>
<path fill="#fdf479" d="
  M 182.25 56.04
  Q 181.71 62.47 182.12 68.90
  A 1.00 1.00 0.0 0 0 183.11 69.84
  L 196.00 69.96
  L 222.99 69.99
  A 1.00 1.00 0.0 0 1 223.99 70.99
  L 223.96 83.75
  L 210.98 84.08
  A 1.00 0.99 -0.6 0 0 210.00 85.07
  L 210.00 96.90
  A 1.00 1.00 0.0 0 0 210.99 97.90
  L 223.96 98.00
  L 223.96 112.00
  L 195.96 112.25
  Q 189.53 111.71 183.10 112.12
  A 1.00 1.00 0.0 0 0 182.16 113.11
  L 181.96 125.75
  L 140.00 125.96
  L 139.95 112.99
  A 1.00 1.00 0.0 0 0 138.95 112.00
  L 127.08 112.00
  A 1.00 1.00 0.0 0 0 126.08 112.99
  L 125.96 125.75
  L 84.00 125.96
  L 83.79 113.15
  A 1.01 1.01 0.0 0 0 82.87 112.17
  Q 76.43 111.64 70.00 112.29
  Q 56.02 111.59 42.04 112.25
  L 42.04 98.50
  Q 48.44 97.56 54.93 98.10
  A 1.00 1.00 0.0 0 0 56.01 97.10
  L 55.98 85.14
  A 1.00 0.99 89.7 0 0 54.98 84.14
  L 42.04 84.25
  L 42.01 70.99
  A 1.00 1.00 0.0 0 1 43.01 69.99
  L 70.00 69.96
  L 82.85 69.84
  A 0.99 0.99 0.0 0 0 83.84 68.88
  L 84.25 56.04
  L 111.00 55.97
  A 1.00 1.00 0.0 0 0 112.00 54.97
  L 112.00 43.00
  A 1.00 1.00 0.0 0 1 113.00 42.00
  L 153.00 42.00
  A 1.00 1.00 0.0 0 1 154.00 43.00
  L 154.00 54.99
  A 1.00 1.00 0.0 0 0 155.00 55.99
  L 182.25 56.04
  Z
  M 139.9888 56.5878
  A 0.60 0.60 0.0 0 0 139.3878 55.9888
  L 126.5878 56.0112
  A 0.60 0.60 0.0 0 0 125.9888 56.6122
  L 126.0112 69.4122
  A 0.60 0.60 0.0 0 0 126.6122 70.0112
  L 139.4122 69.9888
  A 0.60 0.60 0.0 0 0 140.0112 69.3878
  L 139.9888 56.5878
  Z
  M 112.0207 84.8622
  A 0.85 0.85 0.0 0 0 111.1722 84.0107
  L 98.8722 83.9893
  A 0.85 0.85 0.0 0 0 98.0207 84.8378
  L 97.9993 97.1378
  A 0.85 0.85 0.0 0 0 98.8478 97.9893
  L 111.1478 98.0107
  A 0.85 0.85 0.0 0 0 111.9993 97.1622
  L 112.0207 84.8622
  Z
  M 168.0207 84.8622
  A 0.85 0.85 0.0 0 0 167.1722 84.0107
  L 154.8722 83.9893
  A 0.85 0.85 0.0 0 0 154.0207 84.8378
  L 153.9993 97.1378
  A 0.85 0.85 0.0 0 0 154.8478 97.9893
  L 167.1478 98.0107
  A 0.85 0.85 0.0 0 0 167.9993 97.1622
  L 168.0207 84.8622
  Z"
/>
<path fill="#f3f3f3" d="
  M 84.25 56.04
  L 83.84 68.88
  A 0.99 0.99 0.0 0 1 82.85 69.84
  L 70.00 69.96
  L 70.02 57.01
  A 1.00 1.00 0.0 0 1 71.02 56.01
  L 84.25 56.04
  Z"
/>
<rect fill="#f3f3f3" x="-7.00" y="-7.00" transform="translate(133.00,63.00) rotate(-0.1)" width="14.00" height="14.00" rx="0.60"/>
<path fill="#f3f3f3" d="
  M 182.25 56.04
  L 194.94 56.06
  A 1.00 1.00 0.0 0 1 195.94 57.06
  L 196.00 69.96
  L 183.11 69.84
  A 1.00 1.00 0.0 0 1 182.12 68.90
  Q 181.71 62.47 182.25 56.04
  Z"
/>
<path fill="#f3f3f3" d="
  M 223.96 83.75
  L 223.96 98.00
  L 210.99 97.90
  A 1.00 1.00 0.0 0 1 210.00 96.90
  L 210.00 85.07
  A 1.00 0.99 -0.6 0 1 210.98 84.08
  L 223.96 83.75
  Z"
/>
<path fill="#f3f3f3" d="
  M 42.04 98.50
  L 42.04 84.25
  L 54.98 84.14
  A 1.00 0.99 89.7 0 1 55.98 85.14
  L 56.01 97.10
  A 1.00 1.00 0.0 0 1 54.93 98.10
  Q 48.44 97.56 42.04 98.50
  Z"
/>
<rect fill="#f3f3f3" x="-7.00" y="-7.00" transform="translate(105.01,91.00) rotate(0.1)" width="14.00" height="14.00" rx="0.85"/>
<rect fill="#f3f3f3" x="-7.00" y="-7.00" transform="translate(161.01,91.00) rotate(0.1)" width="14.00" height="14.00" rx="0.85"/>
<path fill="#cdc029" d="
  M 70.00 112.29
  L 70.16 124.85
  A 1.00 1.00 0.0 0 0 71.15 125.84
  L 84.00 125.96
  L 125.96 125.75
  L 140.00 125.96
  L 181.96 125.75
  Q 188.43 126.29 194.91 125.88
  A 1.00 0.99 88.5 0 0 195.84 124.89
  L 195.96 112.25
  L 223.96 112.00
  L 223.99 125.00
  A 1.00 1.00 0.0 0 1 222.99 126.00
  L 211.00 126.00
  A 1.00 1.00 0.0 0 0 210.00 127.00
  L 210.00 138.98
  A 1.00 1.00 0.0 0 1 209.00 139.98
  L 182.00 140.04
  L 84.00 140.04
  L 57.00 140.01
  A 1.00 1.00 0.0 0 1 56.00 139.01
  L 56.00 127.00
  A 1.00 1.00 0.0 0 0 55.00 126.00
  L 43.01 126.00
  A 1.00 1.00 0.0 0 1 42.01 125.00
  L 42.04 112.25
  Q 56.02 111.59 70.00 112.29
  Z"
/>
<path fill="#f3f3f3" d="
  M 84.00 125.96
  L 71.15 125.84
  A 1.00 1.00 0.0 0 1 70.16 124.85
  L 70.00 112.29
  Q 76.43 111.64 82.87 112.17
  A 1.01 1.01 0.0 0 1 83.79 113.15
  L 84.00 125.96
  Z"
/>
<path fill="#f3f3f3" d="
  M 140.00 125.96
  L 125.96 125.75
  L 126.08 112.99
  A 1.00 1.00 0.0 0 1 127.08 112.00
  L 138.95 112.00
  A 1.00 1.00 0.0 0 1 139.95 112.99
  L 140.00 125.96
  Z"
/>
<path fill="#f3f3f3" d="
  M 195.96 112.25
  L 195.84 124.89
  A 1.00 0.99 88.5 0 1 194.91 125.88
  Q 188.43 126.29 181.96 125.75
  L 182.16 113.11
  A 1.00 1.00 0.0 0 1 183.10 112.12
  Q 189.53 111.71 195.96 112.25
  Z"
/>
<path fill="#f3f3f3" d="
  M 84.00 140.04
  L 182.00 140.04
  L 181.96 154.25
  L 169.01 154.12
  A 1.00 1.00 0.0 0 0 168.00 155.12
  L 168.00 167.00
  A 1.00 1.00 0.0 0 1 167.00 168.00
  L 155.07 168.00
  A 1.00 0.99 0.3 0 0 154.07 168.98
  L 153.85 180.79
  A 1.00 1.00 0.0 0 1 152.88 181.77
  L 140.90 182.07
  A 1.00 1.00 0.0 0 0 139.93 183.07
  L 139.75 209.96
  L 113.00 209.99
  A 1.00 1.00 0.0 0 1 112.00 208.99
  L 112.00 197.02
  A 1.00 1.00 0.0 0 0 111.00 196.02
  L 84.00 196.00
  L 84.00 140.04
  Z"
/>
<path fill="#dadada" d="
  M 181.96 154.25
  L 181.96 195.00
  A 1.00 1.00 0.0 0 1 180.96 196.00
  L 155.00 196.00
  A 1.00 1.00 0.0 0 0 154.00 197.00
  L 154.00 208.95
  A 1.00 1.00 0.0 0 1 153.00 209.95
  L 139.75 209.96
  L 139.93 183.07
  A 1.00 1.00 0.0 0 1 140.90 182.07
  L 152.88 181.77
  A 1.00 1.00 0.0 0 0 153.85 180.79
  L 154.07 168.98
  A 1.00 0.99 0.3 0 1 155.07 168.00
  L 167.00 168.00
  A 1.00 1.00 0.0 0 0 168.00 167.00
  L 168.00 155.12
  A 1.00 1.00 0.0 0 1 169.01 154.12
  L 181.96 154.25
  Z"
/>
</svg>
