<?xml version="1.0" encoding="UTF-8" standalone="no"?>
<!DOCTYPE svg PUBLIC "-//W3C//DTD SVG 1.1//EN" "http://www.w3.org/Graphics/SVG/1.1/DTD/svg11.dtd">
<svg xmlns="http://www.w3.org/2000/svg" version="1.1" viewBox="0 0 1600 640">
<g stroke-width="2.00" fill="none" stroke-linecap="butt">
<path stroke="#dcdbef" vector-effect="non-scaling-stroke" d="
  M 2.81 0.00
  Q 2.70 0.10 2.63 0.19
  A 0.41 0.41 0.0 0 0 2.90 0.84
  L 448.00 62.79"
/>
<path stroke="#e5e7f4" vector-effect="non-scaling-stroke" d="
  M 448.00 62.79
  Q 448.32 64.07 447.37 64.05
  A 0.82 0.81 -76.0 0 0 446.65 64.49
  L 445.95 65.84
  A 1.04 0.98 -86.7 0 1 445.45 66.31
  Q 443.29 67.20 441.18 68.23
  C 438.10 69.74 434.74 70.44 431.59 71.90
  Q 428.38 73.39 426.20 74.10
  C 418.69 76.55 409.97 80.43 404.22 82.61
  Q 374.75 93.80 345.40 105.28
  C 324.63 113.41 303.63 120.91 282.93 129.21
  C 247.29 143.51 211.32 157.01 175.44 170.69
  Q 174.18 171.18 173.25 173.63
  A 0.26 0.26 0.0 0 1 172.92 173.78
  Q 172.69 173.70 172.50 173.96"
/>
<path stroke="#f2f0f8" vector-effect="non-scaling-stroke" d="
  M 172.50 173.96
  L 169.76 172.69"
/>
<path stroke="#f0e6f4" vector-effect="non-scaling-stroke" d="
  M 169.76 172.69
  Q 94.36 97.52 19.44 21.86
  Q 19.35 21.77 15.01 17.20
  Q 8.28 10.12 0.06 4.86"
/>
<path stroke="#e5e5f3" vector-effect="non-scaling-stroke" d="
  M 142.81 0.00
  L 159.75 0.21"
/>
<path stroke="#dcdbef" vector-effect="non-scaling-stroke" d="
  M 159.75 0.21
  L 179.31 0.00"
/>
<path stroke="#e5e5f3" vector-effect="non-scaling-stroke" d="
  M 386.06 0.00
  Q 391.94 0.63 397.81 0.00"
/>
<path stroke="#ccd2e7" vector-effect="non-scaling-stroke" d="
  M 1000.56 0.00
  Q 998.99 0.44 998.57 1.79
  Q 998.49 2.03 998.32 2.21
  Q 995.98 4.52 993.01 3.75
  Q 988.23 2.51 984.22 3.66
  A 0.98 0.97 47.6 0 1 983.57 3.63
  Q 981.22 2.69 979.15 3.92
  A 1.04 1.03 28.1 0 1 978.65 4.07
  C 975.56 4.10 973.58 5.66 970.86 6.02
  C 960.71 7.33 950.40 7.95 940.42 9.28
  Q 932.64 10.32 924.82 11.08
  C 911.29 12.39 898.17 14.42 884.79 15.72
  C 863.00 17.84 841.27 20.39 819.46 22.40
  Q 808.69 23.39 799.57 24.47
  Q 725.49 33.24 651.40 41.85
  C 645.37 42.55 637.03 42.48 629.77 43.88
  Q 623.96 45.00 620.11 45.24
  Q 596.00 46.71 572.06 49.97
  C 568.11 50.51 561.09 50.72 555.79 52.15
  Q 551.43 53.34 548.57 53.57
  C 535.84 54.61 522.87 55.30 510.44 56.75
  Q 498.60 58.13 486.75 59.50
  C 478.54 60.45 474.35 61.62 466.71 61.93
  C 464.85 62.01 463.19 63.15 460.90 62.74
  A 1.01 1.01 0.0 0 0 460.03 63.00
  L 458.25 64.71"
/>
<path stroke="#d3daee" vector-effect="non-scaling-stroke" d="
  M 458.25 64.71
  L 452.00 63.54"
/>
<path stroke="#d8dcef" vector-effect="non-scaling-stroke" d="
  M 452.00 63.54
  L 448.00 62.79"
/>
<path stroke="#f2f0f8" vector-effect="non-scaling-stroke" d="
  M 159.81 0.00
  L 159.75 0.21"
/>
<path stroke="#c8cee1" vector-effect="non-scaling-stroke" d="
  M 1034.06 0.00
  Q 1033.63 0.86 1034.76 0.97
  C 1050.44 2.50 1066.08 4.38 1081.74 6.06
  Q 1201.40 18.88 1321.07 31.66
  Q 1323.45 31.91 1325.75 32.54"
/>
<path stroke="#d1cfe2" vector-effect="non-scaling-stroke" d="
  M 1325.75 32.54
  L 1325.71 33.50"
/>
<path stroke="#c8cee1" vector-effect="non-scaling-stroke" d="
  M 1325.71 33.50
  C 1320.72 34.41 1310.85 44.06 1305.68 47.97
  C 1243.43 94.99 1181.65 142.64 1119.48 189.77
  C 1091.89 210.69 1063.71 232.40 1027.31 260.31
  C 1005.76 276.83 964.99 307.55 919.43 342.68
  Q 913.47 347.28 908.25 349.76
  Q 905.70 350.97 905.29 353.50"
/>
<path stroke="#b8cada" vector-effect="non-scaling-stroke" d="
  M 905.29 353.50
  L 905.21 353.75"
/>
<path stroke="#c5d9e9" vector-effect="non-scaling-stroke" d="
  M 905.21 353.75
  Q 903.22 352.33 901.09 351.14
  Q 853.56 324.56 805.95 298.14
  C 805.59 297.95 805.42 297.98 805.04 298.00"
/>
<path stroke="#d7e3ef" vector-effect="non-scaling-stroke" d="
  M 805.04 298.00
  Q 803.59 296.86 801.41 297.24"
/>
<path stroke="#d0dcec" vector-effect="non-scaling-stroke" d="
  M 801.41 297.24
  Q 801.86 296.15 801.83 295.12
  Q 801.80 294.22 800.95 293.30
  Q 717.46 203.75 634.79 115.47
  A 1.06 1.03 76.1 0 0 634.34 115.19
  L 458.25 64.71"
/>
<path stroke="#c2c4d5" vector-effect="non-scaling-stroke" d="
  M 1573.81 0.00
  C 1568.33 5.61 1563.82 4.82 1556.94 6.32
  C 1549.29 7.98 1540.73 7.98 1534.03 8.98
  Q 1527.23 9.99 1520.42 10.91
  C 1512.88 11.93 1503.22 12.09 1494.65 13.44
  Q 1488.54 14.40 1482.77 14.78
  C 1469.36 15.66 1457.21 17.50 1442.01 18.76
  C 1435.98 19.25 1428.57 20.61 1421.75 20.99
  C 1420.63 21.05 1418.87 22.04 1417.35 22.08
  C 1409.18 22.29 1401.05 24.30 1392.97 24.41
  Q 1388.51 24.48 1386.19 24.80
  C 1380.85 25.56 1377.19 27.09 1372.72 27.05
  A 0.80 0.80 0.0 0 0 1372.12 27.32
  C 1371.62 27.88 1363.69 28.04 1361.89 28.41
  Q 1358.24 29.16 1355.04 29.35
  Q 1351.46 29.56 1347.92 30.23
  Q 1344.87 30.81 1347.68 32.12
  Q 1348.22 32.37 1348.76 32.45
  C 1353.83 33.19 1359.58 34.79 1364.70 33.50
  A 1.01 0.98 -38.9 0 1 1365.37 33.56
  Q 1367.29 34.45 1369.29 33.58
  A 1.02 1.01 37.5 0 1 1369.83 33.51
  C 1372.04 33.82 1374.00 33.45 1376.17 34.08
  Q 1380.18 35.24 1384.32 35.02
  C 1388.25 34.81 1391.35 35.34 1395.00 35.46
  C 1410.79 35.94 1427.31 37.29 1442.24 37.92
  Q 1482.91 39.64 1523.58 41.58
  C 1527.47 41.77 1532.58 38.40 1536.18 36.82
  A 1.04 1.04 0.0 0 1 1536.76 36.75
  Q 1537.96 36.96 1539.03 36.50
  Q 1555.49 29.44 1571.95 22.33
  A 1.00 0.99 -21.7 0 1 1573.28 22.90
  C 1576.61 31.97 1578.12 40.98 1580.12 50.41
  Q 1585.23 74.42 1591.75 98.10
  Q 1592.03 99.12 1591.97 100.41
  C 1591.66 107.35 1598.09 110.56 1597.93 117.16
  Q 1597.86 120.19 1597.99 123.22
  Q 1598.04 124.39 1598.60 123.37
  Q 1598.67 123.24 1598.74 123.10
  Q 1599.02 122.55 1599.02 121.82
  Q 1599.01 64.79 1599.00 7.76
  C 1599.00 5.89 1599.36 3.64 1599.27 1.53
  A 1.03 0.97 28.5 0 0 1599.10 1.01
  Q 1598.21 -0.32 1600.00 0.56"
/>
<path stroke="#e0e0ed" vector-effect="non-scaling-stroke" d="
  M 1600.00 4.81
  Q 1599.37 8.44 1600.00 12.06"
/>
<path stroke="#e0e0ed" vector-effect="non-scaling-stroke" d="
  M 1600.00 39.81
  Q 1599.37 45.19 1600.00 50.56"
/>
<path stroke="#e0e0ed" vector-effect="non-scaling-stroke" d="
  M 1600.00 51.81
  Q 1599.37 76.44 1600.00 101.06"
/>
<path stroke="#e0e0ed" vector-effect="non-scaling-stroke" d="
  M 1600.00 106.81
  Q 1599.37 109.06 1600.00 111.31"
/>
<path stroke="#e0e0ed" vector-effect="non-scaling-stroke" d="
  M 1600.00 122.81
  Q 1599.37 139.56 1600.00 156.31"
/>
<path stroke="#e0e0ed" vector-effect="non-scaling-stroke" d="
  M 1600.00 163.81
  Q 1599.37 174.06 1600.00 184.31"
/>
<path stroke="#dce0ec" vector-effect="non-scaling-stroke" d="
  M 1600.00 196.81
  Q 1599.37 199.56 1600.00 202.31"
/>
<path stroke="#d4d7e9" vector-effect="non-scaling-stroke" d="
  M 1600.00 291.81
  Q 1599.37 296.06 1600.00 300.31"
/>
<path stroke="#d4d7e9" vector-effect="non-scaling-stroke" d="
  M 1600.00 326.81
  Q 1599.37 330.56 1600.00 334.31"
/>
<path stroke="#e0e0ed" vector-effect="non-scaling-stroke" d="
  M 1600.00 336.81
  Q 1599.37 340.06 1600.00 343.31"
/>
<path stroke="#d8d7e9" vector-effect="non-scaling-stroke" d="
  M 1600.00 451.81
  Q 1599.37 462.06 1600.00 472.31"
/>
<path stroke="#d4d7e9" vector-effect="non-scaling-stroke" d="
  M 1600.00 474.81
  Q 1599.37 477.56 1600.00 480.31"
/>
<path stroke="#d4d7e9" vector-effect="non-scaling-stroke" d="
  M 1600.00 514.81
  Q 1599.37 518.56 1600.00 522.31"
/>
<path stroke="#cbcce3" vector-effect="non-scaling-stroke" d="
  M 1600.00 522.81
  Q 1599.37 525.06 1600.00 527.31"
/>
<path stroke="#e0e0ed" vector-effect="non-scaling-stroke" d="
  M 1600.00 603.56
  Q 1599.37 605.81 1600.00 608.06"
/>
<path stroke="#cfc9de" vector-effect="non-scaling-stroke" d="
  M 1600.00 631.81
  Q 1598.99 631.24 1598.99 629.50
  Q 1599.04 263.94 1598.99 199.00
  Q 1598.97 176.13 1599.18 165.50
  C 1599.23 162.83 1597.13 163.49 1595.44 162.67
  Q 1462.02 98.20 1328.70 33.54
  Q 1327.28 32.85 1325.75 32.54"
/>
<path stroke="#f8f0f8" vector-effect="non-scaling-stroke" d="
  M 169.76 172.69
  C 166.83 174.88 164.31 178.04 162.23 179.91
  Q 90.39 244.44 18.45 308.86
  Q 15.21 311.77 10.05 316.10
  Q 6.44 319.12 2.90 322.24
  Q 1.26 323.68 1.24 321.50
  L 0.00 219.44"
/>
<path stroke="#cfc9de" vector-effect="non-scaling-stroke" d="
  M 1459.09 639.88
  Q 1442.91 618.73 1425.25 598.79"
/>
<path stroke="#bfc5d6" vector-effect="non-scaling-stroke" d="
  M 1425.25 598.79
  L 1424.96 598.50"
/>
<path stroke="#cfc9de" vector-effect="non-scaling-stroke" d="
  M 1424.96 598.50
  Q 1426.32 597.27 1425.23 596.51
  A 1.04 1.04 0.0 0 1 1424.81 595.86
  Q 1375.58 316.05 1326.60 36.18
  Q 1326.35 34.77 1325.71 33.50"
/>
<path stroke="#b6c3d6" vector-effect="non-scaling-stroke" d="
  M 1424.96 598.50
  L 905.29 353.50"
/>
<path stroke="#dce5f3" vector-effect="non-scaling-stroke" d="
  M 452.00 63.54
  Q 452.14 63.84 452.41 63.97
  A 0.64 0.64 0.0 0 1 452.74 64.73
  Q 423.85 159.80 395.15 254.93
  C 394.28 257.83 392.42 262.28 391.63 266.22
  C 391.24 268.14 390.23 269.49 389.50 271.29"
/>
<path stroke="#eaf0f8" vector-effect="non-scaling-stroke" d="
  M 389.50 271.29
  L 387.29 270.50"
/>
<path stroke="#eef0f8" vector-effect="non-scaling-stroke" d="
  M 387.29 270.50
  L 172.50 173.96"
/>
<path stroke="#deeaf5" vector-effect="non-scaling-stroke" d="
  M 801.41 297.24
  Q 788.78 296.68 775.93 295.87
  C 647.21 287.72 518.46 279.93 389.75 271.54"
/>
<path stroke="#e4eef7" vector-effect="non-scaling-stroke" d="
  M 389.75 271.54
  L 389.50 271.29"
/>
<path stroke="#f6f9fc" vector-effect="non-scaling-stroke" d="
  M 387.29 270.50
  Q 386.43 271.86 386.67 273.49
  A 1.02 1.02 0.0 0 1 386.14 274.52
  Q 381.38 276.99 378.42 279.07
  C 373.28 282.69 369.98 284.72 366.12 287.84
  C 359.52 293.18 352.26 297.14 345.81 302.81
  C 343.06 305.23 338.44 306.93 336.38 311.11
  A 0.96 0.95 1.6 0 1 335.87 311.59
  C 334.69 312.10 334.07 312.14 333.24 313.24
  Q 329.22 318.57 324.47 323.33
  A 1.01 1.01 0.0 0 0 324.18 323.93
  Q 323.80 327.59 320.00 326.87
  Q 317.62 326.41 317.43 328.25
  C 317.06 331.86 313.43 334.60 310.36 338.08
  C 307.88 340.89 304.53 342.79 301.70 345.45
  C 300.10 346.95 300.24 349.14 298.74 350.88
  C 294.98 355.23 291.06 358.24 288.14 363.26
  Q 288.01 363.48 287.78 363.62
  Q 284.83 365.34 282.50 367.83
  C 280.72 369.72 279.53 372.60 276.98 374.80
  Q 276.92 374.85 276.87 374.91
  Q 274.35 377.86 271.95 377.96
  Q 270.14 378.04 268.91 380.24
  A 1.02 1.01 -82.7 0 1 268.29 380.72
  L 265.17 381.56
  A 0.99 0.98 -85.6 0 0 264.51 382.13
  Q 263.49 384.53 261.69 386.38
  A 1.01 0.98 22.2 0 1 260.95 386.68
  L 256.20 386.56
  A 0.97 0.96 -63.7 0 0 255.56 386.78
  Q 253.27 388.57 253.81 391.24
  C 254.13 392.80 255.45 393.28 255.43 395.25
  A 1.04 1.02 -20.8 0 1 255.09 395.99
  L 251.27 399.38
  A 1.01 1.01 0.0 0 1 250.11 399.50
  Q 247.54 398.03 244.67 398.91
  A 1.01 1.00 1.2 0 0 244.03 399.52
  Q 242.75 402.88 240.16 405.02
  C 237.80 406.95 233.41 407.40 230.29 409.13
  A 0.98 0.98 0.0 0 0 229.89 409.53
  Q 228.34 412.42 225.90 414.54
  C 223.34 416.76 222.30 419.07 220.26 421.52
  C 217.63 424.66 216.34 428.57 213.90 431.93
  Q 212.95 433.26 209.20 436.73
  C 205.76 439.91 203.97 444.23 199.99 446.89
  Q 199.76 447.04 199.64 447.28
  C 197.95 450.68 195.47 452.87 194.55 456.65
  A 1.01 0.99 -15.1 0 1 194.25 457.16
  Q 191.12 459.98 189.34 463.78
  C 188.37 465.84 186.86 466.95 185.74 468.84
  Q 184.16 471.48 183.08 472.59
  C 180.37 475.38 175.31 479.10 175.34 483.26
  A 1.01 1.00 -14.7 0 1 174.82 484.14
  L 171.66 485.88
  A 1.01 1.01 0.0 0 0 171.17 486.51
  Q 170.05 490.93 166.95 494.05
  C 164.84 496.18 163.47 499.78 160.83 500.67
  A 1.03 1.02 4.5 0 0 160.26 501.15
  Q 157.37 506.72 152.40 510.44
  A 1.01 0.98 -9.6 0 0 152.04 510.93
  Q 149.96 517.27 144.00 520.45
  A 1.01 1.00 -16.4 0 0 143.47 521.41
  Q 143.62 523.38 142.20 524.41
  A 1.05 1.01 81.2 0 0 141.83 524.94
  Q 140.98 527.80 138.11 528.47
  A 1.02 0.97 13.8 0 0 137.62 528.75
  Q 135.30 531.16 134.85 534.35
  A 1.00 1.00 0.0 0 1 134.40 535.06
  Q 130.11 537.78 128.04 542.56
  A 1.00 0.95 50.9 0 0 127.99 543.21
  Q 128.20 544.05 127.58 544.01
  A 0.63 0.63 0.0 0 0 126.94 544.45
  C 126.19 546.75 123.51 548.33 121.92 550.23
  A 1.02 0.93 10.8 0 1 121.40 550.55
  C 116.90 551.71 119.91 557.52 115.38 556.93
  A 1.03 1.02 -54.5 0 0 114.79 557.03
  L 113.85 557.51
  A 1.01 1.00 59.3 0 0 113.48 558.97
  L 115.66 562.13
  A 0.99 0.97 -6.6 0 0 116.15 562.51
  Q 117.49 562.98 118.15 564.26
  A 1.00 0.98 1.4 0 0 118.57 564.69
  Q 120.25 565.57 120.77 565.98
  C 133.87 576.34 148.16 585.13 161.29 595.00
  Q 166.66 599.03 172.27 602.72
  C 183.12 609.85 193.20 617.47 203.67 624.87
  C 206.01 626.52 215.34 633.37 215.99 635.80
  Q 216.31 637.01 215.98 638.30
  A 1.01 1.01 0.0 0 0 216.91 639.55
  L 227.94 640.00"
/>
<path stroke="#ecf5fa" vector-effect="non-scaling-stroke" d="
  M 389.75 271.54
  C 379.68 322.63 368.40 373.48 357.78 424.45
  Q 346.29 479.61 334.60 534.72
  C 327.86 566.49 321.53 598.33 314.54 630.06
  C 313.82 633.33 313.74 636.65 313.44 640.00"
/>
<path stroke="#d3e7f2" vector-effect="non-scaling-stroke" d="
  M 805.04 298.00
  Q 779.45 417.67 753.47 537.26
  C 752.88 539.95 752.54 543.44 751.76 546.51
  A 1.00 0.95 -50.9 0 0 751.81 547.16
  L 791.80 638.03
  A 1.00 0.95 -50.9 0 1 791.85 638.68
  Q 791.52 639.99 792.94 640.00"
/>
<path stroke="#b3cedd" vector-effect="non-scaling-stroke" d="
  M 905.21 353.75
  Q 1013.90 573.49 1040.21 626.55
  Q 1044.16 634.52 1046.44 640.00"
/>
<path stroke="#b6c3d6" vector-effect="non-scaling-stroke" d="
  M 1425.25 598.79
  Q 1413.29 612.50 1401.88 626.68
  C 1399.10 630.12 1394.54 635.14 1391.44 640.00"
/>
</g>
<path fill="#e9e6f4" d="
  M 0.00 0.00
  L 2.81 0.00
  Q 2.70 0.10 2.63 0.19
  A 0.41 0.41 0.0 0 0 2.90 0.84
  L 448.00 62.79
  Q 448.32 64.07 447.37 64.05
  A 0.82 0.81 -76.0 0 0 446.65 64.49
  L 445.95 65.84
  A 1.04 0.98 -86.7 0 1 445.45 66.31
  Q 443.29 67.20 441.18 68.23
  C 438.10 69.74 434.74 70.44 431.59 71.90
  Q 428.38 73.39 426.20 74.10
  C 418.69 76.55 409.97 80.43 404.22 82.61
  Q 374.75 93.80 345.40 105.28
  C 324.63 113.41 303.63 120.91 282.93 129.21
  C 247.29 143.51 211.32 157.01 175.44 170.69
  Q 174.18 171.18 173.25 173.63
  A 0.26 0.26 0.0 0 1 172.92 173.78
  Q 172.69 173.70 172.50 173.96
  L 169.76 172.69
  Q 94.36 97.52 19.44 21.86
  Q 19.35 21.77 15.01 17.20
  Q 8.28 10.12 0.06 4.86
  L 0.00 0.00
  Z"
/>
<path fill="#cfd0e9" d="
  M 2.81 0.00
  L 142.81 0.00
  L 159.75 0.21
  L 179.31 0.00
  L 386.06 0.00
  Q 391.94 0.63 397.81 0.00
  L 1000.56 0.00
  Q 998.99 0.44 998.57 1.79
  Q 998.49 2.03 998.32 2.21
  Q 995.98 4.52 993.01 3.75
  Q 988.23 2.51 984.22 3.66
  A 0.98 0.97 47.6 0 1 983.57 3.63
  Q 981.22 2.69 979.15 3.92
  A 1.04 1.03 28.1 0 1 978.65 4.07
  C 975.56 4.10 973.58 5.66 970.86 6.02
  C 960.71 7.33 950.40 7.95 940.42 9.28
  Q 932.64 10.32 924.82 11.08
  C 911.29 12.39 898.17 14.42 884.79 15.72
  C 863.00 17.84 841.27 20.39 819.46 22.40
  Q 808.69 23.39 799.57 24.47
  Q 725.49 33.24 651.40 41.85
  C 645.37 42.55 637.03 42.48 629.77 43.88
  Q 623.96 45.00 620.11 45.24
  Q 596.00 46.71 572.06 49.97
  C 568.11 50.51 561.09 50.72 555.79 52.15
  Q 551.43 53.34 548.57 53.57
  C 535.84 54.61 522.87 55.30 510.44 56.75
  Q 498.60 58.13 486.75 59.50
  C 478.54 60.45 474.35 61.62 466.71 61.93
  C 464.85 62.01 463.19 63.15 460.90 62.74
  A 1.01 1.01 0.0 0 0 460.03 63.00
  L 458.25 64.71
  L 452.00 63.54
  L 448.00 62.79
  L 2.90 0.84
  A 0.41 0.41 0.0 0 1 2.63 0.19
  Q 2.70 0.10 2.81 0.00
  Z"
/>
<path fill="#faf9fc" d="
  M 142.81 0.00
  L 159.81 0.00
  L 159.75 0.21
  L 142.81 0.00
  Z"
/>
<path fill="#e9e6f4" d="
  M 159.81 0.00
  L 179.31 0.00
  L 159.75 0.21
  L 159.81 0.00
  Z"
/>
<path fill="#faf9fc" d="
  M 386.06 0.00
  L 397.81 0.00
  Q 391.94 0.63 386.06 0.00
  Z"
/>
<path fill="#c9d4e5" d="
  M 1000.56 0.00
  L 1034.06 0.00
  Q 1033.63 0.86 1034.76 0.97
  C 1050.44 2.50 1066.08 4.38 1081.74 6.06
  Q 1201.40 18.88 1321.07 31.66
  Q 1323.45 31.91 1325.75 32.54
  L 1325.71 33.50
  C 1320.72 34.41 1310.85 44.06 1305.68 47.97
  C 1243.43 94.99 1181.65 142.64 1119.48 189.77
  C 1091.89 210.69 1063.71 232.40 1027.31 260.31
  C 1005.76 276.83 964.99 307.55 919.43 342.68
  Q 913.47 347.28 908.25 349.76
  Q 905.70 350.97 905.29 353.50
  L 905.21 353.75
  Q 903.22 352.33 901.09 351.14
  Q 853.56 324.56 805.95 298.14
  C 805.59 297.95 805.42 297.98 805.04 298.00
  Q 803.59 296.86 801.41 297.24
  Q 801.86 296.15 801.83 295.12
  Q 801.80 294.22 800.95 293.30
  Q 717.46 203.75 634.79 115.47
  A 1.06 1.03 76.1 0 0 634.34 115.19
  L 458.25 64.71
  L 460.03 63.00
  A 1.01 1.01 0.0 0 1 460.90 62.74
  C 463.19 63.15 464.85 62.01 466.71 61.93
  C 474.35 61.62 478.54 60.45 486.75 59.50
  Q 498.60 58.13 510.44 56.75
  C 522.87 55.30 535.84 54.61 548.57 53.57
  Q 551.43 53.34 555.79 52.15
  C 561.09 50.72 568.11 50.51 572.06 49.97
  Q 596.00 46.71 620.11 45.24
  Q 623.96 45.00 629.77 43.88
  C 637.03 42.48 645.37 42.55 651.40 41.85
  Q 725.49 33.24 799.57 24.47
  Q 808.69 23.39 819.46 22.40
  C 841.27 20.39 863.00 17.84 884.79 15.72
  C 898.17 14.42 911.29 12.39 924.82 11.08
  Q 932.64 10.32 940.42 9.28
  C 950.40 7.95 960.71 7.33 970.86 6.02
  C 973.58 5.66 975.56 4.10 978.65 4.07
  A 1.04 1.03 28.1 0 0 979.15 3.92
  Q 981.22 2.69 983.57 3.63
  A 0.98 0.97 47.6 0 0 984.22 3.66
  Q 988.23 2.51 993.01 3.75
  Q 995.98 4.52 998.32 2.21
  Q 998.49 2.03 998.57 1.79
  Q 998.99 0.44 1000.56 0.00
  Z"
/>
<path fill="#c6c7dd" d="
  M 1034.06 0.00
  L 1573.81 0.00
  C 1568.33 5.61 1563.82 4.82 1556.94 6.32
  C 1549.29 7.98 1540.73 7.98 1534.03 8.98
  Q 1527.23 9.99 1520.42 10.91
  C 1512.88 11.93 1503.22 12.09 1494.65 13.44
  Q 1488.54 14.40 1482.77 14.78
  C 1469.36 15.66 1457.21 17.50 1442.01 18.76
  C 1435.98 19.25 1428.57 20.61 1421.75 20.99
  C 1420.63 21.05 1418.87 22.04 1417.35 22.08
  C 1409.18 22.29 1401.05 24.30 1392.97 24.41
  Q 1388.51 24.48 1386.19 24.80
  C 1380.85 25.56 1377.19 27.09 1372.72 27.05
  A 0.80 0.80 0.0 0 0 1372.12 27.32
  C 1371.62 27.88 1363.69 28.04 1361.89 28.41
  Q 1358.24 29.16 1355.04 29.35
  Q 1351.46 29.56 1347.92 30.23
  Q 1344.87 30.81 1347.68 32.12
  Q 1348.22 32.37 1348.76 32.45
  C 1353.83 33.19 1359.58 34.79 1364.70 33.50
  A 1.01 0.98 -38.9 0 1 1365.37 33.56
  Q 1367.29 34.45 1369.29 33.58
  A 1.02 1.01 37.5 0 1 1369.83 33.51
  C 1372.04 33.82 1374.00 33.45 1376.17 34.08
  Q 1380.18 35.24 1384.32 35.02
  C 1388.25 34.81 1391.35 35.34 1395.00 35.46
  C 1410.79 35.94 1427.31 37.29 1442.24 37.92
  Q 1482.91 39.64 1523.58 41.58
  C 1527.47 41.77 1532.58 38.40 1536.18 36.82
  A 1.04 1.04 0.0 0 1 1536.76 36.75
  Q 1537.96 36.96 1539.03 36.50
  Q 1555.49 29.44 1571.95 22.33
  A 1.00 0.99 -21.7 0 1 1573.28 22.90
  C 1576.61 31.97 1578.12 40.98 1580.12 50.41
  Q 1585.23 74.42 1591.75 98.10
  Q 1592.03 99.12 1591.97 100.41
  C 1591.66 107.35 1598.09 110.56 1597.93 117.16
  Q 1597.86 120.19 1597.99 123.22
  Q 1598.04 124.39 1598.60 123.37
  Q 1598.67 123.24 1598.74 123.10
  Q 1599.02 122.55 1599.02 121.82
  Q 1599.01 64.79 1599.00 7.76
  C 1599.00 5.89 1599.36 3.64 1599.27 1.53
  A 1.03 0.97 28.5 0 0 1599.10 1.01
  Q 1598.21 -0.32 1600.00 0.56
  L 1600.00 4.81
  Q 1599.37 8.44 1600.00 12.06
  L 1600.00 39.81
  Q 1599.37 45.19 1600.00 50.56
  L 1600.00 51.81
  Q 1599.37 76.44 1600.00 101.06
  L 1600.00 106.81
  Q 1599.37 109.06 1600.00 111.31
  L 1600.00 122.81
  Q 1599.37 139.56 1600.00 156.31
  L 1600.00 163.81
  Q 1599.37 174.06 1600.00 184.31
  L 1600.00 196.81
  Q 1599.37 199.56 1600.00 202.31
  L 1600.00 291.81
  Q 1599.37 296.06 1600.00 300.31
  L 1600.00 326.81
  Q 1599.37 330.56 1600.00 334.31
  L 1600.00 336.81
  Q 1599.37 340.06 1600.00 343.31
  L 1600.00 451.81
  Q 1599.37 462.06 1600.00 472.31
  L 1600.00 474.81
  Q 1599.37 477.56 1600.00 480.31
  L 1600.00 514.81
  Q 1599.37 518.56 1600.00 522.31
  L 1600.00 522.81
  Q 1599.37 525.06 1600.00 527.31
  L 1600.00 603.56
  Q 1599.37 605.81 1600.00 608.06
  L 1600.00 631.81
  Q 1598.99 631.24 1598.99 629.50
  Q 1599.04 263.94 1598.99 199.00
  Q 1598.97 176.13 1599.18 165.50
  C 1599.23 162.83 1597.13 163.49 1595.44 162.67
  Q 1462.02 98.20 1328.70 33.54
  Q 1327.28 32.85 1325.75 32.54
  Q 1323.45 31.91 1321.07 31.66
  Q 1201.40 18.88 1081.74 6.06
  C 1066.08 4.38 1050.44 2.50 1034.76 0.97
  Q 1033.63 0.86 1034.06 0.00
  Z"
/>
<path fill="#bdc0cd" d="
  M 1573.81 0.00
  L 1600.00 0.00
  L 1600.00 0.56
  Q 1598.21 -0.32 1599.10 1.01
  A 1.03 0.97 28.5 0 1 1599.27 1.53
  C 1599.36 3.64 1599.00 5.89 1599.00 7.76
  Q 1599.01 64.79 1599.02 121.82
  Q 1599.02 122.55 1598.74 123.10
  Q 1598.67 123.24 1598.60 123.37
  Q 1598.04 124.39 1597.99 123.22
  Q 1597.86 120.19 1597.93 117.16
  C 1598.09 110.56 1591.66 107.35 1591.97 100.41
  Q 1592.03 99.12 1591.75 98.10
  Q 1585.23 74.42 1580.12 50.41
  C 1578.12 40.98 1576.61 31.97 1573.28 22.90
  A 1.00 0.99 -21.7 0 0 1571.95 22.33
  Q 1555.49 29.44 1539.03 36.50
  Q 1537.96 36.96 1536.76 36.75
  A 1.04 1.04 0.0 0 0 1536.18 36.82
  C 1532.58 38.40 1527.47 41.77 1523.58 41.58
  Q 1482.91 39.64 1442.24 37.92
  C 1427.31 37.29 1410.79 35.94 1395.00 35.46
  C 1391.35 35.34 1388.25 34.81 1384.32 35.02
  Q 1380.18 35.24 1376.17 34.08
  C 1374.00 33.45 1372.04 33.82 1369.83 33.51
  A 1.02 1.01 37.5 0 0 1369.29 33.58
  Q 1367.29 34.45 1365.37 33.56
  A 1.01 0.98 -38.9 0 0 1364.70 33.50
  C 1359.58 34.79 1353.83 33.19 1348.76 32.45
  Q 1348.22 32.37 1347.68 32.12
  Q 1344.87 30.81 1347.92 30.23
  Q 1351.46 29.56 1355.04 29.35
  Q 1358.24 29.16 1361.89 28.41
  C 1363.69 28.04 1371.62 27.88 1372.12 27.32
  A 0.80 0.80 0.0 0 1 1372.72 27.05
  C 1377.19 27.09 1380.85 25.56 1386.19 24.80
  Q 1388.51 24.48 1392.97 24.41
  C 1401.05 24.30 1409.18 22.29 1417.35 22.08
  C 1418.87 22.04 1420.63 21.05 1421.75 20.99
  C 1428.57 20.61 1435.98 19.25 1442.01 18.76
  C 1457.21 17.50 1469.36 15.66 1482.77 14.78
  Q 1488.54 14.40 1494.65 13.44
  C 1503.22 12.09 1512.88 11.93 1520.42 10.91
  Q 1527.23 9.99 1534.03 8.98
  C 1540.73 7.98 1549.29 7.98 1556.94 6.32
  C 1563.82 4.82 1568.33 5.61 1573.81 0.00
  Z"
/>
<path fill="#faf9fc" d="
  M 1600.00 4.81
  L 1600.00 12.06
  Q 1599.37 8.44 1600.00 4.81
  Z"
/>
<path fill="#f6e6f3" d="
  M 0.06 4.86
  Q 8.28 10.12 15.01 17.20
  Q 19.35 21.77 19.44 21.86
  Q 94.36 97.52 169.76 172.69
  C 166.83 174.88 164.31 178.04 162.23 179.91
  Q 90.39 244.44 18.45 308.86
  Q 15.21 311.77 10.05 316.10
  Q 6.44 319.12 2.90 322.24
  Q 1.26 323.68 1.24 321.50
  L 0.00 219.44
  L 0.06 4.86
  Z"
/>
<path fill="#d8cade" d="
  M 1325.75 32.54
  Q 1327.28 32.85 1328.70 33.54
  Q 1462.02 98.20 1595.44 162.67
  C 1597.13 163.49 1599.23 162.83 1599.18 165.50
  Q 1598.97 176.13 1598.99 199.00
  Q 1599.04 263.94 1598.99 629.50
  Q 1598.99 631.24 1600.00 631.81
  L 1600.00 640.00
  L 1459.09 639.88
  Q 1442.91 618.73 1425.25 598.79
  L 1424.96 598.50
  Q 1426.32 597.27 1425.23 596.51
  A 1.04 1.04 0.0 0 1 1424.81 595.86
  Q 1375.58 316.05 1326.60 36.18
  Q 1326.35 34.77 1325.71 33.50
  L 1325.75 32.54
  Z"
/>
<path fill="#c6c7dd" d="
  M 1325.71 33.50
  Q 1326.35 34.77 1326.60 36.18
  Q 1375.58 316.05 1424.81 595.86
  A 1.04 1.04 0.0 0 0 1425.23 596.51
  Q 1426.32 597.27 1424.96 598.50
  L 905.29 353.50
  Q 905.70 350.97 908.25 349.76
  Q 913.47 347.28 919.43 342.68
  C 964.99 307.55 1005.76 276.83 1027.31 260.31
  C 1063.71 232.40 1091.89 210.69 1119.48 189.77
  C 1181.65 142.64 1243.43 94.99 1305.68 47.97
  C 1310.85 44.06 1320.72 34.41 1325.71 33.50
  Z"
/>
<path fill="#faf9fc" d="
  M 1600.00 39.81
  L 1600.00 50.56
  Q 1599.37 45.19 1600.00 39.81
  Z"
/>
<path fill="#faf9fc" d="
  M 1600.00 51.81
  L 1600.00 101.06
  Q 1599.37 76.44 1600.00 51.81
  Z"
/>
<path fill="#e1e7f4" d="
  M 448.00 62.79
  L 452.00 63.54
  Q 452.14 63.84 452.41 63.97
  A 0.64 0.64 0.0 0 1 452.74 64.73
  Q 423.85 159.80 395.15 254.93
  C 394.28 257.83 392.42 262.28 391.63 266.22
  C 391.24 268.14 390.23 269.49 389.50 271.29
  L 387.29 270.50
  L 172.50 173.96
  Q 172.69 173.70 172.92 173.78
  A 0.26 0.26 0.0 0 0 173.25 173.63
  Q 174.18 171.18 175.44 170.69
  C 211.32 157.01 247.29 143.51 282.93 129.21
  C 303.63 120.91 324.63 113.41 345.40 105.28
  Q 374.75 93.80 404.22 82.61
  C 409.97 80.43 418.69 76.55 426.20 74.10
  Q 428.38 73.39 431.59 71.90
  C 434.74 70.44 438.10 69.74 441.18 68.23
  Q 443.29 67.20 445.45 66.31
  A 1.04 0.98 -86.7 0 0 445.95 65.84
  L 446.65 64.49
  A 0.82 0.81 -76.0 0 1 447.37 64.05
  Q 448.32 64.07 448.00 62.79
  Z"
/>
<path fill="#d6e3f2" d="
  M 452.00 63.54
  L 458.25 64.71
  L 634.34 115.19
  A 1.06 1.03 76.1 0 1 634.79 115.47
  Q 717.46 203.75 800.95 293.30
  Q 801.80 294.22 801.83 295.12
  Q 801.86 296.15 801.41 297.24
  Q 788.78 296.68 775.93 295.87
  C 647.21 287.72 518.46 279.93 389.75 271.54
  L 389.50 271.29
  C 390.23 269.49 391.24 268.14 391.63 266.22
  C 392.42 262.28 394.28 257.83 395.15 254.93
  Q 423.85 159.80 452.74 64.73
  A 0.64 0.64 0.0 0 0 452.41 63.97
  Q 452.14 63.84 452.00 63.54
  Z"
/>
<path fill="#faf9fc" d="
  M 1600.00 106.81
  L 1600.00 111.31
  Q 1599.37 109.06 1600.00 106.81
  Z"
/>
<path fill="#faf9fc" d="
  M 1600.00 122.81
  L 1600.00 156.31
  Q 1599.37 139.56 1600.00 122.81
  Z"
/>
<path fill="#faf9fc" d="
  M 1600.00 163.81
  L 1600.00 184.31
  Q 1599.37 174.06 1600.00 163.81
  Z"
/>
<path fill="#faf9fc" d="
  M 169.76 172.69
  L 172.50 173.96
  L 387.29 270.50
  Q 386.43 271.86 386.67 273.49
  A 1.02 1.02 0.0 0 1 386.14 274.52
  Q 381.38 276.99 378.42 279.07
  C 373.28 282.69 369.98 284.72 366.12 287.84
  C 359.52 293.18 352.26 297.14 345.81 302.81
  C 343.06 305.23 338.44 306.93 336.38 311.11
  A 0.96 0.95 1.6 0 1 335.87 311.59
  C 334.69 312.10 334.07 312.14 333.24 313.24
  Q 329.22 318.57 324.47 323.33
  A 1.01 1.01 0.0 0 0 324.18 323.93
  Q 323.80 327.59 320.00 326.87
  Q 317.62 326.41 317.43 328.25
  C 317.06 331.86 313.43 334.60 310.36 338.08
  C 307.88 340.89 304.53 342.79 301.70 345.45
  C 300.10 346.95 300.24 349.14 298.74 350.88
  C 294.98 355.23 291.06 358.24 288.14 363.26
  Q 288.01 363.48 287.78 363.62
  Q 284.83 365.34 282.50 367.83
  C 280.72 369.72 279.53 372.60 276.98 374.80
  Q 276.92 374.85 276.87 374.91
  Q 274.35 377.86 271.95 377.96
  Q 270.14 378.04 268.91 380.24
  A 1.02 1.01 -82.7 0 1 268.29 380.72
  L 265.17 381.56
  A 0.99 0.98 -85.6 0 0 264.51 382.13
  Q 263.49 384.53 261.69 386.38
  A 1.01 0.98 22.2 0 1 260.95 386.68
  L 256.20 386.56
  A 0.97 0.96 -63.7 0 0 255.56 386.78
  Q 253.27 388.57 253.81 391.24
  C 254.13 392.80 255.45 393.28 255.43 395.25
  A 1.04 1.02 -20.8 0 1 255.09 395.99
  L 251.27 399.38
  A 1.01 1.01 0.0 0 1 250.11 399.50
  Q 247.54 398.03 244.67 398.91
  A 1.01 1.00 1.2 0 0 244.03 399.52
  Q 242.75 402.88 240.16 405.02
  C 237.80 406.95 233.41 407.40 230.29 409.13
  A 0.98 0.98 0.0 0 0 229.89 409.53
  Q 228.34 412.42 225.90 414.54
  C 223.34 416.76 222.30 419.07 220.26 421.52
  C 217.63 424.66 216.34 428.57 213.90 431.93
  Q 212.95 433.26 209.20 436.73
  C 205.76 439.91 203.97 444.23 199.99 446.89
  Q 199.76 447.04 199.64 447.28
  C 197.95 450.68 195.47 452.87 194.55 456.65
  A 1.01 0.99 -15.1 0 1 194.25 457.16
  Q 191.12 459.98 189.34 463.78
  C 188.37 465.84 186.86 466.95 185.74 468.84
  Q 184.16 471.48 183.08 472.59
  C 180.37 475.38 175.31 479.10 175.34 483.26
  A 1.01 1.00 -14.7 0 1 174.82 484.14
  L 171.66 485.88
  A 1.01 1.01 0.0 0 0 171.17 486.51
  Q 170.05 490.93 166.95 494.05
  C 164.84 496.18 163.47 499.78 160.83 500.67
  A 1.03 1.02 4.5 0 0 160.26 501.15
  Q 157.37 506.72 152.40 510.44
  A 1.01 0.98 -9.6 0 0 152.04 510.93
  Q 149.96 517.27 144.00 520.45
  A 1.01 1.00 -16.4 0 0 143.47 521.41
  Q 143.62 523.38 142.20 524.41
  A 1.05 1.01 81.2 0 0 141.83 524.94
  Q 140.98 527.80 138.11 528.47
  A 1.02 0.97 13.8 0 0 137.62 528.75
  Q 135.30 531.16 134.85 534.35
  A 1.00 1.00 0.0 0 1 134.40 535.06
  Q 130.11 537.78 128.04 542.56
  A 1.00 0.95 50.9 0 0 127.99 543.21
  Q 128.20 544.05 127.58 544.01
  A 0.63 0.63 0.0 0 0 126.94 544.45
  C 126.19 546.75 123.51 548.33 121.92 550.23
  A 1.02 0.93 10.8 0 1 121.40 550.55
  C 116.90 551.71 119.91 557.52 115.38 556.93
  A 1.03 1.02 -54.5 0 0 114.79 557.03
  L 113.85 557.51
  A 1.01 1.00 59.3 0 0 113.48 558.97
  L 115.66 562.13
  A 0.99 0.97 -6.6 0 0 116.15 562.51
  Q 117.49 562.98 118.15 564.26
  A 1.00 0.98 1.4 0 0 118.57 564.69
  Q 120.25 565.57 120.77 565.98
  C 133.87 576.34 148.16 585.13 161.29 595.00
  Q 166.66 599.03 172.27 602.72
  C 183.12 609.85 193.20 617.47 203.67 624.87
  C 206.01 626.52 215.34 633.37 215.99 635.80
  Q 216.31 637.01 215.98 638.30
  A 1.01 1.01 0.0 0 0 216.91 639.55
  L 227.94 640.00
  L 0.00 640.00
  L 0.00 219.44
  L 1.24 321.50
  Q 1.26 323.68 2.90 322.24
  Q 6.44 319.12 10.05 316.10
  Q 15.21 311.77 18.45 308.86
  Q 90.39 244.44 162.23 179.91
  C 164.31 178.04 166.83 174.88 169.76 172.69
  Z"
/>
<path fill="#f2f8fb" d="
  M 1600.00 196.81
  L 1600.00 202.31
  Q 1599.37 199.56 1600.00 196.81
  Z"
/>
<path fill="#f2f8fb" d="
  M 387.29 270.50
  L 389.50 271.29
  L 389.75 271.54
  C 379.68 322.63 368.40 373.48 357.78 424.45
  Q 346.29 479.61 334.60 534.72
  C 327.86 566.49 321.53 598.33 314.54 630.06
  C 313.82 633.33 313.74 636.65 313.44 640.00
  L 227.94 640.00
  L 216.91 639.55
  A 1.01 1.01 0.0 0 1 215.98 638.30
  Q 216.31 637.01 215.99 635.80
  C 215.34 633.37 206.01 626.52 203.67 624.87
  C 193.20 617.47 183.12 609.85 172.27 602.72
  Q 166.66 599.03 161.29 595.00
  C 148.16 585.13 133.87 576.34 120.77 565.98
  Q 120.25 565.57 118.57 564.69
  A 1.00 0.98 1.4 0 1 118.15 564.26
  Q 117.49 562.98 116.15 562.51
  A 0.99 0.97 -6.6 0 1 115.66 562.13
  L 113.48 558.97
  A 1.01 1.00 59.3 0 1 113.85 557.51
  L 114.79 557.03
  A 1.03 1.02 -54.5 0 1 115.38 556.93
  C 119.91 557.52 116.90 551.71 121.40 550.55
  A 1.02 0.93 10.8 0 0 121.92 550.23
  C 123.51 548.33 126.19 546.75 126.94 544.45
  A 0.63 0.63 0.0 0 1 127.58 544.01
  Q 128.20 544.05 127.99 543.21
  A 1.00 0.95 50.9 0 1 128.04 542.56
  Q 130.11 537.78 134.40 535.06
  A 1.00 1.00 0.0 0 0 134.85 534.35
  Q 135.30 531.16 137.62 528.75
  A 1.02 0.97 13.8 0 1 138.11 528.47
  Q 140.98 527.80 141.83 524.94
  A 1.05 1.01 81.2 0 1 142.20 524.41
  Q 143.62 523.38 143.47 521.41
  A 1.01 1.00 -16.4 0 1 144.00 520.45
  Q 149.96 517.27 152.04 510.93
  A 1.01 0.98 -9.6 0 1 152.40 510.44
  Q 157.37 506.72 160.26 501.15
  A 1.03 1.02 4.5 0 1 160.83 500.67
  C 163.47 499.78 164.84 496.18 166.95 494.05
  Q 170.05 490.93 171.17 486.51
  A 1.01 1.01 0.0 0 1 171.66 485.88
  L 174.82 484.14
  A 1.01 1.00 -14.7 0 0 175.34 483.26
  C 175.31 479.10 180.37 475.38 183.08 472.59
  Q 184.16 471.48 185.74 468.84
  C 186.86 466.95 188.37 465.84 189.34 463.78
  Q 191.12 459.98 194.25 457.16
  A 1.01 0.99 -15.1 0 0 194.55 456.65
  C 195.47 452.87 197.95 450.68 199.64 447.28
  Q 199.76 447.04 199.99 446.89
  C 203.97 444.23 205.76 439.91 209.20 436.73
  Q 212.95 433.26 213.90 431.93
  C 216.34 428.57 217.63 424.66 220.26 421.52
  C 222.30 419.07 223.34 416.76 225.90 414.54
  Q 228.34 412.42 229.89 409.53
  A 0.98 0.98 0.0 0 1 230.29 409.13
  C 233.41 407.40 237.80 406.95 240.16 405.02
  Q 242.75 402.88 244.03 399.52
  A 1.01 1.00 1.2 0 1 244.67 398.91
  Q 247.54 398.03 250.11 399.50
  A 1.01 1.01 0.0 0 0 251.27 399.38
  L 255.09 395.99
  A 1.04 1.02 -20.8 0 0 255.43 395.25
  C 255.45 393.28 254.13 392.80 253.81 391.24
  Q 253.27 388.57 255.56 386.78
  A 0.97 0.96 -63.7 0 1 256.20 386.56
  L 260.95 386.68
  A 1.01 0.98 22.2 0 0 261.69 386.38
  Q 263.49 384.53 264.51 382.13
  A 0.99 0.98 -85.6 0 1 265.17 381.56
  L 268.29 380.72
  A 1.02 1.01 -82.7 0 0 268.91 380.24
  Q 270.14 378.04 271.95 377.96
  Q 274.35 377.86 276.87 374.91
  Q 276.92 374.85 276.98 374.80
  C 279.53 372.60 280.72 369.72 282.50 367.83
  Q 284.83 365.34 287.78 363.62
  Q 288.01 363.48 288.14 363.26
  C 291.06 358.24 294.98 355.23 298.74 350.88
  C 300.24 349.14 300.10 346.95 301.70 345.45
  C 304.53 342.79 307.88 340.89 310.36 338.08
  C 313.43 334.60 317.06 331.86 317.43 328.25
  Q 317.62 326.41 320.00 326.87
  Q 323.80 327.59 324.18 323.93
  A 1.01 1.01 0.0 0 1 324.47 323.33
  Q 329.22 318.57 333.24 313.24
  C 334.07 312.14 334.69 312.10 335.87 311.59
  A 0.96 0.95 1.6 0 0 336.38 311.11
  C 338.44 306.93 343.06 305.23 345.81 302.81
  C 352.26 297.14 359.52 293.18 366.12 287.84
  C 369.98 284.72 373.28 282.69 378.42 279.07
  Q 381.38 276.99 386.14 274.52
  A 1.02 1.02 0.0 0 0 386.67 273.49
  Q 386.43 271.86 387.29 270.50
  Z"
/>
<path fill="#e5f1f8" d="
  M 389.75 271.54
  C 518.46 279.93 647.21 287.72 775.93 295.87
  Q 788.78 296.68 801.41 297.24
  Q 803.59 296.86 805.04 298.00
  Q 779.45 417.67 753.47 537.26
  C 752.88 539.95 752.54 543.44 751.76 546.51
  A 1.00 0.95 -50.9 0 0 751.81 547.16
  L 791.80 638.03
  A 1.00 0.95 -50.9 0 1 791.85 638.68
  Q 791.52 639.99 792.94 640.00
  L 313.44 640.00
  C 313.74 636.65 313.82 633.33 314.54 630.06
  C 321.53 598.33 327.86 566.49 334.60 534.72
  Q 346.29 479.61 357.78 424.45
  C 368.40 373.48 379.68 322.63 389.75 271.54
  Z"
/>
<path fill="#e1e7f4" d="
  M 1600.00 291.81
  L 1600.00 300.31
  Q 1599.37 296.06 1600.00 291.81
  Z"
/>
<path fill="#c0ddec" d="
  M 805.04 298.00
  C 805.42 297.98 805.59 297.95 805.95 298.14
  Q 853.56 324.56 901.09 351.14
  Q 903.22 352.33 905.21 353.75
  Q 1013.90 573.49 1040.21 626.55
  Q 1044.16 634.52 1046.44 640.00
  L 792.94 640.00
  Q 791.52 639.99 791.85 638.68
  A 1.00 0.95 -50.9 0 0 791.80 638.03
  L 751.81 547.16
  A 1.00 0.95 -50.9 0 1 751.76 546.51
  C 752.54 543.44 752.88 539.95 753.47 537.26
  Q 779.45 417.67 805.04 298.00
  Z"
/>
<path fill="#e1e7f4" d="
  M 1600.00 326.81
  L 1600.00 334.31
  Q 1599.37 330.56 1600.00 326.81
  Z"
/>
<path fill="#faf9fc" d="
  M 1600.00 336.81
  L 1600.00 343.31
  Q 1599.37 340.06 1600.00 336.81
  Z"
/>
<path fill="#a6bfce" d="
  M 905.29 353.50
  L 1424.96 598.50
  L 1425.25 598.79
  Q 1413.29 612.50 1401.88 626.68
  C 1399.10 630.12 1394.54 635.14 1391.44 640.00
  L 1046.44 640.00
  Q 1044.16 634.52 1040.21 626.55
  Q 1013.90 573.49 905.21 353.75
  L 905.29 353.50
  Z"
/>
<path fill="#e9e6f4" d="
  M 1600.00 451.81
  L 1600.00 472.31
  Q 1599.37 462.06 1600.00 451.81
  Z"
/>
<path fill="#e1e7f4" d="
  M 1600.00 474.81
  L 1600.00 480.31
  Q 1599.37 477.56 1600.00 474.81
  Z"
/>
<path fill="#e1e7f4" d="
  M 1600.00 514.81
  L 1600.00 522.31
  Q 1599.37 518.56 1600.00 514.81
  Z"
/>
<path fill="#cfd0e9" d="
  M 1600.00 522.81
  L 1600.00 527.31
  Q 1599.37 525.06 1600.00 522.81
  Z"
/>
<path fill="#c6c7dd" d="
  M 1425.25 598.79
  Q 1442.91 618.73 1459.09 639.88
  L 1391.44 640.00
  C 1394.54 635.14 1399.10 630.12 1401.88 626.68
  Q 1413.29 612.50 1425.25 598.79
  Z"
/>
<path fill="#faf9fc" d="
  M 1600.00 603.56
  L 1600.00 608.06
  Q 1599.37 605.81 1600.00 603.56
  Z"
/>
</svg>
