<?xml version="1.0" encoding="UTF-8" standalone="no"?>
<!DOCTYPE svg PUBLIC "-//W3C//DTD SVG 1.1//EN" "http://www.w3.org/Graphics/SVG/1.1/DTD/svg11.dtd">
<svg xmlns="http://www.w3.org/2000/svg" version="1.1" viewBox="0 0 1530 1369">
<g stroke-width="2.00" fill="none" stroke-linecap="butt">
<path stroke="#4c8000" vector-effect="non-scaling-stroke" d="
  M 781.24 158.53
  A 6.50 6.50 0.0 0 0 774.74 152.03
  L 774.56 152.03
  A 6.50 6.50 0.0 0 0 768.06 158.53
  L 768.06 277.67
  A 6.50 6.50 0.0 0 0 774.56 284.17
  L 774.74 284.17
  A 6.50 6.50 0.0 0 0 781.24 277.67
  L 781.24 158.53"
/>
<path stroke="#4c8000" vector-effect="non-scaling-stroke" d="
  M 730.2415 162.2172
  A 6.46 6.46 0.0 0 0 722.6409 157.1482
  L 722.4840 157.1796
  A 6.46 6.46 0.0 0 0 717.4151 164.7801
  L 740.8385 282.0028
  A 6.46 6.46 0.0 0 0 748.4391 287.0718
  L 748.5960 287.0404
  A 6.46 6.46 0.0 0 0 753.6649 279.4399
  L 730.2415 162.2172"
/>
<path stroke="#4c8000" vector-effect="non-scaling-stroke" d="
  M 831.7466 164.7629
  A 6.47 6.47 0.0 0 0 826.6565 157.1594
  L 826.5191 157.1322
  A 6.47 6.47 0.0 0 0 818.9157 162.2223
  L 795.8134 278.8971
  A 6.47 6.47 0.0 0 0 800.9035 286.5006
  L 801.0409 286.5278
  A 6.47 6.47 0.0 0 0 808.6443 281.4377
  L 831.7466 164.7629"
/>
<path stroke="#4c8000" vector-effect="non-scaling-stroke" d="
  M 681.1504 175.8007
  A 6.48 6.48 0.0 0 0 672.6839 172.2937
  L 672.5545 172.3473
  A 6.48 6.48 0.0 0 0 669.0476 180.8138
  L 714.9696 291.6793
  A 6.48 6.48 0.0 0 0 723.4361 295.1863
  L 723.5655 295.1327
  A 6.48 6.48 0.0 0 0 727.0724 286.6662
  L 681.1504 175.8007"
/>
<path stroke="#4c8000" vector-effect="non-scaling-stroke" d="
  M 880.2319 180.7819
  A 6.48 6.48 0.0 0 0 876.7250 172.3154
  L 876.5956 172.2618
  A 6.48 6.48 0.0 0 0 868.1291 175.7688
  L 822.6281 285.6181
  A 6.48 6.48 0.0 0 0 826.1350 294.0846
  L 826.2644 294.1382
  A 6.48 6.48 0.0 0 0 834.7309 290.6312
  L 880.2319 180.7819"
/>
<path stroke="#4c8000" vector-effect="non-scaling-stroke" d="
  M 635.5411 198.7240
  A 6.50 6.50 0.0 0 0 626.5237 196.9385
  L 626.4240 197.0053
  A 6.50 6.50 0.0 0 0 624.6386 206.0226
  L 691.7389 306.2560
  A 6.50 6.50 0.0 0 0 700.7563 308.0415
  L 700.8560 307.9747
  A 6.50 6.50 0.0 0 0 702.6414 298.9574
  L 635.5411 198.7240"
/>
<path stroke="#4c8000" vector-effect="non-scaling-stroke" d="
  M 924.6350 206.0180
  A 6.50 6.50 0.0 0 0 922.8495 197.0007
  L 922.7498 196.9339
  A 6.50 6.50 0.0 0 0 913.7324 198.7194
  L 848.0450 296.8420
  A 6.50 6.50 0.0 0 0 849.8305 305.8593
  L 849.9302 305.9261
  A 6.50 6.50 0.0 0 0 858.9476 304.1406
  L 924.6350 206.0180"
/>
<path stroke="#4c8000" vector-effect="non-scaling-stroke" d="
  M 681.1476 324.9569
  A 6.48 6.48 0.0 0 0 681.1476 315.7928
  L 595.3472 229.9924
  A 6.48 6.48 0.0 0 0 586.1831 229.9924
  L 586.1124 230.0631
  A 6.48 6.48 0.0 0 0 586.1124 239.2272
  L 671.9128 325.0276
  A 6.48 6.48 0.0 0 0 681.0769 325.0276
  L 681.1476 324.9569"
/>
<path stroke="#4c8000" vector-effect="non-scaling-stroke" d="
  M 963.1203 230.0449
  A 6.56 6.56 0.0 0 0 953.8430 230.0449
  L 869.6549 314.2330
  A 6.56 6.56 0.0 0 0 869.6549 323.5103
  L 869.7397 323.5951
  A 6.56 6.56 0.0 0 0 879.0170 323.5951
  L 963.2051 239.4070
  A 6.56 6.56 0.0 0 0 963.2051 230.1297
  L 963.1203 230.0449"
/>
<path stroke="#4c8000" vector-effect="non-scaling-stroke" d="
  M 665.2691 345.3627
  A 6.49 6.49 0.0 0 0 663.4707 336.3623
  L 561.9889 268.6824
  A 6.49 6.49 0.0 0 0 552.9886 270.4809
  L 552.9109 270.5973
  A 6.49 6.49 0.0 0 0 554.7093 279.5977
  L 656.1911 347.2776
  A 6.49 6.49 0.0 0 0 665.1914 345.4791
  L 665.2691 345.3627"
/>
<path stroke="#4c8000" vector-effect="non-scaling-stroke" d="
  M 996.2277 270.3800
  A 6.49 6.49 0.0 0 0 987.2242 268.5973
  L 887.8883 335.0968
  A 6.49 6.49 0.0 0 0 886.1056 344.1003
  L 886.1723 344.2000
  A 6.49 6.49 0.0 0 0 895.1758 345.9827
  L 994.5117 279.4832
  A 6.49 6.49 0.0 0 0 996.2944 270.4797
  L 996.2277 270.3800"
/>
<path stroke="#4c8000" vector-effect="non-scaling-stroke" d="
  M 653.7320 368.4204
  A 6.48 6.48 0.0 0 0 650.2251 359.9539
  L 536.8281 312.9833
  A 6.48 6.48 0.0 0 0 528.3616 316.4903
  L 528.3080 316.6196
  A 6.48 6.48 0.0 0 0 531.8149 325.0861
  L 645.2119 372.0567
  A 6.48 6.48 0.0 0 0 653.6784 368.5497
  L 653.7320 368.4204"
/>
<path stroke="#4c8000" vector-effect="non-scaling-stroke" d="
  M 1020.9304 316.4931
  A 6.48 6.48 0.0 0 0 1012.4639 312.9861
  L 901.5429 358.9311
  A 6.48 6.48 0.0 0 0 898.0360 367.3976
  L 898.0896 367.5269
  A 6.48 6.48 0.0 0 0 906.5561 371.0339
  L 1017.4771 325.0889
  A 6.48 6.48 0.0 0 0 1020.9840 316.6224
  L 1020.9304 316.4931"
/>
<path stroke="#4c8000" vector-effect="non-scaling-stroke" d="
  M 647.0047 393.0681
  A 6.47 6.47 0.0 0 0 641.9147 385.4646
  L 520.8059 361.4845
  A 6.47 6.47 0.0 0 0 513.2025 366.5746
  L 513.1753 366.7119
  A 6.47 6.47 0.0 0 0 518.2653 374.3154
  L 639.3741 398.2955
  A 6.47 6.47 0.0 0 0 646.9775 393.2054
  L 647.0047 393.0681"
/>
<path stroke="#4c8000" vector-effect="non-scaling-stroke" d="
  M 1036.0996 366.4243
  A 6.47 6.47 0.0 0 0 1028.4872 361.3475
  L 910.1859 384.9864
  A 6.47 6.47 0.0 0 0 905.1091 392.5988
  L 905.1404 392.7557
  A 6.47 6.47 0.0 0 0 912.7528 397.8325
  L 1031.0541 374.1936
  A 6.47 6.47 0.0 0 0 1036.1309 366.5812
  L 1036.0996 366.4243"
/>
<path stroke="#4c8000" vector-effect="non-scaling-stroke" d="
  M 645.19 418.43
  A 6.42 6.42 0.0 0 0 638.77 412.01
  L 514.43 412.01
  A 6.42 6.42 0.0 0 0 508.01 418.43
  L 508.01 418.59
  A 6.42 6.42 0.0 0 0 514.43 425.01
  L 638.77 425.01
  A 6.42 6.42 0.0 0 0 645.19 418.59
  L 645.19 418.43"
/>
<path stroke="#4c8000" vector-effect="non-scaling-stroke" d="
  M 1041.25 418.42
  A 6.41 6.41 0.0 0 0 1034.84 412.01
  L 913.40 412.01
  A 6.41 6.41 0.0 0 0 906.99 418.42
  L 906.99 418.60
  A 6.41 6.41 0.0 0 0 913.40 425.01
  L 1034.84 425.01
  A 6.41 6.41 0.0 0 0 1041.25 418.60
  L 1041.25 418.42"
/>
<path stroke="#4c8000" vector-effect="non-scaling-stroke" d="
  M 648.2787 443.5609
  A 6.47 6.47 0.0 0 0 640.6663 438.4841
  L 518.2268 462.9499
  A 6.47 6.47 0.0 0 0 513.1500 470.5622
  L 513.1813 470.7191
  A 6.47 6.47 0.0 0 0 520.7937 475.7959
  L 643.2332 451.3301
  A 6.47 6.47 0.0 0 0 648.3100 443.7178
  L 648.2787 443.5609"
/>
<path stroke="#4c8000" vector-effect="non-scaling-stroke" d="
  M 1036.1081 470.5581
  A 6.46 6.46 0.0 0 0 1031.0392 462.9575
  L 911.4238 439.0560
  A 6.46 6.46 0.0 0 0 903.8232 444.1250
  L 903.7919 444.2819
  A 6.46 6.46 0.0 0 0 908.8608 451.8825
  L 1028.4762 475.7840
  A 6.46 6.46 0.0 0 0 1036.0768 470.7150
  L 1036.1081 470.5581"
/>
<path stroke="#4c8000" vector-effect="non-scaling-stroke" d="
  M 656.3804 467.4870
  A 6.49 6.49 0.0 0 0 647.9008 463.9746
  L 531.8061 512.0626
  A 6.49 6.49 0.0 0 0 528.2937 520.5422
  L 528.3396 520.6530
  A 6.49 6.49 0.0 0 0 536.8192 524.1654
  L 652.9139 476.0774
  A 6.49 6.49 0.0 0 0 656.4263 467.5978
  L 656.3804 467.4870"
/>
<path stroke="#4c8000" vector-effect="non-scaling-stroke" d="
  M 1020.9771 520.5284
  A 6.49 6.49 0.0 0 0 1017.4647 512.0488
  L 901.3885 463.9684
  A 6.49 6.49 0.0 0 0 892.9089 467.4808
  L 892.8629 467.5916
  A 6.49 6.49 0.0 0 0 896.3753 476.0712
  L 1012.4515 524.1516
  A 6.49 6.49 0.0 0 0 1020.9311 520.6392
  L 1020.9771 520.5284"
/>
<path stroke="#7f4001" vector-effect="non-scaling-stroke" d="
  M 555.19 691.06
  Q 589.14 712.55 693.77 777.92
  C 696.82 779.83 698.30 780.99 701.49 780.22
  Q 847.66 744.90 993.83 709.53
  C 1000.29 707.97 1001.50 703.52 998.19 697.86
  Q 889.83 512.20 781.46 326.55
  C 776.98 318.87 771.75 320.00 767.45 327.12
  Q 660.71 503.88 553.97 680.62
  C 551.65 684.47 551.10 688.48 555.19 691.06"
/>
<path stroke="#7f4001" vector-effect="non-scaling-stroke" d="
  M 568.41 683.95
  L 700.25 766.53
  A 1.02 1.02 0.0 0 0 701.02 766.65
  L 981.66 698.07
  A 1.00 1.00 0.0 0 0 982.29 696.60
  L 775.69 341.28
  A 1.00 1.00 0.0 0 0 773.97 341.26
  Q 769.76 348.21 765.58 355.15
  Q 666.91 518.93 568.08 682.59
  A 1.00 0.99 31.5 0 0 568.41 683.95"
/>
<path stroke="#005780" vector-effect="non-scaling-stroke" d="
  M 841.63 695.29
  Q 844.89 690.58 849.49 686.97
  C 870.48 670.51 896.07 669.97 921.45 670.32
  A 0.95 0.94 -62.9 0 0 922.06 670.12
  C 926.16 667.05 924.63 663.86 920.65 662.14
  Q 863.43 637.47 806.17 612.90
  Q 800.03 610.26 794.89 609.29
  C 765.74 603.78 735.52 610.87 714.15 632.16
  A 1.01 0.99 -61.2 0 1 713.26 632.43
  C 674.71 625.19 634.88 637.17 604.13 660.72
  C 601.15 663.00 601.25 666.28 604.70 668.15
  Q 659.41 697.83 713.58 726.92
  Q 715.92 728.18 717.78 726.27
  Q 738.32 705.12 767.69 700.86
  Q 784.71 698.39 801.75 700.03
  Q 809.37 700.76 801.77 701.62
  Q 770.54 705.15 743.31 719.82
  Q 729.45 727.29 717.99 739.78
  A 1.01 1.00 36.2 0 1 716.76 739.97
  L 600.55 675.16
  A 0.99 0.97 -38.4 0 0 599.79 675.08
  C 593.15 676.97 595.52 681.59 599.76 683.96
  Q 658.50 716.75 717.11 749.38
  Q 719.55 750.74 721.30 748.58
  C 744.90 719.50 794.66 704.82 830.18 709.59
  Q 834.55 710.18 836.12 710.24
  A 1.03 0.98 27.1 0 0 836.73 710.06
  C 868.75 687.40 908.79 679.47 946.86 689.46
  C 950.62 690.44 953.79 689.69 953.53 685.13
  Q 953.39 682.73 951.01 682.11
  Q 893.36 667.09 842.69 696.44
  Q 839.60 698.23 841.63 695.29"
/>
<path stroke="#005780" vector-effect="non-scaling-stroke" d="
  M 774.00 509.48
  L 774.00 453.31
  A 0.99 0.99 0.0 0 1 775.05 452.32
  Q 778.41 452.50 780.44 454.87
  C 783.62 458.58 779.33 465.90 787.52 465.99
  Q 794.95 466.08 802.52 465.92
  A 1.00 1.00 0.0 0 0 803.50 464.92
  L 803.50 456.00
  A 1.00 1.00 0.0 0 0 802.50 455.00
  L 793.75 455.00
  A 1.00 1.00 0.0 0 1 792.75 454.00
  L 792.75 451.25
  A 1.00 1.00 0.0 0 1 793.75 450.25
  L 802.50 450.25
  A 1.00 1.00 0.0 0 0 803.50 449.25
  L 803.50 439.96
  A 1.00 1.00 0.0 0 0 802.46 438.96
  L 793.79 439.28
  A 1.01 1.00 -0.8 0 1 792.75 438.28
  L 792.75 435.25
  A 1.00 1.00 0.0 0 1 793.75 434.25
  L 802.50 434.25
  A 1.00 1.00 0.0 0 0 803.50 433.25
  L 803.50 424.25
  A 1.00 1.00 0.0 0 0 802.50 423.25
  Q 795.30 423.23 788.09 423.27
  C 784.48 423.29 781.66 425.04 781.71 428.77
  Q 781.80 436.27 775.11 436.87
  A 1.00 1.00 0.0 0 1 774.02 435.87
  Q 774.02 433.59 773.99 431.32
  C 773.78 417.90 756.75 417.99 756.75 431.39
  Q 756.76 470.36 756.73 509.48
  A 1.00 1.00 0.0 0 1 755.51 510.45
  Q 742.23 507.48 732.57 515.80
  C 718.14 528.21 723.65 550.12 740.63 557.18
  A 0.99 0.99 0.0 0 1 741.24 558.19
  Q 739.69 574.40 750.90 582.37
  C 769.22 595.38 792.93 580.19 789.38 558.32
  A 1.01 1.00 75.0 0 1 790.01 557.22
  C 805.93 551.13 811.64 532.07 800.63 518.62
  Q 791.43 507.38 775.19 510.46
  A 1.00 1.00 0.0 0 1 774.00 509.48"
/>
<path stroke="#005780" vector-effect="non-scaling-stroke" d="
  M 756.7629 532.7917
  A 7.50 7.50 0.0 0 0 748.9679 525.5988
  L 747.5690 525.6549
  A 7.50 7.50 0.0 0 0 740.3761 533.4499
  L 740.4571 535.4683
  A 7.50 7.50 0.0 0 0 748.2521 542.6612
  L 749.6510 542.6051
  A 7.50 7.50 0.0 0 0 756.8439 534.8101
  L 756.7629 532.7917"
/>
<path stroke="#005780" vector-effect="non-scaling-stroke" d="
  M 790.3270 533.3431
  A 7.47 7.47 0.0 0 0 783.0819 525.6548
  L 781.6625 525.6127
  A 7.47 7.47 0.0 0 0 773.9742 532.8578
  L 773.9130 534.9169
  A 7.47 7.47 0.0 0 0 781.1581 542.6052
  L 782.5775 542.6473
  A 7.47 7.47 0.0 0 0 790.2658 535.4022
  L 790.3270 533.3431"
/>
<path stroke="#005780" vector-effect="non-scaling-stroke" d="
  M 773.7973 562.0574
  A 7.60 7.60 0.0 0 0 766.0789 554.5777
  L 764.3791 554.6044
  A 7.60 7.60 0.0 0 0 756.8994 562.3228
  L 756.9227 563.8026
  A 7.60 7.60 0.0 0 0 764.6411 571.2823
  L 766.3409 571.2556
  A 7.60 7.60 0.0 0 0 773.8206 563.5372
  L 773.7973 562.0574"
/>
<path stroke="#005780" vector-effect="non-scaling-stroke" d="
  M 723.12 636.60
  L 830.49 695.70
  A 1.00 0.99 -59.8 0 0 831.83 695.34
  Q 838.30 684.54 848.83 677.32
  Q 862.55 667.89 881.52 664.59
  Q 889.18 663.25 896.93 662.39
  Q 899.92 662.05 897.16 660.86
  Q 849.73 640.35 802.24 620.02
  C 790.80 615.12 776.10 615.06 763.93 616.61
  Q 740.66 619.57 722.94 634.97
  A 1.00 1.00 0.0 0 0 723.12 636.60"
/>
<path stroke="#005780" vector-effect="non-scaling-stroke" d="
  M 615.00 664.60
  L 713.82 717.92
  A 1.02 1.01 -52.6 0 0 714.99 717.76
  C 736.59 696.97 765.31 689.76 794.68 691.44
  Q 799.19 691.69 803.74 691.97
  Q 807.28 692.19 804.18 690.47
  Q 760.16 666.13 716.01 641.99
  Q 713.13 640.42 710.11 639.94
  Q 683.46 635.75 657.45 643.18
  Q 634.82 649.64 614.92 662.88
  A 1.01 1.01 0.0 0 0 615.00 664.60"
/>
<path stroke="#7f4001" vector-effect="non-scaling-stroke" d="
  M 467.52 874.72
  Q 469.04 879.81 468.38 885.13
  A 1.01 1.00 3.3 0 0 469.38 886.25
  L 489.62 886.25
  A 1.00 1.00 0.0 0 0 490.62 885.29
  Q 491.25 867.99 490.38 861.17
  Q 489.28 852.53 480.99 852.52
  Q 433.64 852.49 386.29 852.50
  C 377.27 852.50 370.97 852.98 370.88 863.53
  Q 370.75 880.22 370.80 885.26
  A 1.00 1.00 0.0 0 0 371.80 886.25
  L 392.05 886.25
  A 1.00 1.00 0.0 0 0 393.05 885.26
  L 393.12 876.49
  Q 393.14 873.94 396.00 873.93
  L 417.00 873.86
  A 1.00 0.99 89.7 0 1 418.00 874.86
  L 418.00 987.80
  A 1.00 1.00 0.0 0 0 419.00 988.80
  L 442.50 988.73
  A 1.00 1.00 0.0 0 0 443.50 987.73
  L 443.50 875.00
  A 1.00 1.00 0.0 0 1 444.50 874.00
  L 466.56 874.00
  A 1.00 1.00 0.0 0 1 467.52 874.72"
/>
<path stroke="#7f4001" vector-effect="non-scaling-stroke" d="
  M 542.56 909.25
  Q 542.49 886.90 542.29 864.57
  Q 542.18 852.49 530.51 852.49
  Q 518.14 852.48 505.75 852.53
  A 1.00 1.00 0.0 0 0 504.75 853.53
  L 504.75 872.77
  A 1.00 1.00 0.0 0 0 505.73 873.77
  L 514.50 873.92
  Q 516.85 873.96 516.95 876.74
  C 517.82 898.84 516.85 919.06 517.03 952.55
  C 517.08 961.93 517.47 976.08 517.03 987.78
  A 1.00 1.00 0.0 0 0 518.03 988.82
  L 541.50 988.72
  A 1.00 1.00 0.0 0 0 542.50 987.72
  L 542.50 932.60
  A 1.00 1.00 0.0 0 1 543.64 931.61
  Q 545.49 931.86 547.37 931.75
  C 565.13 930.65 583.62 931.50 601.47 931.50
  A 1.00 1.00 0.0 0 1 602.44 932.27
  C 602.79 933.72 602.19 935.62 602.20 936.60
  Q 602.43 962.19 602.50 987.79
  A 1.00 1.00 0.0 0 0 603.50 988.79
  L 626.75 988.73
  A 1.00 1.00 0.0 0 0 627.75 987.73
  L 627.75 877.25
  Q 627.75 874.09 631.00 874.03
  L 639.27 873.87
  A 1.00 1.00 0.0 0 0 640.25 872.87
  L 640.25 853.59
  A 1.00 0.99 -89.7 0 0 639.27 852.59
  Q 617.65 852.22 612.55 852.58
  C 604.05 853.17 602.55 859.61 602.53 867.28
  Q 602.47 888.34 602.51 909.25
  A 1.00 1.00 0.0 0 1 601.51 910.25
  L 543.56 910.25
  A 1.00 1.00 0.0 0 1 542.56 909.25"
/>
<path stroke="#7f4001" vector-effect="non-scaling-stroke" d="
  M 695.56 931.74
  A 1.00 0.99 -0.0 0 1 696.56 930.75
  L 738.75 930.75
  A 1.00 1.00 0.0 0 0 739.75 929.75
  L 739.75 910.50
  A 1.00 1.00 0.0 0 0 738.75 909.50
  L 696.50 909.50
  A 1.00 1.00 0.0 0 1 695.50 908.50
  L 695.50 875.00
  A 1.00 1.00 0.0 0 1 696.50 874.00
  L 727.25 873.99
  Q 730.43 873.99 730.45 877.32
  L 730.52 885.26
  A 1.00 0.99 -0.0 0 0 731.52 886.25
  L 752.46 886.25
  A 1.00 1.00 0.0 0 0 753.46 885.27
  Q 753.87 866.29 753.26 862.25
  C 751.98 853.77 746.48 852.55 738.52 852.53
  Q 698.66 852.43 658.75 852.55
  A 1.01 1.00 -0.3 0 0 657.75 853.55
  L 657.75 872.81
  A 1.00 0.99 -0.3 0 0 658.76 873.80
  L 669.46 873.73
  A 1.01 1.00 89.4 0 1 670.47 874.73
  Q 670.55 922.12 670.47 969.52
  C 670.45 982.68 670.00 988.72 685.65 988.74
  Q 715.73 988.78 745.79 988.72
  C 753.18 988.70 757.59 986.02 758.13 978.11
  Q 758.89 967.11 758.37 955.95
  A 1.00 0.99 -1.2 0 0 757.37 955.00
  L 736.51 955.00
  A 1.00 1.00 0.0 0 0 735.51 955.99
  Q 735.47 959.37 735.48 962.76
  Q 735.50 967.49 730.75 967.49
  Q 715.38 967.51 700.00 967.37
  Q 695.67 967.33 695.62 963.00
  Q 695.43 947.03 695.56 931.74"
/>
<path stroke="#7f4001" vector-effect="non-scaling-stroke" d="
  M 904.47 919.47
  A 1.01 1.00 41.2 0 1 904.36 917.84
  Q 906.56 916.02 908.43 913.86
  Q 910.10 911.92 912.11 908.27
  Q 927.01 881.32 941.91 853.98
  A 1.00 1.00 0.0 0 0 941.03 852.50
  L 915.53 852.50
  A 1.00 0.99 13.9 0 0 914.65 853.03
  Q 901.56 877.37 888.44 901.69
  C 886.56 905.18 884.39 907.69 880.49 907.71
  Q 874.31 907.74 868.34 907.99
  A 1.00 0.99 88.0 0 1 867.30 907.01
  Q 866.93 886.73 866.96 867.27
  C 866.97 859.64 865.48 853.02 856.94 852.57
  Q 852.42 852.33 830.24 852.54
  A 1.00 1.00 0.0 0 0 829.25 853.54
  L 829.25 872.81
  A 1.00 1.00 0.0 0 0 830.28 873.81
  Q 833.74 873.71 837.24 873.91
  C 841.96 874.18 841.76 876.55 841.75 880.38
  Q 841.72 934.09 841.79 987.80
  A 1.00 1.00 0.0 0 0 842.79 988.80
  L 865.97 988.73
  A 1.00 0.99 90.0 0 0 866.96 987.73
  L 867.15 930.35
  A 0.99 0.99 0.0 0 1 868.08 929.36
  C 874.82 928.89 884.23 928.28 887.27 934.49
  Q 897.59 955.62 908.22 976.61
  C 912.11 984.29 915.36 988.65 924.00 988.74
  Q 932.86 988.82 941.76 988.71
  A 1.00 1.00 0.0 0 0 942.75 987.71
  L 942.75 968.60
  A 1.02 1.00 2.2 0 0 941.81 967.60
  L 934.00 967.09
  Q 931.48 966.93 930.10 964.16
  Q 920.76 945.49 911.05 926.63
  Q 908.72 922.09 904.47 919.47"
/>
<path stroke="#7f4001" vector-effect="non-scaling-stroke" d="
  M 993.56 931.73
  A 1.00 0.99 -0.0 0 1 994.56 930.74
  L 1036.75 930.77
  A 1.00 1.00 0.0 0 0 1037.75 929.77
  L 1037.75 910.50
  A 1.00 1.00 0.0 0 0 1036.75 909.50
  L 994.50 909.50
  A 1.00 1.00 0.0 0 1 993.50 908.50
  L 993.50 874.86
  A 1.00 1.00 0.0 0 1 994.50 873.86
  L 1025.75 873.80
  Q 1028.12 873.79 1028.21 876.18
  L 1028.53 885.29
  A 1.00 1.00 0.0 0 0 1029.53 886.25
  L 1050.40 886.25
  A 1.00 1.00 0.0 0 0 1051.40 885.28
  Q 1051.91 869.45 1051.15 862.06
  C 1050.31 853.86 1044.06 852.55 1036.58 852.53
  Q 996.70 852.43 956.75 852.56
  A 1.00 1.00 0.0 0 0 955.75 853.56
  L 955.75 872.80
  A 1.01 1.00 0.0 0 0 956.76 873.80
  L 967.28 873.73
  A 1.00 1.00 0.0 0 1 968.29 874.73
  Q 968.19 925.75 968.33 976.74
  Q 968.37 988.75 979.73 988.76
  Q 1010.97 988.77 1042.19 988.72
  C 1049.62 988.71 1055.42 987.19 1056.11 979.07
  Q 1056.80 970.82 1056.37 955.97
  A 1.00 1.00 0.0 0 0 1055.37 955.00
  L 1034.35 955.00
  A 1.00 0.99 1.2 0 0 1033.35 955.95
  Q 1033.17 959.50 1033.24 963.08
  C 1033.30 966.03 1031.85 967.47 1028.99 967.48
  Q 1013.75 967.52 998.50 967.65
  Q 993.55 967.70 993.52 963.00
  Q 993.44 947.14 993.56 931.73"
/>
<path stroke="#7f4001" vector-effect="non-scaling-stroke" d="
  M 1123.23 905.98
  Q 1119.57 898.62 1114.34 889.92
  Q 1100.92 867.57 1095.81 859.64
  Q 1091.26 852.57 1082.76 852.51
  Q 1075.39 852.45 1067.99 852.54
  A 1.00 1.00 0.0 0 0 1067.00 853.54
  L 1067.00 872.92
  A 1.01 1.00 2.2 0 0 1067.93 873.92
  Q 1069.98 874.06 1072.05 874.02
  C 1075.30 873.95 1077.08 874.97 1078.71 877.55
  Q 1095.00 903.30 1111.34 929.03
  A 1.02 0.98 29.7 0 1 1111.50 929.57
  L 1111.50 987.79
  A 1.00 1.00 0.0 0 0 1112.50 988.79
  L 1135.75 988.73
  A 1.00 1.00 0.0 0 0 1136.75 987.73
  L 1136.75 929.75
  A 1.06 1.04 -29.8 0 1 1136.90 929.21
  Q 1153.12 903.51 1169.48 877.88
  C 1172.67 872.88 1175.41 874.38 1180.42 873.66
  A 1.00 0.99 86.0 0 0 1181.27 872.67
  L 1181.26 853.59
  A 1.00 1.00 0.0 0 0 1180.29 852.59
  Q 1172.90 852.36 1165.50 852.43
  Q 1156.90 852.51 1152.82 858.82
  Q 1142.05 875.49 1124.99 906.02
  Q 1124.07 907.68 1123.23 905.98"
/>
<path stroke="#4c8000" vector-effect="non-scaling-stroke" d="
  M 460.69 1063.75
  Q 469.84 1058.01 472.45 1047.23
  C 478.22 1023.43 459.90 1009.59 437.74 1009.52
  Q 412.91 1009.45 388.00 1009.55
  A 1.01 1.00 -0.3 0 0 387.00 1010.55
  L 387.00 1026.67
  A 1.00 1.00 0.0 0 0 388.00 1027.67
  L 396.74 1027.69
  A 1.00 1.00 0.0 0 1 397.74 1028.69
  Q 397.75 1071.31 397.76 1113.92
  C 397.76 1120.77 399.51 1125.57 407.00 1125.71
  Q 419.04 1125.93 442.67 1125.64
  C 467.15 1125.34 484.60 1104.14 475.66 1080.05
  Q 471.87 1069.85 460.81 1065.16
  Q 459.39 1064.56 460.69 1063.75"
/>
<path stroke="#4c8000" vector-effect="non-scaling-stroke" d="
  M 489.82 1083.23
  C 488.76 1133.39 560.63 1144.16 578.36 1100.17
  Q 582.17 1090.71 581.24 1080.80
  C 576.03 1025.26 491.00 1027.56 489.82 1083.23"
/>
<path stroke="#4c8000" vector-effect="non-scaling-stroke" d="
  M 592.10 1082.35
  C 589.86 1131.96 660.90 1144.54 679.99 1101.95
  C 685.08 1090.58 684.65 1076.16 679.23 1064.88
  C 659.77 1024.41 594.19 1035.72 592.10 1082.35"
/>
<path stroke="#4c8000" vector-effect="non-scaling-stroke" d="
  M 748.95 1079.61
  Q 750.90 1078.14 752.33 1076.10
  Q 763.53 1060.02 774.36 1043.61
  Q 775.38 1042.06 773.53 1042.06
  L 752.90 1041.97
  A 1.02 1.01 16.5 0 0 752.05 1042.43
  Q 744.38 1054.37 736.72 1066.32
  C 734.28 1070.13 732.44 1071.69 727.99 1071.71
  Q 723.99 1071.72 722.31 1071.71
  A 1.00 1.00 0.0 0 1 721.32 1070.72
  Q 721.07 1045.44 720.98 1020.12
  C 720.96 1013.48 719.74 1009.75 712.47 1009.60
  Q 701.89 1009.39 691.21 1009.54
  A 1.00 1.00 0.0 0 0 690.22 1010.54
  L 690.26 1026.24
  A 1.00 1.00 0.0 0 0 691.25 1027.24
  L 697.93 1027.29
  Q 700.16 1027.30 700.18 1029.54
  C 700.44 1061.34 699.91 1093.14 700.34 1124.94
  A 1.00 1.00 0.0 0 0 701.34 1125.93
  L 720.18 1125.94
  A 1.01 1.00 90.0 0 0 721.18 1124.93
  L 721.01 1090.18
  A 1.00 0.99 -88.1 0 1 722.07 1089.18
  L 729.26 1089.62
  Q 732.03 1089.80 733.60 1092.79
  Q 740.53 1105.94 747.96 1119.77
  C 750.18 1123.90 753.16 1125.42 758.01 1125.73
  Q 766.46 1126.26 774.93 1125.83
  A 1.00 1.00 0.0 0 0 775.88 1124.82
  L 775.75 1109.37
  A 1.01 1.01 0.0 0 0 774.85 1108.38
  Q 771.69 1108.04 768.49 1108.11
  Q 765.11 1108.18 764.03 1106.21
  Q 758.64 1096.31 753.26 1086.41
  Q 751.60 1083.36 748.92 1081.18
  A 1.00 0.99 -44.0 0 1 748.95 1079.61"
/>
<path stroke="#4c8000" vector-effect="non-scaling-stroke" d="
  M 868.44 1059.75
  Q 868.47 1075.68 868.56 1091.59
  Q 868.62 1101.81 869.76 1105.91
  C 874.60 1123.30 892.66 1128.32 908.62 1126.44
  A 1.00 1.00 0.0 0 0 909.50 1125.45
  L 909.50 1109.33
  A 1.00 0.99 88.9 0 0 908.47 1108.33
  Q 906.97 1108.38 905.55 1108.34
  Q 889.32 1108.00 889.29 1091.75
  Q 889.26 1075.78 889.27 1059.75
  A 1.00 1.00 0.0 0 1 890.27 1058.75
  L 907.25 1058.75
  A 1.00 1.00 0.0 0 0 908.25 1057.75
  L 908.25 1042.98
  A 1.00 0.99 89.7 0 0 907.25 1041.98
  L 890.25 1042.05
  A 1.00 1.00 0.0 0 1 889.25 1041.05
  L 889.25 1020.25
  A 1.00 1.00 0.0 0 0 888.25 1019.25
  L 870.01 1019.25
  A 1.01 1.00 -89.7 0 0 869.01 1020.25
  L 868.96 1041.00
  A 1.00 1.00 0.0 0 1 867.96 1042.00
  L 858.50 1042.00
  A 1.00 1.00 0.0 0 0 857.50 1043.00
  L 857.50 1057.75
  A 1.00 1.00 0.0 0 0 858.50 1058.75
  L 867.44 1058.75
  A 1.00 1.00 0.0 0 1 868.44 1059.75"
/>
<path stroke="#4c8000" vector-effect="non-scaling-stroke" d="
  M 784.50 1059.48
  C 779.72 1081.12 804.01 1089.05 819.68 1095.33
  C 824.24 1097.16 831.54 1101.74 826.94 1107.75
  C 822.66 1113.35 811.94 1111.75 806.50 1109.48
  Q 798.67 1106.21 792.70 1100.04
  A 1.00 0.99 -49.3 0 0 791.17 1100.16
  L 782.45 1112.38
  A 1.00 1.00 0.0 0 0 782.57 1113.69
  Q 801.27 1131.51 826.95 1126.49
  C 853.67 1121.26 857.49 1089.87 831.69 1079.54
  Q 821.65 1075.52 811.64 1071.43
  C 808.00 1069.95 803.46 1066.40 804.67 1062.33
  C 806.85 1054.94 822.84 1054.32 826.61 1059.97
  Q 828.03 1062.10 827.60 1065.11
  A 1.00 1.00 0.0 0 0 828.59 1066.25
  L 844.79 1066.25
  A 1.00 1.00 0.0 0 0 845.79 1065.25
  Q 845.79 1061.62 845.73 1057.98
  C 845.52 1044.84 831.72 1041.46 821.37 1040.41
  C 807.13 1038.97 788.05 1043.39 784.50 1059.48"
/>
<path stroke="#4c8000" vector-effect="non-scaling-stroke" d="
  M 437.95 1057.20
  C 456.87 1055.50 455.02 1027.71 439.48 1027.76
  Q 429.84 1027.78 420.01 1027.70
  A 1.00 1.00 0.0 0 0 419.00 1028.70
  L 419.00 1056.15
  A 1.00 1.00 0.0 0 0 419.97 1057.15
  Q 434.40 1057.53 437.95 1057.20"
/>
<path stroke="#4c8000" vector-effect="non-scaling-stroke" d="
  M 421.53 1107.37
  Q 430.73 1108.20 440.57 1107.73
  C 461.20 1106.74 461.01 1074.60 439.73 1074.27
  Q 429.96 1074.12 419.97 1074.35
  A 1.00 1.00 0.0 0 0 418.99 1075.35
  L 419.02 1104.68
  Q 419.02 1107.14 421.53 1107.37"
/>
<path stroke="#4c8000" vector-effect="non-scaling-stroke" d="
  M 919.62 1085.66
  C 920.90 1120.66 958.70 1137.16 987.53 1122.53
  C 1022.03 1105.02 1017.53 1054.60 981.00 1042.67
  C 951.02 1032.87 918.40 1052.32 919.62 1085.66"
/>
<path stroke="#4c8000" vector-effect="non-scaling-stroke" d="
  M 1108.65 1087.64
  L 1163.94 1087.70
  A 1.00 1.00 0.0 0 0 1164.93 1086.84
  Q 1167.38 1069.29 1158.64 1055.49
  C 1148.20 1038.99 1125.92 1036.72 1109.45 1044.24
  C 1081.19 1057.15 1078.42 1100.00 1102.30 1118.51
  C 1120.61 1132.71 1146.09 1129.80 1163.87 1115.84
  A 1.01 1.00 55.7 0 0 1164.11 1114.54
  L 1156.48 1101.79
  A 1.00 1.00 0.0 0 0 1154.99 1101.52
  Q 1145.73 1109.00 1135.26 1109.98
  Q 1123.59 1111.07 1115.57 1104.20
  Q 1108.81 1098.41 1107.66 1088.76
  A 1.00 1.00 0.0 0 1 1108.65 1087.64"
/>
<path stroke="#4c8000" vector-effect="non-scaling-stroke" d="
  M 1049.83 1061.74
  C 1050.20 1054.80 1052.31 1044.05 1041.93 1042.33
  Q 1037.94 1041.66 1021.00 1042.03
  A 1.01 1.01 0.0 0 0 1020.02 1043.03
  L 1019.95 1058.73
  A 1.00 0.99 0.6 0 0 1020.94 1059.73
  L 1027.19 1059.79
  Q 1030.00 1059.82 1030.00 1062.75
  L 1030.00 1124.80
  A 1.00 0.99 -0.0 0 0 1031.00 1125.79
  L 1049.75 1125.87
  A 1.00 0.99 -89.7 0 0 1050.75 1124.87
  Q 1050.73 1109.41 1050.74 1092.75
  C 1050.75 1084.85 1052.40 1076.10 1057.24 1069.96
  Q 1065.13 1059.96 1079.41 1061.31
  A 1.00 1.00 0.0 0 0 1080.50 1060.31
  L 1080.50 1041.89
  A 1.01 1.00 -86.8 0 0 1079.61 1040.89
  C 1065.52 1039.41 1054.38 1048.97 1050.23 1061.85
  A 0.20 0.13 -79.9 0 1 1050.10 1061.99
  L 1050.00 1062.00
  A 0.24 0.16 -89.1 0 1 1049.83 1061.74"
/>
<path stroke="#4c8000" vector-effect="non-scaling-stroke" d="
  M 535.5357 1110.2100
  A 26.20 24.93 89.9 0 0 560.4200 1083.9665
  A 26.20 24.93 89.9 0 0 535.4443 1057.8100
  A 26.20 24.93 89.9 0 0 510.5600 1084.0535
  A 26.20 24.93 89.9 0 0 535.5357 1110.2100"
/>
<path stroke="#4c8000" vector-effect="non-scaling-stroke" d="
  M 637.7185 1110.2198
  A 26.21 24.92 90.2 0 0 662.7298 1084.0970
  A 26.21 24.92 90.2 0 0 637.9015 1057.8002
  A 26.21 24.92 90.2 0 0 612.8902 1083.9230
  A 26.21 24.92 90.2 0 0 637.7185 1110.2198"
/>
<path stroke="#4c8000" vector-effect="non-scaling-stroke" d="
  M 965.2043 1110.2200
  A 26.21 24.92 90.1 0 0 990.1700 1084.0535
  A 26.21 24.92 90.1 0 0 965.2957 1057.8000
  A 26.21 24.92 90.1 0 0 940.3300 1083.9665
  A 26.21 24.92 90.1 0 0 965.2043 1110.2200"
/>
<path stroke="#4c8000" vector-effect="non-scaling-stroke" d="
  M 1137.79 1059.71
  Q 1132.98 1055.74 1127.23 1056.23
  Q 1112.20 1057.53 1108.54 1072.01
  A 1.00 1.00 0.0 0 0 1109.51 1073.25
  L 1143.04 1073.25
  A 1.00 0.99 88.4 0 0 1144.03 1072.19
  Q 1143.60 1064.51 1137.79 1059.71"
/>
</g>
<path fill="#000000" d="
  M 710.59 300.24
  Q 710.67 300.57 710.74 300.90
  Q 711.06 302.32 710.88 303.61
  Q 709.24 315.55 696.77 316.48
  Q 694.55 316.64 690.85 314.90
  Q 689.00 314.03 689.45 316.02
  Q 689.61 316.78 689.82 317.51
  C 692.30 326.23 684.33 334.94 675.67 334.20
  Q 673.82 334.04 672.07 333.33
  Q 670.13 332.55 671.30 334.28
  Q 671.77 334.98 672.07 335.78
  C 675.18 344.08 672.27 352.91 663.44 355.13
  Q 661.30 355.68 659.06 355.56
  Q 656.80 355.44 658.24 357.19
  Q 662.21 362.04 661.26 368.03
  Q 660.52 372.69 657.43 375.84
  Q 654.23 379.09 649.45 379.62
  Q 647.29 379.86 649.08 381.08
  Q 651.33 382.61 652.57 385.12
  Q 657.04 394.17 650.81 401.33
  Q 648.83 403.61 645.31 404.88
  Q 643.71 405.46 645.18 406.32
  Q 649.75 409.01 651.47 413.66
  Q 653.26 418.53 651.54 423.33
  Q 649.96 427.73 645.70 430.39
  Q 644.24 431.30 645.88 431.83
  Q 653.16 434.18 655.09 441.09
  Q 656.24 445.19 655.01 448.92
  Q 654.00 451.96 651.66 454.79
  Q 650.55 456.13 652.26 456.41
  Q 660.49 457.78 663.13 464.91
  C 666.60 474.27 661.45 480.39 653.23 483.80
  Q 596.36 507.44 539.44 530.93
  Q 534.15 533.12 529.10 530.90
  C 517.18 525.66 518.05 509.97 529.89 505.04
  Q 583.66 482.65 637.46 460.31
  Q 638.64 459.82 636.79 460.18
  Q 579.75 471.39 522.72 482.63
  C 504.15 486.30 498.78 459.49 517.49 455.74
  Q 544.21 450.39 632.60 432.89
  Q 634.10 432.59 632.61 432.25
  Q 632.37 432.19 632.00 432.21
  C 620.27 432.84 604.40 432.32 595.56 432.28
  C 573.23 432.20 550.89 432.03 528.57 432.60
  Q 517.19 432.90 512.58 432.16
  C 502.77 430.59 498.20 420.87 502.35 412.07
  C 505.11 406.23 511.15 404.78 517.71 404.77
  Q 574.58 404.73 631.46 404.76
  A 0.34 0.33 -83.3 0 0 631.78 404.50
  C 631.90 403.94 528.50 383.60 518.86 381.67
  Q 513.52 380.61 511.09 378.74
  C 501.88 371.66 505.19 357.19 516.37 354.50
  Q 519.26 353.81 523.62 354.68
  Q 580.33 365.92 637.24 377.28
  Q 638.26 377.48 637.65 376.64
  C 637.31 376.16 635.71 375.99 635.13 375.75
  Q 583.85 354.54 532.57 333.31
  Q 526.65 330.85 524.28 328.37
  C 515.74 319.39 522.92 304.20 535.54 305.43
  Q 538.13 305.69 543.62 307.96
  Q 595.04 329.22 646.45 350.54
  Q 646.82 350.70 647.12 350.71
  Q 648.25 350.74 647.31 350.11
  Q 601.44 319.53 555.62 288.86
  Q 549.13 284.51 547.85 283.06
  C 537.38 271.19 552.81 253.75 566.25 262.74
  C 574.52 268.27 663.56 327.93 663.84 327.73
  A 0.26 0.17 47.5 0 0 663.79 327.40
  Q 623.95 287.56 584.08 247.73
  Q 579.49 243.15 578.13 239.85
  C 574.70 231.54 579.82 222.47 588.58 221.11
  C 594.44 220.20 598.22 222.62 602.55 226.94
  Q 642.89 267.22 683.15 307.56
  C 683.60 308.01 683.93 307.62 683.62 307.15
  Q 651.46 259.21 619.45 211.16
  C 612.85 201.25 618.16 188.26 630.59 188.63
  C 637.64 188.84 640.88 193.32 645.01 199.52
  Q 676.11 246.15 707.16 292.83
  A 0.37 0.23 62.9 0 0 707.46 293.01
  L 707.56 292.99
  A 0.11 0.10 70.6 0 0 707.62 292.84
  Q 685.74 240.20 663.97 187.51
  C 662.17 183.17 660.63 179.72 661.77 175.11
  C 665.16 161.36 682.89 161.17 688.21 173.94
  Q 709.42 224.79 730.94 277.06
  Q 734.14 284.83 732.46 276.60
  Q 732.26 275.61 732.04 274.49
  Q 721.60 222.46 711.30 170.41
  Q 709.96 163.66 710.40 160.88
  C 711.74 152.26 720.91 147.87 729.02 150.69
  C 735.82 153.05 736.95 158.92 738.42 166.31
  Q 749.38 221.38 760.32 276.45
  A 0.35 0.14 80.2 0 0 760.50 276.75
  L 760.75 276.75
  A 0.20 0.07 -90.0 0 0 760.82 276.55
  Q 760.67 219.12 760.79 161.69
  Q 760.80 155.97 761.90 153.33
  C 766.61 141.99 783.34 141.83 787.56 153.63
  Q 788.47 156.17 788.47 161.60
  Q 788.53 218.43 788.49 275.27
  C 788.49 275.74 788.99 276.41 789.17 275.50
  Q 800.27 218.95 811.65 162.46
  Q 812.67 157.39 814.51 155.01
  C 821.51 145.96 835.93 149.15 838.71 160.15
  Q 839.43 162.99 838.57 167.35
  Q 827.34 224.51 815.82 281.62
  A 0.27 0.27 0.0 0 0 815.93 281.89
  Q 816.24 282.11 816.48 281.53
  Q 824.91 260.90 861.91 171.93
  Q 863.08 169.12 866.22 167.03
  C 873.27 162.32 881.59 164.52 886.28 171.49
  C 889.13 175.73 887.77 182.03 885.30 187.98
  Q 863.78 239.64 842.31 291.32
  C 842.25 291.48 842.05 292.78 842.63 291.92
  Q 874.82 243.87 906.98 195.80
  Q 909.44 192.12 911.93 190.64
  C 921.06 185.24 933.23 191.57 932.96 202.50
  C 932.84 207.09 930.35 210.48 927.75 214.38
  Q 897.06 260.35 866.27 306.26
  Q 865.88 306.85 866.42 306.95
  A 0.52 0.51 27.3 0 0 866.88 306.81
  Q 919.10 254.35 948.80 225.05
  C 957.63 216.34 972.20 222.39 972.36 234.78
  C 972.43 239.78 969.76 243.09 965.97 246.89
  Q 925.62 287.31 885.18 327.64
  A 0.29 0.14 -46.0 0 0 885.08 327.96
  C 885.31 328.16 972.67 269.69 980.74 264.31
  Q 985.72 260.99 988.91 260.52
  C 1004.18 258.30 1010.47 277.59 997.39 286.36
  Q 949.61 318.41 901.70 350.25
  A 0.42 0.42 0.0 0 0 901.52 350.50
  Q 901.37 351.15 902.26 350.78
  Q 955.84 328.58 1009.43 306.41
  C 1026.47 299.36 1038.01 324.39 1017.98 332.74
  Q 965.16 354.77 912.22 376.51
  C 910.32 377.29 912.43 377.25 912.75 377.19
  Q 969.18 365.85 1025.65 354.69
  C 1038.58 352.13 1048.30 363.79 1041.34 375.24
  C 1038.20 380.39 1033.78 381.00 1028.02 382.16
  Q 972.18 393.34 916.31 404.34
  Q 916.01 404.40 916.25 404.52
  L 916.60 404.69
  Q 916.81 404.80 917.04 404.80
  Q 974.10 404.69 1031.16 404.78
  C 1039.86 404.80 1046.91 407.23 1048.24 416.48
  C 1049.73 426.80 1042.13 432.44 1032.44 432.39
  Q 975.04 432.12 917.65 432.37
  Q 916.04 432.38 917.52 433.00
  Q 917.84 433.14 918.26 433.22
  Q 947.36 438.86 1030.09 455.42
  Q 1035.27 456.45 1037.87 458.31
  C 1047.39 465.10 1044.26 479.84 1032.98 482.71
  Q 1030.32 483.38 1026.05 482.54
  Q 968.32 471.09 910.60 459.56
  A 0.32 0.32 0.0 0 0 910.37 459.59
  Q 910.01 459.80 910.50 460.00
  Q 962.99 481.59 1015.41 503.33
  Q 1022.84 506.41 1025.28 509.06
  C 1030.28 514.51 1029.67 523.18 1024.25 528.17
  Q 1017.70 534.21 1007.68 530.06
  Q 953.39 507.58 899.09 485.09
  Q 891.74 482.05 889.42 479.96
  C 883.42 474.53 883.91 464.79 889.87 459.61
  Q 893.71 456.27 899.34 456.27
  Q 901.06 456.27 899.95 454.96
  Q 896.51 450.87 896.34 446.20
  Q 896.02 437.32 904.18 433.06
  C 905.34 432.44 910.80 432.24 906.33 430.31
  C 901.74 428.33 899.30 421.64 899.76 417.25
  Q 900.58 409.37 907.69 406.09
  Q 909.56 405.22 907.59 404.60
  Q 904.28 403.54 901.86 401.22
  Q 898.93 398.41 898.07 393.98
  Q 896.46 385.75 903.23 380.39
  Q 905.02 378.98 902.76 378.62
  Q 891.65 376.86 890.51 366.24
  Q 890.11 362.55 891.51 359.46
  Q 892.40 357.50 893.75 355.83
  Q 895.22 354.02 892.90 354.20
  Q 887.64 354.61 883.68 351.85
  C 876.79 347.04 876.05 338.28 880.97 331.52
  Q 881.15 331.27 880.98 331.10
  A 0.35 0.34 -36.7 0 0 880.60 331.05
  C 871.84 335.72 861.89 330.20 860.76 320.40
  Q 860.33 316.63 861.76 313.30
  Q 862.75 311.00 860.61 312.30
  Q 858.43 313.63 855.91 314.05
  C 846.16 315.70 835.89 305.64 840.98 295.73
  C 841.12 295.44 840.93 294.53 840.46 295.26
  C 836.97 300.63 831.12 302.98 824.86 301.19
  Q 815.77 298.57 814.94 288.54
  Q 814.74 286.21 813.47 288.16
  Q 811.72 290.84 809.15 292.14
  C 800.56 296.45 789.11 291.87 788.70 281.77
  C 788.56 278.49 786.37 285.18 785.95 285.70
  C 778.95 294.31 764.88 293.15 761.61 281.78
  A 0.37 0.26 72.6 0 0 761.24 281.50
  L 761.06 281.56
  A 0.36 0.16 -87.6 0 0 760.92 281.84
  C 759.51 291.05 751.59 296.64 742.79 293.75
  Q 738.85 292.45 736.21 288.94
  Q 734.88 287.16 734.77 289.38
  Q 734.32 299.31 725.45 302.12
  Q 721.27 303.44 717.54 302.47
  Q 714.39 301.65 711.90 299.46
  Q 710.04 297.82 710.59 300.24
  Z
  M 781.24 158.53
  A 6.50 6.50 0.0 0 0 774.74 152.03
  L 774.56 152.03
  A 6.50 6.50 0.0 0 0 768.06 158.53
  L 768.06 277.67
  A 6.50 6.50 0.0 0 0 774.56 284.17
  L 774.74 284.17
  A 6.50 6.50 0.0 0 0 781.24 277.67
  L 781.24 158.53
  Z
  M 730.2415 162.2172
  A 6.46 6.46 0.0 0 0 722.6409 157.1482
  L 722.4840 157.1796
  A 6.46 6.46 0.0 0 0 717.4151 164.7801
  L 740.8385 282.0028
  A 6.46 6.46 0.0 0 0 748.4391 287.0718
  L 748.5960 287.0404
  A 6.46 6.46 0.0 0 0 753.6649 279.4399
  L 730.2415 162.2172
  Z
  M 831.7466 164.7629
  A 6.47 6.47 0.0 0 0 826.6565 157.1594
  L 826.5191 157.1322
  A 6.47 6.47 0.0 0 0 818.9157 162.2223
  L 795.8134 278.8971
  A 6.47 6.47 0.0 0 0 800.9035 286.5006
  L 801.0409 286.5278
  A 6.47 6.47 0.0 0 0 808.6443 281.4377
  L 831.7466 164.7629
  Z
  M 681.1504 175.8007
  A 6.48 6.48 0.0 0 0 672.6839 172.2937
  L 672.5545 172.3473
  A 6.48 6.48 0.0 0 0 669.0476 180.8138
  L 714.9696 291.6793
  A 6.48 6.48 0.0 0 0 723.4361 295.1863
  L 723.5655 295.1327
  A 6.48 6.48 0.0 0 0 727.0724 286.6662
  L 681.1504 175.8007
  Z
  M 880.2319 180.7819
  A 6.48 6.48 0.0 0 0 876.7250 172.3154
  L 876.5956 172.2618
  A 6.48 6.48 0.0 0 0 868.1291 175.7688
  L 822.6281 285.6181
  A 6.48 6.48 0.0 0 0 826.1350 294.0846
  L 826.2644 294.1382
  A 6.48 6.48 0.0 0 0 834.7309 290.6312
  L 880.2319 180.7819
  Z
  M 635.5411 198.7240
  A 6.50 6.50 0.0 0 0 626.5237 196.9385
  L 626.4240 197.0053
  A 6.50 6.50 0.0 0 0 624.6386 206.0226
  L 691.7389 306.2560
  A 6.50 6.50 0.0 0 0 700.7563 308.0415
  L 700.8560 307.9747
  A 6.50 6.50 0.0 0 0 702.6414 298.9574
  L 635.5411 198.7240
  Z
  M 924.6350 206.0180
  A 6.50 6.50 0.0 0 0 922.8495 197.0007
  L 922.7498 196.9339
  A 6.50 6.50 0.0 0 0 913.7324 198.7194
  L 848.0450 296.8420
  A 6.50 6.50 0.0 0 0 849.8305 305.8593
  L 849.9302 305.9261
  A 6.50 6.50 0.0 0 0 858.9476 304.1406
  L 924.6350 206.0180
  Z
  M 681.1476 324.9569
  A 6.48 6.48 0.0 0 0 681.1476 315.7928
  L 595.3472 229.9924
  A 6.48 6.48 0.0 0 0 586.1831 229.9924
  L 586.1124 230.0631
  A 6.48 6.48 0.0 0 0 586.1124 239.2272
  L 671.9128 325.0276
  A 6.48 6.48 0.0 0 0 681.0769 325.0276
  L 681.1476 324.9569
  Z
  M 963.1203 230.0449
  A 6.56 6.56 0.0 0 0 953.8430 230.0449
  L 869.6549 314.2330
  A 6.56 6.56 0.0 0 0 869.6549 323.5103
  L 869.7397 323.5951
  A 6.56 6.56 0.0 0 0 879.0170 323.5951
  L 963.2051 239.4070
  A 6.56 6.56 0.0 0 0 963.2051 230.1297
  L 963.1203 230.0449
  Z
  M 665.2691 345.3627
  A 6.49 6.49 0.0 0 0 663.4707 336.3623
  L 561.9889 268.6824
  A 6.49 6.49 0.0 0 0 552.9886 270.4809
  L 552.9109 270.5973
  A 6.49 6.49 0.0 0 0 554.7093 279.5977
  L 656.1911 347.2776
  A 6.49 6.49 0.0 0 0 665.1914 345.4791
  L 665.2691 345.3627
  Z
  M 996.2277 270.3800
  A 6.49 6.49 0.0 0 0 987.2242 268.5973
  L 887.8883 335.0968
  A 6.49 6.49 0.0 0 0 886.1056 344.1003
  L 886.1723 344.2000
  A 6.49 6.49 0.0 0 0 895.1758 345.9827
  L 994.5117 279.4832
  A 6.49 6.49 0.0 0 0 996.2944 270.4797
  L 996.2277 270.3800
  Z
  M 653.7320 368.4204
  A 6.48 6.48 0.0 0 0 650.2251 359.9539
  L 536.8281 312.9833
  A 6.48 6.48 0.0 0 0 528.3616 316.4903
  L 528.3080 316.6196
  A 6.48 6.48 0.0 0 0 531.8149 325.0861
  L 645.2119 372.0567
  A 6.48 6.48 0.0 0 0 653.6784 368.5497
  L 653.7320 368.4204
  Z
  M 1020.9304 316.4931
  A 6.48 6.48 0.0 0 0 1012.4639 312.9861
  L 901.5429 358.9311
  A 6.48 6.48 0.0 0 0 898.0360 367.3976
  L 898.0896 367.5269
  A 6.48 6.48 0.0 0 0 906.5561 371.0339
  L 1017.4771 325.0889
  A 6.48 6.48 0.0 0 0 1020.9840 316.6224
  L 1020.9304 316.4931
  Z
  M 647.0047 393.0681
  A 6.47 6.47 0.0 0 0 641.9147 385.4646
  L 520.8059 361.4845
  A 6.47 6.47 0.0 0 0 513.2025 366.5746
  L 513.1753 366.7119
  A 6.47 6.47 0.0 0 0 518.2653 374.3154
  L 639.3741 398.2955
  A 6.47 6.47 0.0 0 0 646.9775 393.2054
  L 647.0047 393.0681
  Z
  M 1036.0996 366.4243
  A 6.47 6.47 0.0 0 0 1028.4872 361.3475
  L 910.1859 384.9864
  A 6.47 6.47 0.0 0 0 905.1091 392.5988
  L 905.1404 392.7557
  A 6.47 6.47 0.0 0 0 912.7528 397.8325
  L 1031.0541 374.1936
  A 6.47 6.47 0.0 0 0 1036.1309 366.5812
  L 1036.0996 366.4243
  Z
  M 645.19 418.43
  A 6.42 6.42 0.0 0 0 638.77 412.01
  L 514.43 412.01
  A 6.42 6.42 0.0 0 0 508.01 418.43
  L 508.01 418.59
  A 6.42 6.42 0.0 0 0 514.43 425.01
  L 638.77 425.01
  A 6.42 6.42 0.0 0 0 645.19 418.59
  L 645.19 418.43
  Z
  M 1041.25 418.42
  A 6.41 6.41 0.0 0 0 1034.84 412.01
  L 913.40 412.01
  A 6.41 6.41 0.0 0 0 906.99 418.42
  L 906.99 418.60
  A 6.41 6.41 0.0 0 0 913.40 425.01
  L 1034.84 425.01
  A 6.41 6.41 0.0 0 0 1041.25 418.60
  L 1041.25 418.42
  Z
  M 648.2787 443.5609
  A 6.47 6.47 0.0 0 0 640.6663 438.4841
  L 518.2268 462.9499
  A 6.47 6.47 0.0 0 0 513.1500 470.5622
  L 513.1813 470.7191
  A 6.47 6.47 0.0 0 0 520.7937 475.7959
  L 643.2332 451.3301
  A 6.47 6.47 0.0 0 0 648.3100 443.7178
  L 648.2787 443.5609
  Z
  M 1036.1081 470.5581
  A 6.46 6.46 0.0 0 0 1031.0392 462.9575
  L 911.4238 439.0560
  A 6.46 6.46 0.0 0 0 903.8232 444.1250
  L 903.7919 444.2819
  A 6.46 6.46 0.0 0 0 908.8608 451.8825
  L 1028.4762 475.7840
  A 6.46 6.46 0.0 0 0 1036.0768 470.7150
  L 1036.1081 470.5581
  Z
  M 656.3804 467.4870
  A 6.49 6.49 0.0 0 0 647.9008 463.9746
  L 531.8061 512.0626
  A 6.49 6.49 0.0 0 0 528.2937 520.5422
  L 528.3396 520.6530
  A 6.49 6.49 0.0 0 0 536.8192 524.1654
  L 652.9139 476.0774
  A 6.49 6.49 0.0 0 0 656.4263 467.5978
  L 656.3804 467.4870
  Z
  M 1020.9771 520.5284
  A 6.49 6.49 0.0 0 0 1017.4647 512.0488
  L 901.3885 463.9684
  A 6.49 6.49 0.0 0 0 892.9089 467.4808
  L 892.8629 467.5916
  A 6.49 6.49 0.0 0 0 896.3753 476.0712
  L 1012.4515 524.1516
  A 6.49 6.49 0.0 0 0 1020.9311 520.6392
  L 1020.9771 520.5284
  Z"
/>
<rect fill="#98ff00" x="768.06" y="152.03" width="13.18" height="132.14" rx="6.50"/>
<rect fill="#98ff00" x="-6.54" y="-66.23" transform="translate(735.54,222.11) rotate(-11.3)" width="13.08" height="132.46" rx="6.46"/>
<rect fill="#98ff00" x="-6.54" y="-65.94" transform="translate(813.78,221.83) rotate(11.2)" width="13.08" height="131.88" rx="6.47"/>
<rect fill="#98ff00" x="-6.55" y="-66.48" transform="translate(698.06,233.74) rotate(-22.5)" width="13.10" height="132.96" rx="6.48"/>
<rect fill="#98ff00" x="-6.55" y="-65.93" transform="translate(851.43,233.20) rotate(22.5)" width="13.10" height="131.86" rx="6.48"/>
<rect fill="#98ff00" x="-6.56" y="-66.81" transform="translate(663.64,252.49) rotate(-33.8)" width="13.12" height="133.62" rx="6.50"/>
<rect fill="#98ff00" x="-6.56" y="-65.54" transform="translate(886.34,251.43) rotate(33.8)" width="13.12" height="131.08" rx="6.50"/>
<rect fill="#98ff00" x="-67.15" y="-6.53" transform="translate(633.63,277.51) rotate(45.0)" width="134.30" height="13.06" rx="6.48"/>
<rect fill="#98ff00" x="-66.09" y="-6.62" transform="translate(916.43,276.82) rotate(-45.0)" width="132.18" height="13.24" rx="6.56"/>
<rect fill="#98ff00" x="-67.48" y="-6.56" transform="translate(609.09,307.98) rotate(33.7)" width="134.96" height="13.12" rx="6.49"/>
<rect fill="#98ff00" x="-66.26" y="-6.55" transform="translate(941.20,307.29) rotate(-33.8)" width="132.52" height="13.10" rx="6.49"/>
<rect fill="#98ff00" x="-67.85" y="-6.55" transform="translate(591.02,342.52) rotate(22.5)" width="135.70" height="13.10" rx="6.48"/>
<rect fill="#98ff00" x="-66.51" y="-6.55" transform="translate(959.51,342.01) rotate(-22.5)" width="133.02" height="13.10" rx="6.48"/>
<path fill="#000000" d="
  M 554.26 698.98
  C 540.94 690.56 543.77 683.45 550.86 671.71
  Q 655.94 497.64 761.07 323.60
  C 765.00 317.11 769.16 313.11 776.75 314.28
  C 783.83 315.36 786.06 319.95 790.05 326.79
  Q 896.91 509.82 1003.73 692.86
  Q 1006.83 698.17 1007.16 701.47
  C 1007.80 707.96 1003.88 714.53 997.09 716.17
  Q 849.53 751.78 701.99 787.47
  C 698.52 788.31 694.72 787.06 691.43 785.01
  Q 622.70 742.23 554.26 698.98
  Z
  M 555.19 691.06
  Q 589.14 712.55 693.77 777.92
  C 696.82 779.83 698.30 780.99 701.49 780.22
  Q 847.66 744.90 993.83 709.53
  C 1000.29 707.97 1001.50 703.52 998.19 697.86
  Q 889.83 512.20 781.46 326.55
  C 776.98 318.87 771.75 320.00 767.45 327.12
  Q 660.71 503.88 553.97 680.62
  C 551.65 684.47 551.10 688.48 555.19 691.06
  Z"
/>
<path fill="#fe7f02" d="
  M 555.19 691.06
  C 551.10 688.48 551.65 684.47 553.97 680.62
  Q 660.71 503.88 767.45 327.12
  C 771.75 320.00 776.98 318.87 781.46 326.55
  Q 889.83 512.20 998.19 697.86
  C 1001.50 703.52 1000.29 707.97 993.83 709.53
  Q 847.66 744.90 701.49 780.22
  C 698.30 780.99 696.82 779.83 693.77 777.92
  Q 589.14 712.55 555.19 691.06
  Z
  M 568.41 683.95
  L 700.25 766.53
  A 1.02 1.02 0.0 0 0 701.02 766.65
  L 981.66 698.07
  A 1.00 1.00 0.0 0 0 982.29 696.60
  L 775.69 341.28
  A 1.00 1.00 0.0 0 0 773.97 341.26
  Q 769.76 348.21 765.58 355.15
  Q 666.91 518.93 568.08 682.59
  A 1.00 0.99 31.5 0 0 568.41 683.95
  Z"
/>
<path fill="#000000" d="
  M 568.41 683.95
  A 1.00 0.99 31.5 0 1 568.08 682.59
  Q 666.91 518.93 765.58 355.15
  Q 769.76 348.21 773.97 341.26
  A 1.00 1.00 0.0 0 1 775.69 341.28
  L 982.29 696.60
  A 1.00 1.00 0.0 0 1 981.66 698.07
  L 701.02 766.65
  A 1.02 1.02 0.0 0 1 700.25 766.53
  L 568.41 683.95
  Z
  M 599.39 655.14
  C 630.02 631.54 671.62 617.98 710.75 624.66
  A 1.00 1.00 0.0 0 0 711.59 624.41
  C 736.75 601.65 771.14 595.43 803.52 603.85
  Q 803.59 603.87 803.66 603.90
  Q 863.60 629.61 923.00 655.23
  Q 927.42 657.14 929.17 659.35
  Q 932.64 663.72 931.17 669.70
  A 0.99 0.99 0.0 0 0 931.99 670.92
  Q 941.76 672.39 951.30 674.90
  Q 954.66 675.78 956.28 676.97
  C 963.82 682.46 961.50 694.85 952.10 696.77
  Q 949.50 697.30 945.11 696.27
  Q 889.24 683.12 842.23 715.12
  C 839.88 716.72 837.02 717.85 834.49 717.49
  C 804.79 713.23 774.78 719.70 748.66 734.64
  Q 737.28 741.15 728.73 751.05
  Q 727.09 752.94 729.52 752.35
  L 970.53 693.46
  A 1.01 1.01 0.0 0 0 971.16 691.98
  L 775.68 355.78
  A 1.00 1.00 0.0 0 0 773.96 355.77
  L 578.03 680.23
  A 1.00 1.00 0.0 0 0 578.36 681.59
  L 701.56 758.76
  A 1.03 1.01 -34.7 0 0 702.32 758.89
  L 712.19 756.60
  Q 714.21 756.14 712.40 755.13
  Q 654.59 722.95 596.78 690.75
  C 587.33 685.48 584.67 675.42 594.92 668.95
  A 1.00 0.99 -24.2 0 0 595.35 667.84
  Q 593.18 659.92 599.39 655.14
  Z
  M 841.63 695.29
  Q 844.89 690.58 849.49 686.97
  C 870.48 670.51 896.07 669.97 921.45 670.32
  A 0.95 0.94 -62.9 0 0 922.06 670.12
  C 926.16 667.05 924.63 663.86 920.65 662.14
  Q 863.43 637.47 806.17 612.90
  Q 800.03 610.26 794.89 609.29
  C 765.74 603.78 735.52 610.87 714.15 632.16
  A 1.01 0.99 -61.2 0 1 713.26 632.43
  C 674.71 625.19 634.88 637.17 604.13 660.72
  C 601.15 663.00 601.25 666.28 604.70 668.15
  Q 659.41 697.83 713.58 726.92
  Q 715.92 728.18 717.78 726.27
  Q 738.32 705.12 767.69 700.86
  Q 784.71 698.39 801.75 700.03
  Q 809.37 700.76 801.77 701.62
  Q 770.54 705.15 743.31 719.82
  Q 729.45 727.29 717.99 739.78
  A 1.01 1.00 36.2 0 1 716.76 739.97
  L 600.55 675.16
  A 0.99 0.97 -38.4 0 0 599.79 675.08
  C 593.15 676.97 595.52 681.59 599.76 683.96
  Q 658.50 716.75 717.11 749.38
  Q 719.55 750.74 721.30 748.58
  C 744.90 719.50 794.66 704.82 830.18 709.59
  Q 834.55 710.18 836.12 710.24
  A 1.03 0.98 27.1 0 0 836.73 710.06
  C 868.75 687.40 908.79 679.47 946.86 689.46
  C 950.62 690.44 953.79 689.69 953.53 685.13
  Q 953.39 682.73 951.01 682.11
  Q 893.36 667.09 842.69 696.44
  Q 839.60 698.23 841.63 695.29
  Z"
/>
<rect fill="#98ff00" x="-68.20" y="-6.54" transform="translate(580.09,379.89) rotate(11.2)" width="136.40" height="13.08" rx="6.47"/>
<rect fill="#98ff00" x="-66.79" y="-6.55" transform="translate(970.62,379.59) rotate(-11.3)" width="133.58" height="13.10" rx="6.47"/>
<rect fill="#98ff00" x="508.01" y="412.01" width="137.18" height="13.00" rx="6.42"/>
<rect fill="#98ff00" x="906.99" y="412.01" width="134.26" height="13.00" rx="6.41"/>
<path fill="#000000" d="
  M 781.25 473.37
  L 781.25 501.40
  A 1.00 1.00 0.0 0 0 782.20 502.40
  Q 800.93 503.33 809.72 518.78
  C 818.33 533.92 812.19 552.83 797.67 561.69
  A 1.01 1.00 -14.0 0 0 797.20 562.46
  Q 795.30 586.25 774.78 592.89
  C 758.43 598.18 742.82 589.85 735.76 574.46
  Q 734.35 571.38 733.42 562.40
  A 1.00 1.00 0.0 0 0 732.95 561.65
  C 705.34 544.57 715.86 504.18 748.55 502.41
  A 1.00 1.00 0.0 0 0 749.50 501.41
  Q 749.50 467.55 749.50 433.70
  Q 749.50 426.82 750.91 423.51
  C 755.47 412.79 769.10 411.24 777.14 419.15
  A 1.00 1.00 0.0 0 0 778.46 419.22
  C 784.81 414.22 796.57 415.62 801.99 415.77
  C 812.28 416.06 811.05 425.57 810.66 432.68
  Q 810.42 437.07 810.72 440.81
  Q 811.26 447.38 810.62 450.58
  C 809.40 456.78 813.90 468.77 806.48 472.32
  C 803.07 473.96 788.24 473.79 784.37 472.75
  Q 783.37 472.48 782.35 472.38
  A 1.00 0.99 -86.9 0 0 781.25 473.37
  Z
  M 774.00 509.48
  L 774.00 453.31
  A 0.99 0.99 0.0 0 1 775.05 452.32
  Q 778.41 452.50 780.44 454.87
  C 783.62 458.58 779.33 465.90 787.52 465.99
  Q 794.95 466.08 802.52 465.92
  A 1.00 1.00 0.0 0 0 803.50 464.92
  L 803.50 456.00
  A 1.00 1.00 0.0 0 0 802.50 455.00
  L 793.75 455.00
  A 1.00 1.00 0.0 0 1 792.75 454.00
  L 792.75 451.25
  A 1.00 1.00 0.0 0 1 793.75 450.25
  L 802.50 450.25
  A 1.00 1.00 0.0 0 0 803.50 449.25
  L 803.50 439.96
  A 1.00 1.00 0.0 0 0 802.46 438.96
  L 793.79 439.28
  A 1.01 1.00 -0.8 0 1 792.75 438.28
  L 792.75 435.25
  A 1.00 1.00 0.0 0 1 793.75 434.25
  L 802.50 434.25
  A 1.00 1.00 0.0 0 0 803.50 433.25
  L 803.50 424.25
  A 1.00 1.00 0.0 0 0 802.50 423.25
  Q 795.30 423.23 788.09 423.27
  C 784.48 423.29 781.66 425.04 781.71 428.77
  Q 781.80 436.27 775.11 436.87
  A 1.00 1.00 0.0 0 1 774.02 435.87
  Q 774.02 433.59 773.99 431.32
  C 773.78 417.90 756.75 417.99 756.75 431.39
  Q 756.76 470.36 756.73 509.48
  A 1.00 1.00 0.0 0 1 755.51 510.45
  Q 742.23 507.48 732.57 515.80
  C 718.14 528.21 723.65 550.12 740.63 557.18
  A 0.99 0.99 0.0 0 1 741.24 558.19
  Q 739.69 574.40 750.90 582.37
  C 769.22 595.38 792.93 580.19 789.38 558.32
  A 1.01 1.00 75.0 0 1 790.01 557.22
  C 805.93 551.13 811.64 532.07 800.63 518.62
  Q 791.43 507.38 775.19 510.46
  A 1.00 1.00 0.0 0 1 774.00 509.48
  Z"
/>
<path fill="#00aeff" d="
  M 775.19 510.46
  Q 791.43 507.38 800.63 518.62
  C 811.64 532.07 805.93 551.13 790.01 557.22
  A 1.01 1.00 75.0 0 0 789.38 558.32
  C 792.93 580.19 769.22 595.38 750.90 582.37
  Q 739.69 574.40 741.24 558.19
  A 0.99 0.99 0.0 0 0 740.63 557.18
  C 723.65 550.12 718.14 528.21 732.57 515.80
  Q 742.23 507.48 755.51 510.45
  A 1.00 1.00 0.0 0 0 756.73 509.48
  Q 756.76 470.36 756.75 431.39
  C 756.75 417.99 773.78 417.90 773.99 431.32
  Q 774.02 433.59 774.02 435.87
  A 1.00 1.00 0.0 0 0 775.11 436.87
  Q 781.80 436.27 781.71 428.77
  C 781.66 425.04 784.48 423.29 788.09 423.27
  Q 795.30 423.23 802.50 423.25
  A 1.00 1.00 0.0 0 1 803.50 424.25
  L 803.50 433.25
  A 1.00 1.00 0.0 0 1 802.50 434.25
  L 793.75 434.25
  A 1.00 1.00 0.0 0 0 792.75 435.25
  L 792.75 438.28
  A 1.01 1.00 -0.8 0 0 793.79 439.28
  L 802.46 438.96
  A 1.00 1.00 0.0 0 1 803.50 439.96
  L 803.50 449.25
  A 1.00 1.00 0.0 0 1 802.50 450.25
  L 793.75 450.25
  A 1.00 1.00 0.0 0 0 792.75 451.25
  L 792.75 454.00
  A 1.00 1.00 0.0 0 0 793.75 455.00
  L 802.50 455.00
  A 1.00 1.00 0.0 0 1 803.50 456.00
  L 803.50 464.92
  A 1.00 1.00 0.0 0 1 802.52 465.92
  Q 794.95 466.08 787.52 465.99
  C 779.33 465.90 783.62 458.58 780.44 454.87
  Q 778.41 452.50 775.05 452.32
  A 0.99 0.99 0.0 0 0 774.00 453.31
  L 774.00 509.48
  A 1.00 1.00 0.0 0 0 775.19 510.46
  Z
  M 756.7629 532.7917
  A 7.50 7.50 0.0 0 0 748.9679 525.5988
  L 747.5690 525.6549
  A 7.50 7.50 0.0 0 0 740.3761 533.4499
  L 740.4571 535.4683
  A 7.50 7.50 0.0 0 0 748.2521 542.6612
  L 749.6510 542.6051
  A 7.50 7.50 0.0 0 0 756.8439 534.8101
  L 756.7629 532.7917
  Z
  M 790.3270 533.3431
  A 7.47 7.47 0.0 0 0 783.0819 525.6548
  L 781.6625 525.6127
  A 7.47 7.47 0.0 0 0 773.9742 532.8578
  L 773.9130 534.9169
  A 7.47 7.47 0.0 0 0 781.1581 542.6052
  L 782.5775 542.6473
  A 7.47 7.47 0.0 0 0 790.2658 535.4022
  L 790.3270 533.3431
  Z
  M 773.7973 562.0574
  A 7.60 7.60 0.0 0 0 766.0789 554.5777
  L 764.3791 554.6044
  A 7.60 7.60 0.0 0 0 756.8994 562.3228
  L 756.9227 563.8026
  A 7.60 7.60 0.0 0 0 764.6411 571.2823
  L 766.3409 571.2556
  A 7.60 7.60 0.0 0 0 773.8206 563.5372
  L 773.7973 562.0574
  Z"
/>
<rect fill="#98ff00" x="-68.90" y="-6.55" transform="translate(580.73,457.14) rotate(-11.3)" width="137.80" height="13.10" rx="6.47"/>
<rect fill="#98ff00" x="-67.45" y="-6.54" transform="translate(969.95,457.42) rotate(11.3)" width="134.90" height="13.08" rx="6.46"/>
<rect fill="#98ff00" x="-69.32" y="-6.55" transform="translate(592.36,494.07) rotate(-22.5)" width="138.64" height="13.10" rx="6.49"/>
<rect fill="#98ff00" x="-69.31" y="-6.55" transform="translate(956.92,494.06) rotate(22.5)" width="138.62" height="13.10" rx="6.49"/>
<path fill="#000000" d="
  M 756.8439 534.8101
  A 7.50 7.50 0.0 0 1 749.6510 542.6051
  L 748.2521 542.6612
  A 7.50 7.50 0.0 0 1 740.4571 535.4683
  L 740.3761 533.4499
  A 7.50 7.50 0.0 0 1 747.5690 525.6549
  L 748.9679 525.5988
  A 7.50 7.50 0.0 0 1 756.7629 532.7917
  L 756.8439 534.8101
  Z
  M 748.2771 535.5137
  A 1.43 1.01 101.0 0 0 749.5414 534.3027
  A 1.43 1.01 101.0 0 0 748.8229 532.7063
  A 1.43 1.01 101.0 0 0 747.5586 533.9173
  A 1.43 1.01 101.0 0 0 748.2771 535.5137
  Z"
/>
<path fill="#000000" d="
  M 790.2658 535.4022
  A 7.47 7.47 0.0 0 1 782.5775 542.6473
  L 781.1581 542.6052
  A 7.47 7.47 0.0 0 1 773.9130 534.9169
  L 773.9742 532.8578
  A 7.47 7.47 0.0 0 1 781.6625 525.6127
  L 783.0819 525.6548
  A 7.47 7.47 0.0 0 1 790.3270 533.3431
  L 790.2658 535.4022
  Z
  M 781.18 533.99
  Q 780.92 536.28 783.05 534.97
  A 0.80 0.80 0.0 0 0 783.20 533.72
  L 782.89 533.40
  Q 781.42 531.93 781.18 533.99
  Z"
/>
<path fill="#000000" d="
  M 773.8206 563.5372
  A 7.60 7.60 0.0 0 1 766.3409 571.2556
  L 764.6411 571.2823
  A 7.60 7.60 0.0 0 1 756.9227 563.8026
  L 756.8994 562.3228
  A 7.60 7.60 0.0 0 1 764.3791 554.6044
  L 766.0789 554.5777
  A 7.60 7.60 0.0 0 1 773.7973 562.0574
  L 773.8206 563.5372
  Z
  M 765.20 564.05
  Q 766.87 564.04 766.73 562.87
  A 1.00 0.99 -1.4 0 0 765.80 561.99
  Q 763.03 561.81 764.39 563.65
  A 1.01 0.98 70.3 0 0 765.20 564.05
  Z"
/>
<path fill="#00aeff" d="
  M 842.69 696.44
  Q 893.36 667.09 951.01 682.11
  Q 953.39 682.73 953.53 685.13
  C 953.79 689.69 950.62 690.44 946.86 689.46
  C 908.79 679.47 868.75 687.40 836.73 710.06
  A 1.03 0.98 27.1 0 1 836.12 710.24
  Q 834.55 710.18 830.18 709.59
  C 794.66 704.82 744.90 719.50 721.30 748.58
  Q 719.55 750.74 717.11 749.38
  Q 658.50 716.75 599.76 683.96
  C 595.52 681.59 593.15 676.97 599.79 675.08
  A 0.99 0.97 -38.4 0 1 600.55 675.16
  L 716.76 739.97
  A 1.01 1.00 36.2 0 0 717.99 739.78
  Q 729.45 727.29 743.31 719.82
  Q 770.54 705.15 801.77 701.62
  Q 809.37 700.76 801.75 700.03
  Q 784.71 698.39 767.69 700.86
  Q 738.32 705.12 717.78 726.27
  Q 715.92 728.18 713.58 726.92
  Q 659.41 697.83 604.70 668.15
  C 601.25 666.28 601.15 663.00 604.13 660.72
  C 634.88 637.17 674.71 625.19 713.26 632.43
  A 1.01 0.99 -61.2 0 0 714.15 632.16
  C 735.52 610.87 765.74 603.78 794.89 609.29
  Q 800.03 610.26 806.17 612.90
  Q 863.43 637.47 920.65 662.14
  C 924.63 663.86 926.16 667.05 922.06 670.12
  A 0.95 0.94 -62.9 0 1 921.45 670.32
  C 896.07 669.97 870.48 670.51 849.49 686.97
  Q 844.89 690.58 841.63 695.29
  Q 839.60 698.23 842.69 696.44
  Z
  M 723.12 636.60
  L 830.49 695.70
  A 1.00 0.99 -59.8 0 0 831.83 695.34
  Q 838.30 684.54 848.83 677.32
  Q 862.55 667.89 881.52 664.59
  Q 889.18 663.25 896.93 662.39
  Q 899.92 662.05 897.16 660.86
  Q 849.73 640.35 802.24 620.02
  C 790.80 615.12 776.10 615.06 763.93 616.61
  Q 740.66 619.57 722.94 634.97
  A 1.00 1.00 0.0 0 0 723.12 636.60
  Z
  M 615.00 664.60
  L 713.82 717.92
  A 1.02 1.01 -52.6 0 0 714.99 717.76
  C 736.59 696.97 765.31 689.76 794.68 691.44
  Q 799.19 691.69 803.74 691.97
  Q 807.28 692.19 804.18 690.47
  Q 760.16 666.13 716.01 641.99
  Q 713.13 640.42 710.11 639.94
  Q 683.46 635.75 657.45 643.18
  Q 634.82 649.64 614.92 662.88
  A 1.01 1.01 0.0 0 0 615.00 664.60
  Z"
/>
<path fill="#000000" d="
  M 723.12 636.60
  A 1.00 1.00 0.0 0 1 722.94 634.97
  Q 740.66 619.57 763.93 616.61
  C 776.10 615.06 790.80 615.12 802.24 620.02
  Q 849.73 640.35 897.16 660.86
  Q 899.92 662.05 896.93 662.39
  Q 889.18 663.25 881.52 664.59
  Q 862.55 667.89 848.83 677.32
  Q 838.30 684.54 831.83 695.34
  A 1.00 0.99 -59.8 0 1 830.49 695.70
  L 723.12 636.60
  Z
  M 736.41 635.59
  L 828.20 686.12
  A 1.01 1.01 0.0 0 0 829.50 685.82
  Q 833.36 680.45 838.45 676.19
  Q 853.17 663.90 871.83 659.41
  Q 874.17 658.84 871.96 657.89
  Q 835.50 642.23 798.75 626.44
  C 785.83 620.88 763.50 622.45 750.44 627.15
  Q 743.24 629.75 736.38 633.86
  Q 734.89 634.75 736.41 635.59
  Z"
/>
<path fill="#000000" d="
  M 615.00 664.60
  A 1.01 1.01 0.0 0 1 614.92 662.88
  Q 634.82 649.64 657.45 643.18
  Q 683.46 635.75 710.11 639.94
  Q 713.13 640.42 716.01 641.99
  Q 760.16 666.13 804.18 690.47
  Q 807.28 692.19 803.74 691.97
  Q 799.19 691.69 794.68 691.44
  C 765.31 689.76 736.59 696.97 714.99 717.76
  A 1.02 1.01 -52.6 0 1 713.82 717.92
  L 615.00 664.60
  Z
  M 629.64 664.20
  L 712.59 708.97
  A 0.99 0.98 -51.0 0 0 713.71 708.85
  C 730.71 694.29 750.68 687.23 772.69 684.59
  C 775.75 684.23 779.27 685.08 773.87 682.10
  Q 743.50 665.35 713.08 648.70
  Q 710.39 647.23 707.51 646.82
  Q 686.87 643.95 669.55 647.55
  Q 648.72 651.88 629.63 662.45
  Q 628.03 663.33 629.64 664.20
  Z"
/>
<path fill="#000000" d="
  M 459.92 881.25
  L 451.74 881.25
  A 1.00 1.00 0.0 0 0 450.74 882.25
  Q 450.77 934.94 450.73 987.25
  Q 450.73 996.36 441.26 996.33
  Q 430.49 996.30 419.74 996.17
  Q 410.98 996.07 410.94 987.25
  Q 410.74 934.76 410.75 882.25
  A 1.00 1.00 0.0 0 0 409.75 881.25
  L 401.32 881.25
  A 1.00 0.99 -3.8 0 0 400.33 882.37
  Q 401.69 893.26 391.03 893.49
  Q 383.99 893.63 377.00 893.55
  C 370.28 893.47 364.25 893.80 363.56 886.19
  Q 363.14 881.60 363.66 862.69
  Q 363.98 850.61 373.32 846.83
  Q 377.20 845.26 387.38 845.26
  Q 433.57 845.24 479.75 845.25
  C 487.52 845.26 494.35 848.77 496.60 856.27
  C 496.72 856.66 496.97 856.97 497.37 856.68
  A 0.42 0.41 -21.1 0 0 497.54 856.31
  C 496.83 849.39 499.15 845.32 506.34 845.28
  C 515.66 845.23 527.17 844.13 536.18 846.06
  C 546.81 848.34 549.92 857.66 549.82 867.50
  Q 549.65 884.64 549.85 901.78
  A 1.00 1.00 0.0 0 0 550.85 902.77
  L 593.89 902.76
  A 1.01 1.00 -89.4 0 0 594.89 901.77
  Q 595.20 880.01 594.99 870.75
  C 594.61 854.46 599.30 845.57 616.59 845.30
  Q 635.79 845.00 640.01 845.27
  C 646.44 845.68 647.40 850.62 647.47 856.36
  Q 647.56 864.29 647.40 872.27
  Q 647.20 881.65 636.05 881.15
  A 1.00 0.99 1.4 0 0 635.00 882.14
  Q 635.00 934.16 634.93 987.50
  C 634.92 994.96 630.24 996.13 623.63 996.23
  Q 608.75 996.45 603.05 996.15
  C 595.84 995.76 595.05 990.47 595.04 984.13
  Q 594.98 962.06 594.98 940.01
  A 1.00 1.00 0.0 0 0 593.98 939.01
  L 550.76 938.98
  A 1.00 1.00 0.0 0 0 549.76 939.98
  Q 549.75 963.34 549.74 987.00
  C 549.74 994.85 545.29 996.15 538.24 996.23
  Q 524.46 996.38 518.27 996.20
  C 511.18 995.99 509.77 991.31 509.76 984.90
  Q 509.74 933.56 509.75 882.22
  A 1.01 1.01 0.0 0 0 508.62 881.22
  Q 503.67 881.85 499.65 878.94
  Q 499.47 878.81 499.37 878.61
  L 499.23 878.36
  Q 498.05 876.24 498.03 878.67
  Q 498.00 881.97 497.91 885.22
  C 497.72 892.22 493.44 893.50 487.10 893.51
  Q 478.71 893.51 470.32 893.48
  C 466.51 893.46 463.12 892.58 461.80 888.98
  Q 460.89 886.51 460.92 882.26
  A 1.00 1.00 0.0 0 0 459.92 881.25
  Z
  M 467.52 874.72
  Q 469.04 879.81 468.38 885.13
  A 1.01 1.00 3.3 0 0 469.38 886.25
  L 489.62 886.25
  A 1.00 1.00 0.0 0 0 490.62 885.29
  Q 491.25 867.99 490.38 861.17
  Q 489.28 852.53 480.99 852.52
  Q 433.64 852.49 386.29 852.50
  C 377.27 852.50 370.97 852.98 370.88 863.53
  Q 370.75 880.22 370.80 885.26
  A 1.00 1.00 0.0 0 0 371.80 886.25
  L 392.05 886.25
  A 1.00 1.00 0.0 0 0 393.05 885.26
  L 393.12 876.49
  Q 393.14 873.94 396.00 873.93
  L 417.00 873.86
  A 1.00 0.99 89.7 0 1 418.00 874.86
  L 418.00 987.80
  A 1.00 1.00 0.0 0 0 419.00 988.80
  L 442.50 988.73
  A 1.00 1.00 0.0 0 0 443.50 987.73
  L 443.50 875.00
  A 1.00 1.00 0.0 0 1 444.50 874.00
  L 466.56 874.00
  A 1.00 1.00 0.0 0 1 467.52 874.72
  Z
  M 542.56 909.25
  Q 542.49 886.90 542.29 864.57
  Q 542.18 852.49 530.51 852.49
  Q 518.14 852.48 505.75 852.53
  A 1.00 1.00 0.0 0 0 504.75 853.53
  L 504.75 872.77
  A 1.00 1.00 0.0 0 0 505.73 873.77
  L 514.50 873.92
  Q 516.85 873.96 516.95 876.74
  C 517.82 898.84 516.85 919.06 517.03 952.55
  C 517.08 961.93 517.47 976.08 517.03 987.78
  A 1.00 1.00 0.0 0 0 518.03 988.82
  L 541.50 988.72
  A 1.00 1.00 0.0 0 0 542.50 987.72
  L 542.50 932.60
  A 1.00 1.00 0.0 0 1 543.64 931.61
  Q 545.49 931.86 547.37 931.75
  C 565.13 930.65 583.62 931.50 601.47 931.50
  A 1.00 1.00 0.0 0 1 602.44 932.27
  C 602.79 933.72 602.19 935.62 602.20 936.60
  Q 602.43 962.19 602.50 987.79
  A 1.00 1.00 0.0 0 0 603.50 988.79
  L 626.75 988.73
  A 1.00 1.00 0.0 0 0 627.75 987.73
  L 627.75 877.25
  Q 627.75 874.09 631.00 874.03
  L 639.27 873.87
  A 1.00 1.00 0.0 0 0 640.25 872.87
  L 640.25 853.59
  A 1.00 0.99 -89.7 0 0 639.27 852.59
  Q 617.65 852.22 612.55 852.58
  C 604.05 853.17 602.55 859.61 602.53 867.28
  Q 602.47 888.34 602.51 909.25
  A 1.00 1.00 0.0 0 1 601.51 910.25
  L 543.56 910.25
  A 1.00 1.00 0.0 0 1 542.56 909.25
  Z"
/>
<path fill="#000000" d="
  M 702.76 939.31
  L 702.76 959.25
  A 1.00 1.00 0.0 0 0 703.76 960.25
  L 726.87 960.25
  A 1.00 1.00 0.0 0 0 727.87 959.27
  Q 727.97 954.21 729.03 951.80
  C 730.46 948.55 734.20 947.83 737.81 947.79
  Q 752.76 947.64 757.01 947.75
  Q 765.60 947.97 765.73 956.51
  C 765.98 973.52 770.26 996.17 743.60 996.24
  Q 691.72 996.37 682.26 996.18
  C 665.12 995.84 663.05 983.98 663.03 969.37
  Q 662.96 925.55 663.01 882.06
  A 1.00 0.99 -4.0 0 0 661.86 881.07
  C 652.03 882.58 650.50 876.72 650.49 868.44
  Q 650.49 860.85 650.53 853.27
  C 650.57 846.80 655.22 845.26 661.05 845.26
  Q 699.21 845.23 737.37 845.26
  Q 745.68 845.27 749.45 846.72
  C 764.06 852.37 760.87 871.73 760.66 885.24
  C 760.55 892.44 756.29 893.49 749.87 893.50
  Q 741.08 893.53 732.32 893.47
  C 728.72 893.44 724.85 892.46 723.84 888.94
  Q 722.86 885.51 722.95 882.25
  A 1.00 0.99 0.8 0 0 721.95 881.23
  L 703.76 881.26
  A 1.00 1.00 0.0 0 0 702.76 882.26
  L 702.76 901.25
  A 1.00 1.00 0.0 0 0 703.76 902.25
  Q 720.42 902.23 737.06 902.27
  C 742.67 902.29 746.97 903.80 746.99 910.00
  Q 747.01 918.65 747.00 927.30
  C 746.99 933.59 745.50 938.24 738.49 938.23
  Q 721.14 938.21 703.76 938.31
  A 1.01 1.00 -0.3 0 0 702.76 939.31
  Z
  M 695.56 931.74
  A 1.00 0.99 -0.0 0 1 696.56 930.75
  L 738.75 930.75
  A 1.00 1.00 0.0 0 0 739.75 929.75
  L 739.75 910.50
  A 1.00 1.00 0.0 0 0 738.75 909.50
  L 696.50 909.50
  A 1.00 1.00 0.0 0 1 695.50 908.50
  L 695.50 875.00
  A 1.00 1.00 0.0 0 1 696.50 874.00
  L 727.25 873.99
  Q 730.43 873.99 730.45 877.32
  L 730.52 885.26
  A 1.00 0.99 -0.0 0 0 731.52 886.25
  L 752.46 886.25
  A 1.00 1.00 0.0 0 0 753.46 885.27
  Q 753.87 866.29 753.26 862.25
  C 751.98 853.77 746.48 852.55 738.52 852.53
  Q 698.66 852.43 658.75 852.55
  A 1.01 1.00 -0.3 0 0 657.75 853.55
  L 657.75 872.81
  A 1.00 0.99 -0.3 0 0 658.76 873.80
  L 669.46 873.73
  A 1.01 1.00 89.4 0 1 670.47 874.73
  Q 670.55 922.12 670.47 969.52
  C 670.45 982.68 670.00 988.72 685.65 988.74
  Q 715.73 988.78 745.79 988.72
  C 753.18 988.70 757.59 986.02 758.13 978.11
  Q 758.89 967.11 758.37 955.95
  A 1.00 0.99 -1.2 0 0 757.37 955.00
  L 736.51 955.00
  A 1.00 1.00 0.0 0 0 735.51 955.99
  Q 735.47 959.37 735.48 962.76
  Q 735.50 967.49 730.75 967.49
  Q 715.38 967.51 700.00 967.37
  Q 695.67 967.33 695.62 963.00
  Q 695.43 947.03 695.56 931.74
  Z"
/>
<path fill="#000000" d="
  M 948.57 860.26
  Q 948.71 856.85 947.07 859.84
  Q 932.35 886.65 918.64 911.66
  Q 916.91 914.81 914.66 917.62
  A 1.01 1.01 0.0 0 0 914.69 918.90
  Q 916.23 920.70 917.50 923.16
  Q 926.85 941.34 935.95 959.67
  A 1.00 1.00 0.0 0 0 936.83 960.23
  C 942.71 960.29 949.42 959.77 949.92 967.56
  Q 950.16 971.15 949.96 986.75
  Q 949.85 995.99 941.00 996.22
  C 924.20 996.65 911.04 998.33 902.39 981.21
  Q 891.36 959.36 880.50 937.41
  A 0.98 0.97 -11.3 0 0 879.67 936.86
  L 875.55 936.60
  A 1.00 1.00 0.0 0 0 874.49 937.60
  Q 874.53 962.07 874.47 986.49
  Q 874.44 996.09 865.00 996.20
  Q 846.97 996.42 842.19 996.14
  C 835.41 995.75 834.50 990.91 834.50 984.88
  Q 834.50 933.20 834.50 882.08
  A 1.00 1.00 0.0 0 0 833.38 881.09
  C 818.30 882.99 822.04 866.50 822.01 857.64
  C 821.98 850.19 822.70 845.29 831.26 845.25
  C 840.74 845.22 856.17 843.78 863.80 846.96
  C 872.96 850.78 874.08 858.69 874.29 868.48
  Q 874.63 883.77 874.46 899.58
  A 1.00 1.00 0.0 0 0 875.49 900.59
  L 880.28 900.45
  A 1.00 1.00 0.0 0 0 881.13 899.92
  Q 895.01 874.00 909.00 848.28
  C 910.25 845.99 913.87 845.30 916.67 845.28
  Q 929.71 845.22 942.74 845.48
  Q 946.44 845.56 948.36 848.34
  A 1.00 1.00 0.0 0 0 950.00 848.36
  Q 951.17 846.72 952.94 845.91
  Q 954.33 845.29 957.30 845.28
  Q 996.64 845.18 1035.99 845.30
  C 1045.32 845.32 1052.85 846.78 1056.64 855.34
  Q 1058.32 859.12 1058.55 868.54
  C 1058.78 878.36 1061.96 893.40 1050.01 893.46
  Q 1040.16 893.51 1030.34 893.47
  C 1026.51 893.45 1023.03 892.67 1021.77 889.00
  Q 1020.91 886.52 1021.02 882.27
  A 1.00 1.00 0.0 0 0 1020.02 881.25
  L 1001.76 881.25
  A 1.00 1.00 0.0 0 0 1000.76 882.25
  L 1000.75 901.24
  A 1.00 1.00 0.0 0 0 1001.75 902.24
  Q 1018.09 902.26 1034.42 902.25
  C 1041.85 902.24 1044.87 904.24 1044.96 911.74
  Q 1045.07 920.87 1044.90 930.00
  C 1044.78 936.29 1040.96 938.08 1035.07 938.15
  Q 1018.66 938.37 1001.76 938.21
  A 1.00 1.00 0.0 0 0 1000.75 939.21
  L 1000.75 959.25
  A 1.00 1.00 0.0 0 0 1001.75 960.25
  L 1024.88 960.25
  A 1.00 1.00 0.0 0 0 1025.88 959.28
  Q 1026.04 954.17 1026.50 952.99
  C 1028.17 948.71 1031.28 947.83 1035.86 947.79
  Q 1049.42 947.66 1055.26 947.75
  C 1062.80 947.87 1063.62 952.98 1063.70 959.53
  C 1063.93 976.73 1066.62 996.13 1042.19 996.22
  Q 990.36 996.42 980.26 996.18
  C 963.70 995.78 961.04 984.72 961.02 970.59
  Q 960.97 926.44 961.01 882.26
  A 1.00 1.00 0.0 0 0 959.92 881.26
  C 955.14 881.68 949.28 880.43 948.85 874.29
  Q 948.30 866.57 948.57 860.26
  Z
  M 904.47 919.47
  A 1.01 1.00 41.2 0 1 904.36 917.84
  Q 906.56 916.02 908.43 913.86
  Q 910.10 911.92 912.11 908.27
  Q 927.01 881.32 941.91 853.98
  A 1.00 1.00 0.0 0 0 941.03 852.50
  L 915.53 852.50
  A 1.00 0.99 13.9 0 0 914.65 853.03
  Q 901.56 877.37 888.44 901.69
  C 886.56 905.18 884.39 907.69 880.49 907.71
  Q 874.31 907.74 868.34 907.99
  A 1.00 0.99 88.0 0 1 867.30 907.01
  Q 866.93 886.73 866.96 867.27
  C 866.97 859.64 865.48 853.02 856.94 852.57
  Q 852.42 852.33 830.24 852.54
  A 1.00 1.00 0.0 0 0 829.25 853.54
  L 829.25 872.81
  A 1.00 1.00 0.0 0 0 830.28 873.81
  Q 833.74 873.71 837.24 873.91
  C 841.96 874.18 841.76 876.55 841.75 880.38
  Q 841.72 934.09 841.79 987.80
  A 1.00 1.00 0.0 0 0 842.79 988.80
  L 865.97 988.73
  A 1.00 0.99 90.0 0 0 866.96 987.73
  L 867.15 930.35
  A 0.99 0.99 0.0 0 1 868.08 929.36
  C 874.82 928.89 884.23 928.28 887.27 934.49
  Q 897.59 955.62 908.22 976.61
  C 912.11 984.29 915.36 988.65 924.00 988.74
  Q 932.86 988.82 941.76 988.71
  A 1.00 1.00 0.0 0 0 942.75 987.71
  L 942.75 968.60
  A 1.02 1.00 2.2 0 0 941.81 967.60
  L 934.00 967.09
  Q 931.48 966.93 930.10 964.16
  Q 920.76 945.49 911.05 926.63
  Q 908.72 922.09 904.47 919.47
  Z
  M 993.56 931.73
  A 1.00 0.99 -0.0 0 1 994.56 930.74
  L 1036.75 930.77
  A 1.00 1.00 0.0 0 0 1037.75 929.77
  L 1037.75 910.50
  A 1.00 1.00 0.0 0 0 1036.75 909.50
  L 994.50 909.50
  A 1.00 1.00 0.0 0 1 993.50 908.50
  L 993.50 874.86
  A 1.00 1.00 0.0 0 1 994.50 873.86
  L 1025.75 873.80
  Q 1028.12 873.79 1028.21 876.18
  L 1028.53 885.29
  A 1.00 1.00 0.0 0 0 1029.53 886.25
  L 1050.40 886.25
  A 1.00 1.00 0.0 0 0 1051.40 885.28
  Q 1051.91 869.45 1051.15 862.06
  C 1050.31 853.86 1044.06 852.55 1036.58 852.53
  Q 996.70 852.43 956.75 852.56
  A 1.00 1.00 0.0 0 0 955.75 853.56
  L 955.75 872.80
  A 1.01 1.00 0.0 0 0 956.76 873.80
  L 967.28 873.73
  A 1.00 1.00 0.0 0 1 968.29 874.73
  Q 968.19 925.75 968.33 976.74
  Q 968.37 988.75 979.73 988.76
  Q 1010.97 988.77 1042.19 988.72
  C 1049.62 988.71 1055.42 987.19 1056.11 979.07
  Q 1056.80 970.82 1056.37 955.97
  A 1.00 1.00 0.0 0 0 1055.37 955.00
  L 1034.35 955.00
  A 1.00 0.99 1.2 0 0 1033.35 955.95
  Q 1033.17 959.50 1033.24 963.08
  C 1033.30 966.03 1031.85 967.47 1028.99 967.48
  Q 1013.75 967.52 998.50 967.65
  Q 993.55 967.70 993.52 963.00
  Q 993.44 947.14 993.56 931.73
  Z"
/>
<path fill="#000000" d="
  M 1125.23 890.97
  Q 1133.09 877.10 1141.38 863.50
  Q 1147.56 853.37 1149.95 851.16
  C 1158.11 843.60 1169.66 845.21 1180.01 845.22
  C 1187.76 845.23 1188.63 850.23 1188.73 856.95
  Q 1188.84 864.72 1188.76 872.49
  C 1188.67 879.88 1182.85 881.78 1176.57 881.22
  A 1.00 0.98 -70.6 0 0 1175.64 881.68
  L 1144.17 931.32
  A 1.02 0.98 -29.7 0 0 1144.01 931.86
  Q 1143.99 959.44 1143.99 986.99
  Q 1144.00 995.96 1135.25 996.09
  Q 1115.82 996.40 1112.06 996.17
  C 1105.00 995.74 1104.25 990.46 1104.26 984.24
  Q 1104.28 957.95 1104.20 931.67
  A 1.02 0.97 -62.1 0 0 1104.05 931.14
  L 1073.63 883.15
  Q 1072.45 881.29 1070.32 881.25
  C 1061.06 881.05 1059.78 877.97 1059.75 869.16
  Q 1059.72 862.43 1059.77 855.71
  C 1059.82 849.42 1061.26 845.09 1068.26 845.16
  C 1080.09 845.29 1091.71 843.35 1100.22 853.09
  Q 1101.40 854.45 1107.22 863.96
  Q 1115.45 877.40 1123.50 890.99
  A 1.00 1.00 0.0 0 0 1125.23 890.97
  Z
  M 1123.23 905.98
  Q 1119.57 898.62 1114.34 889.92
  Q 1100.92 867.57 1095.81 859.64
  Q 1091.26 852.57 1082.76 852.51
  Q 1075.39 852.45 1067.99 852.54
  A 1.00 1.00 0.0 0 0 1067.00 853.54
  L 1067.00 872.92
  A 1.01 1.00 2.2 0 0 1067.93 873.92
  Q 1069.98 874.06 1072.05 874.02
  C 1075.30 873.95 1077.08 874.97 1078.71 877.55
  Q 1095.00 903.30 1111.34 929.03
  A 1.02 0.98 29.7 0 1 1111.50 929.57
  L 1111.50 987.79
  A 1.00 1.00 0.0 0 0 1112.50 988.79
  L 1135.75 988.73
  A 1.00 1.00 0.0 0 0 1136.75 987.73
  L 1136.75 929.75
  A 1.06 1.04 -29.8 0 1 1136.90 929.21
  Q 1153.12 903.51 1169.48 877.88
  C 1172.67 872.88 1175.41 874.38 1180.42 873.66
  A 1.00 0.99 86.0 0 0 1181.27 872.67
  L 1181.26 853.59
  A 1.00 1.00 0.0 0 0 1180.29 852.59
  Q 1172.90 852.36 1165.50 852.43
  Q 1156.90 852.51 1152.82 858.82
  Q 1142.05 875.49 1124.99 906.02
  Q 1124.07 907.68 1123.23 905.98
  Z"
/>
<path fill="#fe7f02" d="
  M 467.52 874.72
  A 1.00 1.00 0.0 0 0 466.56 874.00
  L 444.50 874.00
  A 1.00 1.00 0.0 0 0 443.50 875.00
  L 443.50 987.73
  A 1.00 1.00 0.0 0 1 442.50 988.73
  L 419.00 988.80
  A 1.00 1.00 0.0 0 1 418.00 987.80
  L 418.00 874.86
  A 1.00 0.99 89.7 0 0 417.00 873.86
  L 396.00 873.93
  Q 393.14 873.94 393.12 876.49
  L 393.05 885.26
  A 1.00 1.00 0.0 0 1 392.05 886.25
  L 371.80 886.25
  A 1.00 1.00 0.0 0 1 370.80 885.26
  Q 370.75 880.22 370.88 863.53
  C 370.97 852.98 377.27 852.50 386.29 852.50
  Q 433.64 852.49 480.99 852.52
  Q 489.28 852.53 490.38 861.17
  Q 491.25 867.99 490.62 885.29
  A 1.00 1.00 0.0 0 1 489.62 886.25
  L 469.38 886.25
  A 1.01 1.00 3.3 0 1 468.38 885.13
  Q 469.04 879.81 467.52 874.72
  Z"
/>
<path fill="#fe7f02" d="
  M 543.56 910.25
  L 601.51 910.25
  A 1.00 1.00 0.0 0 0 602.51 909.25
  Q 602.47 888.34 602.53 867.28
  C 602.55 859.61 604.05 853.17 612.55 852.58
  Q 617.65 852.22 639.27 852.59
  A 1.00 0.99 -89.7 0 1 640.25 853.59
  L 640.25 872.87
  A 1.00 1.00 0.0 0 1 639.27 873.87
  L 631.00 874.03
  Q 627.75 874.09 627.75 877.25
  L 627.75 987.73
  A 1.00 1.00 0.0 0 1 626.75 988.73
  L 603.50 988.79
  A 1.00 1.00 0.0 0 1 602.50 987.79
  Q 602.43 962.19 602.20 936.60
  C 602.19 935.62 602.79 933.72 602.44 932.27
  A 1.00 1.00 0.0 0 0 601.47 931.50
  C 583.62 931.50 565.13 930.65 547.37 931.75
  Q 545.49 931.86 543.64 931.61
  A 1.00 1.00 0.0 0 0 542.50 932.60
  L 542.50 987.72
  A 1.00 1.00 0.0 0 1 541.50 988.72
  L 518.03 988.82
  A 1.00 1.00 0.0 0 1 517.03 987.78
  C 517.47 976.08 517.08 961.93 517.03 952.55
  C 516.85 919.06 517.82 898.84 516.95 876.74
  Q 516.85 873.96 514.50 873.92
  L 505.73 873.77
  A 1.00 1.00 0.0 0 1 504.75 872.77
  L 504.75 853.53
  A 1.00 1.00 0.0 0 1 505.75 852.53
  Q 518.14 852.48 530.51 852.49
  Q 542.18 852.49 542.29 864.57
  Q 542.49 886.90 542.56 909.25
  A 1.00 1.00 0.0 0 0 543.56 910.25
  Z"
/>
<path fill="#fe7f02" d="
  M 695.56 931.74
  Q 695.43 947.03 695.62 963.00
  Q 695.67 967.33 700.00 967.37
  Q 715.38 967.51 730.75 967.49
  Q 735.50 967.49 735.48 962.76
  Q 735.47 959.37 735.51 955.99
  A 1.00 1.00 0.0 0 1 736.51 955.00
  L 757.37 955.00
  A 1.00 0.99 -1.2 0 1 758.37 955.95
  Q 758.89 967.11 758.13 978.11
  C 757.59 986.02 753.18 988.70 745.79 988.72
  Q 715.73 988.78 685.65 988.74
  C 670.00 988.72 670.45 982.68 670.47 969.52
  Q 670.55 922.12 670.47 874.73
  A 1.01 1.00 89.4 0 0 669.46 873.73
  L 658.76 873.80
  A 1.00 0.99 -0.3 0 1 657.75 872.81
  L 657.75 853.55
  A 1.01 1.00 -0.3 0 1 658.75 852.55
  Q 698.66 852.43 738.52 852.53
  C 746.48 852.55 751.98 853.77 753.26 862.25
  Q 753.87 866.29 753.46 885.27
  A 1.00 1.00 0.0 0 1 752.46 886.25
  L 731.52 886.25
  A 1.00 0.99 0.0 0 1 730.52 885.26
  L 730.45 877.32
  Q 730.43 873.99 727.25 873.99
  L 696.50 874.00
  A 1.00 1.00 0.0 0 0 695.50 875.00
  L 695.50 908.50
  A 1.00 1.00 0.0 0 0 696.50 909.50
  L 738.75 909.50
  A 1.00 1.00 0.0 0 1 739.75 910.50
  L 739.75 929.75
  A 1.00 1.00 0.0 0 1 738.75 930.75
  L 696.56 930.75
  A 1.00 0.99 0.0 0 0 695.56 931.74
  Z"
/>
<path fill="#fe7f02" d="
  M 904.47 919.47
  Q 908.72 922.09 911.05 926.63
  Q 920.76 945.49 930.10 964.16
  Q 931.48 966.93 934.00 967.09
  L 941.81 967.60
  A 1.02 1.00 2.2 0 1 942.75 968.60
  L 942.75 987.71
  A 1.00 1.00 0.0 0 1 941.76 988.71
  Q 932.86 988.82 924.00 988.74
  C 915.36 988.65 912.11 984.29 908.22 976.61
  Q 897.59 955.62 887.27 934.49
  C 884.23 928.28 874.82 928.89 868.08 929.36
  A 0.99 0.99 0.0 0 0 867.15 930.35
  L 866.96 987.73
  A 1.00 0.99 -90.0 0 1 865.97 988.73
  L 842.79 988.80
  A 1.00 1.00 0.0 0 1 841.79 987.80
  Q 841.72 934.09 841.75 880.38
  C 841.76 876.55 841.96 874.18 837.24 873.91
  Q 833.74 873.71 830.28 873.81
  A 1.00 1.00 0.0 0 1 829.25 872.81
  L 829.25 853.54
  A 1.00 1.00 0.0 0 1 830.24 852.54
  Q 852.42 852.33 856.94 852.57
  C 865.48 853.02 866.97 859.64 866.96 867.27
  Q 866.93 886.73 867.30 907.01
  A 1.00 0.99 88.0 0 0 868.34 907.99
  Q 874.31 907.74 880.49 907.71
  C 884.39 907.69 886.56 905.18 888.44 901.69
  Q 901.56 877.37 914.65 853.03
  A 1.00 0.99 13.9 0 1 915.53 852.50
  L 941.03 852.50
  A 1.00 1.00 0.0 0 1 941.91 853.98
  Q 927.01 881.32 912.11 908.27
  Q 910.10 911.92 908.43 913.86
  Q 906.56 916.02 904.36 917.84
  A 1.01 1.00 41.2 0 0 904.47 919.47
  Z"
/>
<path fill="#fe7f02" d="
  M 993.56 931.73
  Q 993.44 947.14 993.52 963.00
  Q 993.55 967.70 998.50 967.65
  Q 1013.75 967.52 1028.99 967.48
  C 1031.85 967.47 1033.30 966.03 1033.24 963.08
  Q 1033.17 959.50 1033.35 955.95
  A 1.00 0.99 1.2 0 1 1034.35 955.00
  L 1055.37 955.00
  A 1.00 1.00 0.0 0 1 1056.37 955.97
  Q 1056.80 970.82 1056.11 979.07
  C 1055.42 987.19 1049.62 988.71 1042.19 988.72
  Q 1010.97 988.77 979.73 988.76
  Q 968.37 988.75 968.33 976.74
  Q 968.19 925.75 968.29 874.73
  A 1.00 1.00 0.0 0 0 967.28 873.73
  L 956.76 873.80
  A 1.01 1.00 -0.0 0 1 955.75 872.80
  L 955.75 853.56
  A 1.00 1.00 0.0 0 1 956.75 852.56
  Q 996.70 852.43 1036.58 852.53
  C 1044.06 852.55 1050.31 853.86 1051.15 862.06
  Q 1051.91 869.45 1051.40 885.28
  A 1.00 1.00 0.0 0 1 1050.40 886.25
  L 1029.53 886.25
  A 1.00 1.00 0.0 0 1 1028.53 885.29
  L 1028.21 876.18
  Q 1028.12 873.79 1025.75 873.80
  L 994.50 873.86
  A 1.00 1.00 0.0 0 0 993.50 874.86
  L 993.50 908.50
  A 1.00 1.00 0.0 0 0 994.50 909.50
  L 1036.75 909.50
  A 1.00 1.00 0.0 0 1 1037.75 910.50
  L 1037.75 929.77
  A 1.00 1.00 0.0 0 1 1036.75 930.77
  L 994.56 930.74
  A 1.00 0.99 0.0 0 0 993.56 931.73
  Z"
/>
<path fill="#fe7f02" d="
  M 1124.99 906.02
  Q 1142.05 875.49 1152.82 858.82
  Q 1156.90 852.51 1165.50 852.43
  Q 1172.90 852.36 1180.29 852.59
  A 1.00 1.00 0.0 0 1 1181.26 853.59
  L 1181.27 872.67
  A 1.00 0.99 86.0 0 1 1180.42 873.66
  C 1175.41 874.38 1172.67 872.88 1169.48 877.88
  Q 1153.12 903.51 1136.90 929.21
  A 1.06 1.04 -29.8 0 0 1136.75 929.75
  L 1136.75 987.73
  A 1.00 1.00 0.0 0 1 1135.75 988.73
  L 1112.50 988.79
  A 1.00 1.00 0.0 0 1 1111.50 987.79
  L 1111.50 929.57
  A 1.02 0.98 29.7 0 0 1111.34 929.03
  Q 1095.00 903.30 1078.71 877.55
  C 1077.08 874.97 1075.30 873.95 1072.05 874.02
  Q 1069.98 874.06 1067.93 873.92
  A 1.01 1.00 2.2 0 1 1067.00 872.92
  L 1067.00 853.54
  A 1.00 1.00 0.0 0 1 1067.99 852.54
  Q 1075.39 852.45 1082.76 852.51
  Q 1091.26 852.57 1095.81 859.64
  Q 1100.92 867.57 1114.34 889.92
  Q 1119.57 898.62 1123.23 905.98
  Q 1124.07 907.68 1124.99 906.02
  Z"
/>
<path fill="#000000" d="
  M 485.62 1101.99
  Q 484.69 1099.50 484.09 1102.09
  Q 480.07 1119.48 463.81 1127.58
  C 448.40 1135.26 425.49 1133.43 409.75 1133.24
  C 396.22 1133.07 390.25 1126.23 390.25 1112.87
  Q 390.25 1074.36 390.25 1035.83
  A 1.00 0.99 -2.6 0 0 389.16 1034.84
  Q 383.62 1035.36 381.17 1031.54
  C 378.65 1027.63 379.75 1017.52 379.75 1012.51
  C 379.75 1005.43 381.69 1002.29 388.91 1002.27
  Q 414.70 1002.23 440.50 1002.26
  Q 446.41 1002.26 455.03 1004.89
  C 469.99 1009.44 479.48 1021.34 480.59 1036.82
  Q 481.59 1050.69 472.85 1062.91
  A 1.00 0.99 -52.1 0 0 473.01 1064.25
  Q 478.65 1069.00 481.64 1075.67
  Q 482.70 1078.03 483.16 1075.48
  Q 487.19 1053.13 505.17 1041.65
  C 530.04 1025.78 565.14 1031.86 581.14 1057.34
  Q 584.17 1062.18 585.84 1067.61
  Q 586.56 1069.94 587.36 1067.64
  Q 595.52 1044.30 619.23 1035.98
  C 646.35 1026.47 678.28 1039.09 688.07 1066.98
  C 693.23 1081.70 691.15 1098.86 682.74 1111.94
  C 667.91 1135.01 635.68 1140.93 611.88 1128.91
  Q 594.64 1120.21 587.61 1101.22
  Q 586.67 1098.68 585.74 1101.22
  Q 577.09 1124.69 553.26 1132.27
  C 536.18 1137.71 516.32 1135.02 502.00 1124.23
  Q 490.76 1115.75 485.62 1101.99
  Z
  M 460.69 1063.75
  Q 469.84 1058.01 472.45 1047.23
  C 478.22 1023.43 459.90 1009.59 437.74 1009.52
  Q 412.91 1009.45 388.00 1009.55
  A 1.01 1.00 -0.3 0 0 387.00 1010.55
  L 387.00 1026.67
  A 1.00 1.00 0.0 0 0 388.00 1027.67
  L 396.74 1027.69
  A 1.00 1.00 0.0 0 1 397.74 1028.69
  Q 397.75 1071.31 397.76 1113.92
  C 397.76 1120.77 399.51 1125.57 407.00 1125.71
  Q 419.04 1125.93 442.67 1125.64
  C 467.15 1125.34 484.60 1104.14 475.66 1080.05
  Q 471.87 1069.85 460.81 1065.16
  Q 459.39 1064.56 460.69 1063.75
  Z
  M 489.82 1083.23
  C 488.76 1133.39 560.63 1144.16 578.36 1100.17
  Q 582.17 1090.71 581.24 1080.80
  C 576.03 1025.26 491.00 1027.56 489.82 1083.23
  Z
  M 592.10 1082.35
  C 589.86 1131.96 660.90 1144.54 679.99 1101.95
  C 685.08 1090.58 684.65 1076.16 679.23 1064.88
  C 659.77 1024.41 594.19 1035.72 592.10 1082.35
  Z"
/>
<path fill="#000000" d="
  M 691.95 1034.57
  Q 682.96 1034.43 682.77 1025.29
  Q 682.71 1022.28 682.76 1010.76
  Q 682.80 1002.15 692.00 1002.18
  Q 702.00 1002.22 711.99 1002.40
  C 726.97 1002.68 728.42 1012.14 728.47 1025.13
  Q 728.55 1044.54 728.48 1063.94
  Q 728.48 1065.20 729.36 1064.30
  Q 729.46 1064.20 729.55 1064.05
  Q 737.52 1051.53 745.54 1039.05
  C 747.80 1035.54 750.66 1034.82 754.97 1034.79
  Q 764.55 1034.70 774.63 1034.78
  Q 777.02 1034.79 779.04 1036.09
  C 785.03 1039.95 781.96 1045.51 778.67 1050.41
  Q 768.78 1065.15 758.87 1079.89
  A 0.99 0.98 48.5 0 0 758.81 1080.91
  L 769.26 1100.56
  A 1.01 1.01 0.0 0 0 770.28 1101.08
  Q 775.21 1100.42 779.70 1102.38
  A 1.01 1.00 29.7 0 0 780.91 1102.06
  C 784.29 1097.46 787.07 1090.76 794.23 1092.68
  C 795.31 1092.98 795.04 1092.09 794.58 1091.86
  C 775.14 1082.09 769.61 1055.87 787.65 1041.55
  C 802.74 1029.57 837.07 1029.13 849.57 1045.91
  Q 850.53 1047.19 850.50 1045.59
  Q 850.49 1045.47 850.47 1045.32
  C 849.64 1040.53 851.46 1036.20 856.49 1035.16
  Q 858.54 1034.74 860.61 1034.61
  A 1.00 0.99 87.9 0 0 861.55 1033.59
  Q 861.41 1028.11 861.64 1020.68
  Q 861.90 1012.27 870.24 1012.13
  Q 879.13 1011.98 887.99 1012.19
  C 899.61 1012.46 896.52 1026.23 896.50 1033.78
  A 0.99 0.99 0.0 0 0 897.52 1034.78
  C 906.90 1034.55 915.42 1032.65 915.50 1045.37
  C 915.54 1051.66 917.97 1065.83 907.94 1065.92
  Q 902.73 1065.96 897.54 1066.10
  A 1.00 1.00 0.0 0 0 896.57 1067.09
  Q 896.43 1079.49 896.53 1091.76
  C 896.66 1108.08 911.48 1095.54 915.88 1105.29
  C 917.87 1109.69 916.71 1119.62 916.80 1124.99
  Q 916.94 1132.44 909.66 1133.44
  C 883.29 1137.07 861.37 1123.65 861.27 1095.43
  Q 861.22 1081.27 861.26 1067.00
  A 1.01 1.00 88.9 0 0 860.22 1065.99
  Q 857.23 1066.13 854.49 1065.02
  A 1.00 1.00 0.0 0 0 853.12 1065.86
  Q 852.46 1073.20 844.52 1073.37
  Q 840.82 1073.44 837.16 1073.53
  A 0.33 0.33 0.0 0 0 836.85 1073.93
  L 836.91 1074.19
  A 0.29 0.28 6.9 0 0 837.06 1074.38
  C 860.85 1084.89 863.44 1116.14 840.72 1129.19
  Q 832.94 1133.66 821.66 1134.72
  Q 801.76 1136.59 784.60 1125.02
  A 1.00 1.00 0.0 0 0 783.05 1125.76
  Q 782.45 1132.23 775.56 1133.13
  Q 771.83 1133.62 759.03 1133.11
  Q 746.93 1132.63 741.65 1123.15
  C 740.44 1120.97 728.97 1099.53 728.75 1099.50
  A 0.33 0.32 3.0 0 0 728.38 1099.83
  Q 728.62 1110.42 728.46 1121.00
  C 728.37 1127.00 728.31 1132.60 721.05 1132.93
  Q 707.64 1133.55 700.68 1133.11
  C 694.09 1132.68 693.00 1128.08 693.01 1122.13
  Q 693.04 1078.85 692.94 1035.57
  A 1.01 1.00 0.6 0 0 691.95 1034.57
  Z
  M 748.95 1079.61
  Q 750.90 1078.14 752.33 1076.10
  Q 763.53 1060.02 774.36 1043.61
  Q 775.38 1042.06 773.53 1042.06
  L 752.90 1041.97
  A 1.02 1.01 16.5 0 0 752.05 1042.43
  Q 744.38 1054.37 736.72 1066.32
  C 734.28 1070.13 732.44 1071.69 727.99 1071.71
  Q 723.99 1071.72 722.31 1071.71
  A 1.00 1.00 0.0 0 1 721.32 1070.72
  Q 721.07 1045.44 720.98 1020.12
  C 720.96 1013.48 719.74 1009.75 712.47 1009.60
  Q 701.89 1009.39 691.21 1009.54
  A 1.00 1.00 0.0 0 0 690.22 1010.54
  L 690.26 1026.24
  A 1.00 1.00 0.0 0 0 691.25 1027.24
  L 697.93 1027.29
  Q 700.16 1027.30 700.18 1029.54
  C 700.44 1061.34 699.91 1093.14 700.34 1124.94
  A 1.00 1.00 0.0 0 0 701.34 1125.93
  L 720.18 1125.94
  A 1.01 1.00 90.0 0 0 721.18 1124.93
  L 721.01 1090.18
  A 1.00 0.99 -88.1 0 1 722.07 1089.18
  L 729.26 1089.62
  Q 732.03 1089.80 733.60 1092.79
  Q 740.53 1105.94 747.96 1119.77
  C 750.18 1123.90 753.16 1125.42 758.01 1125.73
  Q 766.46 1126.26 774.93 1125.83
  A 1.00 1.00 0.0 0 0 775.88 1124.82
  L 775.75 1109.37
  A 1.01 1.01 0.0 0 0 774.85 1108.38
  Q 771.69 1108.04 768.49 1108.11
  Q 765.11 1108.18 764.03 1106.21
  Q 758.64 1096.31 753.26 1086.41
  Q 751.60 1083.36 748.92 1081.18
  A 1.00 0.99 -44.0 0 1 748.95 1079.61
  Z
  M 868.44 1059.75
  Q 868.47 1075.68 868.56 1091.59
  Q 868.62 1101.81 869.76 1105.91
  C 874.60 1123.30 892.66 1128.32 908.62 1126.44
  A 1.00 1.00 0.0 0 0 909.50 1125.45
  L 909.50 1109.33
  A 1.00 0.99 88.9 0 0 908.47 1108.33
  Q 906.97 1108.38 905.55 1108.34
  Q 889.32 1108.00 889.29 1091.75
  Q 889.26 1075.78 889.27 1059.75
  A 1.00 1.00 0.0 0 1 890.27 1058.75
  L 907.25 1058.75
  A 1.00 1.00 0.0 0 0 908.25 1057.75
  L 908.25 1042.98
  A 1.00 0.99 89.7 0 0 907.25 1041.98
  L 890.25 1042.05
  A 1.00 1.00 0.0 0 1 889.25 1041.05
  L 889.25 1020.25
  A 1.00 1.00 0.0 0 0 888.25 1019.25
  L 870.01 1019.25
  A 1.01 1.00 -89.7 0 0 869.01 1020.25
  L 868.96 1041.00
  A 1.00 1.00 0.0 0 1 867.96 1042.00
  L 858.50 1042.00
  A 1.00 1.00 0.0 0 0 857.50 1043.00
  L 857.50 1057.75
  A 1.00 1.00 0.0 0 0 858.50 1058.75
  L 867.44 1058.75
  A 1.00 1.00 0.0 0 1 868.44 1059.75
  Z
  M 784.50 1059.48
  C 779.72 1081.12 804.01 1089.05 819.68 1095.33
  C 824.24 1097.16 831.54 1101.74 826.94 1107.75
  C 822.66 1113.35 811.94 1111.75 806.50 1109.48
  Q 798.67 1106.21 792.70 1100.04
  A 1.00 0.99 -49.3 0 0 791.17 1100.16
  L 782.45 1112.38
  A 1.00 1.00 0.0 0 0 782.57 1113.69
  Q 801.27 1131.51 826.95 1126.49
  C 853.67 1121.26 857.49 1089.87 831.69 1079.54
  Q 821.65 1075.52 811.64 1071.43
  C 808.00 1069.95 803.46 1066.40 804.67 1062.33
  C 806.85 1054.94 822.84 1054.32 826.61 1059.97
  Q 828.03 1062.10 827.60 1065.11
  A 1.00 1.00 0.0 0 0 828.59 1066.25
  L 844.79 1066.25
  A 1.00 1.00 0.0 0 0 845.79 1065.25
  Q 845.79 1061.62 845.73 1057.98
  C 845.52 1044.84 831.72 1041.46 821.37 1040.41
  C 807.13 1038.97 788.05 1043.39 784.50 1059.48
  Z
  M 814.42 1064.86
  Q 816.72 1065.88 819.05 1066.79
  Q 820.76 1067.46 820.40 1065.66
  Q 819.98 1063.59 817.38 1062.77
  A 0.97 0.93 46.1 0 0 816.84 1062.75
  Q 812.21 1063.88 814.42 1064.86
  Z
  M 798.83 1096.04
  Q 803.24 1099.87 808.48 1102.53
  Q 812.68 1104.66 819.02 1104.38
  C 820.15 1104.32 819.84 1103.41 819.12 1103.11
  Q 809.15 1098.93 799.68 1094.71
  Q 794.78 1092.52 798.83 1096.04
  Z"
/>
<path fill="#98ff00" d="
  M 460.81 1065.16
  Q 471.87 1069.85 475.66 1080.05
  C 484.60 1104.14 467.15 1125.34 442.67 1125.64
  Q 419.04 1125.93 407.00 1125.71
  C 399.51 1125.57 397.76 1120.77 397.76 1113.92
  Q 397.75 1071.31 397.74 1028.69
  A 1.00 1.00 0.0 0 0 396.74 1027.69
  L 388.00 1027.67
  A 1.00 1.00 0.0 0 1 387.00 1026.67
  L 387.00 1010.55
  A 1.01 1.00 -0.3 0 1 388.00 1009.55
  Q 412.91 1009.45 437.74 1009.52
  C 459.90 1009.59 478.22 1023.43 472.45 1047.23
  Q 469.84 1058.01 460.69 1063.75
  Q 459.39 1064.56 460.81 1065.16
  Z
  M 437.95 1057.20
  C 456.87 1055.50 455.02 1027.71 439.48 1027.76
  Q 429.84 1027.78 420.01 1027.70
  A 1.00 1.00 0.0 0 0 419.00 1028.70
  L 419.00 1056.15
  A 1.00 1.00 0.0 0 0 419.97 1057.15
  Q 434.40 1057.53 437.95 1057.20
  Z
  M 421.53 1107.37
  Q 430.73 1108.20 440.57 1107.73
  C 461.20 1106.74 461.01 1074.60 439.73 1074.27
  Q 429.96 1074.12 419.97 1074.35
  A 1.00 1.00 0.0 0 0 418.99 1075.35
  L 419.02 1104.68
  Q 419.02 1107.14 421.53 1107.37
  Z"
/>
<path fill="#98ff00" d="
  M 748.95 1079.61
  A 1.00 0.99 -44.0 0 0 748.92 1081.18
  Q 751.60 1083.36 753.26 1086.41
  Q 758.64 1096.31 764.03 1106.21
  Q 765.11 1108.18 768.49 1108.11
  Q 771.69 1108.04 774.85 1108.38
  A 1.01 1.01 0.0 0 1 775.75 1109.37
  L 775.88 1124.82
  A 1.00 1.00 0.0 0 1 774.93 1125.83
  Q 766.46 1126.26 758.01 1125.73
  C 753.16 1125.42 750.18 1123.90 747.96 1119.77
  Q 740.53 1105.94 733.60 1092.79
  Q 732.03 1089.80 729.26 1089.62
  L 722.07 1089.18
  A 1.00 0.99 -88.1 0 0 721.01 1090.18
  L 721.18 1124.93
  A 1.01 1.00 -90.0 0 1 720.18 1125.94
  L 701.34 1125.93
  A 1.00 1.00 0.0 0 1 700.34 1124.94
  C 699.91 1093.14 700.44 1061.34 700.18 1029.54
  Q 700.16 1027.30 697.93 1027.29
  L 691.25 1027.24
  A 1.00 1.00 0.0 0 1 690.26 1026.24
  L 690.22 1010.54
  A 1.00 1.00 0.0 0 1 691.21 1009.54
  Q 701.89 1009.39 712.47 1009.60
  C 719.74 1009.75 720.96 1013.48 720.98 1020.12
  Q 721.07 1045.44 721.32 1070.72
  A 1.00 1.00 0.0 0 0 722.31 1071.71
  Q 723.99 1071.72 727.99 1071.71
  C 732.44 1071.69 734.28 1070.13 736.72 1066.32
  Q 744.38 1054.37 752.05 1042.43
  A 1.02 1.01 16.5 0 1 752.90 1041.97
  L 773.53 1042.06
  Q 775.38 1042.06 774.36 1043.61
  Q 763.53 1060.02 752.33 1076.10
  Q 750.90 1078.14 748.95 1079.61
  Z"
/>
<path fill="#98ff00" d="
  M 867.44 1058.75
  L 858.50 1058.75
  A 1.00 1.00 0.0 0 1 857.50 1057.75
  L 857.50 1043.00
  A 1.00 1.00 0.0 0 1 858.50 1042.00
  L 867.96 1042.00
  A 1.00 1.00 0.0 0 0 868.96 1041.00
  L 869.01 1020.25
  A 1.01 1.00 -89.7 0 1 870.01 1019.25
  L 888.25 1019.25
  A 1.00 1.00 0.0 0 1 889.25 1020.25
  L 889.25 1041.05
  A 1.00 1.00 0.0 0 0 890.25 1042.05
  L 907.25 1041.98
  A 1.00 0.99 89.7 0 1 908.25 1042.98
  L 908.25 1057.75
  A 1.00 1.00 0.0 0 1 907.25 1058.75
  L 890.27 1058.75
  A 1.00 1.00 0.0 0 0 889.27 1059.75
  Q 889.26 1075.78 889.29 1091.75
  Q 889.32 1108.00 905.55 1108.34
  Q 906.97 1108.38 908.47 1108.33
  A 1.00 0.99 88.9 0 1 909.50 1109.33
  L 909.50 1125.45
  A 1.00 1.00 0.0 0 1 908.62 1126.44
  C 892.66 1128.32 874.60 1123.30 869.76 1105.91
  Q 868.62 1101.81 868.56 1091.59
  Q 868.47 1075.68 868.44 1059.75
  A 1.00 1.00 0.0 0 0 867.44 1058.75
  Z"
/>
<path fill="#000000" d="
  M 439.48 1027.76
  C 455.02 1027.71 456.87 1055.50 437.95 1057.20
  Q 434.40 1057.53 419.97 1057.15
  A 1.00 1.00 0.0 0 1 419.00 1056.15
  L 419.00 1028.70
  A 1.00 1.00 0.0 0 1 420.01 1027.70
  Q 429.84 1027.78 439.48 1027.76
  Z
  M 426.27 1048.94
  A 1.00 1.00 0.0 0 0 427.23 1049.94
  C 434.23 1050.22 446.45 1052.09 444.13 1039.99
  C 442.77 1032.89 432.62 1034.96 427.26 1035.03
  A 1.00 1.00 0.0 0 0 426.27 1036.03
  L 426.27 1048.94
  Z"
/>
<path fill="#000000" d="
  M 1015.62 1067.01
  Q 1020.44 1082.51 1016.49 1097.50
  C 1003.97 1145.09 933.39 1147.97 915.65 1102.84
  Q 911.17 1091.45 912.42 1079.12
  C 916.02 1043.62 951.13 1025.38 983.52 1036.04
  Q 1001.30 1041.89 1011.07 1057.41
  Q 1012.60 1059.85 1012.55 1056.97
  Q 1012.37 1048.04 1012.60 1042.83
  C 1012.90 1035.92 1017.55 1034.88 1023.71 1034.77
  Q 1032.26 1034.61 1040.80 1034.95
  Q 1048.89 1035.28 1054.10 1041.08
  A 1.00 1.00 0.0 0 0 1055.48 1041.18
  Q 1067.59 1031.26 1082.01 1033.96
  Q 1087.23 1034.94 1087.62 1041.17
  Q 1087.94 1046.22 1087.68 1051.06
  Q 1087.55 1053.63 1089.12 1051.59
  Q 1100.18 1037.14 1118.44 1033.92
  C 1153.85 1027.68 1176.02 1053.23 1172.26 1087.51
  Q 1171.77 1091.98 1168.44 1093.90
  Q 1166.03 1095.30 1162.05 1094.97
  Q 1159.48 1094.75 1161.47 1096.38
  Q 1161.61 1096.49 1161.76 1096.59
  Q 1161.97 1096.72 1162.10 1096.94
  Q 1165.15 1102.19 1168.31 1107.37
  C 1171.95 1113.32 1173.56 1118.01 1167.28 1122.55
  Q 1142.13 1140.75 1113.85 1132.35
  C 1102.14 1128.88 1091.32 1120.85 1085.68 1110.33
  Q 1075.36 1091.10 1080.63 1069.88
  A 1.00 1.00 0.0 0 0 1079.81 1068.65
  Q 1066.59 1066.57 1060.58 1078.31
  C 1058.83 1081.72 1058.33 1086.38 1058.29 1090.75
  Q 1058.14 1108.00 1057.96 1125.25
  C 1057.89 1132.01 1052.88 1133.09 1046.96 1133.23
  Q 1035.30 1133.50 1030.18 1133.13
  C 1023.94 1132.69 1022.79 1128.17 1022.78 1122.50
  Q 1022.71 1095.21 1022.76 1068.05
  A 1.00 0.99 -1.6 0 0 1021.70 1067.05
  Q 1019.02 1067.23 1016.75 1066.06
  Q 1015.05 1065.19 1015.62 1067.01
  Z
  M 919.62 1085.66
  C 920.90 1120.66 958.70 1137.16 987.53 1122.53
  C 1022.03 1105.02 1017.53 1054.60 981.00 1042.67
  C 951.02 1032.87 918.40 1052.32 919.62 1085.66
  Z
  M 1108.65 1087.64
  L 1163.94 1087.70
  A 1.00 1.00 0.0 0 0 1164.93 1086.84
  Q 1167.38 1069.29 1158.64 1055.49
  C 1148.20 1038.99 1125.92 1036.72 1109.45 1044.24
  C 1081.19 1057.15 1078.42 1100.00 1102.30 1118.51
  C 1120.61 1132.71 1146.09 1129.80 1163.87 1115.84
  A 1.01 1.00 55.7 0 0 1164.11 1114.54
  L 1156.48 1101.79
  A 1.00 1.00 0.0 0 0 1154.99 1101.52
  Q 1145.73 1109.00 1135.26 1109.98
  Q 1123.59 1111.07 1115.57 1104.20
  Q 1108.81 1098.41 1107.66 1088.76
  A 1.00 1.00 0.0 0 1 1108.65 1087.64
  Z
  M 1049.83 1061.74
  C 1050.20 1054.80 1052.31 1044.05 1041.93 1042.33
  Q 1037.94 1041.66 1021.00 1042.03
  A 1.01 1.01 0.0 0 0 1020.02 1043.03
  L 1019.95 1058.73
  A 1.00 0.99 0.6 0 0 1020.94 1059.73
  L 1027.19 1059.79
  Q 1030.00 1059.82 1030.00 1062.75
  L 1030.00 1124.80
  A 1.00 0.99 -0.0 0 0 1031.00 1125.79
  L 1049.75 1125.87
  A 1.00 0.99 -89.7 0 0 1050.75 1124.87
  Q 1050.73 1109.41 1050.74 1092.75
  C 1050.75 1084.85 1052.40 1076.10 1057.24 1069.96
  Q 1065.13 1059.96 1079.41 1061.31
  A 1.00 1.00 0.0 0 0 1080.50 1060.31
  L 1080.50 1041.89
  A 1.01 1.00 -86.8 0 0 1079.61 1040.89
  C 1065.52 1039.41 1054.38 1048.97 1050.23 1061.85
  A 0.20 0.13 -79.9 0 1 1050.10 1061.99
  L 1050.00 1062.00
  A 0.24 0.16 -89.1 0 1 1049.83 1061.74
  Z
  M 1119.17 1097.72
  Q 1127.23 1104.07 1135.83 1102.52
  Q 1143.63 1101.11 1149.88 1096.28
  Q 1151.72 1094.87 1149.40 1094.85
  Q 1133.69 1094.75 1117.94 1095.15
  Q 1117.33 1095.17 1118.97 1097.51
  Q 1119.06 1097.63 1119.17 1097.72
  Z"
/>
<path fill="#98ff00" d="
  M 578.36 1100.17
  C 560.63 1144.16 488.76 1133.39 489.82 1083.23
  C 491.00 1027.56 576.03 1025.26 581.24 1080.80
  Q 582.17 1090.71 578.36 1100.17
  Z
  M 535.5357 1110.2100
  A 26.20 24.93 89.9 0 0 560.4200 1083.9665
  A 26.20 24.93 89.9 0 0 535.4443 1057.8100
  A 26.20 24.93 89.9 0 0 510.5600 1084.0535
  A 26.20 24.93 89.9 0 0 535.5357 1110.2100
  Z"
/>
<path fill="#98ff00" d="
  M 679.99 1101.95
  C 660.90 1144.54 589.86 1131.96 592.10 1082.35
  C 594.19 1035.72 659.77 1024.41 679.23 1064.88
  C 684.65 1076.16 685.08 1090.58 679.99 1101.95
  Z
  M 637.7185 1110.2198
  A 26.21 24.92 90.2 0 0 662.7298 1084.0970
  A 26.21 24.92 90.2 0 0 637.9015 1057.8002
  A 26.21 24.92 90.2 0 0 612.8902 1083.9230
  A 26.21 24.92 90.2 0 0 637.7185 1110.2198
  Z"
/>
<path fill="#98ff00" d="
  M 819.68 1095.33
  C 804.01 1089.05 779.72 1081.12 784.50 1059.48
  C 788.05 1043.39 807.13 1038.97 821.37 1040.41
  C 831.72 1041.46 845.52 1044.84 845.73 1057.98
  Q 845.79 1061.62 845.79 1065.25
  A 1.00 1.00 0.0 0 1 844.79 1066.25
  L 828.59 1066.25
  A 1.00 1.00 0.0 0 1 827.60 1065.11
  Q 828.03 1062.10 826.61 1059.97
  C 822.84 1054.32 806.85 1054.94 804.67 1062.33
  C 803.46 1066.40 808.00 1069.95 811.64 1071.43
  Q 821.65 1075.52 831.69 1079.54
  C 857.49 1089.87 853.67 1121.26 826.95 1126.49
  Q 801.27 1131.51 782.57 1113.69
  A 1.00 1.00 0.0 0 1 782.45 1112.38
  L 791.17 1100.16
  A 1.00 0.99 -49.3 0 1 792.70 1100.04
  Q 798.67 1106.21 806.50 1109.48
  C 811.94 1111.75 822.66 1113.35 826.94 1107.75
  C 831.54 1101.74 824.24 1097.16 819.68 1095.33
  Z"
/>
<path fill="#98ff00" d="
  M 987.53 1122.53
  C 958.70 1137.16 920.90 1120.66 919.62 1085.66
  C 918.40 1052.32 951.02 1032.87 981.00 1042.67
  C 1017.53 1054.60 1022.03 1105.02 987.53 1122.53
  Z
  M 965.2043 1110.2200
  A 26.21 24.92 90.1 0 0 990.1700 1084.0535
  A 26.21 24.92 90.1 0 0 965.2957 1057.8000
  A 26.21 24.92 90.1 0 0 940.3300 1083.9665
  A 26.21 24.92 90.1 0 0 965.2043 1110.2200
  Z"
/>
<path fill="#98ff00" d="
  M 1107.66 1088.76
  Q 1108.81 1098.41 1115.57 1104.20
  Q 1123.59 1111.07 1135.26 1109.98
  Q 1145.73 1109.00 1154.99 1101.52
  A 1.00 1.00 0.0 0 1 1156.48 1101.79
  L 1164.11 1114.54
  A 1.01 1.00 55.7 0 1 1163.87 1115.84
  C 1146.09 1129.80 1120.61 1132.71 1102.30 1118.51
  C 1078.42 1100.00 1081.19 1057.15 1109.45 1044.24
  C 1125.92 1036.72 1148.20 1038.99 1158.64 1055.49
  Q 1167.38 1069.29 1164.93 1086.84
  A 1.00 1.00 0.0 0 1 1163.94 1087.70
  L 1108.65 1087.64
  A 1.00 1.00 0.0 0 0 1107.66 1088.76
  Z
  M 1137.79 1059.71
  Q 1132.98 1055.74 1127.23 1056.23
  Q 1112.20 1057.53 1108.54 1072.01
  A 1.00 1.00 0.0 0 0 1109.51 1073.25
  L 1143.04 1073.25
  A 1.00 0.99 88.4 0 0 1144.03 1072.19
  Q 1143.60 1064.51 1137.79 1059.71
  Z"
/>
<path fill="#98ff00" d="
  M 1050.00 1062.00
  L 1050.10 1061.99
  A 0.20 0.13 -79.9 0 0 1050.23 1061.85
  C 1054.38 1048.97 1065.52 1039.41 1079.61 1040.89
  A 1.01 1.00 -86.8 0 1 1080.50 1041.89
  L 1080.50 1060.31
  A 1.00 1.00 0.0 0 1 1079.41 1061.31
  Q 1065.13 1059.96 1057.24 1069.96
  C 1052.40 1076.10 1050.75 1084.85 1050.74 1092.75
  Q 1050.73 1109.41 1050.75 1124.87
  A 1.00 0.99 -89.7 0 1 1049.75 1125.87
  L 1031.00 1125.79
  A 1.00 0.99 0.0 0 1 1030.00 1124.80
  L 1030.00 1062.75
  Q 1030.00 1059.82 1027.19 1059.79
  L 1020.94 1059.73
  A 1.00 0.99 0.6 0 1 1019.95 1058.73
  L 1020.02 1043.03
  A 1.01 1.01 0.0 0 1 1021.00 1042.03
  Q 1037.94 1041.66 1041.93 1042.33
  C 1052.31 1044.05 1050.20 1054.80 1049.83 1061.74
  A 0.24 0.16 -89.1 0 0 1050.00 1062.00
  Z"
/>
<path fill="#000000" d="
  M 1137.79 1059.71
  Q 1143.60 1064.51 1144.03 1072.19
  A 1.00 0.99 88.4 0 1 1143.04 1073.25
  L 1109.51 1073.25
  A 1.00 1.00 0.0 0 1 1108.54 1072.01
  Q 1112.20 1057.53 1127.23 1056.23
  Q 1132.98 1055.74 1137.79 1059.71
  Z
  M 1124.61 1065.98
  L 1133.19 1066.02
  A 0.43 0.39 23.5 0 0 1133.45 1065.93
  C 1133.87 1065.59 1133.51 1065.07 1133.15 1064.89
  Q 1128.75 1062.77 1124.34 1064.02
  Q 1117.54 1065.95 1124.61 1065.98
  Z"
/>
<path fill="#000000" d="
  M 535.5357 1110.2100
  A 26.20 24.93 89.9 0 1 510.5600 1084.0535
  A 26.20 24.93 89.9 0 1 535.4443 1057.8100
  A 26.20 24.93 89.9 0 1 560.4200 1083.9665
  A 26.20 24.93 89.9 0 1 535.5357 1110.2100
  Z
  M 535.4339 1102.9499
  A 18.94 17.65 90.2 0 0 553.1499 1084.0716
  A 18.94 17.65 90.2 0 0 535.5661 1065.0701
  A 18.94 17.65 90.2 0 0 517.8501 1083.9484
  A 18.94 17.65 90.2 0 0 535.4339 1102.9499
  Z"
/>
<path fill="#000000" d="
  M 637.7185 1110.2198
  A 26.21 24.92 90.2 0 1 612.8902 1083.9230
  A 26.21 24.92 90.2 0 1 637.9015 1057.8002
  A 26.21 24.92 90.2 0 1 662.7298 1084.0970
  A 26.21 24.92 90.2 0 1 637.7185 1110.2198
  Z
  M 637.8431 1102.9500
  A 18.94 17.65 89.9 0 0 655.4600 1083.9792
  A 18.94 17.65 89.9 0 0 637.7769 1065.0700
  A 18.94 17.65 89.9 0 0 620.1600 1084.0408
  A 18.94 17.65 89.9 0 0 637.8431 1102.9500
  Z"
/>
<path fill="#000000" d="
  M 965.2043 1110.2200
  A 26.21 24.92 90.1 0 1 940.3300 1083.9665
  A 26.21 24.92 90.1 0 1 965.2957 1057.8000
  A 26.21 24.92 90.1 0 1 990.1700 1084.0535
  A 26.21 24.92 90.1 0 1 965.2043 1110.2200
  Z
  M 965.2269 1102.9500
  A 18.94 17.65 90.1 0 0 982.9100 1084.0408
  A 18.94 17.65 90.1 0 0 965.2931 1065.0700
  A 18.94 17.65 90.1 0 0 947.6100 1083.9792
  A 18.94 17.65 90.1 0 0 965.2269 1102.9500
  Z"
/>
<path fill="#000000" d="
  M 421.53 1107.37
  Q 419.02 1107.14 419.02 1104.68
  L 418.99 1075.35
  A 1.00 1.00 0.0 0 1 419.97 1074.35
  Q 429.96 1074.12 439.73 1074.27
  C 461.01 1074.60 461.20 1106.74 440.57 1107.73
  Q 430.73 1108.20 421.53 1107.37
  Z
  M 444.81 1082.99
  Q 442.99 1081.59 441.25 1081.58
  L 427.25 1081.47
  A 1.00 0.99 -89.7 0 0 426.25 1082.47
  L 426.26 1099.44
  A 0.99 0.99 0.0 0 0 427.21 1100.43
  Q 433.88 1100.74 440.51 1100.26
  C 449.73 1099.60 451.13 1087.86 444.81 1082.99
  Z"
/>
</svg>
