<?xml version="1.0" encoding="UTF-8" standalone="no"?>
<!DOCTYPE svg PUBLIC "-//W3C//DTD SVG 1.1//EN" "http://www.w3.org/Graphics/SVG/1.1/DTD/svg11.dtd">
<svg xmlns="http://www.w3.org/2000/svg" version="1.1" viewBox="0 0 1080 1080">
<g stroke-width="2.00" fill="none" stroke-linecap="butt">
<path stroke="#040606" vector-effect="non-scaling-stroke" d="
  M 320.04 722.00
  C 322.44 725.74 324.39 729.13 321.21 732.70
  A 0.99 0.99 0.0 0 0 321.03 733.73
  Q 322.05 736.37 324.48 737.77
  A 1.00 1.00 0.0 0 1 324.96 738.83
  C 323.85 744.57 329.14 747.00 333.89 746.91
  Q 336.82 746.85 337.99 747.35
  Q 339.78 748.12 341.04 749.59
  A 1.00 1.00 0.0 0 1 340.83 751.07
  L 340.25 751.46"
/>
<path stroke="#040606" vector-effect="non-scaling-stroke" d="
  M 400.96 706.00
  C 401.93 703.47 397.36 702.71 395.58 702.24
  Q 387.37 700.09 388.10 691.52
  A 1.02 1.00 77.6 0 1 388.58 690.75
  Q 388.96 690.52 389.16 690.16
  A 1.00 1.00 0.0 0 1 390.09 689.66
  C 394.26 689.90 400.64 690.02 398.65 684.50
  A 1.01 0.98 -8.1 0 0 397.75 683.84
  Q 394.43 683.71 390.80 685.76
  Q 389.07 686.74 386.50 685.71"
/>
</g>
<path fill="#040606" d="
  M 858.20 137.33
  A 29.23 29.23 0.0 0 1 828.97 166.56
  A 29.23 29.23 0.0 0 1 799.74 137.33
  A 29.23 29.23 0.0 0 1 828.97 108.10
  A 29.23 29.23 0.0 0 1 858.20 137.33
  Z
  M 828.05 114.75
  C 825.42 115.62 825.74 118.28 825.65 120.97
  A 1.00 0.97 -14.5 0 1 825.14 121.81
  Q 817.58 126.02 819.79 133.58
  C 821.34 138.90 825.32 140.37 830.53 140.90
  A 1.04 1.03 -11.6 0 1 831.31 141.41
  C 835.57 149.12 823.96 146.16 821.14 147.58
  Q 817.69 149.30 820.55 152.99
  A 1.02 1.01 75.1 0 0 821.20 153.37
  L 824.96 153.91
  A 1.01 1.00 -83.9 0 1 825.82 154.98
  C 825.61 157.66 826.27 160.50 829.51 160.02
  C 832.34 159.60 832.29 156.49 832.35 153.72
  A 0.98 0.98 0.0 0 1 832.87 152.87
  C 842.87 147.35 839.13 134.23 828.08 133.88
  A 1.01 0.98 -24.7 0 1 827.51 133.68
  Q 824.04 131.06 827.31 128.05
  A 0.99 0.99 0.0 0 1 827.80 127.81
  C 831.09 127.19 836.32 128.46 837.96 126.15
  C 840.54 122.52 836.49 120.87 833.33 121.02
  A 1.00 1.00 0.0 0 1 832.32 119.76
  C 832.96 117.37 831.04 113.75 828.05 114.75
  Z"
/>
<path fill="#040606" d="
  M 934.73 250.30
  C 928.91 263.76 910.38 264.94 903.01 252.04
  C 900.64 247.89 900.03 241.49 900.53 236.75
  C 900.93 232.95 899.05 231.76 895.48 231.76
  Q 859.48 231.74 823.50 231.75
  A 1.00 1.00 0.0 0 1 822.50 230.75
  L 822.50 173.89
  A 1.00 1.00 0.0 0 1 823.61 172.90
  Q 843.08 175.00 855.67 161.17
  C 863.27 152.82 866.20 140.82 863.87 129.78
  Q 861.28 117.57 851.24 109.42
  Q 849.49 108.00 851.74 108.00
  L 934.98 108.00
  A 1.01 1.00 89.7 0 1 935.98 109.00
  Q 936.02 175.76 935.99 242.47
  Q 935.99 247.38 934.73 250.30
  Z
  M 926.50 121.16
  A 3.40 3.40 0.0 0 0 923.10 117.76
  L 877.90 117.76
  A 3.40 3.40 0.0 0 0 874.50 121.16
  L 874.50 137.10
  A 3.40 3.40 0.0 0 0 877.90 140.50
  L 923.10 140.50
  A 3.40 3.40 0.0 0 0 926.50 137.10
  L 926.50 121.16
  Z
  M 926.45 153.57
  A 3.30 3.30 0.0 0 0 923.15 150.27
  L 877.89 150.27
  A 3.30 3.30 0.0 0 0 874.59 153.57
  L 874.59 153.67
  A 3.30 3.30 0.0 0 0 877.89 156.97
  L 923.15 156.97
  A 3.30 3.30 0.0 0 0 926.45 153.67
  L 926.45 153.57
  Z
  M 926.47 169.94
  A 3.19 3.19 0.0 0 0 923.28 166.75
  L 864.74 166.75
  A 3.19 3.19 0.0 0 0 861.55 169.94
  L 861.55 170.04
  A 3.19 3.19 0.0 0 0 864.74 173.23
  L 923.28 173.23
  A 3.19 3.19 0.0 0 0 926.47 170.04
  L 926.47 169.94
  Z
  M 926.47 186.20
  A 3.20 3.20 0.0 0 0 923.27 183.00
  L 835.49 183.00
  A 3.20 3.20 0.0 0 0 832.29 186.20
  L 832.29 186.30
  A 3.20 3.20 0.0 0 0 835.49 189.50
  L 923.27 189.50
  A 3.20 3.20 0.0 0 0 926.47 186.30
  L 926.47 186.20
  Z
  M 926.49 202.45
  A 3.20 3.20 0.0 0 0 923.29 199.25
  L 835.47 199.25
  A 3.20 3.20 0.0 0 0 832.27 202.45
  L 832.27 202.55
  A 3.20 3.20 0.0 0 0 835.47 205.75
  L 923.29 205.75
  A 3.20 3.20 0.0 0 0 926.49 202.55
  L 926.49 202.45
  Z
  M 926.47 218.70
  A 3.20 3.20 0.0 0 0 923.27 215.50
  L 835.47 215.50
  A 3.20 3.20 0.0 0 0 832.27 218.70
  L 832.27 218.80
  A 3.20 3.20 0.0 0 0 835.47 222.00
  L 923.27 222.00
  A 3.20 3.20 0.0 0 0 926.47 218.80
  L 926.47 218.70
  Z"
/>
<rect fill="#040606" x="881.01" y="124.25" width="39.00" height="9.76" rx="0.56"/>
<path fill="#040606" d="
  M 422.23 217.76
  C 441.10 235.54 452.95 260.92 456.27 286.11
  Q 457.19 293.12 457.22 306.06
  Q 457.28 326.09 457.25 346.13
  Q 457.24 355.29 455.87 360.22
  Q 451.00 377.79 432.97 384.96
  A 1.03 1.02 -7.9 0 0 432.34 385.79
  C 430.06 406.66 421.75 421.20 406.07 434.84
  Q 400.29 439.88 394.15 444.53
  Q 392.48 445.79 394.57 445.96
  Q 415.46 447.67 433.97 456.93
  C 465.45 472.68 486.17 502.20 491.63 536.78
  C 493.37 547.76 492.70 561.30 492.77 573.51
  C 492.87 591.44 483.37 605.30 466.08 610.02
  Q 461.42 611.29 453.81 611.28
  Q 339.01 611.20 224.21 611.28
  Q 216.17 611.29 211.43 610.00
  C 195.78 605.76 184.85 592.63 184.96 575.84
  C 185.04 562.43 184.22 547.36 186.11 535.33
  C 191.57 500.43 213.93 471.38 245.57 456.13
  Q 262.88 447.79 282.99 445.95
  Q 285.08 445.76 283.39 444.51
  Q 274.48 437.92 266.09 429.89
  Q 247.37 411.98 245.31 385.91
  A 1.00 1.00 0.0 0 0 244.68 385.06
  Q 226.45 377.77 221.62 360.03
  Q 220.25 355.01 220.26 345.35
  C 220.26 327.23 219.11 307.49 220.88 290.02
  C 230.93 190.60 351.28 150.91 422.23 217.76
  Z
  M 325.44 269.54
  C 333.45 264.21 342.82 263.15 350.93 268.58
  C 364.01 277.34 376.51 282.31 391.80 285.65
  Q 405.08 288.56 406.45 289.05
  Q 424.52 295.57 431.20 315.31
  Q 431.51 316.22 432.35 316.32
  A 1.00 0.99 -85.9 0 0 433.47 315.34
  Q 433.72 300.04 433.37 295.42
  C 428.31 227.23 356.50 188.95 296.05 218.14
  C 264.53 233.36 245.09 264.19 244.00 299.25
  Q 243.90 302.47 244.04 315.23
  A 1.01 1.00 80.3 0 0 245.36 316.17
  Q 245.53 316.11 245.70 316.02
  Q 246.24 315.72 246.54 314.80
  C 251.86 298.54 262.87 290.61 278.91 287.08
  C 296.06 283.31 310.66 279.37 325.44 269.54
  Z
  M 256.19 363.31
  C 264.17 363.91 268.45 368.55 268.43 376.28
  C 268.40 388.18 271.43 401.39 279.92 410.08
  Q 296.05 426.61 316.99 438.02
  C 328.21 444.13 338.85 448.04 351.27 442.54
  Q 376.65 431.30 396.81 410.95
  C 405.69 401.99 409.01 389.79 409.07 377.27
  C 409.18 356.65 428.71 369.64 432.93 353.96
  C 434.71 347.37 431.51 341.30 425.27 338.72
  C 422.34 337.51 419.00 338.04 416.11 336.80
  Q 409.53 333.98 409.02 327.00
  C 408.24 316.36 403.35 312.03 393.57 310.20
  C 374.43 306.63 355.62 300.62 339.46 289.40
  A 1.02 1.00 -44.0 0 0 338.34 289.39
  Q 315.94 304.11 289.51 309.13
  C 279.37 311.06 270.24 312.32 268.72 324.47
  C 267.55 333.81 264.91 336.76 255.45 337.90
  C 240.03 339.75 240.44 362.13 256.19 363.31
  Z
  M 319.11 482.08
  C 331.71 500.75 359.62 493.56 362.29 471.51
  Q 362.72 468.00 362.50 464.62
  A 1.01 1.01 0.0 0 0 361.08 463.77
  Q 352.38 467.73 343.05 468.71
  Q 336.22 469.43 329.06 467.86
  Q 322.61 466.44 316.52 463.85
  A 1.00 0.99 14.4 0 0 315.14 464.66
  Q 314.05 474.57 319.11 482.08
  Z
  M 291.95 520.30
  C 299.06 527.87 309.45 536.45 316.68 522.32
  Q 318.83 518.12 320.88 514.10
  A 1.00 1.00 0.0 0 0 320.41 512.74
  Q 293.40 500.26 291.29 470.12
  A 0.99 0.99 0.0 0 0 290.28 469.19
  Q 273.51 469.42 258.21 476.19
  A 1.00 0.99 61.1 0 0 257.79 477.66
  Q 273.14 500.29 291.95 520.30
  Z
  M 362.89 526.22
  Q 371.65 533.44 379.22 526.44
  Q 389.17 517.24 397.84 506.81
  Q 409.47 492.84 419.83 477.68
  A 0.99 0.99 0.0 0 0 419.41 476.21
  Q 404.12 469.40 387.32 469.20
  A 1.00 1.00 0.0 0 0 386.31 470.13
  Q 384.01 500.18 357.12 512.74
  A 1.00 0.99 64.3 0 0 356.65 514.10
  L 362.64 525.90
  Q 362.73 526.09 362.89 526.22
  Z
  M 359.39 551.37
  Q 346.11 546.57 339.47 532.93
  Q 338.75 531.45 338.03 532.93
  Q 331.63 546.11 318.96 551.08
  C 306.02 556.16 292.06 553.00 281.92 543.59
  C 265.27 528.13 250.47 509.23 237.79 490.41
  A 1.00 1.00 0.0 0 0 236.29 490.23
  Q 213.94 510.54 209.40 539.96
  C 207.88 549.80 208.52 562.21 208.49 573.20
  C 208.47 581.66 212.19 587.75 221.50 587.75
  Q 336.69 587.74 451.89 587.76
  Q 458.58 587.76 461.48 586.65
  C 470.10 583.36 469.19 575.66 469.30 566.21
  Q 469.46 551.77 468.93 546.05
  Q 465.77 512.60 441.25 490.23
  A 1.01 1.01 0.0 0 0 439.74 490.41
  Q 424.75 512.70 406.72 532.46
  C 394.01 546.39 379.90 558.79 359.39 551.37
  Z"
/>
<path fill="#040606" d="
  M 707.32 255.67
  Q 725.16 255.31 738.75 257.21
  C 806.26 266.64 849.68 318.95 859.88 384.33
  C 863.29 406.19 834.28 419.00 820.34 401.67
  Q 797.66 373.46 766.68 360.33
  Q 739.47 348.80 707.22 350.62
  A 1.01 1.00 88.5 0 0 706.28 351.62
  Q 706.21 361.94 706.15 372.53
  C 706.05 392.11 685.70 404.31 668.59 394.89
  Q 664.36 392.55 655.53 383.29
  Q 624.75 350.99 593.99 318.65
  C 584.74 308.93 586.28 295.35 595.29 286.27
  C 617.27 264.11 638.42 240.89 660.04 218.35
  C 665.54 212.62 670.25 209.76 677.64 208.76
  C 690.09 207.07 701.62 214.63 705.03 226.38
  Q 706.29 230.74 706.24 240.69
  Q 706.21 247.70 706.30 254.68
  A 1.00 1.00 0.0 0 0 707.32 255.67
  Z
  M 612.47 303.92
  C 634.36 326.97 656.25 350.06 678.34 372.92
  C 679.65 374.27 682.55 375.49 682.54 372.26
  Q 682.48 357.02 682.49 341.80
  C 682.50 333.12 685.75 327.25 695.26 327.03
  C 710.74 326.68 727.40 326.61 742.17 329.04
  Q 772.81 334.09 799.15 351.11
  Q 818.40 363.56 833.58 380.72
  Q 835.63 383.04 834.96 380.02
  Q 830.66 360.61 821.60 342.56
  Q 800.45 300.39 757.00 285.50
  C 737.49 278.82 717.54 279.52 697.34 279.49
  C 685.65 279.47 682.48 274.93 682.50 263.28
  Q 682.51 248.34 682.49 233.36
  A 1.00 1.00 0.0 0 0 681.95 232.47
  Q 680.20 231.56 679.03 232.78
  Q 645.73 267.66 612.48 302.54
  A 1.01 1.00 -44.8 0 0 612.47 303.92
  Z"
/>
<path fill="#040606" d="
  M 820.02 261.30
  C 807.42 261.29 797.20 252.01 796.70 239.29
  A 1.00 1.00 0.0 0 1 797.70 238.25
  L 893.09 238.25
  A 1.00 0.99 -87.4 0 1 894.08 239.34
  Q 893.04 250.90 900.27 259.56
  Q 901.63 261.19 899.50 261.20
  Q 859.71 261.32 820.02 261.30
  Z"
/>
<path fill="#040606" d="
  M 812.99 486.38
  C 848.06 507.83 869.49 545.16 871.90 586.08
  Q 872.21 591.37 872.03 610.24
  Q 871.87 626.31 871.11 630.19
  C 868.88 641.47 861.34 651.39 850.05 655.83
  Q 848.34 656.50 846.85 657.54
  A 0.97 0.97 0.0 0 0 846.44 658.20
  Q 842.58 681.30 829.19 700.42
  Q 818.50 715.70 803.88 729.67
  Q 802.71 730.78 804.30 731.04
  Q 847.86 738.02 874.79 773.20
  Q 891.40 794.90 895.01 824.25
  Q 895.72 830.08 895.47 852.21
  Q 895.33 864.49 894.96 866.76
  C 892.91 879.42 882.96 890.36 870.89 893.93
  Q 865.65 895.49 851.35 895.49
  Q 749.17 895.52 647.00 895.49
  C 627.35 895.48 612.21 880.67 611.32 860.94
  C 610.73 847.96 610.58 829.81 613.29 816.39
  C 619.91 783.56 640.44 756.17 670.55 741.20
  Q 685.80 733.61 702.88 731.12
  Q 704.53 730.88 703.31 729.74
  Q 690.15 717.47 679.69 702.94
  C 669.85 689.28 663.05 674.44 660.61 658.18
  A 1.00 0.98 -82.6 0 0 660.03 657.41
  Q 641.41 649.13 636.64 632.80
  Q 635.06 627.38 635.02 612.96
  C 634.98 600.84 634.52 587.11 635.60 576.35
  C 639.49 537.47 660.56 505.54 693.94 485.27
  A 1.00 0.99 -17.3 0 0 694.42 484.37
  C 692.87 453.29 714.80 426.87 745.51 422.31
  C 782.70 416.80 815.22 448.27 812.51 485.45
  A 1.01 1.01 0.0 0 0 812.99 486.38
  Z
  M 758.67 469.56
  Q 773.08 470.34 786.86 474.57
  Q 788.53 475.08 788.13 473.39
  Q 784.85 459.46 773.40 451.69
  C 752.04 437.21 725.34 449.14 718.94 472.72
  Q 718.47 474.44 720.18 473.95
  Q 739.05 468.49 758.67 469.56
  Z
  M 757.58 568.72
  C 767.25 562.60 779.55 561.66 789.69 567.28
  C 793.82 569.57 797.77 573.57 801.56 576.94
  C 809.36 583.88 822.86 587.15 834.00 587.64
  Q 838.91 587.85 840.96 588.23
  Q 843.97 588.77 846.91 589.69
  A 1.00 1.00 0.0 0 0 848.21 588.70
  Q 847.63 573.50 842.51 559.13
  C 826.29 513.59 780.47 483.46 731.99 495.26
  Q 687.87 506.00 667.40 547.92
  Q 658.63 565.87 658.75 588.42
  A 1.00 1.00 0.0 0 0 659.98 589.39
  Q 668.14 587.50 676.47 587.36
  C 704.94 586.88 733.02 584.26 757.58 568.72
  Z
  M 662.90 632.11
  C 668.58 636.99 675.32 633.12 680.15 640.07
  Q 681.69 642.30 682.67 647.83
  C 685.07 661.49 688.18 672.81 695.87 684.65
  C 707.35 702.31 729.13 726.70 751.23 729.56
  C 773.40 732.42 800.57 700.88 811.30 684.49
  C 819.14 672.51 822.21 660.52 824.59 646.71
  C 826.14 637.72 829.69 636.18 837.90 634.92
  C 849.23 633.18 852.39 618.49 841.74 613.10
  C 838.18 611.30 834.21 611.24 829.95 611.04
  Q 800.25 609.60 779.14 588.63
  C 776.61 586.12 772.98 587.22 770.03 589.08
  C 740.88 607.55 706.80 610.52 673.19 611.37
  Q 668.08 611.50 665.58 612.72
  C 657.88 616.48 656.27 626.41 662.90 632.11
  Z
  M 739.06 771.92
  C 753.74 784.01 775.10 774.15 777.05 755.67
  Q 777.39 752.44 777.24 749.22
  A 1.00 1.00 0.0 0 0 775.83 748.35
  Q 753.56 758.49 731.30 748.38
  A 1.00 1.00 0.0 0 0 729.89 749.18
  Q 728.34 763.09 739.06 771.92
  Z
  M 705.31 803.94
  C 714.69 812.69 724.17 821.35 732.14 805.48
  Q 733.89 802.00 735.60 798.49
  A 0.99 0.99 0.0 0 0 735.13 797.15
  Q 708.68 784.90 706.17 755.55
  A 1.01 1.00 -7.1 0 0 705.00 754.65
  Q 689.77 757.25 676.34 764.86
  A 1.01 1.00 -29.2 0 0 675.95 766.21
  Q 687.50 787.32 705.31 803.94
  Z
  M 771.45 798.27
  C 775.64 809.35 781.92 820.74 795.15 809.65
  Q 817.06 791.26 831.17 766.24
  A 1.00 1.00 0.0 0 0 830.79 764.88
  Q 817.30 757.27 802.02 754.65
  A 1.00 0.99 -82.3 0 0 800.86 755.54
  Q 798.23 784.79 771.96 797.01
  A 1.00 1.00 0.0 0 0 771.45 798.27
  Z
  M 640.44 870.06
  Q 644.01 872.00 645.25 872.00
  Q 751.40 872.01 857.55 872.00
  C 866.12 871.99 871.79 868.60 871.94 859.24
  C 872.14 846.30 872.70 831.72 870.27 820.04
  Q 865.80 798.59 851.08 781.73
  A 1.01 1.00 40.0 0 0 849.46 781.87
  Q 833.46 808.85 809.25 828.64
  C 797.76 838.04 784.68 841.13 770.82 834.41
  Q 759.86 829.10 754.45 817.26
  Q 753.54 815.27 752.63 817.26
  Q 747.26 829.07 736.30 834.38
  C 723.32 840.68 709.73 838.50 698.59 829.39
  Q 673.48 808.87 657.52 781.84
  A 1.00 1.00 0.0 0 0 655.89 781.72
  C 640.52 800.38 635.50 817.30 634.97 840.75
  C 634.75 850.80 633.00 866.04 640.44 870.06
  Z"
/>
<path fill="#040606" d="
  M 320.04 722.00
  C 322.44 725.74 324.39 729.13 321.21 732.70
  A 0.99 0.99 0.0 0 0 321.03 733.73
  Q 322.05 736.37 324.48 737.77
  A 1.00 1.00 0.0 0 1 324.96 738.83
  C 323.85 744.57 329.14 747.00 333.89 746.91
  Q 336.82 746.85 337.99 747.35
  Q 339.78 748.12 341.04 749.59
  A 1.00 1.00 0.0 0 1 340.83 751.07
  L 340.25 751.46
  C 304.36 745.55 268.93 726.55 245.60 697.72
  A 0.32 0.32 0.0 0 0 245.15 697.67
  Q 245.00 697.79 245.04 697.98
  C 256.16 755.26 295.78 798.13 356.24 800.25
  Q 368.19 800.67 382.36 800.50
  C 395.64 800.35 398.00 806.08 398.00 818.69
  Q 398.00 832.59 398.00 846.54
  A 1.00 0.99 19.3 0 0 398.38 847.32
  C 399.59 848.28 401.04 847.57 402.07 846.50
  Q 435.05 812.07 467.88 777.46
  A 1.01 1.00 44.8 0 0 467.87 776.08
  L 400.96 706.00
  C 401.93 703.47 397.36 702.71 395.58 702.24
  Q 387.37 700.09 388.10 691.52
  A 1.02 1.00 77.6 0 1 388.58 690.75
  Q 388.96 690.52 389.16 690.16
  A 1.00 1.00 0.0 0 1 390.09 689.66
  C 394.26 689.90 400.64 690.02 398.65 684.50
  A 1.01 0.98 -8.1 0 0 397.75 683.84
  Q 394.43 683.71 390.80 685.76
  Q 389.07 686.74 386.50 685.71
  C 395.65 680.13 407.19 681.14 415.45 687.26
  Q 416.76 688.23 427.42 699.39
  Q 454.27 727.48 481.05 755.65
  Q 489.19 764.22 491.02 768.44
  C 495.37 778.55 491.35 787.14 483.95 794.95
  Q 431.78 849.93 418.99 863.23
  C 405.94 876.80 381.75 873.43 375.58 854.72
  C 373.02 846.94 374.28 834.08 374.23 825.12
  A 0.99 0.99 0.0 0 0 373.20 824.13
  C 301.73 826.74 245.73 788.01 225.92 719.53
  Q 222.09 706.27 220.60 696.18
  C 217.85 677.62 237.77 663.80 253.99 673.45
  C 260.25 677.18 266.34 685.89 271.25 690.73
  Q 292.32 711.54 320.04 722.00
  Z"
/>
<path fill="#040606" d="
  M 400.96 706.00
  Q 399.72 705.75 398.61 706.24
  A 1.00 0.99 -11.8 0 0 398.01 707.15
  Q 397.98 721.30 398.01 735.46
  C 398.03 745.46 396.47 752.70 385.24 753.17
  Q 362.68 754.09 340.25 751.46
  L 340.83 751.07
  A 1.00 1.00 0.0 0 0 341.04 749.59
  Q 339.78 748.12 337.99 747.35
  Q 336.82 746.85 333.89 746.91
  C 329.14 747.00 323.85 744.57 324.96 738.83
  A 1.00 1.00 0.0 0 0 324.48 737.77
  Q 322.05 736.37 321.03 733.73
  A 0.99 0.99 0.0 0 1 321.21 732.70
  C 324.39 729.13 322.44 725.74 320.04 722.00
  Q 345.79 730.95 373.20 729.32
  A 1.00 0.99 89.1 0 0 374.14 728.34
  Q 374.31 719.47 374.27 710.52
  C 374.21 699.15 376.55 691.41 386.50 685.71
  Q 389.07 686.74 390.80 685.76
  Q 394.43 683.71 397.75 683.84
  A 1.01 0.98 -8.1 0 1 398.65 684.50
  C 400.64 690.02 394.26 689.90 390.09 689.66
  A 1.00 1.00 0.0 0 0 389.16 690.16
  Q 388.96 690.52 388.58 690.75
  A 1.02 1.00 77.6 0 0 388.10 691.52
  Q 387.37 700.09 395.58 702.24
  C 397.36 702.71 401.93 703.47 400.96 706.00
  Z"
/>
<path fill="#040606" d="
  M 206.49 847.53
  A 29.22 29.22 0.0 0 1 177.27 876.75
  A 29.22 29.22 0.0 0 1 148.05 847.53
  A 29.22 29.22 0.0 0 1 177.27 818.31
  A 29.22 29.22 0.0 0 1 206.49 847.53
  Z
  M 174.00 841.00
  Q 173.21 837.75 176.98 837.77
  C 179.70 837.78 186.62 838.83 186.92 834.76
  Q 187.06 832.87 185.38 831.83
  Q 183.80 830.85 181.66 831.14
  A 0.99 0.99 0.0 0 1 180.53 830.20
  L 180.38 826.95
  A 1.04 0.97 -69.5 0 0 180.12 826.32
  C 175.32 821.08 174.03 827.99 173.90 831.23
  A 1.00 0.99 -12.9 0 1 173.36 832.08
  Q 165.65 836.03 168.03 844.18
  C 169.48 849.16 174.03 850.15 178.66 851.16
  A 1.05 0.97 73.9 0 1 179.22 851.50
  Q 181.57 854.34 179.40 856.26
  C 176.51 858.82 171.61 855.70 168.73 858.15
  C 166.66 859.91 167.42 862.83 170.04 863.54
  Q 171.37 863.91 172.85 863.82
  A 1.00 0.99 85.1 0 1 173.89 864.70
  Q 174.01 865.64 174.09 866.59
  C 174.41 869.97 176.74 871.56 179.86 869.13
  A 1.01 1.01 0.0 0 0 180.25 868.42
  L 180.60 863.89
  A 1.00 0.99 77.5 0 1 181.10 863.10
  C 188.84 858.71 189.20 848.88 180.92 845.00
  C 178.18 843.72 175.05 845.32 174.00 841.00
  Z"
/>
<path fill="#040606" d="
  M 274.80 969.33
  C 262.69 975.09 249.67 966.99 248.86 953.80
  C 248.57 949.04 250.87 942.02 244.24 942.02
  Q 208.00 941.98 171.75 942.01
  A 1.00 1.00 0.0 0 1 170.75 941.01
  L 170.75 884.03
  A 1.00 1.00 0.0 0 1 171.84 883.03
  Q 191.23 884.83 203.03 872.22
  C 212.16 862.47 215.65 848.40 211.03 835.75
  Q 207.58 826.33 200.04 819.91
  Q 198.39 818.50 200.56 818.50
  L 283.25 818.50
  A 1.00 1.00 0.0 0 1 284.25 819.50
  Q 284.25 884.79 284.25 950.24
  Q 284.25 957.69 282.82 961.06
  Q 280.45 966.64 274.80 969.33
  Z
  M 274.77 831.36
  A 3.36 3.36 0.0 0 0 271.41 828.00
  L 226.13 828.00
  A 3.36 3.36 0.0 0 0 222.77 831.36
  L 222.77 847.38
  A 3.36 3.36 0.0 0 0 226.13 850.74
  L 271.41 850.74
  A 3.36 3.36 0.0 0 0 274.77 847.38
  L 274.77 831.36
  Z
  M 274.74 863.69
  A 3.18 3.18 0.0 0 0 271.56 860.51
  L 226.16 860.51
  A 3.18 3.18 0.0 0 0 222.98 863.69
  L 222.98 863.83
  A 3.18 3.18 0.0 0 0 226.16 867.01
  L 271.56 867.01
  A 3.18 3.18 0.0 0 0 274.74 863.83
  L 274.74 863.69
  Z
  M 274.74 879.93
  A 3.17 3.17 0.0 0 0 271.57 876.76
  L 213.13 876.76
  A 3.17 3.17 0.0 0 0 209.96 879.93
  L 209.96 880.09
  A 3.17 3.17 0.0 0 0 213.13 883.26
  L 271.57 883.26
  A 3.17 3.17 0.0 0 0 274.74 880.09
  L 274.74 879.93
  Z
  M 274.75 896.44
  A 3.20 3.20 0.0 0 0 271.55 893.24
  L 183.77 893.24
  A 3.20 3.20 0.0 0 0 180.57 896.44
  L 180.57 896.54
  A 3.20 3.20 0.0 0 0 183.77 899.74
  L 271.55 899.74
  A 3.20 3.20 0.0 0 0 274.75 896.54
  L 274.75 896.44
  Z
  M 274.76 912.70
  A 3.20 3.20 0.0 0 0 271.56 909.50
  L 183.76 909.50
  A 3.20 3.20 0.0 0 0 180.56 912.70
  L 180.56 912.80
  A 3.20 3.20 0.0 0 0 183.76 916.00
  L 271.56 916.00
  A 3.20 3.20 0.0 0 0 274.76 912.80
  L 274.76 912.70
  Z
  M 274.74 928.95
  A 3.20 3.20 0.0 0 0 271.54 925.75
  L 183.76 925.75
  A 3.20 3.20 0.0 0 0 180.56 928.95
  L 180.56 929.05
  A 3.20 3.20 0.0 0 0 183.76 932.25
  L 271.54 932.25
  A 3.20 3.20 0.0 0 0 274.74 929.05
  L 274.74 928.95
  Z"
/>
<rect fill="#040606" x="229.25" y="834.50" width="39.18" height="9.74" rx="0.67"/>
<path fill="#040606" d="
  M 167.76 971.21
  C 154.87 971.17 146.03 962.32 144.84 949.59
  A 0.99 0.99 0.0 0 1 145.83 948.50
  L 241.40 948.50
  A 1.00 1.00 0.0 0 1 242.40 949.59
  Q 241.31 961.18 248.55 969.88
  Q 249.63 971.19 247.94 971.19
  Q 207.81 971.32 167.76 971.21
  Z"
/>
</svg>
