<?xml version="1.0" encoding="utf-8"?>
<!-- Generator: Adobe Illustrator 26.2.1, SVG Export Plug-In . SVG Version: 6.00 Build 0)  -->
<svg version="1.1" id="Layer_1" xmlns="http://www.w3.org/2000/svg" xmlns:xlink="http://www.w3.org/1999/xlink" x="0px" y="0px"
	 viewBox="0 0 311.8 55.6" style="enable-background:new 0 0 311.8 55.6;" xml:space="preserve">
<style type="text/css">
	.st0{fill:#FFFFFF;}
	.st1{fill:#A70606;}
</style>
<g>
	<g>
		<path class="st0" d="M89.6,16.7c-0.6,0.1-1.1,0.1-1.6,0.1H76.3c-0.5,0-1,0-1.6-0.1c-0.6-0.1-1.1-0.2-1.6-0.2
			c-0.5-0.1-0.8-0.2-1.1-0.3v0.6v0.4v0.6v0.1v2.7l0.3,0v-0.6c0-0.6,0.2-1.1,0.6-1.5c0.4-0.4,0.9-0.6,1.5-0.6H81v20.9
			c0,0.6-0.3,1.1-0.7,1.6c-0.4,0.4-1,0.6-1.6,0.6h-0.5v0.3H81h0.1h2.1h0.1H86V41h-0.5c-0.6,0-1.1-0.2-1.6-0.6s-0.7-1-0.7-1.6V17.8
			h6.6c0.6,0,1,0.2,1.5,0.6c0.4,0.4,0.6,0.9,0.6,1.5v0.6l0.3,0v-2.7v-0.1v-0.6v-0.4v-0.6c-0.2,0.1-0.6,0.2-1,0.3
			C90.7,16.5,90.2,16.6,89.6,16.7z"/>
		<path class="st0" d="M114.6,20.3h-2h-0.1H110v0.3h0.4c0.6,0,1,0.2,1.4,0.5c0.4,0.4,0.6,0.8,0.6,1.3v7.9H99.6v-7.9
			c0-0.5,0.2-1,0.6-1.3c0.4-0.4,0.9-0.5,1.4-0.5h0.4v-0.3h-2.4h-0.1h-2h-0.1h-2.5v0.3h0.4c0.6,0,1,0.2,1.4,0.5
			c0.4,0.4,0.6,0.8,0.6,1.3v16.5c0,0.5-0.2,1-0.6,1.3c-0.4,0.4-0.9,0.6-1.4,0.6h-0.4v0.3h2.5h0.1h2h0.1h2.4V41h-0.4
			c-0.6,0-1-0.2-1.4-0.6c-0.4-0.4-0.6-0.8-0.6-1.3v-7.6h12.9v7.6c0,0.5-0.2,1-0.6,1.3c-0.4,0.4-0.9,0.6-1.4,0.6H110v0.3h2.4h0.1h2
			h0.1h2.5V41h-0.4c-0.6,0-1-0.2-1.4-0.6c-0.4-0.4-0.6-0.8-0.6-1.3V22.6c0-0.5,0.2-1,0.6-1.3c0.4-0.4,0.9-0.5,1.4-0.5h0.4v-0.3h-2.5
			H114.6z"/>
		<path class="st0" d="M135.6,38.3c-0.4,0.6-1,1.1-1.7,1.4c-0.7,0.3-1.7,0.5-2.8,0.5h-5.3v-8.9h5.9c0.5,0,0.9,0.1,1.1,0.4
			c0.2,0.3,0.3,0.6,0.3,1v0.5h0.4v-1.9v-0.1v-0.9v-0.1v-1.9h-0.4v0.5c0,0.4-0.1,0.7-0.3,1c-0.2,0.3-0.6,0.4-1.1,0.4h-5.9v-8.9h7.2
			c0.5,0,1,0.2,1.3,0.5c0.3,0.3,0.5,0.8,0.5,1.3v0.5h0.4v-2.3v-0.1v-0.6v-0.3v-0.6c-0.3,0.1-0.9,0.2-1.7,0.4s-1.6,0.2-2.3,0.2h-5.4
			h-0.1H124h-0.5H121v0.3h0.5c0.6,0,1.1,0.2,1.4,0.5c0.4,0.3,0.6,0.8,0.6,1.3v16.6c0,0.5-0.2,1-0.6,1.3c-0.4,0.4-0.9,0.6-1.4,0.6
			H121v0.3h2.5h0.5h1.6h0.1h4.1h5.2h0.1l1.9-5h-0.4C136.4,37.1,136.1,37.7,135.6,38.3z"/>
		<path class="st0" d="M170.3,40.5c-0.6-0.3-1.1-0.9-1.4-1.7h0l-9.4-22.4h-0.3c0,0.2-0.1,0.5-0.2,0.9c-0.1,0.4-0.3,0.8-0.5,1.2
			s-0.4,0.9-0.6,1.5l-8,19c-0.4,0.7-0.8,1.2-1.3,1.5c-0.6,0.3-1.1,0.5-1.7,0.5h-0.3v0.3h7V41h-0.3c-0.3,0-0.6-0.1-0.8-0.3
			c-0.3-0.2-0.5-0.4-0.6-0.8c-0.1-0.3-0.1-0.7,0.1-1.1l2.4-6h9.4l2.3,6c0.2,0.7,0.2,1.2-0.2,1.5c-0.4,0.4-0.7,0.6-1.2,0.6h-0.3v0.3
			h7.9V41h-0.3C171.4,41,170.8,40.8,170.3,40.5z M154.7,31.8l4.4-11.2l4.2,11.2H154.7z"/>
		<path class="st0" d="M184.5,32.4l-7.1-5.5c-0.4-0.3-0.6-0.6-0.8-0.9c-0.2-0.3-0.3-0.6-0.4-0.9c-0.1-0.3-0.1-0.6-0.1-0.9
			c0-0.9,0.4-1.7,1.2-2.4c0.8-0.6,1.8-1,3-1c1.4,0,2.4,0.3,3,0.8c0.7,0.5,1,1.3,1,2.3h0.4l0-3.5c0,0,0,0,0,0l0-0.3h-1.2
			c-0.1,0-0.3-0.1-0.5-0.1c-0.4-0.1-0.8-0.1-1.3-0.2c-0.5,0-1.1-0.1-1.7-0.1c-1.1,0-2,0.2-2.9,0.7s-1.6,1.1-2.1,1.8
			c-0.5,0.8-0.8,1.6-0.8,2.6c0,0.6,0.1,1.2,0.4,1.9c0.2,0.7,0.7,1.3,1.3,1.9l7,5.4c0.4,0.4,0.8,0.8,1,1.3c0.2,0.5,0.3,1,0.3,1.5
			c0,1.1-0.4,2.1-1.2,2.7s-2,1.1-3.4,1.1c-1,0-1.9-0.2-2.7-0.5s-1.4-1-1.8-1.7c-0.4-0.7-0.5-1.6-0.5-2.7h-0.4
			c-0.1,0.4-0.3,0.9-0.3,1.5c-0.1,0.6-0.1,1.1-0.1,1.6s0,0.9,0.1,1.2c0.4,0.4,1,0.7,1.7,0.9s1.4,0.4,2.2,0.5
			c0.8,0.1,1.5,0.2,2.2,0.2c1.1,0,2.2-0.3,3.1-0.8c0.9-0.5,1.7-1.2,2.3-2s0.8-1.8,0.8-2.8c0-0.7-0.2-1.4-0.4-2S185,32.9,184.5,32.4z
			"/>
		<path class="st0" d="M200.7,32.4l-7.1-5.5c-0.4-0.3-0.6-0.6-0.8-0.9c-0.2-0.3-0.3-0.6-0.4-0.9c-0.1-0.3-0.1-0.6-0.1-0.9
			c0-0.9,0.4-1.7,1.2-2.4c0.8-0.6,1.8-1,3-1c1.4,0,2.4,0.3,3,0.8c0.7,0.5,1,1.3,1,2.3h0.4l0-3.5c0,0,0,0,0,0l0-0.3h-1.2
			c-0.1,0-0.3-0.1-0.5-0.1c-0.4-0.1-0.8-0.1-1.3-0.2c-0.5,0-1.1-0.1-1.7-0.1c-1.1,0-2,0.2-2.9,0.7s-1.6,1.1-2.1,1.8
			c-0.5,0.8-0.8,1.6-0.8,2.6c0,0.6,0.1,1.2,0.4,1.9c0.2,0.7,0.7,1.3,1.3,1.9l7,5.4c0.4,0.4,0.8,0.8,1,1.3c0.2,0.5,0.3,1,0.3,1.5
			c0,1.1-0.4,2.1-1.2,2.7s-2,1.1-3.4,1.1c-1,0-1.9-0.2-2.7-0.5s-1.4-1-1.8-1.7c-0.4-0.7-0.5-1.6-0.5-2.7h-0.4
			c-0.1,0.4-0.3,0.9-0.3,1.5c-0.1,0.6-0.1,1.1-0.1,1.6s0,0.9,0.1,1.2c0.4,0.4,1,0.7,1.7,0.9s1.4,0.4,2.2,0.5
			c0.8,0.1,1.5,0.2,2.2,0.2c1.1,0,2.2-0.3,3.1-0.8c0.9-0.5,1.7-1.2,2.3-2s0.8-1.8,0.8-2.8c0-0.7-0.2-1.4-0.4-2
			S201.2,32.9,200.7,32.4z"/>
		<path class="st0" d="M220.7,38.3c-0.4,0.6-1,1.1-1.7,1.4c-0.7,0.3-1.7,0.5-2.8,0.5h-5.3v-8.9h5.9c0.5,0,0.9,0.1,1.1,0.4
			c0.2,0.3,0.3,0.6,0.3,1v0.5h0.4v-1.9v-0.1v-0.9v-0.1v-1.9h-0.4v0.5c0,0.4-0.1,0.7-0.3,1c-0.2,0.3-0.6,0.4-1.1,0.4h-5.9v-8.9h7.2
			c0.5,0,1,0.2,1.3,0.5c0.3,0.3,0.5,0.8,0.5,1.3v0.5h0.4v-2.3v-0.1v-0.6v-0.3v-0.6c-0.3,0.1-0.9,0.2-1.7,0.4s-1.6,0.2-2.3,0.2h-5.4
			h-0.1h-1.6h-0.5h-2.5v0.3h0.5c0.6,0,1.1,0.2,1.4,0.5c0.4,0.3,0.6,0.8,0.6,1.3v16.6c0,0.5-0.2,1-0.6,1.3c-0.4,0.4-0.9,0.6-1.4,0.6
			h-0.5v0.3h2.5h0.5h1.6h0.1h4.1h5.2h0.1l1.9-5h-0.4C221.6,37.1,221.2,37.7,220.7,38.3z"/>
		<path class="st0" d="M251.7,40.4c-0.4-0.3-0.7-0.8-0.8-1.4L248,19.8h-0.3l-8.9,17.8l-9.2-17.8h-0.4L226.5,39h0
			c-0.1,0.6-0.3,1.1-0.8,1.5s-1,0.5-1.6,0.5h-0.5v0.3h2.6h1h0.8h0h2V41h-0.5c-0.5,0-0.9-0.2-1.1-0.5c-0.2-0.3-0.2-0.6-0.2-0.9
			l1.6-14.1l8.4,16.3h0.4c0.1-0.5,0.2-1,0.4-1.6c0.2-0.5,0.5-1.2,0.8-2l6.6-13l1.8,14.3h0c0,0.3,0,0.7-0.2,1
			c-0.2,0.3-0.5,0.5-1.1,0.5h-0.5v0.3h2h1.6h1h2.6V41h-0.5C252.7,41,252.1,40.8,251.7,40.4z"/>
		<path class="st0" d="M269.5,30.9c-0.9-0.5-1.9-0.8-3-1c0.7-0.2,1.3-0.4,1.9-0.9c0.6-0.4,1.1-0.9,1.4-1.5c0.4-0.6,0.6-1.3,0.6-2
			c0-1.2-0.3-2.1-0.8-2.8c-0.5-0.7-1.2-1.2-1.9-1.6s-1.6-0.6-2.4-0.7c-0.8-0.1-1.6-0.2-2.2-0.2h-2.4h-1.8h-0.4h-0.1h-2.5v0.3h0.4
			c0.6,0,1.1,0.2,1.5,0.5c0.4,0.3,0.6,0.8,0.6,1.4v16.5c0,0.5-0.2,1-0.6,1.3c-0.4,0.4-0.9,0.6-1.5,0.6h-0.4v0.3h2.5h0.1h1.8h0.3h4
			c0.9,0,1.8-0.1,2.7-0.3c0.9-0.2,1.8-0.5,2.5-0.9s1.4-1,1.9-1.8c0.5-0.8,0.7-1.7,0.7-2.9c0-0.9-0.3-1.8-0.8-2.6
			C271.1,32.1,270.4,31.4,269.5,30.9z M269.2,38.2c-0.5,0.7-1.1,1.3-1.9,1.6c-0.8,0.3-1.7,0.5-2.7,0.5h-3.9V21.4h2.4
			c1.5,0,2.7,0.3,3.6,1c0.9,0.7,1.3,1.7,1.3,3.2c0,1-0.2,1.7-0.6,2.3c-0.4,0.6-0.9,1-1.5,1.3s-1.3,0.5-2,0.6c-0.7,0.1-1.4,0.1-2,0.1
			v0.4c1,0,1.9,0.1,2.9,0.2c1,0.1,1.8,0.4,2.6,0.7c0.8,0.4,1.4,0.9,1.9,1.6c0.5,0.7,0.7,1.6,0.7,2.7
			C269.9,36.5,269.7,37.4,269.2,38.2z"/>
		<path class="st0" d="M290.5,38.3c-0.4,0.6-1,1.1-1.7,1.4c-0.7,0.3-1.7,0.5-2.8,0.5h-5.3V22.6c0-0.5,0.2-1,0.6-1.3
			c0.4-0.4,0.9-0.5,1.5-0.5h0.4v-0.3h-2.5h-0.1h-2.1h-0.1h-2.5v0.3h0.4c0.6,0,1.1,0.2,1.5,0.5c0.4,0.4,0.6,0.8,0.6,1.3v16.5
			c0,0.5-0.2,1-0.6,1.3c-0.4,0.4-0.9,0.6-1.4,0.6h-0.5v0.3h2.5h0.5h1.6h0.1h4.1h5.2h0.1l1.9-5h-0.4C291.4,37.1,291,37.7,290.5,38.3z
			"/>
		<path class="st0" d="M304.5,20.3v0.3h0.4c0.5,0,0.9,0.2,1.1,0.6c0.2,0.4,0.2,0.8,0,1.3l-5.3,8.8l-5-8.9l0,0
			c-0.2-0.4-0.2-0.8,0-1.2s0.6-0.6,1.1-0.6h0.4v-0.3h-8.1v0.3h0.4c0.7,0,1.3,0.2,1.8,0.5c0.5,0.3,1,0.7,1.4,1.3l0,0l6.5,10.2v6.5
			c0,0.5-0.2,1-0.6,1.3c-0.4,0.4-0.9,0.6-1.4,0.6c-0.3,0-0.4,0-0.4,0v0.3h2.4h0.1h2.1h0.1h2.5V41h-0.4c-0.6,0-1-0.2-1.4-0.6
			c-0.4-0.4-0.6-0.8-0.6-1.3v-6.4l6.7-10.2l0.1,0c0.3-0.5,0.8-0.9,1.3-1.2c0.6-0.4,1.2-0.5,1.8-0.5h0.4v-0.3H304.5z"/>
	</g>
	<g id="Group_150" transform="translate(295.667 22.167)">
		<path id="Path_24" class="st1" d="M-265.6,2.6c0,1.3,0,2.6,0,3.9l3.3,0c-1.2-3.2-2.5-6.3-3.2-8.2L-265.6,2.6z"/>
		<path id="Path_25" class="st1" d="M-269.6-1.6c-0.7,1.9-2,5-3.2,8.2h3.3c0-1.3,0-2.7,0-3.9L-269.6-1.6z"/>
		<path id="Path_26" class="st1" d="M-267.8-22.2c-15.4,0-27.8,12.5-27.8,27.8s12.5,27.8,27.8,27.8c15.4,0,27.8-12.5,27.8-27.8
			c0,0,0,0,0,0C-240-9.7-252.5-22.2-267.8-22.2C-267.8-22.2-267.8-22.2-267.8-22.2 M-261.4,19.7c0,0,3-0.9,2.8-2.5
			c-0.1-0.7-1.5-4.6-3.2-8.8h-4v2.6l0.1,5.6c0,0.5,0,1.1,0.1,1.6c0.3,1.1,2.7,1.7,2.7,1.7h-9.6c0,0,2.4-0.7,2.7-1.7
			c0.1-0.5,0.1-1.1,0.1-1.6l0.1-5.6V8.3h-4c-1.6,4.2-3.1,8.1-3.2,8.8c-0.2,1.6,2.8,2.5,2.8,2.5h-10.7c1.8-0.1,3.2-2.5,3.2-2.5
			l9.8-22.4c-3.2,0-6.8,0-7.3,0.1c-1.1,0.3-1.7,2.7-1.7,2.7v-6.9l13.1,0.1l13.1-0.1v6.9c0,0-0.7-2.5-1.7-2.7
			c-0.6-0.2-4.3-0.1-7.5-0.1l9.8,22.4c0,0,1.4,2.4,3.2,2.5L-261.4,19.7z"/>
	</g>
</g>
</svg>
