<?xml version="1.0" encoding="UTF-8" standalone="no"?>
<!DOCTYPE svg PUBLIC "-//W3C//DTD SVG 1.1//EN" "http://www.w3.org/Graphics/SVG/1.1/DTD/svg11.dtd">
<svg xmlns="http://www.w3.org/2000/svg" version="1.1" viewBox="0 0 656 870">
<path fill="#161617" d="
  M 128.90 799.57
  L 125.58 802.47
  A 1.01 1.01 0.0 0 1 124.25 802.46
  L 120.16 798.79
  A 1.01 0.99 -35.4 0 0 119.10 798.62
  L 118.25 798.98
  A 1.00 0.94 35.6 0 1 117.72 799.05
  C 114.02 798.56 107.82 797.77 104.31 798.94
  C 102.17 799.65 100.95 800.56 98.76 799.29
  A 1.00 1.00 0.0 0 0 97.58 799.42
  L 95.08 801.74
  A 0.99 0.98 -55.6 0 1 94.04 801.94
  Q 86.61 799.07 78.88 800.03
  C 76.21 800.36 74.64 799.72 72.12 799.41
  A 0.99 0.99 0.0 0 0 71.12 799.91
  Q 69.10 803.52 71.54 806.70
  A 1.01 0.99 33.7 0 1 71.72 807.56
  L 70.62 811.84
  A 1.00 0.97 -54.4 0 0 70.74 812.62
  Q 73.04 816.24 70.61 819.47
  A 1.01 1.00 -37.0 0 0 70.47 820.42
  Q 72.40 825.72 71.46 831.29
  A 1.04 1.03 -53.7 0 0 71.55 831.90
  Q 73.41 835.67 71.88 839.62
  A 1.02 0.99 -40.8 0 0 71.83 840.19
  Q 73.21 846.75 70.77 852.91
  A 1.01 0.99 -47.7 0 0 70.80 853.71
  Q 72.13 856.51 70.60 859.17
  A 1.00 1.00 0.0 0 0 70.62 860.20
  Q 72.89 863.79 71.64 868.02
  A 1.02 1.01 -80.1 0 1 70.62 868.74
  L 60.79 868.22
  A 1.00 1.00 0.0 0 1 59.85 867.29
  Q 59.59 863.93 57.32 861.29
  A 1.01 1.00 -49.2 0 1 57.24 860.10
  Q 59.73 856.23 57.92 851.95
  A 0.99 0.98 51.1 0 1 58.02 850.99
  Q 61.42 846.06 59.63 840.22
  A 1.03 0.98 -43.7 0 1 59.66 839.56
  Q 60.93 836.27 59.36 833.12
  A 1.00 1.00 0.0 0 1 59.28 832.45
  Q 60.79 825.84 56.85 820.36
  A 1.00 0.99 -40.6 0 1 56.95 819.08
  Q 59.89 816.06 58.21 812.37
  A 1.01 1.00 -46.6 0 1 58.19 811.60
  Q 59.58 807.95 57.17 805.01
  A 1.00 0.97 33.9 0 1 56.98 804.10
  C 57.76 801.45 58.80 799.40 59.13 796.55
  Q 59.53 793.10 61.03 789.92
  A 1.03 1.01 -44.3 0 0 61.05 789.10
  Q 59.39 785.17 59.08 780.95
  C 58.90 778.39 60.50 776.46 58.30 773.55
  A 1.01 1.01 0.0 0 1 58.10 773.01
  Q 57.52 764.42 59.83 756.15
  A 0.99 0.98 32.9 0 0 59.63 755.25
  Q 57.28 752.41 59.04 748.88
  A 1.02 1.02 0.0 0 0 59.04 747.98
  C 56.25 742.41 59.86 739.35 58.50 733.76
  C 57.39 729.24 57.01 726.80 59.39 722.62
  A 0.99 0.95 54.1 0 0 59.49 721.91
  Q 57.67 713.67 60.90 705.93
  A 1.09 1.04 -40.2 0 0 60.96 705.36
  C 60.57 703.36 59.47 702.28 59.30 700.26
  Q 58.65 692.21 60.19 684.32
  A 1.05 1.00 -52.8 0 0 60.12 683.71
  Q 57.70 678.37 58.77 672.78
  C 59.56 668.64 58.54 664.72 57.79 660.75
  C 57.26 657.99 58.38 655.87 59.91 653.82
  A 1.00 0.99 41.6 0 0 59.83 652.54
  L 55.67 648.13
  A 1.01 1.01 0.0 0 1 55.66 646.76
  L 59.01 643.11
  A 1.00 0.99 -37.7 0 0 59.16 641.97
  L 58.13 640.04
  A 1.00 0.98 46.6 0 1 58.15 639.06
  Q 61.19 634.01 61.12 628.21
  C 61.08 624.71 59.22 622.65 57.02 620.17
  A 1.00 0.99 -48.3 0 1 56.95 618.93
  L 60.90 613.30
  A 1.05 1.02 59.7 0 0 61.07 612.61
  Q 60.56 608.15 57.94 604.47
  A 1.00 0.98 -53.7 0 1 57.81 603.55
  C 59.84 598.02 61.31 593.40 57.34 588.34
  A 1.01 1.00 -48.3 0 1 57.28 587.19
  Q 59.59 583.47 58.01 579.38
  A 0.96 0.95 -44.6 0 1 58.02 578.64
  C 58.97 576.32 60.39 574.32 60.22 571.77
  C 60.07 569.42 59.64 567.99 60.09 565.43
  Q 60.54 562.85 59.34 560.38
  A 0.97 0.95 -51.4 0 1 59.27 559.71
  Q 60.76 553.34 56.98 548.03
  A 1.01 0.99 41.8 0 1 56.91 546.98
  L 58.93 543.18
  A 1.03 1.02 -43.3 0 0 58.96 542.31
  Q 57.75 539.48 58.80 536.54
  A 1.00 1.00 0.0 0 0 58.75 535.76
  L 57.03 532.32
  A 1.01 1.01 0.0 0 1 56.98 531.56
  C 57.81 528.99 58.80 526.95 59.15 524.12
  Q 59.57 520.77 61.03 517.66
  A 1.00 1.00 0.0 0 0 61.05 516.85
  Q 59.38 512.90 59.08 508.66
  C 58.91 506.10 60.45 504.22 58.28 501.30
  A 1.04 0.95 -67.4 0 1 58.09 500.77
  Q 57.55 492.32 59.79 484.18
  A 0.99 0.97 33.6 0 0 59.60 483.29
  Q 57.29 480.46 58.99 476.98
  A 1.02 0.98 46.8 0 0 59.00 476.14
  Q 56.88 471.36 58.66 466.28
  Q 59.42 464.12 58.66 462.24
  Q 56.21 456.16 59.34 450.66
  A 1.02 0.99 54.6 0 0 59.45 449.95
  Q 57.68 441.83 60.90 434.23
  A 1.01 0.96 -40.8 0 0 60.96 433.62
  C 60.53 431.64 59.46 430.49 59.30 428.49
  Q 58.67 420.47 60.19 412.59
  A 1.07 1.00 40.2 0 0 60.12 411.98
  Q 57.73 406.76 58.76 401.33
  C 59.60 396.86 58.09 391.27 58.02 386.58
  A 0.99 0.94 -30.8 0 1 58.18 386.02
  L 60.62 382.27
  A 1.01 0.99 -43.4 0 0 60.66 381.24
  Q 58.52 377.38 57.82 373.14
  C 57.38 370.49 58.76 368.29 59.76 365.90
  A 0.98 0.98 0.0 0 0 59.72 365.04
  L 57.67 361.23
  A 0.99 0.97 41.3 0 1 57.61 360.43
  Q 59.69 354.55 57.39 348.64
  A 0.98 0.97 -46.9 0 1 57.37 347.95
  L 59.90 340.66
  A 1.00 0.96 -44.0 0 0 59.92 340.08
  Q 59.12 337.00 58.69 333.87
  C 58.28 330.82 59.89 328.44 57.02 325.34
  A 1.00 1.00 0.0 0 1 56.83 324.26
  L 58.53 320.36
  A 1.01 1.01 0.0 0 0 58.55 319.61
  L 57.13 315.88
  A 1.01 0.98 -38.5 0 1 57.25 314.95
  L 59.38 311.92
  A 1.02 1.00 -40.4 0 0 59.47 310.92
  L 58.47 308.76
  A 1.02 1.01 -42.3 0 1 58.52 307.82
  Q 60.64 304.30 59.00 300.57
  A 0.99 0.97 -46.2 0 1 58.99 299.80
  L 59.94 297.38
  A 1.01 0.99 -47.6 0 0 59.91 296.56
  L 58.31 293.37
  A 0.99 0.98 41.0 0 1 58.25 292.61
  Q 59.56 288.63 59.53 284.49
  A 1.00 1.00 0.0 0 0 58.35 283.52
  L 51.15 284.86
  A 1.02 1.02 0.0 0 0 50.43 285.42
  L 49.22 288.02
  A 1.01 1.00 2.7 0 1 48.63 288.55
  C 45.89 289.46 43.25 289.70 40.82 291.42
  Q 37.48 293.78 33.79 295.52
  C 30.56 297.04 26.39 296.19 22.85 296.26
  A 1.00 1.00 0.0 0 0 22.04 296.70
  L 18.59 301.85
  A 1.01 1.00 20.8 0 1 17.61 302.29
  L 12.91 301.56
  A 1.00 0.98 -62.2 0 0 12.06 301.83
  L 9.44 304.40
  A 1.00 1.00 0.0 0 1 8.06 304.42
  L 0.62 297.44
  A 1.01 1.00 45.5 0 1 0.63 295.96
  L 8.26 289.15
  A 1.00 0.99 28.1 0 1 9.05 288.91
  L 11.61 289.24
  A 1.00 0.99 25.4 0 0 12.47 288.94
  C 17.14 283.99 21.87 283.97 29.37 284.35
  A 1.07 1.05 25.9 0 0 30.06 284.12
  Q 34.57 280.39 40.06 278.32
  A 1.01 1.01 0.0 0 0 40.62 277.79
  L 42.29 274.00
  Q 43.12 272.13 45.26 272.44
  Q 49.88 273.12 54.42 272.06
  A 1.03 1.00 -80.9 0 0 55.05 271.59
  L 58.09 266.37
  A 0.99 0.99 0.0 0 1 59.13 265.89
  L 65.17 266.95
  A 1.00 0.99 -68.7 0 0 66.19 266.50
  L 69.09 261.92
  A 0.98 0.98 0.0 0 1 70.02 261.46
  L 73.75 261.78
  A 1.01 0.98 -64.1 0 0 74.53 261.50
  Q 77.08 259.02 80.31 257.75
  C 84.63 256.05 88.15 257.38 92.37 253.30
  A 1.01 0.97 -67.0 0 1 93.03 253.02
  L 94.98 252.96
  A 1.01 1.00 12.6 0 0 95.84 252.42
  L 97.15 249.90
  Q 98.13 248.02 100.21 248.18
  C 103.72 248.46 105.74 248.41 109.00 246.66
  Q 114.32 243.80 120.25 242.38
  A 1.00 0.97 -84.3 0 0 120.93 241.81
  L 122.90 237.35
  A 1.01 1.00 11.6 0 1 123.82 236.75
  L 128.91 236.75
  A 0.97 0.97 0.0 0 0 129.57 236.49
  C 132.63 233.77 136.98 232.66 140.76 231.08
  C 143.42 229.97 144.86 228.30 146.86 226.38
  A 0.98 0.98 0.0 0 1 147.85 226.14
  L 149.75 226.75
  A 1.00 1.00 0.0 0 0 150.98 226.17
  L 152.03 223.56
  A 1.00 1.00 0.0 0 1 153.10 222.94
  L 157.15 223.53
  A 1.01 1.00 20.8 0 0 158.13 223.09
  L 159.54 220.94
  A 1.03 1.00 -73.8 0 1 160.34 220.49
  Q 165.63 220.31 170.54 218.45
  C 172.61 217.67 173.28 216.42 174.49 214.71
  A 1.00 1.00 0.0 0 1 175.20 214.29
  L 179.78 213.81
  A 1.00 0.99 -72.1 0 0 180.43 213.47
  Q 182.64 210.91 186.07 211.03
  A 1.02 1.01 20.7 0 0 186.86 210.68
  L 189.92 207.11
  A 1.00 1.00 0.0 0 1 190.90 206.78
  L 194.79 207.65
  A 1.02 1.00 -59.9 0 0 195.69 207.40
  L 197.82 205.40
  A 1.02 1.00 32.7 0 1 198.84 205.19
  Q 202.23 206.39 203.53 203.12
  A 0.96 0.96 0.0 0 1 204.20 202.53
  C 206.43 201.94 208.71 201.91 210.58 200.53
  Q 213.14 198.63 215.51 196.50
  A 1.04 0.98 20.0 0 1 216.11 196.24
  Q 219.21 196.01 222.25 195.71
  C 225.19 195.42 226.97 193.79 229.37 192.32
  C 231.89 190.78 234.58 191.17 236.13 187.50
  A 1.01 1.00 -83.8 0 1 236.87 186.90
  L 246.56 185.11
  A 0.98 0.98 0.0 0 0 247.17 184.73
  L 250.33 180.59
  Q 250.48 180.40 250.70 180.30
  C 254.37 178.55 256.93 176.92 261.11 178.18
  A 1.00 0.98 -49.2 0 0 261.85 178.12
  Q 265.77 176.14 269.41 173.71
  C 271.73 172.16 274.68 172.74 276.52 170.94
  Q 278.51 169.00 280.28 166.84
  A 1.04 1.02 17.1 0 1 280.97 166.48
  Q 288.10 165.88 294.26 162.38
  C 296.25 161.26 296.94 158.97 298.91 158.24
  C 301.64 157.22 303.17 156.38 306.37 156.32
  C 310.57 156.24 314.75 153.39 318.60 150.71
  A 1.02 1.02 0.0 0 1 319.41 150.55
  C 324.26 151.74 325.38 149.41 328.38 146.51
  A 1.06 1.05 17.2 0 1 328.90 146.24
  L 336.11 144.99
  A 1.00 0.96 -78.0 0 0 336.79 144.53
  Q 338.71 141.41 342.29 141.07
  A 1.03 0.99 13.2 0 0 343.03 140.63
  L 345.70 136.62
  A 1.01 1.00 20.8 0 1 346.68 136.18
  Q 354.15 137.27 360.67 133.63
  Q 361.56 133.14 363.92 129.41
  A 1.00 0.99 12.3 0 1 364.64 128.95
  L 369.71 128.34
  Q 369.94 128.31 370.13 128.19
  C 372.65 126.57 374.03 124.13 376.81 123.19
  C 381.32 121.66 386.68 120.87 391.32 119.86
  A 1.00 0.98 9.2 0 0 391.96 119.41
  Q 394.05 116.04 398.21 116.21
  A 0.99 0.99 0.0 0 0 399.10 115.75
  Q 401.42 112.08 405.56 112.95
  A 1.00 0.99 28.8 0 0 406.46 112.69
  C 410.69 108.57 415.80 108.18 418.97 104.61
  A 1.05 1.01 -75.9 0 1 419.45 104.31
  C 421.42 103.76 423.14 103.59 424.96 102.54
  Q 427.41 101.14 430.02 100.06
  C 433.23 98.73 435.61 100.07 438.51 97.04
  A 0.99 0.97 25.3 0 1 439.38 96.74
  Q 442.55 97.22 443.92 94.33
  A 1.04 1.00 1.1 0 1 444.47 93.82
  L 456.58 89.20
  Q 456.77 89.13 456.91 88.98
  Q 461.20 84.83 466.79 82.64
  C 468.82 81.84 471.07 82.76 472.51 80.27
  A 0.96 0.94 -88.4 0 1 472.90 79.89
  Q 480.66 75.78 489.16 73.77
  A 1.03 1.03 0.0 0 0 489.74 73.38
  L 492.33 69.80
  A 0.99 0.99 0.0 0 1 493.46 69.44
  L 495.82 70.26
  A 1.01 1.01 0.0 0 0 497.08 69.69
  L 497.83 67.82
  A 1.01 1.00 -80.5 0 1 498.69 67.20
  L 509.31 66.47
  Q 509.53 66.45 509.73 66.34
  Q 514.16 63.86 517.64 60.12
  A 0.99 0.97 -71.2 0 1 518.25 59.81
  Q 522.17 59.34 524.68 56.34
  A 1.00 1.00 0.0 0 1 525.29 55.99
  Q 529.93 55.26 533.81 52.68
  A 1.00 0.97 35.1 0 1 534.62 52.55
  Q 538.16 53.48 539.73 50.44
  A 1.00 1.00 0.0 0 1 540.62 49.90
  L 545.51 49.90
  A 1.02 1.01 -73.8 0 0 546.37 49.42
  Q 547.79 47.08 550.40 47.51
  A 1.00 1.00 0.0 0 0 551.44 47.02
  L 553.62 43.12
  A 1.01 0.98 14.9 0 1 554.53 42.61
  L 559.01 42.80
  A 1.06 1.03 23.1 0 0 559.76 42.51
  C 561.89 40.41 564.63 39.78 566.86 38.28
  C 570.14 36.09 574.18 33.48 578.25 34.88
  A 0.99 0.99 0.0 0 0 579.29 34.63
  L 583.71 30.03
  A 0.98 0.96 -69.6 0 1 584.37 29.72
  L 589.41 29.42
  A 1.00 0.97 24.1 0 0 589.93 29.23
  Q 592.33 27.52 595.30 27.44
  A 1.03 0.99 -70.3 0 0 596.06 27.06
  L 598.13 24.44
  A 1.06 0.98 -74.6 0 1 598.73 24.07
  L 607.34 22.47
  Q 607.58 22.43 607.77 22.27
  C 611.99 18.93 616.30 16.49 620.29 12.82
  A 1.05 1.01 23.2 0 1 620.98 12.56
  C 627.36 12.63 634.70 7.75 640.51 5.04
  A 0.96 0.94 -50.6 0 1 641.15 4.97
  Q 643.80 5.57 644.48 3.10
  A 1.01 1.00 -3.8 0 1 645.05 2.45
  L 649.81 0.41
  A 1.00 1.00 0.0 0 1 651.13 0.96
  L 654.88 10.30
  A 1.01 1.00 -24.5 0 1 654.40 11.57
  C 652.12 12.73 651.40 15.21 649.82 17.13
  A 1.01 1.00 21.8 0 1 648.97 17.49
  C 646.23 17.30 644.14 16.84 641.50 17.99
  C 636.93 19.98 630.86 24.39 626.00 24.29
  A 0.99 0.98 22.1 0 0 625.26 24.60
  C 622.01 27.98 616.50 30.70 612.68 33.85
  A 1.00 1.00 0.0 0 0 612.46 35.14
  L 613.88 37.50
  A 0.99 0.98 42.4 0 1 613.93 38.44
  Q 611.63 43.33 611.55 48.68
  C 611.52 50.75 612.58 51.98 613.33 53.85
  A 0.98 0.97 -46.9 0 1 613.35 54.54
  L 611.94 58.79
  A 1.03 0.98 -49.4 0 0 611.98 59.54
  Q 613.46 62.65 611.93 65.74
  A 1.00 0.97 45.3 0 0 611.94 66.63
  L 613.95 70.65
  A 1.01 0.99 50.5 0 1 613.86 71.70
  L 611.36 75.04
  A 1.03 1.02 54.5 0 0 611.21 75.96
  L 612.01 78.39
  A 0.95 0.94 -42.7 0 1 611.98 79.08
  L 610.75 82.05
  A 1.03 1.02 38.3 0 0 610.87 83.03
  C 612.87 85.75 611.58 88.04 611.30 90.80
  C 611.06 93.09 612.37 95.96 613.02 98.29
  A 0.99 0.93 -46.0 0 1 613.01 98.88
  L 610.26 107.07
  A 1.00 0.99 -44.5 0 0 610.25 107.67
  Q 611.68 112.47 610.94 117.38
  A 0.97 0.94 34.9 0 0 611.07 118.04
  L 612.91 121.12
  A 0.99 0.98 -53.4 0 1 613.02 121.89
  L 610.61 131.10
  A 1.01 0.97 -53.4 0 0 610.70 131.83
  L 613.26 136.51
  A 1.00 0.98 32.3 0 1 613.38 137.02
  L 613.19 143.78
  A 1.04 1.03 61.9 0 1 613.04 144.28
  L 610.64 148.15
  A 1.02 0.97 57.2 0 0 610.51 148.83
  C 611.16 152.86 611.99 156.45 611.28 160.62
  Q 610.52 165.14 613.38 169.07
  A 1.00 0.99 36.7 0 1 613.52 170.00
  Q 611.24 176.22 611.64 182.66
  Q 611.73 184.15 612.91 187.48
  C 615.18 193.89 610.73 198.40 611.45 204.45
  C 612.01 209.18 612.90 210.92 610.26 215.25
  A 1.01 1.00 -39.2 0 0 610.17 216.11
  L 612.18 221.76
  A 0.99 0.97 -47.4 0 1 612.20 222.37
  C 611.09 226.30 609.41 228.89 611.85 233.29
  A 1.02 1.01 -53.4 0 1 611.95 233.99
  L 611.35 236.57
  A 1.03 1.01 -55.3 0 0 611.48 237.33
  L 614.05 241.36
  A 1.01 1.01 0.0 0 1 614.05 242.44
  Q 610.51 247.95 610.44 254.44
  C 610.41 257.37 612.12 258.96 613.22 261.58
  A 1.01 1.00 -42.0 0 1 613.17 262.46
  Q 610.34 267.45 613.37 272.39
  A 1.02 0.97 -62.1 0 1 613.52 272.92
  Q 613.47 277.64 612.14 282.05
  C 611.40 284.47 611.34 286.97 610.53 289.44
  A 1.03 1.01 42.4 0 0 610.57 290.17
  L 612.02 293.35
  A 0.98 0.97 -46.2 0 1 612.03 294.14
  Q 610.39 298.18 612.40 302.06
  A 1.02 1.00 -45.6 0 1 612.40 302.97
  L 610.92 305.91
  A 1.00 1.00 0.0 0 0 610.87 306.69
  Q 612.74 311.91 611.91 317.42
  A 1.02 0.95 39.3 0 0 611.98 317.95
  C 613.69 322.06 612.10 324.51 612.52 328.45
  Q 612.83 331.40 612.53 334.35
  C 612.24 337.16 610.18 338.59 611.87 342.03
  A 1.00 0.99 47.8 0 1 611.83 343.00
  Q 610.21 345.63 612.09 348.12
  A 0.94 0.92 -65.6 0 1 612.29 348.67
  Q 612.64 355.25 611.52 361.71
  A 1.10 1.06 -52.2 0 0 611.58 362.25
  Q 614.12 368.68 613.15 375.50
  C 612.92 377.10 611.41 378.20 613.23 380.00
  A 1.01 0.99 -67.2 0 1 613.52 380.73
  C 613.38 386.11 613.84 392.59 612.16 397.64
  A 1.01 1.00 39.8 0 0 612.24 398.45
  L 614.59 402.61
  A 1.00 1.00 0.0 0 1 614.21 403.98
  Q 611.14 405.68 613.87 408.02
  A 1.02 1.00 -63.6 0 1 614.19 409.00
  C 613.38 412.59 610.36 417.88 610.68 421.22
  Q 611.09 425.38 612.90 429.19
  A 0.96 0.92 38.7 0 1 612.98 429.81
  C 612.54 432.11 612.27 433.47 613.04 435.93
  C 613.97 438.91 612.67 441.42 612.79 444.00
  Q 612.87 445.90 613.03 447.79
  A 0.99 0.97 65.5 0 1 612.75 448.57
  Q 610.41 450.95 612.74 453.49
  A 1.01 1.00 -53.6 0 1 612.90 454.61
  L 610.94 458.65
  A 1.03 1.01 46.0 0 0 610.93 459.52
  Q 612.23 462.25 611.03 464.96
  A 0.99 0.97 38.7 0 0 611.15 465.96
  L 613.71 469.36
  A 1.00 0.99 -49.6 0 1 613.79 470.44
  L 611.65 474.40
  A 1.05 1.04 -41.7 0 0 611.60 475.24
  L 612.39 477.29
  A 1.01 0.91 -53.3 0 1 612.44 477.82
  C 611.57 482.96 615.34 491.00 611.13 494.84
  A 0.99 0.99 0.0 0 0 610.87 495.94
  L 613.24 502.08
  A 1.06 1.06 0.0 0 1 613.24 502.80
  L 611.46 507.40
  A 1.06 1.04 -40.5 0 0 611.41 507.95
  Q 611.97 510.84 610.74 513.41
  A 1.00 0.98 -46.8 0 0 610.76 514.33
  L 612.35 517.19
  A 1.07 1.05 37.3 0 1 612.45 517.88
  Q 611.83 520.86 611.09 523.79
  Q 610.41 526.45 610.79 528.89
  Q 611.84 535.77 613.79 542.48
  A 0.96 0.95 47.2 0 1 613.77 543.11
  C 613.03 545.08 612.00 546.50 612.13 548.68
  Q 612.59 556.32 612.55 563.97
  A 0.99 0.98 -27.2 0 1 612.36 564.55
  Q 610.97 566.49 612.64 568.04
  A 1.02 1.00 19.7 0 1 612.96 568.70
  C 613.33 574.00 612.15 577.85 613.49 583.10
  A 1.02 1.02 0.0 0 1 613.37 583.87
  Q 611.77 586.48 610.76 589.31
  C 609.85 591.88 610.91 594.48 611.36 597.10
  C 611.86 600.00 610.72 602.10 610.23 604.94
  A 1.01 0.97 36.5 0 0 610.34 605.59
  C 613.74 611.68 612.07 619.34 611.85 625.15
  C 611.76 627.56 612.78 629.16 613.43 631.43
  A 1.03 1.00 59.1 0 1 613.20 632.39
  Q 609.79 636.03 609.72 640.98
  A 1.08 1.06 31.4 0 0 609.85 641.49
  L 612.42 646.02
  A 1.02 1.01 -45.8 0 1 612.43 646.99
  Q 610.37 650.79 612.69 654.33
  A 1.00 0.99 -47.5 0 1 612.73 655.36
  Q 610.22 659.92 612.09 664.79
  A 1.00 0.99 71.9 0 1 611.43 666.11
  L 608.54 666.93
  A 0.41 0.40 86.7 0 0 608.25 667.26
  C 608.14 667.88 611.13 669.29 611.74 669.69
  A 1.01 1.00 -76.4 0 1 612.18 670.42
  Q 612.37 672.41 613.77 673.85
  A 1.00 0.99 35.0 0 1 613.97 674.96
  Q 611.66 680.07 611.54 685.57
  C 611.50 687.58 612.50 688.66 613.37 690.36
  A 0.99 0.97 -49.5 0 1 613.42 691.13
  L 612.07 695.12
  Q 611.99 695.37 612.04 695.64
  L 612.84 699.63
  A 1.03 1.01 58.0 0 1 612.67 700.41
  C 610.97 702.82 612.97 705.33 613.92 707.52
  A 0.99 0.99 0.0 0 1 613.80 708.51
  L 611.26 711.95
  A 1.02 1.00 48.2 0 0 611.21 713.06
  Q 612.86 715.83 610.86 718.39
  A 1.00 0.99 51.9 0 0 610.74 719.43
  L 612.13 722.38
  A 1.04 1.03 -48.4 0 1 612.17 723.14
  C 610.38 728.18 611.79 730.89 613.02 735.20
  A 0.98 0.94 47.0 0 1 613.01 735.79
  C 611.95 739.09 610.15 742.50 610.62 746.03
  C 610.95 748.47 611.80 751.62 610.84 753.95
  A 1.01 1.01 0.0 0 0 610.90 754.84
  L 612.90 758.24
  A 1.00 0.98 -53.8 0 1 613.01 758.99
  L 610.61 768.36
  A 1.01 0.97 -53.4 0 0 610.70 769.09
  L 613.31 773.85
  A 0.99 0.95 34.3 0 1 613.43 774.42
  C 612.97 779.59 613.61 780.87 610.65 785.42
  A 1.05 1.03 -33.2 0 0 610.50 786.11
  Q 611.14 790.28 611.64 794.42
  C 611.99 797.40 610.17 799.83 611.55 802.80
  Q 612.55 804.95 613.45 807.14
  A 1.00 0.98 -46.4 0 1 613.46 807.87
  Q 611.16 814.04 611.67 820.48
  Q 611.75 821.54 612.94 825.47
  C 614.07 829.19 613.51 831.89 612.03 835.99
  C 610.55 840.15 611.68 844.64 612.32 848.72
  A 1.09 1.06 54.3 0 1 612.23 849.31
  L 610.21 853.46
  A 1.01 0.99 -42.7 0 0 610.17 854.25
  L 612.14 859.56
  A 1.07 1.06 -48.1 0 1 612.17 860.15
  L 610.18 868.39
  A 1.01 1.00 10.5 0 1 609.07 869.15
  L 599.19 867.83
  A 1.01 1.01 0.0 0 1 598.33 866.66
  L 599.41 860.66
  Q 599.45 860.43 599.38 860.20
  Q 598.31 856.47 597.95 852.63
  C 597.73 850.26 598.85 849.02 599.82 847.00
  A 1.02 1.00 -39.5 0 0 599.89 846.34
  Q 597.98 837.86 601.48 830.01
  A 0.99 0.97 44.3 0 0 601.46 829.15
  L 599.54 825.36
  A 1.00 1.00 0.0 0 1 599.44 824.81
  C 599.98 819.23 599.05 815.06 600.70 808.80
  A 0.99 0.97 40.0 0 0 600.63 808.10
  Q 598.95 804.77 598.95 801.01
  A 1.00 0.99 79.0 0 0 597.58 800.08
  L 592.95 801.96
  A 1.02 1.01 -35.8 0 1 591.93 801.80
  L 587.58 798.19
  A 1.01 1.01 0.0 0 0 586.76 797.97
  Q 583.05 798.65 579.33 798.79
  C 576.94 798.88 575.33 800.01 573.02 800.49
  A 1.01 0.93 49.9 0 1 572.39 800.41
  L 570.17 799.37
  A 1.01 1.01 0.0 0 0 568.98 799.63
  Q 567.89 800.90 566.35 801.47
  A 1.01 1.00 -45.4 0 1 565.69 801.48
  L 560.72 799.84
  A 0.99 0.98 -52.2 0 0 559.87 799.95
  Q 556.76 801.94 554.00 799.60
  A 1.01 1.01 0.0 0 0 552.95 799.45
  L 549.33 801.03
  A 1.00 0.99 -40.8 0 1 548.41 800.97
  L 544.11 798.38
  Q 543.90 798.26 543.66 798.24
  L 537.65 797.81
  Q 537.43 797.80 537.23 797.87
  C 533.89 799.09 530.93 798.27 527.77 799.00
  Q 522.11 800.31 516.36 800.99
  A 0.97 0.96 54.7 0 1 515.79 800.89
  L 511.27 798.64
  A 1.00 1.00 0.0 0 0 510.14 798.80
  L 505.79 802.87
  A 1.01 1.00 -44.8 0 1 504.42 802.87
  L 500.80 799.48
  A 1.01 1.00 50.6 0 0 499.59 799.36
  L 497.99 800.36
  A 1.02 1.00 -49.5 0 1 497.10 800.44
  C 494.44 799.41 492.23 797.85 489.39 797.65
  Q 486.38 797.43 483.36 797.48
  A 1.02 1.01 25.1 0 0 482.77 797.69
  L 477.71 801.57
  A 1.00 1.00 0.0 0 1 476.52 801.59
  L 470.88 797.56
  A 1.05 1.02 56.8 0 0 470.12 797.39
  Q 465.59 798.22 461.72 800.74
  A 1.01 1.01 0.0 0 1 460.67 800.76
  Q 453.08 796.33 445.85 801.21
  A 1.00 1.00 0.0 0 1 444.77 801.24
  Q 440.88 798.88 436.61 800.61
  A 0.99 0.98 51.7 0 1 435.65 800.49
  Q 431.09 797.14 425.60 798.88
  A 1.00 0.95 -43.6 0 1 424.99 798.88
  Q 421.32 797.68 417.82 799.25
  A 1.04 0.99 38.5 0 1 417.17 799.31
  C 411.51 797.91 409.50 799.84 405.13 801.54
  A 1.01 0.99 47.1 0 1 404.30 801.50
  L 400.65 799.55
  A 1.02 1.01 45.3 0 0 399.73 799.54
  Q 397.03 800.91 394.23 799.63
  A 1.03 1.01 43.0 0 0 393.35 799.65
  L 389.91 801.44
  A 0.98 0.97 -51.3 0 1 389.20 801.52
  C 386.59 800.82 384.57 799.68 381.81 799.44
  Q 378.81 799.17 376.82 798.30
  Q 374.51 797.29 373.18 797.87
  Q 367.63 800.26 361.71 798.93
  A 0.99 0.96 -54.3 0 0 360.94 799.07
  C 356.40 802.05 346.54 800.16 341.55 798.72
  A 1.00 0.99 -55.9 0 0 340.64 798.90
  Q 337.82 801.20 334.33 799.57
  A 1.03 1.02 47.0 0 0 333.54 799.54
  Q 327.74 801.81 321.83 799.39
  A 1.03 1.02 45.4 0 0 321.11 799.38
  Q 317.23 800.83 313.12 800.96
  C 310.96 801.03 309.54 799.99 307.62 799.15
  A 1.01 0.96 49.2 0 0 307.01 799.09
  Q 298.75 800.87 291.09 797.52
  A 1.00 0.99 -45.3 0 0 290.25 797.53
  L 286.46 799.37
  A 0.99 0.97 33.4 0 1 285.95 799.47
  C 280.47 799.05 275.41 799.84 269.87 798.26
  A 0.98 0.96 39.5 0 0 269.16 798.32
  Q 263.86 800.90 258.30 799.79
  C 253.83 798.89 248.12 800.47 243.40 800.52
  A 1.00 0.94 -25.6 0 1 242.83 800.34
  L 239.24 797.90
  A 1.00 1.00 0.0 0 0 238.19 797.85
  Q 234.38 799.94 230.20 800.70
  C 227.37 801.21 225.17 799.71 222.55 798.79
  A 1.03 1.01 -48.7 0 0 221.73 798.85
  L 218.10 800.83
  A 0.97 0.96 37.9 0 1 217.36 800.92
  C 212.88 799.70 211.07 799.96 206.58 800.73
  C 203.31 801.29 200.04 799.53 196.91 798.51
  A 1.04 1.01 -45.8 0 0 196.23 798.53
  Q 191.23 800.53 186.01 799.60
  A 1.01 0.96 -51.8 0 0 185.39 799.69
  L 181.45 801.65
  A 1.02 1.02 0.0 0 1 180.55 801.65
  L 176.88 799.81
  A 1.01 0.99 -50.6 0 0 175.80 799.93
  Q 172.06 802.99 169.09 799.28
  A 1.01 1.01 0.0 0 0 167.93 798.98
  L 165.62 799.90
  A 1.03 0.95 37.5 0 1 165.05 799.95
  C 161.51 799.23 160.79 798.27 156.99 799.50
  A 1.01 1.00 50.2 0 1 156.18 799.42
  Q 153.27 797.74 150.75 800.00
  A 1.02 1.00 28.1 0 1 149.93 800.24
  Q 147.69 799.90 145.56 799.42
  C 143.20 798.89 140.64 799.26 138.15 798.39
  A 1.02 1.00 37.5 0 0 137.27 798.50
  L 133.61 800.89
  A 1.00 0.99 -46.3 0 1 132.56 800.92
  L 130.06 799.46
  A 1.00 1.00 0.0 0 0 128.90 799.57
  Z
  M 502.76 85.39
  L 498.13 83.71
  A 1.00 0.99 26.7 0 0 496.97 84.09
  L 495.76 85.87
  A 1.05 1.01 19.8 0 1 494.81 86.30
  C 489.99 85.74 482.45 86.84 479.93 91.64
  Q 478.99 93.44 477.89 95.15
  A 0.99 0.99 0.0 0 1 476.84 95.59
  L 472.06 94.58
  Q 468.89 93.91 466.62 96.64
  L 463.11 100.88
  A 1.01 1.00 -68.5 0 1 462.30 101.24
  C 456.01 101.02 452.56 102.82 448.94 107.81
  A 1.02 1.01 15.4 0 1 448.21 108.22
  L 443.79 108.56
  A 0.95 0.95 0.0 0 0 443.27 108.76
  L 440.10 111.14
  A 0.97 0.95 30.3 0 1 439.35 111.33
  Q 433.68 110.47 429.32 114.14
  A 0.99 0.98 20.4 0 1 428.81 114.37
  Q 424.98 114.87 422.39 117.70
  A 1.04 1.01 -72.6 0 1 421.84 118.00
  Q 415.51 119.25 412.28 124.81
  A 1.00 1.00 0.0 0 1 411.35 125.31
  L 407.08 125.01
  A 1.02 1.01 -67.2 0 0 406.26 125.35
  Q 404.26 127.61 401.19 127.73
  A 1.04 1.03 19.3 0 0 400.46 128.08
  L 397.65 131.39
  A 1.01 0.99 18.4 0 1 396.93 131.74
  C 391.72 131.98 387.29 133.46 382.14 134.10
  A 0.96 0.94 -73.0 0 0 381.50 134.45
  Q 377.44 139.28 371.21 140.46
  A 1.03 1.00 -78.4 0 0 370.54 140.92
  C 367.79 145.43 357.63 147.89 352.70 148.64
  A 1.01 0.99 -75.5 0 0 352.04 149.04
  L 350.30 151.41
  A 1.01 1.01 0.0 0 1 349.55 151.82
  Q 345.44 152.09 342.91 155.30
  A 1.00 0.94 -76.8 0 1 342.38 155.65
  L 334.45 157.75
  Q 334.21 157.81 334.03 157.98
  C 330.52 161.19 327.43 163.45 322.43 162.79
  A 1.03 1.02 -59.1 0 0 321.70 162.98
  Q 315.33 167.80 307.39 168.25
  C 304.37 168.42 303.94 171.13 301.52 172.42
  Q 294.55 176.12 286.88 177.94
  A 1.02 1.00 12.6 0 0 286.35 178.27
  Q 282.76 182.51 277.47 183.76
  C 272.97 184.83 268.40 188.61 263.99 190.57
  A 0.98 0.97 -51.9 0 1 263.43 190.64
  L 259.04 189.96
  A 1.00 0.99 -67.6 0 0 258.07 190.37
  C 254.51 195.45 251.28 197.67 244.53 197.48
  A 1.02 1.01 18.9 0 0 243.70 197.88
  L 241.12 201.28
  A 1.00 0.97 14.6 0 1 240.45 201.66
  Q 234.18 202.46 229.55 206.82
  A 0.94 0.93 19.8 0 1 228.97 207.09
  L 220.93 207.92
  A 1.07 1.03 -69.3 0 0 220.32 208.21
  Q 216.34 212.27 210.90 213.58
  A 1.02 1.01 -85.1 0 0 210.21 214.17
  Q 208.39 218.54 203.64 217.40
  A 1.00 0.99 28.6 0 0 202.70 217.67
  L 199.65 220.73
  A 1.00 1.00 0.0 0 1 198.46 220.90
  Q 195.06 219.04 193.06 222.02
  A 1.02 1.00 14.6 0 1 192.31 222.45
  L 188.05 222.82
  A 1.04 1.02 17.1 0 0 187.36 223.18
  Q 185.18 225.82 181.75 225.74
  A 1.02 1.01 19.3 0 0 180.93 226.13
  L 179.20 228.40
  A 1.06 1.04 -79.9 0 1 178.69 228.76
  L 166.84 232.27
  A 1.01 1.01 0.0 0 0 166.28 232.70
  L 164.12 236.16
  A 1.00 1.00 0.0 0 1 163.12 236.62
  L 160.44 236.21
  A 1.01 1.00 16.2 0 0 159.36 236.80
  L 157.68 240.77
  A 1.01 1.00 -72.1 0 1 156.54 241.36
  C 154.56 240.93 150.76 238.91 149.22 240.57
  Q 149.07 240.74 148.86 240.82
  L 137.57 245.41
  A 0.99 0.96 -84.7 0 0 137.10 245.81
  Q 135.13 248.97 131.56 249.10
  A 0.99 0.99 0.0 0 0 130.68 249.70
  L 129.45 252.57
  A 1.00 0.98 7.5 0 1 128.65 253.17
  Q 123.86 253.74 119.30 255.26
  C 114.78 256.77 111.68 259.85 105.86 260.17
  A 1.00 1.00 0.0 0 0 105.04 260.68
  L 103.24 263.94
  A 0.98 0.97 -77.2 0 1 102.44 264.45
  L 97.47 264.82
  A 1.00 0.97 24.1 0 0 96.95 265.01
  Q 91.66 268.91 85.03 268.81
  A 0.99 0.98 22.1 0 0 84.29 269.12
  L 79.91 273.70
  A 0.99 0.95 -66.6 0 1 79.19 274.00
  L 76.20 274.00
  A 0.99 0.99 0.0 0 0 75.24 274.70
  Q 74.75 276.29 73.32 276.89
  A 1.00 1.00 0.0 0 0 72.88 278.38
  L 73.47 279.23
  A 0.99 0.99 0.0 0 1 73.56 280.20
  Q 71.11 285.76 71.11 291.90
  A 1.00 1.00 0.0 0 0 71.35 292.55
  Q 74.30 296.06 71.58 299.96
  A 0.99 0.98 49.2 0 0 71.51 300.99
  Q 73.17 304.19 71.56 307.31
  A 1.03 1.02 -43.3 0 0 71.53 308.18
  L 73.51 312.59
  A 1.00 0.98 -38.9 0 1 73.39 313.61
  L 70.94 316.80
  A 1.00 0.98 -41.4 0 0 70.86 317.90
  Q 72.51 320.83 70.42 323.40
  A 1.00 1.00 0.0 0 0 70.40 324.63
  Q 72.71 327.75 70.76 331.36
  A 1.06 1.02 57.0 0 0 70.65 331.94
  Q 71.07 336.00 72.72 339.71
  A 1.04 0.99 43.8 0 1 72.75 340.45
  L 69.86 348.76
  A 1.01 0.98 46.8 0 0 69.85 349.39
  Q 71.35 354.23 70.52 359.17
  A 0.99 0.98 -59.9 0 0 70.73 359.97
  C 73.78 363.68 71.57 368.63 70.16 372.63
  A 1.02 0.99 41.0 0 0 70.23 373.45
  L 72.88 378.21
  A 1.03 0.99 32.5 0 1 73.01 378.74
  C 72.80 383.46 73.30 385.51 70.36 389.50
  A 1.00 0.99 60.1 0 0 70.17 390.22
  L 71.43 400.25
  Q 71.47 400.49 71.38 400.73
  Q 69.36 406.01 73.09 410.56
  A 1.02 1.02 0.0 0 1 73.25 411.55
  Q 70.63 418.60 71.29 426.01
  C 71.47 427.93 73.15 429.42 73.18 432.00
  Q 73.21 435.89 71.93 439.50
  C 70.38 443.88 70.94 447.80 71.99 452.10
  A 1.05 1.02 51.7 0 1 71.92 452.77
  L 69.87 457.13
  A 1.07 1.04 47.9 0 0 69.84 457.91
  L 71.77 463.11
  A 1.02 0.97 43.6 0 1 71.80 463.71
  L 70.06 470.36
  A 1.11 1.07 44.0 0 0 70.08 470.94
  L 71.53 475.22
  A 1.00 0.97 -42.2 0 1 71.48 475.97
  C 70.08 478.95 72.66 480.68 73.68 483.30
  A 1.00 0.99 50.9 0 1 73.59 484.21
  Q 70.14 489.51 70.03 495.76
  C 69.99 498.57 71.59 500.42 72.84 502.85
  A 1.02 1.00 -44.4 0 1 72.82 503.81
  Q 69.79 509.13 73.20 514.14
  A 0.99 0.97 -57.7 0 1 73.36 514.87
  Q 72.12 522.24 70.40 529.54
  C 69.90 531.66 70.60 532.64 71.51 534.41
  A 0.98 0.96 37.8 0 1 71.60 535.08
  L 70.64 539.53
  A 1.03 1.02 33.9 0 0 70.79 540.29
  Q 73.11 543.81 70.58 546.93
  A 0.99 0.98 -36.7 0 0 70.43 547.91
  Q 72.18 552.50 71.66 557.38
  C 71.44 559.52 72.15 561.00 72.74 562.95
  A 0.95 0.95 0.0 0 1 72.74 563.55
  C 70.88 569.13 73.31 573.98 70.73 580.01
  A 0.99 0.97 44.3 0 0 70.75 580.85
  Q 72.12 583.57 70.64 586.21
  A 1.03 1.02 48.6 0 0 70.59 587.10
  C 71.19 588.49 71.91 589.18 71.94 590.78
  Q 72.04 596.98 71.15 603.06
  A 1.02 0.95 39.3 0 0 71.22 603.59
  Q 74.45 611.28 71.98 619.09
  A 1.02 1.00 33.2 0 0 72.19 620.06
  C 74.44 622.55 72.44 636.24 71.85 639.15
  A 0.98 0.98 0.0 0 0 71.97 639.86
  L 74.19 643.61
  A 1.01 1.00 51.7 0 1 74.05 644.82
  L 72.35 646.57
  A 1.00 0.99 -44.8 0 0 72.34 647.95
  L 73.70 649.38
  A 1.02 1.02 0.0 0 1 73.93 650.37
  C 72.84 653.80 69.85 659.23 70.35 662.68
  Q 70.79 665.70 71.74 668.65
  A 1.00 1.00 0.0 0 1 71.21 669.86
  Q 69.75 670.56 68.15 670.91
  C 66.46 671.28 67.44 672.25 68.52 672.23
  Q 72.40 672.13 70.48 675.77
  A 1.01 0.99 -42.9 0 0 70.44 676.62
  L 73.00 682.75
  A 0.99 0.96 -48.3 0 1 73.03 683.45
  Q 70.79 690.18 71.24 697.26
  C 71.40 699.87 73.28 700.94 73.13 703.80
  C 72.98 706.61 73.01 708.31 71.86 711.15
  C 70.20 715.22 71.15 719.89 71.94 724.11
  A 1.04 1.01 -38.5 0 1 71.86 724.73
  L 69.85 728.89
  A 1.01 0.99 47.8 0 0 69.82 729.67
  L 71.77 734.96
  A 0.99 0.97 -47.4 0 1 71.79 735.57
  C 70.61 739.91 69.17 742.18 71.45 746.58
  A 1.05 1.00 -53.1 0 1 71.53 747.26
  L 70.94 749.88
  A 1.02 0.99 36.6 0 0 71.06 750.62
  L 73.61 754.80
  A 1.01 0.99 -49.1 0 1 73.67 755.74
  C 71.39 760.75 70.07 762.76 70.02 769.65
  A 1.04 0.98 31.3 0 0 70.16 770.16
  L 72.84 774.81
  A 1.01 1.00 44.7 0 1 72.85 775.79
  Q 70.10 780.79 72.60 785.41
  C 74.88 789.62 79.33 787.30 82.77 787.63
  Q 86.95 788.02 91.16 788.44
  A 1.03 1.01 26.1 0 0 91.94 788.18
  L 95.57 784.87
  A 1.02 1.01 37.2 0 1 96.70 784.72
  L 101.11 786.94
  A 1.04 0.99 51.4 0 0 101.77 787.03
  C 102.95 786.77 103.64 786.23 104.89 786.29
  C 108.68 786.46 114.68 787.32 118.22 786.16
  C 119.90 785.62 122.93 783.89 124.08 786.17
  A 1.00 1.00 0.0 0 0 125.66 786.44
  L 127.81 784.39
  A 0.99 0.99 0.0 0 1 129.03 784.27
  L 132.57 786.52
  A 0.99 0.98 -45.3 0 0 133.65 786.51
  L 135.84 785.08
  A 1.01 0.98 -49.1 0 1 136.79 785.00
  Q 141.76 787.21 147.17 787.44
  C 149.20 787.53 150.49 786.48 152.19 785.57
  A 1.00 0.99 40.5 0 1 153.00 785.51
  L 157.29 787.04
  A 1.00 0.96 -47.6 0 0 158.08 786.99
  Q 161.06 785.48 164.02 787.01
  A 1.03 1.01 -43.0 0 0 164.90 787.03
  L 169.24 785.03
  A 0.98 0.97 -38.3 0 1 170.26 785.14
  L 173.42 787.57
  A 0.98 0.98 0.0 0 0 174.12 787.77
  Q 175.32 787.66 176.38 786.98
  A 1.02 1.01 -50.2 0 1 177.30 786.89
  L 180.43 788.16
  A 0.98 0.97 42.1 0 0 181.25 788.12
  L 183.84 786.82
  A 1.04 1.01 40.6 0 1 184.63 786.77
  C 189.35 788.45 191.09 787.53 194.94 786.45
  C 199.50 785.17 202.36 788.74 206.78 788.39
  Q 208.93 788.22 211.09 787.86
  C 214.14 787.35 216.31 788.86 219.21 786.26
  A 1.04 1.02 -58.7 0 1 220.12 786.03
  L 229.60 788.36
  A 1.02 1.00 -51.8 0 0 230.31 788.27
  L 235.26 785.64
  A 1.00 0.98 -57.7 0 1 235.77 785.52
  L 242.55 785.83
  Q 242.81 785.84 243.04 785.98
  L 246.46 788.13
  A 1.00 0.99 -30.5 0 0 247.05 788.28
  C 252.27 787.98 256.11 786.51 261.82 788.10
  A 0.99 0.98 40.6 0 0 262.50 788.05
  L 268.09 785.51
  A 1.04 1.04 0.0 0 1 268.84 785.48
  C 274.32 787.44 282.05 788.70 287.28 785.46
  A 1.01 0.99 31.5 0 1 287.89 785.32
  C 290.98 785.56 293.34 785.41 296.37 786.70
  C 300.53 788.47 305.48 787.27 309.76 786.69
  A 0.94 0.93 54.1 0 1 310.35 786.79
  L 314.16 788.72
  A 0.98 0.97 -42.0 0 0 314.96 788.76
  L 320.23 786.78
  A 1.06 0.99 40.2 0 1 320.81 786.75
  C 325.15 787.80 327.46 789.48 331.88 787.14
  A 1.02 0.99 -49.3 0 1 332.66 787.07
  C 336.46 788.33 337.32 786.31 340.28 784.88
  A 1.02 1.01 -41.9 0 1 341.25 784.93
  Q 346.85 788.49 353.41 788.50
  C 355.96 788.50 357.72 787.04 359.88 785.84
  A 0.99 0.99 0.0 0 1 360.62 785.74
  C 365.80 787.10 367.03 787.94 372.08 785.27
  A 1.02 1.00 -52.8 0 1 372.75 785.17
  L 388.46 788.40
  A 1.01 0.96 -49.2 0 0 389.07 788.34
  L 392.28 786.94
  A 0.98 0.98 0.0 0 1 393.06 786.94
  Q 397.07 788.61 400.87 786.54
  A 1.01 1.01 0.0 0 1 401.80 786.52
  L 404.76 788.01
  A 1.01 0.99 47.3 0 0 405.55 788.05
  Q 410.74 786.18 416.20 787.07
  A 1.00 0.98 -52.1 0 0 416.78 786.99
  C 420.34 785.37 423.31 786.58 426.46 786.43
  Q 429.43 786.28 432.45 786.39
  C 435.72 786.50 437.30 788.58 441.07 787.07
  A 0.99 0.98 50.9 0 1 442.00 787.17
  Q 444.58 788.91 446.80 786.77
  A 1.02 1.00 24.5 0 1 447.57 786.49
  C 451.69 786.77 456.19 786.23 460.07 787.55
  A 1.00 1.00 0.0 0 0 460.78 787.52
  C 464.77 785.84 472.41 784.29 476.33 786.66
  A 0.99 0.98 -50.2 0 0 477.51 786.55
  C 480.26 784.09 492.92 785.83 496.60 786.79
  A 1.03 1.01 -52.8 0 0 497.36 786.68
  L 501.16 784.42
  A 1.00 0.99 48.9 0 1 502.29 784.50
  L 504.39 786.19
  A 1.02 1.01 -47.3 0 0 505.71 786.13
  L 507.00 784.91
  A 1.01 0.99 30.3 0 1 507.94 784.67
  C 511.31 785.55 516.67 788.61 519.87 788.26
  Q 524.19 787.79 528.20 786.04
  A 0.98 0.91 -50.3 0 1 528.75 785.97
  L 532.72 786.56
  A 1.01 0.97 35.6 0 0 533.27 786.48
  Q 537.35 784.68 541.51 786.38
  A 0.99 0.95 46.2 0 0 542.21 786.41
  Q 546.04 785.10 549.13 787.30
  A 1.01 1.00 -44.4 0 0 550.26 787.31
  Q 553.82 784.97 557.07 787.95
  A 1.00 0.98 52.7 0 0 558.19 788.11
  Q 561.04 786.68 563.85 787.94
  A 1.01 0.99 38.2 0 0 564.87 787.83
  L 568.21 785.26
  A 1.02 1.01 -49.5 0 1 569.28 785.17
  L 573.26 787.25
  A 1.03 1.00 49.5 0 0 574.02 787.32
  C 575.48 786.87 576.19 786.48 577.85 786.54
  C 582.15 786.72 585.80 785.78 591.68 786.12
  A 1.04 1.02 71.2 0 1 592.38 786.47
  Q 594.98 789.55 598.17 786.64
  A 1.02 1.01 68.5 0 0 598.49 785.90
  L 598.50 782.08
  A 1.03 1.01 61.8 0 1 598.66 781.53
  L 601.06 777.89
  A 1.02 1.00 -43.5 0 0 601.10 776.84
  Q 598.94 773.06 598.25 768.79
  C 597.79 765.94 599.32 763.66 600.19 760.97
  A 1.03 1.02 38.4 0 0 600.09 760.15
  L 598.07 756.75
  A 1.01 0.99 40.0 0 1 597.99 755.92
  Q 600.04 749.97 597.82 744.00
  A 0.98 0.95 44.1 0 1 597.80 743.34
  L 600.31 735.60
  A 0.96 0.94 47.6 0 0 600.33 735.03
  C 599.37 731.37 598.51 728.33 599.39 724.57
  A 1.00 0.98 39.8 0 0 599.32 723.89
  L 597.28 719.82
  A 1.02 0.99 45.7 0 1 597.28 718.93
  L 598.97 715.58
  A 1.01 0.98 48.8 0 0 599.01 714.77
  L 597.51 710.85
  A 0.99 0.99 0.0 0 1 597.65 709.89
  L 599.78 707.07
  A 1.00 0.99 49.2 0 0 599.85 705.97
  Q 598.21 703.06 600.12 700.22
  A 1.04 1.01 61.7 0 0 600.29 699.62
  C 600.15 696.31 599.05 695.51 600.34 692.00
  A 0.99 0.98 40.6 0 0 600.27 691.15
  L 598.91 688.86
  A 1.09 1.05 -57.4 0 1 598.78 688.21
  L 600.51 676.07
  A 1.01 1.00 -58.0 0 0 600.36 675.39
  L 598.00 671.71
  A 1.00 1.00 0.0 0 1 598.01 670.62
  L 599.89 667.78
  A 0.99 0.98 -33.3 0 0 600.04 667.06
  C 599.45 663.74 598.20 658.86 599.79 655.76
  A 1.00 1.00 0.0 0 0 599.84 654.98
  L 598.58 651.40
  A 1.01 1.00 49.7 0 1 598.64 650.61
  Q 600.21 647.54 597.83 645.14
  A 0.97 0.97 0.0 0 1 597.55 644.37
  L 598.37 633.17
  Q 598.39 632.90 598.54 632.68
  L 599.87 630.70
  A 1.01 1.00 51.5 0 0 599.97 629.76
  C 598.70 626.60 599.97 623.87 599.97 621.12
  C 599.99 615.55 601.23 613.64 598.19 608.43
  A 1.04 1.02 -60.5 0 1 598.05 607.91
  Q 598.09 604.03 598.89 600.24
  C 599.81 595.87 597.19 592.59 598.35 588.24
  Q 599.16 585.18 600.61 582.30
  A 1.07 1.01 53.6 0 0 600.69 581.64
  Q 599.81 577.44 601.12 573.28
  A 0.99 0.98 -53.3 0 0 601.00 572.44
  L 597.74 567.45
  A 0.99 0.98 -48.4 0 1 597.69 566.45
  C 599.07 563.73 600.36 562.09 600.41 558.89
  Q 600.51 552.23 599.81 545.63
  A 1.03 1.01 -34.5 0 1 599.92 545.06
  C 600.56 543.82 601.03 542.97 600.81 541.50
  Q 599.64 533.89 597.84 526.42
  A 0.99 0.95 47.4 0 1 597.85 525.89
  L 599.71 519.96
  A 1.04 1.02 -51.5 0 0 599.63 519.18
  L 597.58 515.41
  A 0.99 0.97 -51.6 0 1 597.50 514.65
  C 598.64 510.82 599.61 509.32 599.48 505.07
  A 1.05 1.00 -31.0 0 1 599.64 504.49
  C 601.21 502.05 598.00 496.41 596.90 493.96
  A 1.00 0.98 -37.4 0 1 597.05 492.92
  L 600.76 488.42
  A 1.01 1.00 -25.5 0 0 600.99 487.78
  C 601.00 485.91 600.30 484.35 600.33 482.47
  Q 600.40 478.38 598.43 474.75
  A 0.99 0.96 44.0 0 1 598.40 473.85
  L 599.52 471.42
  A 1.00 1.00 0.0 0 0 599.42 470.42
  L 597.38 467.61
  A 1.02 1.00 44.5 0 1 597.36 466.47
  Q 600.01 462.48 597.94 458.27
  A 0.99 0.98 -38.9 0 1 598.06 457.20
  Q 600.64 454.03 597.95 450.89
  A 1.01 1.01 0.0 0 1 597.85 449.72
  L 600.58 445.16
  A 0.93 0.91 -30.4 0 0 600.72 444.64
  C 600.71 441.60 601.15 439.50 600.50 436.24
  C 600.02 433.83 600.72 432.02 600.12 429.64
  Q 598.59 423.56 598.00 417.27
  A 1.03 0.95 -36.1 0 1 598.11 416.71
  L 600.34 412.48
  A 0.99 0.99 0.0 0 0 600.17 411.31
  L 596.00 407.10
  A 1.00 1.00 0.0 0 1 595.98 405.72
  L 599.38 402.06
  A 1.00 1.00 0.0 0 0 599.54 400.93
  L 598.48 398.80
  A 1.01 1.00 -42.5 0 1 598.53 397.82
  Q 602.11 392.13 601.26 385.57
  C 600.90 382.79 599.07 381.14 597.38 379.00
  A 0.99 0.99 0.0 0 1 597.34 377.81
  L 600.85 372.83
  Q 602.18 370.94 600.89 368.32
  L 598.22 362.89
  A 1.03 1.02 46.0 0 1 598.23 361.98
  Q 600.34 357.95 600.32 353.46
  C 600.31 351.03 598.88 349.15 597.78 347.03
  A 1.03 1.02 41.2 0 1 597.72 346.23
  L 599.22 342.02
  A 1.02 1.00 47.6 0 0 599.24 341.43
  L 598.33 337.90
  A 1.02 1.00 55.4 0 1 598.47 337.09
  C 602.09 331.67 599.21 328.06 600.72 322.81
  A 1.05 1.00 -49.1 0 0 600.69 322.17
  Q 599.49 319.11 599.91 315.94
  C 600.40 312.25 599.17 309.66 597.42 306.66
  A 1.01 1.00 43.5 0 1 597.39 305.71
  L 599.31 301.87
  A 1.03 1.01 -40.3 0 0 599.38 301.13
  L 598.59 298.55
  A 0.99 0.97 -42.2 0 1 598.63 297.86
  Q 600.10 294.50 597.71 291.70
  A 1.02 1.01 -58.5 0 1 597.50 290.81
  L 601.32 275.52
  A 0.97 0.97 0.0 0 0 601.26 274.86
  Q 598.65 269.17 599.95 263.04
  A 1.04 0.97 40.5 0 0 599.88 262.41
  C 599.30 261.16 598.66 260.53 598.56 259.08
  Q 598.00 250.76 600.19 242.66
  A 1.00 0.98 35.7 0 0 600.05 241.84
  L 598.65 239.75
  A 1.02 1.01 38.8 0 1 598.55 238.84
  Q 599.65 235.93 598.90 233.11
  C 597.91 229.38 598.43 226.54 599.45 223.03
  A 0.98 0.98 0.0 0 0 599.45 222.45
  C 597.86 217.23 597.21 214.11 599.76 209.06
  A 1.04 0.99 -38.6 0 0 599.85 208.40
  Q 598.08 199.98 601.42 192.13
  A 1.00 1.00 0.0 0 0 601.40 191.30
  L 599.56 187.55
  A 1.06 1.04 -56.4 0 1 599.46 187.02
  C 599.92 181.56 599.06 177.34 600.64 171.31
  A 1.00 0.97 -49.4 0 0 600.60 170.67
  Q 599.09 167.06 598.80 163.18
  C 598.65 161.00 599.90 158.47 599.51 156.50
  Q 598.37 150.68 598.48 144.72
  A 0.96 0.95 62.1 0 1 598.64 144.19
  L 601.01 140.56
  A 0.99 0.98 -43.7 0 0 601.04 139.53
  Q 598.92 135.73 598.23 131.45
  C 597.78 128.68 599.25 126.55 600.15 123.99
  A 1.06 1.03 -50.7 0 0 600.08 123.17
  L 598.08 119.55
  A 0.99 0.97 41.4 0 1 598.02 118.73
  Q 599.83 113.76 598.73 110.52
  C 597.03 105.50 599.04 102.82 600.45 98.62
  A 1.04 1.03 -46.9 0 0 600.43 97.91
  Q 598.27 92.82 599.35 87.52
  A 1.03 0.99 -53.8 0 0 599.26 86.86
  L 597.21 82.91
  A 1.00 0.99 51.0 0 1 597.32 81.81
  Q 600.24 78.29 597.51 74.67
  A 1.01 1.00 44.2 0 1 597.49 73.50
  L 599.75 70.24
  A 1.01 1.00 51.5 0 0 599.85 69.30
  L 598.90 66.91
  A 1.01 1.00 49.9 0 1 598.97 66.03
  Q 601.12 62.44 599.40 58.72
  A 1.03 1.03 0.0 0 1 599.44 57.80
  Q 601.12 54.89 598.98 52.38
  A 1.04 1.01 29.7 0 1 598.75 51.59
  L 600.35 40.41
  A 1.01 1.00 -86.0 0 0 599.36 39.26
  Q 595.94 39.27 593.02 41.06
  A 0.99 0.95 -58.2 0 1 592.44 41.21
  C 588.35 41.01 585.66 45.53 582.94 48.17
  A 1.01 1.00 30.7 0 1 581.98 48.41
  L 576.35 46.91
  A 1.02 0.99 32.1 0 0 575.46 47.10
  Q 572.89 49.22 569.89 50.61
  C 567.55 51.69 566.41 53.27 564.63 54.96
  A 0.98 0.96 -62.9 0 1 563.83 55.23
  L 561.57 54.98
  A 1.01 1.00 -71.8 0 0 560.59 55.48
  L 558.82 58.58
  A 0.99 0.99 0.0 0 1 557.80 59.07
  Q 553.09 58.34 550.19 61.93
  A 1.00 0.98 21.4 0 1 549.32 62.30
  L 546.31 62.02
  A 1.03 1.01 -66.4 0 0 545.47 62.36
  L 542.94 65.20
  A 0.99 0.97 22.9 0 1 542.10 65.53
  C 539.44 65.28 536.87 64.25 534.58 66.11
  A 0.99 0.95 -66.7 0 1 534.06 66.33
  Q 530.49 66.72 528.20 69.47
  A 1.00 0.96 -72.0 0 1 527.55 69.82
  C 523.92 70.26 522.24 72.83 519.92 74.25
  Q 516.46 76.36 513.13 78.72
  A 1.05 1.04 28.6 0 1 512.51 78.90
  L 507.23 78.68
  A 1.00 1.00 0.0 0 0 506.26 79.31
  L 504.03 84.83
  A 1.00 1.00 0.0 0 1 502.76 85.39
  Z"
/>
<path fill="#161617" d="
  M 256.15 443.38
  Q 240.72 435.44 227.35 424.36
  Q 225.87 423.14 227.78 422.95
  Q 248.71 420.84 268.66 414.12
  C 341.43 389.60 379.85 324.23 377.71 249.34
  Q 377.71 249.23 377.73 246.66
  Q 377.74 245.04 377.45 243.64
  Q 376.97 241.34 378.75 242.86
  Q 408.46 268.30 422.72 304.76
  C 449.21 372.52 414.10 447.75 338.68 458.26
  C 310.67 462.17 281.27 456.30 256.15 443.38
  Z"
/>
<path fill="#000000" d="
  M 166.51 577.09
  A 30.30 30.30 0.0 0 1 136.21 607.39
  A 30.30 30.30 0.0 0 1 105.91 577.09
  A 30.30 30.30 0.0 0 1 136.21 546.79
  A 30.30 30.30 0.0 0 1 166.51 577.09
  Z
  M 160.26 577.09
  A 24.06 24.06 0.0 0 0 136.20 553.03
  A 24.06 24.06 0.0 0 0 112.14 577.09
  A 24.06 24.06 0.0 0 0 136.20 601.15
  A 24.06 24.06 0.0 0 0 160.26 577.09
  Z"
/>
<path fill="#000000" d="
  M 296.49 589.00
  A 1.00 1.00 0.0 0 0 297.49 590.00
  L 329.25 590.00
  A 1.00 1.00 0.0 0 0 330.25 589.00
  L 330.25 548.68
  A 1.00 1.00 0.0 0 1 330.60 547.92
  Q 333.77 545.17 336.71 548.09
  A 1.02 0.98 -68.2 0 1 337.00 548.80
  L 337.00 604.24
  A 1.00 0.99 78.2 0 1 336.41 605.15
  C 332.63 606.84 330.18 605.50 330.27 601.43
  Q 330.32 599.03 330.16 596.68
  A 1.01 1.00 87.8 0 0 329.16 595.75
  L 297.50 595.75
  A 1.00 1.00 0.0 0 0 296.50 596.75
  L 296.50 603.73
  A 1.04 1.03 67.2 0 1 296.21 604.45
  Q 293.15 607.46 290.24 604.30
  A 1.03 0.96 -67.8 0 1 289.98 603.62
  Q 290.03 576.95 289.99 550.32
  C 289.98 546.25 292.29 546.06 295.85 547.37
  A 1.00 1.00 0.0 0 1 296.51 548.31
  L 296.49 589.00
  Z"
/>
<path fill="#000000" d="
  M 413.75 577.09
  A 30.30 30.30 0.0 0 1 383.45 607.39
  A 30.30 30.30 0.0 0 1 353.15 577.09
  A 30.30 30.30 0.0 0 1 383.45 546.79
  A 30.30 30.30 0.0 0 1 413.75 577.09
  Z
  M 407.51 577.09
  A 24.05 24.05 0.0 0 0 383.46 553.04
  A 24.05 24.05 0.0 0 0 359.41 577.09
  A 24.05 24.05 0.0 0 0 383.46 601.14
  A 24.05 24.05 0.0 0 0 407.51 577.09
  Z"
/>
<path fill="#000000" d="
  M 495.12 573.89
  C 488.54 568.50 488.32 558.19 493.73 552.24
  C 500.93 544.31 514.33 545.92 522.75 551.34
  A 1.02 1.01 18.2 0 1 523.21 552.24
  Q 523.05 554.98 520.47 556.99
  A 1.01 1.01 0.0 0 1 519.33 557.05
  Q 508.40 550.25 500.64 554.78
  Q 497.18 556.80 496.53 560.33
  C 493.79 575.27 524.47 572.71 525.99 590.33
  Q 526.78 599.44 519.19 604.19
  C 509.68 610.16 498.52 607.16 490.02 600.38
  Q 488.32 599.03 489.80 597.31
  L 492.11 594.64
  A 1.00 1.00 0.0 0 1 493.57 594.58
  C 498.21 599.18 506.71 603.52 513.23 600.54
  C 523.52 595.83 519.29 586.54 511.31 582.44
  C 506.85 580.14 499.89 577.79 495.12 573.89
  Z"
/>
<path fill="#000000" d="
  M 201.06 607.22
  C 190.42 606.49 182.32 596.91 182.22 586.24
  Q 182.04 567.94 181.95 549.55
  A 1.02 0.98 68.2 0 1 182.24 548.84
  Q 185.23 545.83 188.24 548.84
  A 0.99 0.98 -68.2 0 1 188.54 549.55
  Q 188.37 580.65 188.55 586.18
  C 189.07 602.64 212.56 606.87 218.55 591.91
  Q 219.92 588.49 219.98 579.26
  Q 220.07 564.43 219.94 549.58
  A 0.96 0.95 67.5 0 1 220.23 548.87
  Q 223.23 545.84 226.24 548.83
  A 1.02 0.98 -68.2 0 1 226.53 549.54
  Q 226.46 566.04 226.52 582.51
  C 226.58 598.15 217.76 608.37 201.06 607.22
  Z"
/>
<path fill="#000000" d="
  M 255.07 605.86
  A 1.01 1.00 -77.5 0 1 254.50 604.95
  L 254.50 554.50
  A 1.00 1.00 0.0 0 0 253.50 553.50
  L 240.32 553.50
  A 1.01 1.00 64.5 0 1 239.68 553.27
  Q 236.48 550.56 239.89 547.73
  A 1.01 1.00 -64.5 0 1 240.53 547.50
  L 275.26 547.50
  A 1.00 0.99 66.8 0 1 275.95 547.78
  Q 278.77 550.50 275.95 553.22
  A 1.02 0.99 22.5 0 1 275.25 553.50
  L 262.26 553.50
  A 1.00 1.00 0.0 0 0 261.26 554.50
  Q 261.24 578.61 261.26 602.72
  C 261.26 606.77 258.42 607.45 255.07 605.86
  Z"
/>
<path fill="#000000" d="
  M 472.66 592.26
  C 466.58 612.10 436.28 612.59 430.22 592.43
  Q 429.25 589.20 429.26 580.95
  Q 429.27 565.28 429.20 549.56
  A 0.99 0.98 68.2 0 1 429.50 548.85
  Q 432.49 545.85 435.49 548.83
  A 1.04 1.01 23.5 0 1 435.78 549.54
  Q 435.64 579.77 435.78 585.22
  C 436.25 603.39 461.01 607.29 466.29 590.50
  Q 467.17 587.70 467.22 580.76
  Q 467.33 565.18 467.19 549.58
  A 0.96 0.95 67.5 0 1 467.48 548.87
  Q 470.48 545.85 473.48 548.82
  A 1.02 0.98 -68.2 0 1 473.77 549.53
  Q 473.74 565.08 473.74 580.58
  Q 473.75 588.73 472.66 592.26
  Z"
/>
<path fill="#000000" d="
  M 547.75 600.75
  L 574.48 600.75
  A 1.00 0.98 -23.7 0 1 575.14 601.00
  Q 578.03 603.56 575.18 606.23
  A 1.01 0.99 -66.0 0 1 574.50 606.50
  L 542.25 606.50
  Q 540.00 606.50 540.00 604.25
  L 540.00 549.75
  Q 540.00 547.50 542.25 547.50
  L 574.11 547.50
  A 0.99 0.98 62.8 0 1 574.69 547.69
  Q 578.25 550.20 575.18 553.21
  A 0.99 0.99 0.0 0 1 574.48 553.50
  L 547.75 553.50
  A 1.00 1.00 0.0 0 0 546.75 554.50
  L 546.75 572.75
  A 1.00 1.00 0.0 0 0 547.75 573.75
  L 570.42 573.75
  A 1.02 0.98 -21.8 0 1 571.13 574.04
  Q 573.61 576.51 571.23 579.17
  A 1.02 1.01 20.9 0 1 570.48 579.50
  L 547.75 579.50
  A 1.00 1.00 0.0 0 0 546.75 580.50
  L 546.75 599.75
  A 1.00 1.00 0.0 0 0 547.75 600.75
  Z"
/>
</svg>
