<?xml version="1.0" encoding="UTF-8" standalone="no"?>
<!DOCTYPE svg PUBLIC "-//W3C//DTD SVG 1.1//EN" "http://www.w3.org/Graphics/SVG/1.1/DTD/svg11.dtd">
<svg xmlns="http://www.w3.org/2000/svg" version="1.1" viewBox="0 0 1080 1080">
<g stroke-width="2.00" fill="none" stroke-linecap="butt">
<path stroke="#010d0a" vector-effect="non-scaling-stroke" d="
  M 499.71 565.50
  L 499.56 661.34
  Q 499.56 664.07 496.85 663.87
  Q 484.08 662.93 471.54 661.01
  Q 463.81 659.83 456.04 659.11
  Q 455.81 659.08 455.61 658.96
  L 454.33 658.18
  A 0.96 0.92 59.4 0 0 453.79 658.03
  Q 451.57 658.09 449.54 657.09
  A 1.05 1.00 54.5 0 0 449.02 656.99
  C 446.56 657.20 444.39 656.19 442.54 655.79
  Q 429.63 652.95 417.00 649.04"
/>
<path stroke="#001813" vector-effect="non-scaling-stroke" d="
  M 417.00 649.04
  L 417.93 649.19
  A 1.01 1.01 0.0 0 0 418.96 648.68
  L 435.96 617.75"
/>
<path stroke="#010d0a" vector-effect="non-scaling-stroke" d="
  M 435.96 617.75
  Q 435.85 618.82 435.21 619.66
  A 1.00 0.97 62.7 0 0 435.00 620.35
  Q 435.05 620.94 435.33 620.50
  Q 435.77 619.79 436.06 620.58
  Q 436.70 622.36 438.77 622.72
  A 1.00 0.96 78.0 0 1 439.45 623.18
  Q 440.28 624.53 441.74 624.39
  A 0.81 0.80 -16.6 0 1 442.51 624.80
  Q 442.74 625.22 442.95 624.84
  A 0.42 0.42 0.0 0 1 443.56 624.72
  C 446.00 626.59 448.91 626.06 451.55 628.30
  A 1.03 1.02 70.2 0 0 452.03 628.53
  Q 454.12 628.88 455.96 629.75
  Q 456.70 630.09 457.30 629.92
  A 0.80 0.79 77.3 0 1 458.30 630.56
  Q 458.61 632.32 460.00 630.71"
/>
<path stroke="#002727" vector-effect="non-scaling-stroke" d="
  M 460.00 630.71
  C 461.51 635.05 464.95 640.59 470.06 640.17"
/>
<path stroke="#0a3133" vector-effect="non-scaling-stroke" d="
  M 470.06 640.17
  C 476.94 640.66 480.60 632.04 482.38 626.66
  Q 487.70 610.56 492.70 594.35
  Q 493.73 591.00 493.75 587.48
  Q 493.83 570.86 493.74 554.26"
/>
<path stroke="#163b3e" vector-effect="non-scaling-stroke" d="
  M 493.74 554.26
  L 493.71 524.25"
/>
<path stroke="#284a4e" vector-effect="non-scaling-stroke" d="
  M 493.71 524.25
  C 494.66 500.75 493.64 479.88 493.96 444.50"
/>
<path stroke="#163b3e" vector-effect="non-scaling-stroke" d="
  M 493.96 444.50
  C 493.42 421.08 494.07 401.52 493.89 366.00"
/>
<path stroke="#284a4e" vector-effect="non-scaling-stroke" d="
  M 493.89 366.00
  C 493.96 313.41 493.53 283.32 493.82 242.00"
/>
<path stroke="#5c7375" vector-effect="non-scaling-stroke" d="
  M 493.82 242.00
  Q 494.31 236.96 493.50 231.90"
/>
<path stroke="#20545e" vector-effect="non-scaling-stroke" d="
  M 493.74 554.26
  L 484.92 555.47
  A 1.00 1.00 0.0 0 0 484.18 555.98
  L 483.94 556.43
  Q 482.77 558.59 482.74 556.13
  L 482.71 553.50"
/>
<path stroke="#3e6d79" vector-effect="non-scaling-stroke" d="
  M 493.89 366.00
  Q 492.02 367.23 491.08 366.16
  Q 486.56 361.03 481.84 355.90
  Q 480.09 354.00 480.10 356.58
  L 480.29 389.01
  Q 480.30 390.87 478.74 389.85
  Q 468.90 383.40 460.09 375.64"
/>
<path stroke="#285962" vector-effect="non-scaling-stroke" d="
  M 460.09 375.64
  L 460.94 345.96
  A 0.47 0.40 -66.8 0 0 460.86 345.70
  L 460.71 345.50"
/>
<path stroke="#3e6d79" vector-effect="non-scaling-stroke" d="
  M 460.71 345.50
  L 460.75 344.71"
/>
<path stroke="#84a5b0" vector-effect="non-scaling-stroke" d="
  M 493.82 242.00
  L 493.13 242.31
  Q 492.92 242.40 492.78 242.57
  L 478.97 258.59
  A 1.00 1.00 0.0 0 0 478.73 259.24
  L 478.55 320.32
  A 1.03 1.01 62.8 0 1 478.37 320.90
  C 476.72 323.24 461.59 344.88 460.75 344.71"
/>
<path stroke="#7296a0" vector-effect="non-scaling-stroke" d="
  M 460.75 344.71
  Q 460.84 344.20 460.84 343.69
  Q 460.84 311.95 460.75 280.21"
/>
<path stroke="#c3d6dd" vector-effect="non-scaling-stroke" d="
  M 460.75 280.21
  Q 461.06 274.86 458.50 270.21"
/>
<path stroke="#0a3133" vector-effect="non-scaling-stroke" d="
  M 458.25 538.29
  L 458.29 575.75"
/>
<path stroke="#010d0a" vector-effect="non-scaling-stroke" d="
  M 458.21 577.25
  L 457.94 577.25
  A 0.35 0.33 -74.1 0 0 457.65 577.42
  L 435.96 617.75"
/>
<path stroke="#010d0a" vector-effect="non-scaling-stroke" d="
  M 417.00 649.04
  Q 394.66 642.15 373.55 632.42"
/>
<path stroke="#0a3133" vector-effect="non-scaling-stroke" d="
  M 373.55 632.42
  Q 358.11 619.49 346.00 603.46"
/>
<path stroke="#163b3e" vector-effect="non-scaling-stroke" d="
  M 346.00 603.46
  L 341.00 595.54"
/>
<path stroke="#5c686c" vector-effect="non-scaling-stroke" d="
  M 501.46 663.50
  Q 507.53 666.07 511.96 661.70"
/>
<path stroke="#010d0a" vector-effect="non-scaling-stroke" d="
  M 511.96 661.70
  Q 512.74 661.90 512.51 662.55
  A 0.81 0.81 0.0 0 0 512.75 663.43
  Q 513.87 664.37 515.00 664.32
  Q 526.94 663.73 538.88 663.74
  C 542.27 663.75 545.75 662.95 549.28 662.75
  C 556.57 662.32 563.23 662.05 569.77 660.40
  C 573.09 659.56 577.52 659.44 580.06 658.95
  Q 588.31 657.36 596.57 655.74
  C 598.07 655.45 599.86 655.86 601.46 654.84
  A 1.01 1.00 -57.6 0 1 602.11 654.69
  Q 606.78 655.24 608.99 651.29"
/>
<path stroke="#0b262a" vector-effect="non-scaling-stroke" d="
  M 608.99 651.29
  Q 633.47 645.63 657.45 637.83"
/>
<path stroke="#0b262a" vector-effect="non-scaling-stroke" d="
  M 362.96 628.33
  Q 368.45 629.65 373.55 632.42"
/>
<path stroke="#3e6d79" vector-effect="non-scaling-stroke" d="
  M 493.71 524.25
  Q 493.40 524.09 493.20 524.32
  A 0.42 0.41 43.7 0 1 492.58 524.33
  Q 492.35 524.07 492.07 524.19
  Q 491.44 524.47 491.20 524.49
  L 482.63 524.98"
/>
<path stroke="#285962" vector-effect="non-scaling-stroke" d="
  M 482.63 524.98
  Q 482.80 524.54 482.81 524.09
  Q 482.85 521.38 482.16 524.00
  Q 479.78 533.07 477.80 542.21
  C 477.72 542.58 477.51 543.12 477.10 543.07"
/>
<path stroke="#32636e" vector-effect="non-scaling-stroke" d="
  M 477.10 543.07
  L 458.79 537.75"
/>
<path stroke="#3e6d79" vector-effect="non-scaling-stroke" d="
  M 493.96 444.50
  L 493.72 439.27
  Q 493.71 439.09 493.61 439.24
  L 493.47 439.45
  A 0.52 0.51 -65.4 0 1 492.89 439.67
  Q 487.22 437.92 481.23 439.32"
/>
<path stroke="#4e7a86" vector-effect="non-scaling-stroke" d="
  M 481.23 439.32
  L 480.03 391.85
  A 0.99 0.99 0.0 0 0 479.18 390.89
  L 460.04 388.00"
/>
<path stroke="#164a52" vector-effect="non-scaling-stroke" d="
  M 482.63 524.98
  L 482.71 553.50"
/>
<path stroke="#0a4047" vector-effect="non-scaling-stroke" d="
  M 482.71 553.50
  Q 482.27 564.41 481.61 575.30
  Q 479.62 608.41 470.06 640.17"
/>
<path stroke="#011c1e" vector-effect="non-scaling-stroke" d="
  M 460.00 630.71
  Q 458.40 624.97 458.25 620.25
  Q 457.66 601.49 458.21 577.25"
/>
<path stroke="#002727" vector-effect="non-scaling-stroke" d="
  M 458.21 577.25
  L 458.29 575.75"
/>
<path stroke="#0a4047" vector-effect="non-scaling-stroke" d="
  M 458.29 575.75
  Q 468.21 559.82 477.10 543.07"
/>
<path stroke="#164a52" vector-effect="non-scaling-stroke" d="
  M 460.71 345.50
  C 455.02 353.38 448.73 361.43 443.93 369.87
  C 427.14 399.43 412.22 430.32 396.53 460.57"
/>
<path stroke="#20545e" vector-effect="non-scaling-stroke" d="
  M 396.53 460.57
  L 373.42 397.91"
/>
<path stroke="#7296a0" vector-effect="non-scaling-stroke" d="
  M 373.42 397.91
  Q 386.45 375.67 401.50 354.29"
/>
<path stroke="#164a52" vector-effect="non-scaling-stroke" d="
  M 460.09 375.64
  L 460.04 388.00"
/>
<path stroke="#38656f" vector-effect="non-scaling-stroke" d="
  M 460.04 388.00
  L 459.15 465.75"
/>
<path stroke="#285962" vector-effect="non-scaling-stroke" d="
  M 459.15 465.75
  L 458.79 537.75"
/>
<path stroke="#0a4047" vector-effect="non-scaling-stroke" d="
  M 458.79 537.75
  L 458.25 538.29"
/>
<path stroke="#002727" vector-effect="non-scaling-stroke" d="
  M 458.25 538.29
  C 457.05 536.80 455.62 536.97 454.08 536.55
  Q 431.42 530.23 408.74 523.97
  A 1.00 0.98 28.6 0 0 407.73 524.26
  Q 381.38 553.21 354.93 582.43
  Q 352.34 585.30 341.00 595.54"
/>
<path stroke="#164a52" vector-effect="non-scaling-stroke" d="
  M 341.00 595.54
  Q 337.61 590.76 335.62 585.67"
/>
<path stroke="#0a4047" vector-effect="non-scaling-stroke" d="
  M 335.62 585.67
  L 347.26 570.67
  A 1.00 1.00 0.0 0 0 347.21 569.39
  L 324.52 544.03"
/>
<path stroke="#5c8188" vector-effect="non-scaling-stroke" d="
  M 324.52 544.03
  Q 323.74 537.53 324.21 530.50"
/>
<path stroke="#678a8f" vector-effect="non-scaling-stroke" d="
  M 324.21 530.50
  L 324.27 527.70"
/>
<path stroke="#0a4047" vector-effect="non-scaling-stroke" d="
  M 324.27 527.70
  Q 342.93 528.89 361.55 526.97
  Q 363.17 526.80 364.22 527.13
  A 1.01 1.00 17.8 0 0 365.47 526.49
  C 367.95 518.90 370.49 511.95 374.28 504.57
  Q 385.57 482.58 396.53 460.57"
/>
<path stroke="#7d9fa7" vector-effect="non-scaling-stroke" d="
  M 460.75 280.21
  Q 428.91 315.48 401.50 354.29"
/>
<path stroke="#c3d6dd" vector-effect="non-scaling-stroke" d="
  M 401.50 354.29
  Q 399.41 353.49 399.16 355.40
  Q 399.08 356.03 395.92 358.93
  Q 395.05 359.73 394.29 359.27
  A 0.64 0.64 0.0 0 1 394.29 358.17
  Q 395.31 357.57 394.44 356.74
  A 1.02 1.02 0.0 0 1 394.18 355.70
  Q 394.47 354.85 393.25 355.21"
/>
<path stroke="#20545e" vector-effect="non-scaling-stroke" d="
  M 346.00 603.46
  L 337.79 603.50"
/>
<path stroke="#0a3133" vector-effect="non-scaling-stroke" d="
  M 608.99 651.29
  Q 604.30 652.45 599.43 652.48"
/>
<path stroke="#7296a0" vector-effect="non-scaling-stroke" d="
  M 556.50 620.71
  L 521.70 652.69"
/>
<path stroke="#5c7375" vector-effect="non-scaling-stroke" d="
  M 521.70 652.69
  L 511.96 661.70"
/>
<path stroke="#608996" vector-effect="non-scaling-stroke" d="
  M 481.23 439.32
  L 481.03 442.56
  A 1.10 1.05 -22.8 0 1 480.76 443.18
  Q 469.28 455.46 460.95 465.20
  Q 460.31 465.95 459.15 465.75"
/>
<path stroke="#71959c" vector-effect="non-scaling-stroke" d="
  M 324.27 527.70
  C 326.38 502.97 334.21 478.18 344.10 455.08"
/>
<path stroke="#668c95" vector-effect="non-scaling-stroke" d="
  M 373.42 397.91
  Q 356.59 425.58 344.10 455.08"
/>
<path stroke="#c3d6dd" vector-effect="non-scaling-stroke" d="
  M 344.10 455.08
  L 339.24 453.83
  A 1.04 1.02 40.0 0 0 338.60 453.88
  Q 337.61 454.30 336.54 453.75"
/>
<path stroke="#c3d6dd" vector-effect="non-scaling-stroke" d="
  M 324.21 530.50
  Q 321.84 528.98 319.09 528.35
  A 1.00 1.00 0.0 0 1 318.32 527.38
  Q 318.31 524.04 317.79 527.25"
/>
<path stroke="#668c95" vector-effect="non-scaling-stroke" d="
  M 324.52 544.03
  L 325.21 553.50"
/>
<path stroke="#94b1bd" vector-effect="non-scaling-stroke" d="
  M 325.21 553.50
  Q 323.70 554.30 322.35 553.03
  A 1.04 1.01 -22.2 0 0 321.68 552.76
  Q 319.95 552.72 318.27 551.90"
/>
<path stroke="#20545e" vector-effect="non-scaling-stroke" d="
  M 335.62 585.67
  L 333.46 581.75"
/>
<path stroke="#32636e" vector-effect="non-scaling-stroke" d="
  M 333.46 581.75
  L 328.75 568.96"
/>
<path stroke="#42707b" vector-effect="non-scaling-stroke" d="
  M 328.75 568.96
  L 325.21 553.50"
/>
<path stroke="#3e6d79" vector-effect="non-scaling-stroke" d="
  M 333.46 581.75
  Q 329.40 582.94 325.50 581.29"
/>
<path stroke="#20545e" vector-effect="non-scaling-stroke" d="
  M 665.25 634.04
  Q 663.20 634.95 663.55 633.39
  A 1.00 0.99 26.2 0 0 663.21 632.41
  Q 660.43 630.08 658.47 626.90"
/>
<path stroke="#3e6d79" vector-effect="non-scaling-stroke" d="
  M 658.47 626.90
  Q 661.73 625.41 664.29 623.04"
/>
<path stroke="#32636e" vector-effect="non-scaling-stroke" d="
  M 658.47 626.90
  Q 630.18 642.54 599.43 652.48"
/>
<path stroke="#284a4e" vector-effect="non-scaling-stroke" d="
  M 599.43 652.48
  Q 563.59 660.51 527.17 654.36"
/>
<path stroke="#3e6d79" vector-effect="non-scaling-stroke" d="
  M 527.17 654.36
  L 553.00 651.21"
/>
<path stroke="#608996" vector-effect="non-scaling-stroke" d="
  M 553.00 651.21
  Q 575.19 648.52 596.94 643.33
  Q 599.12 642.81 597.28 641.53
  L 565.50 619.46"
/>
<path stroke="#3e6d79" vector-effect="non-scaling-stroke" d="
  M 565.50 619.46
  L 566.14 617.74"
/>
<path stroke="#4e7a86" vector-effect="non-scaling-stroke" d="
  M 565.50 619.46
  L 554.79 629.22
  A 1.01 1.00 -19.0 0 0 554.46 629.89
  L 553.00 651.21"
/>
<path stroke="#163b3e" vector-effect="non-scaling-stroke" d="
  M 527.17 654.36
  Q 524.11 654.64 521.70 652.69"
/>
<path stroke="#38656f" vector-effect="non-scaling-stroke" d="
  M 661.54 559.00
  Q 645.19 580.75 621.25 593.79"
/>
<path stroke="#285962" vector-effect="non-scaling-stroke" d="
  M 621.25 593.79
  Q 594.78 608.26 566.14 617.74"
/>
<path stroke="#164a52" vector-effect="non-scaling-stroke" d="
  M 566.14 617.74
  L 556.50 620.71"
/>
<path stroke="#5c8188" vector-effect="non-scaling-stroke" d="
  M 556.50 620.71
  L 569.50 608.54"
/>
<path stroke="#9fbac4" vector-effect="non-scaling-stroke" d="
  M 712.67 504.57
  L 700.43 489.59
  A 1.01 1.01 0.0 0 0 698.97 489.49
  L 686.50 500.96"
/>
<path stroke="#71959c" vector-effect="non-scaling-stroke" d="
  M 686.50 500.96
  L 662.75 522.71"
/>
<path stroke="#678a8f" vector-effect="non-scaling-stroke" d="
  M 662.75 522.71
  L 569.50 608.54"
/>
<path stroke="#c3d6dd" vector-effect="non-scaling-stroke" d="
  M 569.50 608.54
  L 567.74 608.19
  A 1.00 1.00 0.0 0 1 566.99 606.89
  L 567.94 604.07
  A 0.64 0.56 -14.3 0 1 568.10 603.84
  Q 568.67 603.37 566.75 603.46"
/>
<path stroke="#608996" vector-effect="non-scaling-stroke" d="
  M 328.75 568.96
  Q 325.00 569.81 321.30 568.76"
/>
<path stroke="#3e6d79" vector-effect="non-scaling-stroke" d="
  M 726.29 581.00
  Q 726.73 579.18 725.56 579.85
  A 0.97 0.95 36.8 0 1 724.81 579.95
  Q 720.93 578.94 718.07 576.23"
/>
<path stroke="#608996" vector-effect="non-scaling-stroke" d="
  M 749.20 446.27
  Q 751.35 463.67 750.75 481.15
  Q 750.65 484.09 750.21 488.45
  C 749.94 491.17 750.32 494.27 749.28 496.84
  Q 749.04 497.42 749.04 497.89
  Q 749.02 502.57 747.90 507.35
  A 1.00 0.99 -68.3 0 0 748.37 508.44
  Q 750.44 509.64 752.71 508.50"
/>
<path stroke="#608996" vector-effect="non-scaling-stroke" d="
  M 747.72 534.73
  Q 744.61 536.78 741.23 535.46
  A 1.01 1.01 0.0 0 0 739.93 536.04
  Q 731.78 557.69 718.07 576.23"
/>
<path stroke="#4e7a86" vector-effect="non-scaling-stroke" d="
  M 718.07 576.23
  Q 695.79 604.90 664.29 623.04"
/>
<path stroke="#608996" vector-effect="non-scaling-stroke" d="
  M 664.29 623.04
  Q 683.29 609.16 699.70 592.33
  A 1.01 1.01 0.0 0 0 699.77 591.01
  L 695.00 584.96"
/>
<path stroke="#7095a3" vector-effect="non-scaling-stroke" d="
  M 695.00 584.96
  L 693.21 582.75"
/>
<path stroke="#608996" vector-effect="non-scaling-stroke" d="
  M 693.21 582.75
  Q 703.26 575.31 711.00 565.46"
/>
<path stroke="#7095a3" vector-effect="non-scaling-stroke" d="
  M 711.00 565.46
  L 715.72 571.40
  A 1.00 1.00 0.0 0 0 717.31 571.37
  C 718.32 569.99 723.09 561.78 724.26 561.25
  A 1.00 1.00 0.0 0 0 724.83 560.51
  Q 724.98 559.66 725.69 558.50
  C 733.99 545.00 741.32 527.74 743.87 511.53
  Q 744.06 510.31 744.46 509.11
  A 1.00 0.99 -71.9 0 0 743.83 507.86
  Q 741.02 506.90 738.04 507.00"
/>
<path stroke="#4e7a86" vector-effect="non-scaling-stroke" d="
  M 738.04 507.00
  Q 742.53 480.56 739.94 453.90
  Q 739.76 451.99 738.30 453.23
  L 735.04 456.00"
/>
<path stroke="#94b1bd" vector-effect="non-scaling-stroke" d="
  M 735.04 456.00
  Q 733.12 453.74 730.50 452.46"
/>
<path stroke="#608996" vector-effect="non-scaling-stroke" d="
  M 695.00 584.96
  C 693.08 587.00 690.68 588.24 688.77 590.14
  Q 685.91 592.96 681.99 595.55
  A 1.00 1.00 0.0 0 0 681.80 597.05
  L 684.89 600.52
  A 1.00 1.00 0.0 0 1 684.69 602.03
  L 665.08 614.82
  A 1.00 0.99 -35.4 0 1 663.75 614.60
  L 657.59 606.81
  A 1.01 1.00 54.4 0 0 656.26 606.58
  L 638.78 617.79
  A 1.00 1.00 0.0 0 1 637.41 617.51
  L 621.25 593.79"
/>
<path stroke="#42707b" vector-effect="non-scaling-stroke" d="
  M 667.96 549.75
  L 661.54 559.00"
/>
<path stroke="#0a4047" vector-effect="non-scaling-stroke" d="
  M 661.54 559.00
  Q 661.28 557.64 660.00 557.39
  A 1.02 1.00 75.4 0 1 659.42 557.04
  L 657.47 554.63
  A 1.00 1.00 0.0 0 1 657.54 553.29
  L 670.62 540.35
  A 1.00 1.00 0.0 0 0 670.77 539.11
  Q 666.56 532.33 662.96 526.45
  C 662.70 526.03 662.61 526.05 662.27 525.76
  A 0.64 0.64 0.0 0 1 662.19 524.86
  Q 662.99 523.93 662.75 522.71"
/>
<path stroke="#c3d6dd" vector-effect="non-scaling-stroke" d="
  M 725.04 465.25
  Q 724.25 463.54 722.72 462.50
  A 1.06 1.01 8.2 0 1 722.36 462.04
  Q 722.00 461.16 720.75 461.46"
/>
<path stroke="#4e7a86" vector-effect="non-scaling-stroke" d="
  M 738.04 507.00
  Q 735.78 517.37 731.96 527.25"
/>
<path stroke="#3e6d79" vector-effect="non-scaling-stroke" d="
  M 731.96 527.25
  Q 730.59 527.55 730.44 526.47
  A 0.99 0.99 0.0 0 0 729.65 525.62
  L 727.30 525.13
  Q 727.08 525.09 726.90 524.95
  Q 724.07 522.86 720.47 522.95
  A 1.01 1.00 73.6 0 1 719.60 522.47
  Q 718.83 521.22 717.35 521.24
  A 0.99 0.98 64.4 0 1 716.68 521.00
  Q 714.60 519.21 711.83 519.88
  A 1.02 0.99 53.4 0 1 711.09 519.76
  Q 710.06 519.15 708.79 519.00"
/>
<path stroke="#4e7a86" vector-effect="non-scaling-stroke" d="
  M 708.79 519.00
  L 712.67 504.57"
/>
<path stroke="#7d9fa7" vector-effect="non-scaling-stroke" d="
  M 712.67 504.57
  Q 715.87 489.98 715.09 475.24
  A 1.00 0.99 66.1 0 1 715.39 474.46
  L 725.04 465.25"
/>
<path stroke="#7296a0" vector-effect="non-scaling-stroke" d="
  M 725.04 465.25
  L 735.04 456.00"
/>
<path stroke="#608996" vector-effect="non-scaling-stroke" d="
  M 708.79 519.00
  C 701.83 536.99 695.11 548.86 684.00 570.04"
/>
<path stroke="#7095a3" vector-effect="non-scaling-stroke" d="
  M 684.00 570.04
  L 683.68 570.03
  A 1.01 1.01 0.0 0 1 682.80 569.38
  Q 682.20 567.78 680.74 567.19
  A 1.00 0.98 -53.4 0 0 679.71 567.35
  L 667.10 578.23
  A 1.00 0.99 49.8 0 1 665.68 578.11
  L 662.51 574.27
  A 0.99 0.99 0.0 0 1 662.62 572.88
  L 675.55 561.65
  A 1.01 1.01 0.0 0 0 675.70 560.30
  L 667.96 549.75"
/>
<path stroke="#42707b" vector-effect="non-scaling-stroke" d="
  M 667.96 549.75
  Q 681.21 526.87 686.50 500.96"
/>
<path stroke="#608996" vector-effect="non-scaling-stroke" d="
  M 711.00 565.46
  Q 724.22 547.85 731.96 527.25"
/>
<path stroke="#608996" vector-effect="non-scaling-stroke" d="
  M 693.21 582.75
  C 689.92 584.63 685.42 586.58 683.45 582.68
  Q 680.36 576.57 684.00 570.04"
/>
<path stroke="#668c95" vector-effect="non-scaling-stroke" d="
  M 134.33 808.93
  Q 134.80 807.33 134.44 806.31
  A 0.99 0.99 0.0 0 0 133.78 805.69
  Q 122.72 802.32 111.50 805.46"
/>
<path stroke="#668c95" vector-effect="non-scaling-stroke" d="
  M 110.41 812.85
  C 98.75 820.91 100.69 844.12 115.29 847.71
  C 117.22 848.18 130.67 849.79 129.96 846.00"
/>
<path stroke="#668c95" vector-effect="non-scaling-stroke" d="
  M 123.04 827.50
  L 135.11 827.91
  A 0.99 0.99 0.0 0 1 136.07 828.89
  L 136.29 850.00"
/>
<path stroke="#71959c" vector-effect="non-scaling-stroke" d="
  M 533.25 805.16
  C 520.50 802.08 508.82 803.27 500.25 813.71"
/>
<path stroke="#71959c" vector-effect="non-scaling-stroke" d="
  M 503.46 825.00
  C 500.55 838.59 509.44 850.15 523.76 848.62
  Q 527.33 848.23 530.92 847.18
  A 1.01 0.99 70.2 0 1 532.13 847.76
  L 533.04 850.00"
/>
<path stroke="#678a8f" vector-effect="non-scaling-stroke" d="
  M 761.71 809.75
  Q 752.91 801.80 741.73 803.98
  C 727.43 806.77 722.47 820.11 723.25 833.46"
/>
<path stroke="#71959c" vector-effect="non-scaling-stroke" d="
  M 899.46 806.75
  C 883.49 798.33 866.97 807.47 865.11 825.35
  Q 864.20 834.04 867.00 841.96"
/>
<path stroke="#668c95" vector-effect="non-scaling-stroke" d="
  M 981.12 804.78
  Q 969.58 802.58 961.00 805.48
  C 945.02 810.87 941.43 829.06 948.03 843.45"
/>
<path stroke="#668c95" vector-effect="non-scaling-stroke" d="
  M 958.33 844.82
  Q 967.60 850.71 978.04 847.57
  A 0.99 0.99 0.0 0 0 978.75 846.62
  L 978.75 833.83
  A 1.00 1.00 0.0 0 0 977.98 832.86
  Q 976.84 832.59 975.94 832.76"
/>
<path stroke="#668c95" vector-effect="non-scaling-stroke" d="
  M 968.71 831.00
  L 969.08 828.75
  A 1.01 0.99 -85.5 0 1 970.05 827.91
  L 982.75 827.71"
/>
<path stroke="#668c95" vector-effect="non-scaling-stroke" d="
  M 62.25 851.04
  L 46.39 805.14
  A 1.02 1.01 -6.4 0 0 45.54 804.47
  L 41.14 804.02"
/>
<path stroke="#668c95" vector-effect="non-scaling-stroke" d="
  M 36.25 838.04
  Q 34.92 837.70 33.84 838.29
  A 0.99 0.99 0.0 0 0 33.37 838.86
  L 29.40 851.13"
/>
<path stroke="#668c95" vector-effect="non-scaling-stroke" d="
  M 201.08 846.18
  Q 198.32 848.52 195.17 848.91
  C 186.10 850.02 182.25 841.91 182.21 834.25
  Q 182.15 820.11 181.95 805.23
  A 1.01 1.01 0.0 0 0 180.96 804.24
  L 178.25 804.21"
/>
<path stroke="#668c95" vector-effect="non-scaling-stroke" d="
  M 208.25 847.71
  Q 211.94 840.50 211.96 836.18
  Q 212.04 820.83 211.98 805.40
  A 0.99 0.99 0.0 0 0 211.04 804.41
  L 207.75 804.21"
/>
<path stroke="#668c95" vector-effect="non-scaling-stroke" d="
  M 287.04 851.00
  L 271.24 804.95
  A 1.01 1.01 0.0 0 0 270.30 804.27
  L 264.75 804.21"
/>
<path stroke="#5c8188" vector-effect="non-scaling-stroke" d="
  M 259.39 837.99
  Q 255.56 844.06 254.26 851.06"
/>
<path stroke="#71959c" vector-effect="non-scaling-stroke" d="
  M 398.04 808.00
  Q 398.29 806.37 397.78 804.92
  A 0.99 0.99 0.0 0 0 396.84 804.25
  L 362.69 804.20"
/>
<path stroke="#678a8f" vector-effect="non-scaling-stroke" d="
  M 383.67 810.00
  Q 382.42 830.56 383.10 851.09"
/>
<path stroke="#71959c" vector-effect="non-scaling-stroke" d="
  M 460.04 808.00
  L 459.76 805.14
  A 1.00 0.99 87.1 0 0 458.77 804.24
  L 433.75 804.21"
/>
<path stroke="#71959c" vector-effect="non-scaling-stroke" d="
  M 441.27 809.77
  Q 440.96 809.67 440.48 809.81
  A 1.00 0.99 82.4 0 0 439.75 810.77
  L 439.75 824.08
  A 1.00 0.99 89.2 0 0 440.77 825.08
  Q 449.69 824.89 458.42 825.08
  Q 458.70 825.08 459.04 825.50"
/>
<path stroke="#678a8f" vector-effect="non-scaling-stroke" d="
  M 459.04 825.50
  L 459.04 828.25"
/>
<path stroke="#71959c" vector-effect="non-scaling-stroke" d="
  M 440.52 830.43
  Q 439.15 838.70 439.79 847.03
  A 1.01 1.00 88.4 0 0 440.77 847.96
  L 461.25 848.29"
/>
<path stroke="#677c7c" vector-effect="non-scaling-stroke" d="
  M 461.25 848.29
  L 461.29 850.75"
/>
<path stroke="#0a3133" vector-effect="non-scaling-stroke" d="
  M 461.71 848.00
  L 461.25 848.29"
/>
<path stroke="#0a4047" vector-effect="non-scaling-stroke" d="
  M 459.46 825.25
  L 459.04 825.50"
/>
<path stroke="#71959c" vector-effect="non-scaling-stroke" d="
  M 577.78 804.08
  L 570.96 804.40"
/>
<path stroke="#71959c" vector-effect="non-scaling-stroke" d="
  M 577.79 823.00
  Q 577.14 823.94 577.66 824.67
  A 0.80 0.79 -18.6 0 0 578.35 825.01
  Q 589.12 824.51 599.88 824.85
  C 601.09 824.89 601.45 824.27 600.71 823.25"
/>
<path stroke="#71959c" vector-effect="non-scaling-stroke" d="
  M 607.55 804.16
  L 600.79 804.35"
/>
<path stroke="#678a8f" vector-effect="non-scaling-stroke" d="
  M 673.06 831.69
  L 655.64 804.70
  A 1.03 1.02 77.0 0 0 654.91 804.24
  Q 651.65 803.88 648.22 804.69"
/>
<path stroke="#677c7c" vector-effect="non-scaling-stroke" d="
  M 678.29 841.25
  Q 680.63 848.13 679.29 840.25"
/>
<path stroke="#71959c" vector-effect="non-scaling-stroke" d="
  M 685.18 804.25
  L 679.93 804.28
  A 1.00 1.00 0.0 0 0 678.94 805.27
  L 678.79 820.00"
/>
<path stroke="#7d9fa7" vector-effect="non-scaling-stroke" d="
  M 812.35 804.09
  L 807.21 804.22
  A 1.00 0.99 89.4 0 0 806.24 805.22
  L 806.21 851.75"
/>
<path stroke="#71959c" vector-effect="non-scaling-stroke" d="
  M 812.75 846.04
  Q 812.17 846.94 812.62 847.54
  A 0.98 0.97 71.4 0 0 813.43 847.95
  L 832.36 847.79"
/>
<path stroke="#42707b" vector-effect="non-scaling-stroke" d="
  M 1025.41 803.95
  Q 1023.64 804.68 1021.78 804.18
  Q 1019.51 803.56 1020.64 805.62
  Q 1027.36 817.85 1034.07 830.15
  C 1036.67 834.93 1035.61 845.58 1035.21 851.00"
/>
<path stroke="#42707b" vector-effect="non-scaling-stroke" d="
  M 1055.00 804.21
  Q 1053.97 804.62 1052.32 803.90
  A 1.01 1.00 25.3 0 0 1051.03 804.36
  L 1039.91 825.99
  Q 1038.91 827.94 1038.10 825.91
  L 1037.25 823.79"
/>
<path stroke="#71959c" vector-effect="non-scaling-stroke" d="
  M 733.35 841.36
  C 740.91 854.63 756.71 849.45 760.23 836.24
  Q 762.39 828.10 759.85 820.98"
/>
<path stroke="#71959c" vector-effect="non-scaling-stroke" d="
  M 877.63 844.89
  C 887.42 853.60 898.41 847.57 901.57 836.57
  Q 905.14 824.19 897.91 814.15"
/>
<path stroke="#668c95" vector-effect="non-scaling-stroke" d="
  M 43.63 816.38
  L 42.95 813.39
  Q 42.31 810.54 41.41 813.31
  L 35.45 831.69
  A 1.00 1.00 0.0 0 0 36.40 833.00
  L 48.11 833.00
  A 1.01 1.00 -6.6 0 0 49.09 831.77
  Q 48.99 831.38 48.71 831.00"
/>
<path stroke="#668c95" vector-effect="non-scaling-stroke" d="
  M 267.63 813.66
  Q 267.69 813.20 267.62 812.76
  Q 267.22 810.07 266.38 812.66
  L 260.21 831.69
  A 1.00 1.00 0.0 0 0 261.16 833.00
  L 272.87 833.00
  A 1.01 1.00 15.0 0 0 273.74 832.50
  Q 274.15 831.79 273.50 830.84"
/>
</g>
<path fill="#001813" d="
  M 499.71 565.50
  L 499.56 661.34
  Q 499.56 664.07 496.85 663.87
  Q 484.08 662.93 471.54 661.01
  Q 463.81 659.83 456.04 659.11
  Q 455.81 659.08 455.61 658.96
  L 454.33 658.18
  A 0.96 0.92 59.4 0 0 453.79 658.03
  Q 451.57 658.09 449.54 657.09
  A 1.05 1.00 54.5 0 0 449.02 656.99
  C 446.56 657.20 444.39 656.19 442.54 655.79
  Q 429.63 652.95 417.00 649.04
  L 417.93 649.19
  A 1.01 1.01 0.0 0 0 418.96 648.68
  L 435.96 617.75
  Q 435.85 618.82 435.21 619.66
  A 1.00 0.97 62.7 0 0 435.00 620.35
  Q 435.05 620.94 435.33 620.50
  Q 435.77 619.79 436.06 620.58
  Q 436.70 622.36 438.77 622.72
  A 1.00 0.96 78.0 0 1 439.45 623.18
  Q 440.28 624.53 441.74 624.39
  A 0.81 0.80 -16.6 0 1 442.51 624.80
  Q 442.74 625.22 442.95 624.84
  A 0.42 0.42 0.0 0 1 443.56 624.72
  C 446.00 626.59 448.91 626.06 451.55 628.30
  A 1.03 1.02 70.2 0 0 452.03 628.53
  Q 454.12 628.88 455.96 629.75
  Q 456.70 630.09 457.30 629.92
  A 0.80 0.79 77.3 0 1 458.30 630.56
  Q 458.61 632.32 460.00 630.71
  C 461.51 635.05 464.95 640.59 470.06 640.17
  C 476.94 640.66 480.60 632.04 482.38 626.66
  Q 487.70 610.56 492.70 594.35
  Q 493.73 591.00 493.75 587.48
  Q 493.83 570.86 493.74 554.26
  L 493.71 524.25
  C 494.66 500.75 493.64 479.88 493.96 444.50
  C 493.42 421.08 494.07 401.52 493.89 366.00
  C 493.96 313.41 493.53 283.32 493.82 242.00
  Q 494.31 236.96 493.50 231.90
  L 498.27 227.15
  Q 499.64 225.79 499.63 227.72
  Q 499.38 346.57 499.54 465.41
  C 499.58 491.53 499.24 520.36 499.71 565.50
  Z"
/>
<path fill="#b7cdd6" d="
  M 493.50 231.90
  Q 494.31 236.96 493.82 242.00
  L 493.13 242.31
  Q 492.92 242.40 492.78 242.57
  L 478.97 258.59
  A 1.00 1.00 0.0 0 0 478.73 259.24
  L 478.55 320.32
  A 1.03 1.01 62.8 0 1 478.37 320.90
  C 476.72 323.24 461.59 344.88 460.75 344.71
  Q 460.84 344.20 460.84 343.69
  Q 460.84 311.95 460.75 280.21
  Q 461.06 274.86 458.50 270.21
  Q 475.12 250.32 493.50 231.90
  Z"
/>
<path fill="#507c89" d="
  M 493.82 242.00
  C 493.53 283.32 493.96 313.41 493.89 366.00
  Q 492.02 367.23 491.08 366.16
  Q 486.56 361.03 481.84 355.90
  Q 480.09 354.00 480.10 356.58
  L 480.29 389.01
  Q 480.30 390.87 478.74 389.85
  Q 468.90 383.40 460.09 375.64
  L 460.94 345.96
  A 0.47 0.40 -66.8 0 0 460.86 345.70
  L 460.71 345.50
  L 460.75 344.71
  C 461.59 344.88 476.72 323.24 478.37 320.90
  A 1.03 1.01 62.8 0 0 478.55 320.32
  L 478.73 259.24
  A 1.00 1.00 0.0 0 1 478.97 258.59
  L 492.78 242.57
  Q 492.92 242.40 493.13 242.31
  L 493.82 242.00
  Z"
/>
<path fill="#cedfe4" d="
  M 458.50 270.21
  Q 461.06 274.86 460.75 280.21
  Q 428.91 315.48 401.50 354.29
  Q 399.41 353.49 399.16 355.40
  Q 399.08 356.03 395.92 358.93
  Q 395.05 359.73 394.29 359.27
  A 0.64 0.64 0.0 0 1 394.29 358.17
  Q 395.31 357.57 394.44 356.74
  A 1.02 1.02 0.0 0 1 394.18 355.70
  Q 394.47 354.85 393.25 355.21
  Q 423.49 310.88 458.50 270.21
  Z"
/>
<path fill="#2c5e69" d="
  M 460.75 280.21
  Q 460.84 311.95 460.84 343.69
  Q 460.84 344.20 460.75 344.71
  L 460.71 345.50
  C 455.02 353.38 448.73 361.43 443.93 369.87
  C 427.14 399.43 412.22 430.32 396.53 460.57
  L 373.42 397.91
  Q 386.45 375.67 401.50 354.29
  Q 428.91 315.48 460.75 280.21
  Z"
/>
<path fill="#00353a" d="
  M 460.71 345.50
  L 460.86 345.70
  A 0.47 0.40 -66.8 0 1 460.94 345.96
  L 460.09 375.64
  L 460.04 388.00
  L 459.15 465.75
  L 458.79 537.75
  L 458.25 538.29
  C 457.05 536.80 455.62 536.97 454.08 536.55
  Q 431.42 530.23 408.74 523.97
  A 1.00 0.98 28.6 0 0 407.73 524.26
  Q 381.38 553.21 354.93 582.43
  Q 352.34 585.30 341.00 595.54
  Q 337.61 590.76 335.62 585.67
  L 347.26 570.67
  A 1.00 1.00 0.0 0 0 347.21 569.39
  L 324.52 544.03
  Q 323.74 537.53 324.21 530.50
  L 324.27 527.70
  Q 342.93 528.89 361.55 526.97
  Q 363.17 526.80 364.22 527.13
  A 1.01 1.00 17.8 0 0 365.47 526.49
  C 367.95 518.90 370.49 511.95 374.28 504.57
  Q 385.57 482.58 396.53 460.57
  C 412.22 430.32 427.14 399.43 443.93 369.87
  C 448.73 361.43 455.02 353.38 460.71 345.50
  Z"
/>
<path fill="#b7cdd6" d="
  M 401.50 354.29
  Q 386.45 375.67 373.42 397.91
  Q 356.59 425.58 344.10 455.08
  L 339.24 453.83
  A 1.04 1.02 40.0 0 0 338.60 453.88
  Q 337.61 454.30 336.54 453.75
  C 351.36 418.84 371.91 386.02 393.25 355.21
  Q 394.47 354.85 394.18 355.70
  A 1.02 1.02 0.0 0 0 394.44 356.74
  Q 395.31 357.57 394.29 358.17
  A 0.64 0.64 0.0 0 0 394.29 359.27
  Q 395.05 359.73 395.92 358.93
  Q 399.08 356.03 399.16 355.40
  Q 399.41 353.49 401.50 354.29
  Z"
/>
<path fill="#2c5e69" d="
  M 493.89 366.00
  C 494.07 401.52 493.42 421.08 493.96 444.50
  L 493.72 439.27
  Q 493.71 439.09 493.61 439.24
  L 493.47 439.45
  A 0.52 0.51 -65.4 0 1 492.89 439.67
  Q 487.22 437.92 481.23 439.32
  L 480.03 391.85
  A 0.99 0.99 0.0 0 0 479.18 390.89
  L 460.04 388.00
  L 460.09 375.64
  Q 468.90 383.40 478.74 389.85
  Q 480.30 390.87 480.29 389.01
  L 480.10 356.58
  Q 480.09 354.00 481.84 355.90
  Q 486.56 361.03 491.08 366.16
  Q 492.02 367.23 493.89 366.00
  Z"
/>
<path fill="#7095a3" d="
  M 460.04 388.00
  L 479.18 390.89
  A 0.99 0.99 0.0 0 1 480.03 391.85
  L 481.23 439.32
  L 481.03 442.56
  A 1.10 1.05 -22.8 0 1 480.76 443.18
  Q 469.28 455.46 460.95 465.20
  Q 460.31 465.95 459.15 465.75
  L 460.04 388.00
  Z"
/>
<path fill="#144a53" d="
  M 373.42 397.91
  L 396.53 460.57
  Q 385.57 482.58 374.28 504.57
  C 370.49 511.95 367.95 518.90 365.47 526.49
  A 1.01 1.00 17.8 0 1 364.22 527.13
  Q 363.17 526.80 361.55 526.97
  Q 342.93 528.89 324.27 527.70
  C 326.38 502.97 334.21 478.18 344.10 455.08
  Q 356.59 425.58 373.42 397.91
  Z"
/>
<path fill="#7095a3" d="
  M 749.20 446.27
  Q 751.35 463.67 750.75 481.15
  Q 750.65 484.09 750.21 488.45
  C 749.94 491.17 750.32 494.27 749.28 496.84
  Q 749.04 497.42 749.04 497.89
  Q 749.02 502.57 747.90 507.35
  A 1.00 0.99 -68.3 0 0 748.37 508.44
  Q 750.44 509.64 752.71 508.50
  Q 751.41 521.87 747.72 534.73
  Q 744.61 536.78 741.23 535.46
  A 1.01 1.01 0.0 0 0 739.93 536.04
  Q 731.78 557.69 718.07 576.23
  Q 695.79 604.90 664.29 623.04
  Q 683.29 609.16 699.70 592.33
  A 1.01 1.01 0.0 0 0 699.77 591.01
  L 695.00 584.96
  L 693.21 582.75
  Q 703.26 575.31 711.00 565.46
  L 715.72 571.40
  A 1.00 1.00 0.0 0 0 717.31 571.37
  C 718.32 569.99 723.09 561.78 724.26 561.25
  A 1.00 1.00 0.0 0 0 724.83 560.51
  Q 724.98 559.66 725.69 558.50
  C 733.99 545.00 741.32 527.74 743.87 511.53
  Q 744.06 510.31 744.46 509.11
  A 1.00 0.99 -71.9 0 0 743.83 507.86
  Q 741.02 506.90 738.04 507.00
  Q 742.53 480.56 739.94 453.90
  Q 739.76 451.99 738.30 453.23
  L 735.04 456.00
  Q 733.12 453.74 730.50 452.46
  L 745.93 438.24
  A 1.00 1.00 0.0 0 1 747.55 438.63
  Q 748.92 442.34 749.20 446.27
  Z"
/>
<path fill="#507c89" d="
  M 493.96 444.50
  C 493.64 479.88 494.66 500.75 493.71 524.25
  Q 493.40 524.09 493.20 524.32
  A 0.42 0.41 43.7 0 1 492.58 524.33
  Q 492.35 524.07 492.07 524.19
  Q 491.44 524.47 491.20 524.49
  L 482.63 524.98
  Q 482.80 524.54 482.81 524.09
  Q 482.85 521.38 482.16 524.00
  Q 479.78 533.07 477.80 542.21
  C 477.72 542.58 477.51 543.12 477.10 543.07
  L 458.79 537.75
  L 459.15 465.75
  Q 460.31 465.95 460.95 465.20
  Q 469.28 455.46 480.76 443.18
  A 1.10 1.05 -22.8 0 0 481.03 442.56
  L 481.23 439.32
  Q 487.22 437.92 492.89 439.67
  A 0.52 0.51 -65.4 0 0 493.47 439.45
  L 493.61 439.24
  Q 493.71 439.09 493.72 439.27
  L 493.96 444.50
  Z"
/>
<path fill="#507c89" d="
  M 749.20 446.27
  Q 756.57 477.08 752.71 508.50
  Q 750.44 509.64 748.37 508.44
  A 1.00 0.99 -68.3 0 1 747.90 507.35
  Q 749.02 502.57 749.04 497.89
  Q 749.04 497.42 749.28 496.84
  C 750.32 494.27 749.94 491.17 750.21 488.45
  Q 750.65 484.09 750.75 481.15
  Q 751.35 463.67 749.20 446.27
  Z"
/>
<path fill="#2c5e69" d="
  M 738.04 507.00
  Q 735.78 517.37 731.96 527.25
  Q 730.59 527.55 730.44 526.47
  A 0.99 0.99 0.0 0 0 729.65 525.62
  L 727.30 525.13
  Q 727.08 525.09 726.90 524.95
  Q 724.07 522.86 720.47 522.95
  A 1.01 1.00 73.6 0 1 719.60 522.47
  Q 718.83 521.22 717.35 521.24
  A 0.99 0.98 64.4 0 1 716.68 521.00
  Q 714.60 519.21 711.83 519.88
  A 1.02 0.99 53.4 0 1 711.09 519.76
  Q 710.06 519.15 708.79 519.00
  L 712.67 504.57
  Q 715.87 489.98 715.09 475.24
  A 1.00 0.99 66.1 0 1 715.39 474.46
  L 725.04 465.25
  L 735.04 456.00
  L 738.30 453.23
  Q 739.76 451.99 739.94 453.90
  Q 742.53 480.56 738.04 507.00
  Z"
/>
<path fill="#b7cdd6" d="
  M 730.50 452.46
  Q 733.12 453.74 735.04 456.00
  L 725.04 465.25
  Q 724.25 463.54 722.72 462.50
  A 1.06 1.01 8.2 0 1 722.36 462.04
  Q 722.00 461.16 720.75 461.46
  L 730.50 452.46
  Z"
/>
<path fill="#cedfe4" d="
  M 336.54 453.75
  Q 337.61 454.30 338.60 453.88
  A 1.04 1.02 40.0 0 1 339.24 453.83
  L 344.10 455.08
  C 334.21 478.18 326.38 502.97 324.27 527.70
  L 324.21 530.50
  Q 321.84 528.98 319.09 528.35
  A 1.00 1.00 0.0 0 1 318.32 527.38
  Q 318.31 524.04 317.79 527.25
  C 318.90 502.46 326.77 476.44 336.54 453.75
  Z"
/>
<path fill="#cedfe4" d="
  M 725.04 465.25
  L 715.39 474.46
  A 1.00 0.99 66.1 0 0 715.09 475.24
  Q 715.87 489.98 712.67 504.57
  L 700.43 489.59
  A 1.01 1.01 0.0 0 0 698.97 489.49
  L 686.50 500.96
  L 662.75 522.71
  L 569.50 608.54
  L 567.74 608.19
  A 1.00 1.00 0.0 0 1 566.99 606.89
  L 567.94 604.07
  A 0.64 0.56 -14.3 0 1 568.10 603.84
  Q 568.67 603.37 566.75 603.46
  L 720.75 461.46
  Q 722.00 461.16 722.36 462.04
  A 1.06 1.01 8.2 0 0 722.72 462.50
  Q 724.25 463.54 725.04 465.25
  Z"
/>
<path fill="#7095a3" d="
  M 712.67 504.57
  L 708.79 519.00
  C 701.83 536.99 695.11 548.86 684.00 570.04
  L 683.68 570.03
  A 1.01 1.01 0.0 0 1 682.80 569.38
  Q 682.20 567.78 680.74 567.19
  A 1.00 0.98 -53.4 0 0 679.71 567.35
  L 667.10 578.23
  A 1.00 0.99 49.8 0 1 665.68 578.11
  L 662.51 574.27
  A 0.99 0.99 0.0 0 1 662.62 572.88
  L 675.55 561.65
  A 1.01 1.01 0.0 0 0 675.70 560.30
  L 667.96 549.75
  Q 681.21 526.87 686.50 500.96
  L 698.97 489.49
  A 1.01 1.01 0.0 0 1 700.43 489.59
  L 712.67 504.57
  Z"
/>
<path fill="#144a53" d="
  M 686.50 500.96
  Q 681.21 526.87 667.96 549.75
  L 661.54 559.00
  Q 661.28 557.64 660.00 557.39
  A 1.02 1.00 75.4 0 1 659.42 557.04
  L 657.47 554.63
  A 1.00 1.00 0.0 0 1 657.54 553.29
  L 670.62 540.35
  A 1.00 1.00 0.0 0 0 670.77 539.11
  Q 666.56 532.33 662.96 526.45
  C 662.70 526.03 662.61 526.05 662.27 525.76
  A 0.64 0.64 0.0 0 1 662.19 524.86
  Q 662.99 523.93 662.75 522.71
  L 686.50 500.96
  Z"
/>
<path fill="#7095a3" d="
  M 738.04 507.00
  Q 741.02 506.90 743.83 507.86
  A 1.00 0.99 -71.9 0 1 744.46 509.11
  Q 744.06 510.31 743.87 511.53
  C 741.32 527.74 733.99 545.00 725.69 558.50
  Q 724.98 559.66 724.83 560.51
  A 1.00 1.00 0.0 0 1 724.26 561.25
  C 723.09 561.78 718.32 569.99 717.31 571.37
  A 1.00 1.00 0.0 0 1 715.72 571.40
  L 711.00 565.46
  Q 724.22 547.85 731.96 527.25
  Q 735.78 517.37 738.04 507.00
  Z"
/>
<path fill="#507c89" d="
  M 731.96 527.25
  Q 724.22 547.85 711.00 565.46
  Q 703.26 575.31 693.21 582.75
  C 689.92 584.63 685.42 586.58 683.45 582.68
  Q 680.36 576.57 684.00 570.04
  C 695.11 548.86 701.83 536.99 708.79 519.00
  Q 710.06 519.15 711.09 519.76
  A 1.02 0.99 53.4 0 0 711.83 519.88
  Q 714.60 519.21 716.68 521.00
  A 0.99 0.98 64.4 0 0 717.35 521.24
  Q 718.83 521.22 719.60 522.47
  A 1.01 1.00 73.6 0 0 720.47 522.95
  Q 724.07 522.86 726.90 524.95
  Q 727.08 525.09 727.30 525.13
  L 729.65 525.62
  A 0.99 0.99 0.0 0 1 730.44 526.47
  Q 730.59 527.55 731.96 527.25
  Z"
/>
<path fill="#00353a" d="
  M 482.63 524.98
  L 482.71 553.50
  Q 482.27 564.41 481.61 575.30
  Q 479.62 608.41 470.06 640.17
  C 464.95 640.59 461.51 635.05 460.00 630.71
  Q 458.40 624.97 458.25 620.25
  Q 457.66 601.49 458.21 577.25
  L 458.29 575.75
  Q 468.21 559.82 477.10 543.07
  C 477.51 543.12 477.72 542.58 477.80 542.21
  Q 479.78 533.07 482.16 524.00
  Q 482.85 521.38 482.81 524.09
  Q 482.80 524.54 482.63 524.98
  Z"
/>
<path fill="#00353a" d="
  M 662.75 522.71
  Q 662.99 523.93 662.19 524.86
  A 0.64 0.64 0.0 0 0 662.27 525.76
  C 662.61 526.05 662.70 526.03 662.96 526.45
  Q 666.56 532.33 670.77 539.11
  A 1.00 1.00 0.0 0 1 670.62 540.35
  L 657.54 553.29
  A 1.00 1.00 0.0 0 0 657.47 554.63
  L 659.42 557.04
  A 1.02 1.00 75.4 0 0 660.00 557.39
  Q 661.28 557.64 661.54 559.00
  Q 645.19 580.75 621.25 593.79
  Q 594.78 608.26 566.14 617.74
  L 556.50 620.71
  L 569.50 608.54
  L 662.75 522.71
  Z"
/>
<path fill="#001813" d="
  M 458.25 538.29
  L 458.29 575.75
  L 458.21 577.25
  L 457.94 577.25
  A 0.35 0.33 -74.1 0 0 457.65 577.42
  L 435.96 617.75
  L 418.96 648.68
  A 1.01 1.01 0.0 0 1 417.93 649.19
  L 417.00 649.04
  Q 394.66 642.15 373.55 632.42
  Q 358.11 619.49 346.00 603.46
  L 341.00 595.54
  Q 352.34 585.30 354.93 582.43
  Q 381.38 553.21 407.73 524.26
  A 1.00 0.98 28.6 0 1 408.74 523.97
  Q 431.42 530.23 454.08 536.55
  C 455.62 536.97 457.05 536.80 458.25 538.29
  Z"
/>
<path fill="#2c5e69" d="
  M 493.71 524.25
  L 493.74 554.26
  L 484.92 555.47
  A 1.00 1.00 0.0 0 0 484.18 555.98
  L 483.94 556.43
  Q 482.77 558.59 482.74 556.13
  L 482.71 553.50
  L 482.63 524.98
  L 491.20 524.49
  Q 491.44 524.47 492.07 524.19
  Q 492.35 524.07 492.58 524.33
  A 0.42 0.41 43.7 0 0 493.20 524.32
  Q 493.40 524.09 493.71 524.25
  Z"
/>
<path fill="#b7cdd6" d="
  M 324.21 530.50
  Q 323.74 537.53 324.52 544.03
  L 325.21 553.50
  Q 323.70 554.30 322.35 553.03
  A 1.04 1.01 -22.2 0 0 321.68 552.76
  Q 319.95 552.72 318.27 551.90
  Q 316.69 539.73 317.79 527.25
  Q 318.31 524.04 318.32 527.38
  A 1.00 1.00 0.0 0 0 319.09 528.35
  Q 321.84 528.98 324.21 530.50
  Z"
/>
<path fill="#507c89" d="
  M 747.72 534.73
  Q 740.98 559.74 726.29 581.00
  Q 726.73 579.18 725.56 579.85
  A 0.97 0.95 36.8 0 1 724.81 579.95
  Q 720.93 578.94 718.07 576.23
  Q 731.78 557.69 739.93 536.04
  A 1.01 1.01 0.0 0 1 741.23 535.46
  Q 744.61 536.78 747.72 534.73
  Z"
/>
<path fill="#144a53" d="
  M 458.79 537.75
  L 477.10 543.07
  Q 468.21 559.82 458.29 575.75
  L 458.25 538.29
  L 458.79 537.75
  Z"
/>
<path fill="#144a53" d="
  M 324.52 544.03
  L 347.21 569.39
  A 1.00 1.00 0.0 0 1 347.26 570.67
  L 335.62 585.67
  L 333.46 581.75
  L 328.75 568.96
  L 325.21 553.50
  L 324.52 544.03
  Z"
/>
<path fill="#7095a3" d="
  M 667.96 549.75
  L 675.70 560.30
  A 1.01 1.01 0.0 0 1 675.55 561.65
  L 662.62 572.88
  A 0.99 0.99 0.0 0 0 662.51 574.27
  L 665.68 578.11
  A 1.00 0.99 49.8 0 0 667.10 578.23
  L 679.71 567.35
  A 1.00 0.98 -53.4 0 1 680.74 567.19
  Q 682.20 567.78 682.80 569.38
  A 1.01 1.01 0.0 0 0 683.68 570.03
  L 684.00 570.04
  Q 680.36 576.57 683.45 582.68
  C 685.42 586.58 689.92 584.63 693.21 582.75
  L 695.00 584.96
  C 693.08 587.00 690.68 588.24 688.77 590.14
  Q 685.91 592.96 681.99 595.55
  A 1.00 1.00 0.0 0 0 681.80 597.05
  L 684.89 600.52
  A 1.00 1.00 0.0 0 1 684.69 602.03
  L 665.08 614.82
  A 1.00 0.99 -35.4 0 1 663.75 614.60
  L 657.59 606.81
  A 1.01 1.00 54.4 0 0 656.26 606.58
  L 638.78 617.79
  A 1.00 1.00 0.0 0 1 637.41 617.51
  L 621.25 593.79
  Q 645.19 580.75 661.54 559.00
  L 667.96 549.75
  Z"
/>
<path fill="#7095a3" d="
  M 325.21 553.50
  L 328.75 568.96
  Q 325.00 569.81 321.30 568.76
  Q 319.05 560.57 318.27 551.90
  Q 319.95 552.72 321.68 552.76
  A 1.04 1.01 -22.2 0 1 322.35 553.03
  Q 323.70 554.30 325.21 553.50
  Z"
/>
<path fill="#144a53" d="
  M 482.71 553.50
  L 482.74 556.13
  Q 482.77 558.59 483.94 556.43
  L 484.18 555.98
  A 1.00 1.00 0.0 0 1 484.92 555.47
  L 493.74 554.26
  Q 493.83 570.86 493.75 587.48
  Q 493.73 591.00 492.70 594.35
  Q 487.70 610.56 482.38 626.66
  C 480.60 632.04 476.94 640.66 470.06 640.17
  Q 479.62 608.41 481.61 575.30
  Q 482.27 564.41 482.71 553.50
  Z"
/>
<path fill="#010201" d="
  M 499.71 565.50
  L 499.81 663.34
  A 0.64 0.64 0.0 0 0 500.21 663.93
  Q 500.88 664.21 501.46 663.50
  Q 507.53 666.07 511.96 661.70
  Q 512.74 661.90 512.51 662.55
  A 0.81 0.81 0.0 0 0 512.75 663.43
  Q 513.87 664.37 515.00 664.32
  Q 526.94 663.73 538.88 663.74
  C 542.27 663.75 545.75 662.95 549.28 662.75
  C 556.57 662.32 563.23 662.05 569.77 660.40
  C 573.09 659.56 577.52 659.44 580.06 658.95
  Q 588.31 657.36 596.57 655.74
  C 598.07 655.45 599.86 655.86 601.46 654.84
  A 1.01 1.00 -57.6 0 1 602.11 654.69
  Q 606.78 655.24 608.99 651.29
  Q 633.47 645.63 657.45 637.83
  Q 644.32 645.07 628.69 650.43
  C 557.55 674.82 475.17 674.19 404.26 649.26
  Q 381.47 641.25 362.96 628.33
  Q 368.45 629.65 373.55 632.42
  Q 394.66 642.15 417.00 649.04
  Q 429.63 652.95 442.54 655.79
  C 444.39 656.19 446.56 657.20 449.02 656.99
  A 1.05 1.00 54.5 0 1 449.54 657.09
  Q 451.57 658.09 453.79 658.03
  A 0.96 0.92 59.4 0 1 454.33 658.18
  L 455.61 658.96
  Q 455.81 659.08 456.04 659.11
  Q 463.81 659.83 471.54 661.01
  Q 484.08 662.93 496.85 663.87
  Q 499.56 664.07 499.56 661.34
  L 499.71 565.50
  Z"
/>
<path fill="#507c89" d="
  M 321.30 568.76
  Q 325.00 569.81 328.75 568.96
  L 333.46 581.75
  Q 329.40 582.94 325.50 581.29
  Q 322.88 575.19 321.30 568.76
  Z"
/>
<path fill="#2c5e69" d="
  M 726.29 581.00
  Q 702.07 614.72 665.25 634.04
  Q 663.20 634.95 663.55 633.39
  A 1.00 0.99 26.2 0 0 663.21 632.41
  Q 660.43 630.08 658.47 626.90
  Q 661.73 625.41 664.29 623.04
  Q 695.79 604.90 718.07 576.23
  Q 720.93 578.94 724.81 579.95
  A 0.97 0.95 36.8 0 0 725.56 579.85
  Q 726.73 579.18 726.29 581.00
  Z"
/>
<path fill="#010201" d="
  M 458.21 577.25
  Q 457.66 601.49 458.25 620.25
  Q 458.40 624.97 460.00 630.71
  Q 458.61 632.32 458.30 630.56
  A 0.80 0.79 77.3 0 0 457.30 629.92
  Q 456.70 630.09 455.96 629.75
  Q 454.12 628.88 452.03 628.53
  A 1.03 1.02 70.2 0 1 451.55 628.30
  C 448.91 626.06 446.00 626.59 443.56 624.72
  A 0.42 0.42 0.0 0 0 442.95 624.84
  Q 442.74 625.22 442.51 624.80
  A 0.81 0.80 -16.6 0 0 441.74 624.39
  Q 440.28 624.53 439.45 623.18
  A 1.00 0.96 78.0 0 0 438.77 622.72
  Q 436.70 622.36 436.06 620.58
  Q 435.77 619.79 435.33 620.50
  Q 435.05 620.94 435.00 620.35
  A 1.00 0.97 62.7 0 1 435.21 619.66
  Q 435.85 618.82 435.96 617.75
  L 457.65 577.42
  A 0.35 0.33 -74.1 0 1 457.94 577.25
  L 458.21 577.25
  Z"
/>
<path fill="#2c5e69" d="
  M 325.50 581.29
  Q 329.40 582.94 333.46 581.75
  L 335.62 585.67
  Q 337.61 590.76 341.00 595.54
  L 346.00 603.46
  L 337.79 603.50
  Q 330.09 593.26 325.50 581.29
  Z"
/>
<path fill="#507c89" d="
  M 695.00 584.96
  L 699.77 591.01
  A 1.01 1.01 0.0 0 1 699.70 592.33
  Q 683.29 609.16 664.29 623.04
  Q 661.73 625.41 658.47 626.90
  Q 630.18 642.54 599.43 652.48
  Q 563.59 660.51 527.17 654.36
  L 553.00 651.21
  Q 575.19 648.52 596.94 643.33
  Q 599.12 642.81 597.28 641.53
  L 565.50 619.46
  L 566.14 617.74
  Q 594.78 608.26 621.25 593.79
  L 637.41 617.51
  A 1.00 1.00 0.0 0 0 638.78 617.79
  L 656.26 606.58
  A 1.01 1.00 54.4 0 1 657.59 606.81
  L 663.75 614.60
  A 1.00 0.99 -35.4 0 0 665.08 614.82
  L 684.69 602.03
  A 1.00 1.00 0.0 0 0 684.89 600.52
  L 681.80 597.05
  A 1.00 1.00 0.0 0 1 681.99 595.55
  Q 685.91 592.96 688.77 590.14
  C 690.68 588.24 693.08 587.00 695.00 584.96
  Z"
/>
<path fill="#144a53" d="
  M 337.79 603.50
  L 346.00 603.46
  Q 358.11 619.49 373.55 632.42
  Q 368.45 629.65 362.96 628.33
  Q 348.44 617.88 337.79 603.50
  Z"
/>
<path fill="#b7cdd6" d="
  M 566.75 603.46
  Q 568.67 603.37 568.10 603.84
  A 0.64 0.56 -14.3 0 0 567.94 604.07
  L 566.99 606.89
  A 1.00 1.00 0.0 0 0 567.74 608.19
  L 569.50 608.54
  L 556.50 620.71
  L 521.70 652.69
  L 511.96 661.70
  Q 507.53 666.07 501.46 663.50
  L 566.75 603.46
  Z"
/>
<path fill="#2c5e69" d="
  M 566.14 617.74
  L 565.50 619.46
  L 554.79 629.22
  A 1.01 1.00 -19.0 0 0 554.46 629.89
  L 553.00 651.21
  L 527.17 654.36
  Q 524.11 654.64 521.70 652.69
  L 556.50 620.71
  L 566.14 617.74
  Z"
/>
<path fill="#7095a3" d="
  M 565.50 619.46
  L 597.28 641.53
  Q 599.12 642.81 596.94 643.33
  Q 575.19 648.52 553.00 651.21
  L 554.46 629.89
  A 1.01 1.00 -19.0 0 1 554.79 629.22
  L 565.50 619.46
  Z"
/>
<path fill="#144a53" d="
  M 658.47 626.90
  Q 660.43 630.08 663.21 632.41
  A 1.00 0.99 26.2 0 1 663.55 633.39
  Q 663.20 634.95 665.25 634.04
  Q 661.57 636.50 657.45 637.83
  Q 633.47 645.63 608.99 651.29
  Q 604.30 652.45 599.43 652.48
  Q 630.18 642.54 658.47 626.90
  Z"
/>
<path fill="#001813" d="
  M 608.99 651.29
  Q 606.78 655.24 602.11 654.69
  A 1.01 1.00 -57.6 0 0 601.46 654.84
  C 599.86 655.86 598.07 655.45 596.57 655.74
  Q 588.31 657.36 580.06 658.95
  C 577.52 659.44 573.09 659.56 569.77 660.40
  C 563.23 662.05 556.57 662.32 549.28 662.75
  C 545.75 662.95 542.27 663.75 538.88 663.74
  Q 526.94 663.73 515.00 664.32
  Q 513.87 664.37 512.75 663.43
  A 0.81 0.81 0.0 0 1 512.51 662.55
  Q 512.74 661.90 511.96 661.70
  L 521.70 652.69
  Q 524.11 654.64 527.17 654.36
  Q 563.59 660.51 599.43 652.48
  Q 604.30 652.45 608.99 651.29
  Z"
/>
<path fill="#144a53" d="
  M 134.33 808.93
  Q 134.80 807.33 134.44 806.31
  A 0.99 0.99 0.0 0 0 133.78 805.69
  Q 122.72 802.32 111.50 805.46
  Q 123.94 799.16 137.07 804.02
  A 1.00 0.99 12.2 0 1 137.72 805.02
  Q 137.51 808.44 134.33 808.93
  Z"
/>
<path fill="#144a53" d="
  M 533.25 805.16
  C 520.50 802.08 508.82 803.27 500.25 813.71
  Q 505.15 805.33 514.12 802.81
  C 518.33 801.63 523.35 801.93 528.00 802.01
  Q 532.04 802.09 533.25 805.16
  Z"
/>
<path fill="#00353a" d="
  M 761.71 809.75
  Q 752.91 801.80 741.73 803.98
  C 727.43 806.77 722.47 820.11 723.25 833.46
  C 719.63 816.41 729.79 799.88 748.75 802.09
  Q 756.77 803.02 761.71 809.75
  Z"
/>
<path fill="#144a53" d="
  M 899.46 806.75
  C 883.49 798.33 866.97 807.47 865.11 825.35
  Q 864.20 834.04 867.00 841.96
  Q 860.82 831.17 863.96 819.50
  Q 869.14 800.23 889.75 802.04
  Q 894.66 802.47 899.46 806.75
  Z"
/>
<path fill="#144a53" d="
  M 981.12 804.78
  Q 969.58 802.58 961.00 805.48
  C 945.02 810.87 941.43 829.06 948.03 843.45
  C 937.28 829.94 942.57 809.23 959.24 803.44
  Q 970.28 799.60 981.12 804.78
  Z"
/>
<path fill="#144a53" d="
  M 62.25 851.04
  L 46.39 805.14
  A 1.02 1.01 -6.4 0 0 45.54 804.47
  L 41.14 804.02
  Q 44.88 801.31 49.38 802.73
  A 0.99 0.98 89.3 0 1 50.02 803.36
  L 65.91 849.94
  A 1.00 1.00 0.0 0 1 64.88 851.26
  L 62.25 851.04
  Z"
/>
<path fill="#144a53" d="
  M 201.08 846.18
  Q 198.32 848.52 195.17 848.91
  C 186.10 850.02 182.25 841.91 182.21 834.25
  Q 182.15 820.11 181.95 805.23
  A 1.01 1.01 0.0 0 0 180.96 804.24
  L 178.25 804.21
  L 178.55 803.21
  A 1.01 1.00 -81.4 0 1 179.51 802.50
  L 183.97 802.50
  A 1.00 1.00 0.0 0 1 184.97 803.50
  Q 184.99 816.21 185.03 828.89
  C 185.06 840.02 187.33 849.10 201.08 846.18
  Z"
/>
<path fill="#144a53" d="
  M 208.25 847.71
  Q 211.94 840.50 211.96 836.18
  Q 212.04 820.83 211.98 805.40
  A 0.99 0.99 0.0 0 0 211.04 804.41
  L 207.75 804.21
  L 208.03 803.29
  A 1.01 1.01 0.0 0 1 208.96 802.59
  L 213.17 802.49
  A 1.00 1.00 0.0 0 1 214.20 803.48
  Q 214.33 818.64 214.15 833.73
  Q 214.06 842.03 208.25 847.71
  Z"
/>
<path fill="#144a53" d="
  M 287.04 851.00
  L 271.24 804.95
  A 1.01 1.01 0.0 0 0 270.30 804.27
  L 264.75 804.21
  C 265.00 801.61 270.79 802.42 272.58 802.78
  A 0.99 0.98 -3.5 0 1 273.33 803.44
  L 289.21 849.88
  A 1.00 1.00 0.0 0 1 288.31 851.20
  Q 287.66 851.24 287.04 851.00
  Z"
/>
<path fill="#144a53" d="
  M 398.04 808.00
  Q 398.29 806.37 397.78 804.92
  A 0.99 0.99 0.0 0 0 396.84 804.25
  L 362.69 804.20
  Q 363.15 802.48 364.49 802.48
  Q 381.22 802.54 397.95 802.47
  A 1.01 1.00 75.3 0 1 398.83 802.99
  Q 400.37 805.78 398.04 808.00
  Z"
/>
<path fill="#144a53" d="
  M 460.04 808.00
  L 459.76 805.14
  A 1.00 0.99 87.1 0 0 458.77 804.24
  L 433.75 804.21
  L 434.47 802.99
  A 1.00 1.00 0.0 0 1 435.33 802.50
  L 459.57 802.50
  A 1.00 0.99 -8.8 0 1 460.52 803.19
  Q 461.38 805.82 460.04 808.00
  Z"
/>
<path fill="#144a53" d="
  M 577.78 804.08
  L 570.96 804.40
  Q 573.92 799.87 577.78 804.08
  Z"
/>
<path fill="#144a53" d="
  M 607.55 804.16
  L 600.79 804.35
  Q 604.21 799.88 607.55 804.16
  Z"
/>
<path fill="#00353a" d="
  M 673.06 831.69
  L 655.64 804.70
  A 1.03 1.02 77.0 0 0 654.91 804.24
  Q 651.65 803.88 648.22 804.69
  Q 647.84 803.97 648.11 803.36
  A 1.01 1.00 -78.5 0 1 649.01 802.76
  L 654.53 802.66
  A 1.01 1.00 -16.4 0 1 655.40 803.13
  L 673.06 831.69
  Z"
/>
<path fill="#144a53" d="
  M 685.18 804.25
  L 679.93 804.28
  A 1.00 1.00 0.0 0 0 678.94 805.27
  L 678.79 820.00
  L 678.78 803.50
  A 1.00 0.99 -89.7 0 1 679.78 802.50
  L 683.63 802.50
  A 1.01 0.99 -13.9 0 1 684.51 803.02
  L 685.18 804.25
  Z"
/>
<path fill="#2c5e69" d="
  M 812.35 804.09
  L 807.21 804.22
  A 1.00 0.99 89.4 0 0 806.24 805.22
  L 806.21 851.75
  L 805.32 850.93
  A 1.00 0.97 -69.4 0 1 805.00 850.20
  L 805.00 803.50
  A 1.00 1.00 0.0 0 1 805.72 802.54
  Q 809.01 801.58 812.35 804.09
  Z"
/>
<path fill="#144a53" d="
  M 1025.41 803.95
  Q 1023.64 804.68 1021.78 804.18
  Q 1019.51 803.56 1020.64 805.62
  Q 1027.36 817.85 1034.07 830.15
  C 1036.67 834.93 1035.61 845.58 1035.21 851.00
  L 1033.79 851.04
  A 1.01 1.00 88.9 0 1 1032.76 850.04
  Q 1032.73 841.49 1032.76 832.92
  Q 1032.76 830.78 1031.75 828.92
  Q 1024.94 816.33 1018.00 803.82
  A 1.00 1.00 0.0 0 1 1018.71 802.35
  Q 1022.45 801.74 1025.41 803.95
  Z"
/>
<path fill="#144a53" d="
  M 1055.00 804.21
  Q 1053.97 804.62 1052.32 803.90
  A 1.01 1.00 25.3 0 0 1051.03 804.36
  L 1039.91 825.99
  Q 1038.91 827.94 1038.10 825.91
  L 1037.25 823.79
  L 1048.02 803.06
  A 0.99 0.98 13.1 0 1 1048.90 802.52
  L 1053.86 802.49
  A 1.01 1.01 0.0 0 1 1054.85 803.32
  L 1055.00 804.21
  Z"
/>
<path fill="#cedfe4" d="
  M 533.25 805.16
  Q 532.94 807.90 531.90 810.09
  A 1.00 1.00 0.0 0 1 530.63 810.60
  C 518.95 806.03 504.40 811.00 503.46 825.00
  C 500.55 838.59 509.44 850.15 523.76 848.62
  Q 527.33 848.23 530.92 847.18
  A 1.01 0.99 70.2 0 1 532.13 847.76
  L 533.04 850.00
  C 533.27 851.23 533.00 852.04 531.72 852.43
  C 517.34 856.80 501.32 853.09 496.98 836.99
  Q 493.82 825.23 500.25 813.71
  C 508.82 803.27 520.50 802.08 533.25 805.16
  Z"
/>
<path fill="#cedfe4" d="
  M 761.71 809.75
  C 772.40 824.10 770.28 850.35 748.89 853.85
  C 734.93 856.13 725.63 846.45 723.25 833.46
  C 722.47 820.11 727.43 806.77 741.73 803.98
  Q 752.91 801.80 761.71 809.75
  Z
  M 733.35 841.36
  C 740.91 854.63 756.71 849.45 760.23 836.24
  Q 762.39 828.10 759.85 820.98
  C 756.39 805.13 737.23 804.73 731.66 819.89
  Q 727.79 830.44 733.35 841.36
  Z"
/>
<path fill="#cedfe4" d="
  M 899.46 806.75
  Q 911.99 817.47 908.72 835.02
  C 904.61 857.07 878.44 861.11 867.00 841.96
  Q 864.20 834.04 865.11 825.35
  C 866.97 807.47 883.49 798.33 899.46 806.75
  Z
  M 877.63 844.89
  C 887.42 853.60 898.41 847.57 901.57 836.57
  Q 905.14 824.19 897.91 814.15
  Q 892.16 807.46 884.63 809.05
  C 876.55 810.75 873.09 817.21 872.00 825.01
  Q 870.33 837.06 877.63 844.89
  Z"
/>
<path fill="#b7cdd6" d="
  M 134.33 808.93
  L 133.41 810.43
  A 1.02 1.01 25.6 0 1 132.21 810.85
  Q 120.76 806.67 110.41 812.85
  C 98.75 820.91 100.69 844.12 115.29 847.71
  C 117.22 848.18 130.67 849.79 129.96 846.00
  L 129.97 833.78
  A 1.00 1.00 0.0 0 0 128.98 832.78
  Q 125.65 832.73 122.37 832.74
  C 121.17 832.75 119.54 833.51 120.07 831.16
  Q 120.12 830.91 120.05 830.67
  Q 119.03 827.07 123.04 827.50
  L 135.11 827.91
  A 0.99 0.99 0.0 0 1 136.07 828.89
  L 136.29 850.00
  Q 136.09 851.24 135.07 851.59
  C 119.58 856.85 99.56 853.83 96.56 834.49
  Q 93.45 814.36 111.50 805.46
  Q 122.72 802.32 133.78 805.69
  A 0.99 0.99 0.0 0 1 134.44 806.31
  Q 134.80 807.33 134.33 808.93
  Z"
/>
<path fill="#b7cdd6" d="
  M 981.12 804.78
  Q 984.69 807.16 982.00 810.56
  A 1.01 1.00 28.7 0 1 980.89 810.88
  C 969.66 807.02 957.00 809.41 952.67 821.79
  Q 948.26 834.38 958.33 844.82
  Q 967.60 850.71 978.04 847.57
  A 0.99 0.99 0.0 0 0 978.75 846.62
  L 978.75 833.83
  A 1.00 1.00 0.0 0 0 977.98 832.86
  Q 976.84 832.59 975.94 832.76
  L 969.99 832.75
  A 1.01 1.00 -8.6 0 1 969.03 832.05
  L 968.71 831.00
  L 969.08 828.75
  A 1.01 0.99 -85.5 0 1 970.05 827.91
  L 982.75 827.71
  Q 983.52 827.61 984.26 827.80
  A 1.01 1.00 -82.5 0 1 985.00 828.77
  L 985.00 850.38
  A 1.01 1.01 0.0 0 1 984.33 851.33
  C 971.56 855.85 956.62 855.14 948.03 843.45
  C 941.43 829.06 945.02 810.87 961.00 805.48
  Q 969.58 802.58 981.12 804.78
  Z"
/>
<path fill="#b7cdd6" d="
  M 41.14 804.02
  L 45.54 804.47
  A 1.02 1.01 -6.4 0 1 46.39 805.14
  L 62.25 851.04
  L 62.54 852.29
  A 1.01 1.00 -6.3 0 1 61.55 853.52
  L 56.88 853.45
  A 1.00 0.98 -8.6 0 1 55.95 852.78
  L 51.11 838.77
  A 1.01 1.01 0.0 0 0 50.17 838.09
  L 36.25 838.04
  Q 34.92 837.70 33.84 838.29
  A 0.99 0.99 0.0 0 0 33.37 838.86
  L 29.40 851.13
  Q 27.47 854.83 22.93 853.62
  A 1.00 0.99 -73.2 0 1 22.25 852.33
  L 38.31 805.14
  A 1.03 1.01 -86.2 0 1 39.05 804.48
  L 41.14 804.02
  Z
  M 48.71 831.00
  Q 46.70 823.66 43.63 816.38
  L 42.95 813.39
  Q 42.31 810.54 41.41 813.31
  L 35.45 831.69
  A 1.00 1.00 0.0 0 0 36.40 833.00
  L 48.11 833.00
  A 1.01 1.00 -6.6 0 0 49.09 831.77
  Q 48.99 831.38 48.71 831.00
  Z"
/>
<path fill="#b7cdd6" d="
  M 178.25 804.21
  L 180.96 804.24
  A 1.01 1.01 0.0 0 1 181.95 805.23
  Q 182.15 820.11 182.21 834.25
  C 182.25 841.91 186.10 850.02 195.17 848.91
  Q 198.32 848.52 201.08 846.18
  Q 205.37 841.68 205.43 834.68
  Q 205.56 819.98 205.49 805.27
  A 1.01 1.01 0.0 0 1 206.26 804.29
  Q 207.01 804.11 207.75 804.21
  L 211.04 804.41
  A 0.99 0.99 0.0 0 1 211.98 805.40
  Q 212.04 820.83 211.96 836.18
  Q 211.94 840.50 208.25 847.71
  C 197.30 859.06 177.33 855.56 176.12 837.78
  Q 175.77 832.51 176.04 805.25
  A 1.00 1.00 0.0 0 1 176.81 804.28
  Q 177.51 804.12 178.25 804.21
  Z"
/>
<path fill="#b7cdd6" d="
  M 264.75 804.21
  L 270.30 804.27
  A 1.01 1.01 0.0 0 1 271.24 804.95
  L 287.04 851.00
  L 287.25 852.34
  A 1.00 0.99 85.3 0 1 286.27 853.50
  L 281.61 853.50
  A 1.00 1.00 0.0 0 1 280.66 852.82
  L 275.91 838.74
  A 1.02 1.01 -8.9 0 0 274.96 838.06
  L 259.39 837.99
  Q 255.56 844.06 254.26 851.06
  Q 252.12 854.83 247.71 853.52
  A 1.01 0.99 -72.6 0 1 247.05 852.24
  Q 254.98 828.79 262.94 805.38
  C 263.27 804.41 263.75 804.14 264.75 804.21
  Z
  M 273.50 830.84
  L 267.63 813.66
  Q 267.69 813.20 267.62 812.76
  Q 267.22 810.07 266.38 812.66
  L 260.21 831.69
  A 1.00 1.00 0.0 0 0 261.16 833.00
  L 272.87 833.00
  A 1.01 1.00 15.0 0 0 273.74 832.50
  Q 274.15 831.79 273.50 830.84
  Z"
/>
<path fill="#cedfe4" d="
  M 362.69 804.20
  L 396.84 804.25
  A 0.99 0.99 0.0 0 1 397.78 804.92
  Q 398.29 806.37 398.04 808.00
  Q 398.18 808.76 397.90 809.34
  A 1.01 1.00 12.4 0 1 397.01 809.90
  L 383.67 810.00
  Q 382.42 830.56 383.10 851.09
  Q 381.69 855.07 377.19 853.60
  A 1.00 0.99 -81.2 0 1 376.50 852.65
  L 376.50 810.86
  A 1.00 1.00 0.0 0 0 375.51 809.86
  L 362.47 809.73
  A 1.00 0.99 -8.0 0 1 361.53 809.03
  Q 360.65 806.20 362.69 804.20
  Z"
/>
<path fill="#cedfe4" d="
  M 433.75 804.21
  L 458.77 804.24
  A 1.00 0.99 87.1 0 1 459.76 805.14
  L 460.04 808.00
  Q 460.12 808.74 459.83 809.34
  A 1.00 1.00 0.0 0 1 458.92 809.92
  L 441.27 809.77
  Q 440.96 809.67 440.48 809.81
  A 1.00 0.99 82.4 0 0 439.75 810.77
  L 439.75 824.08
  A 1.00 0.99 89.2 0 0 440.77 825.08
  Q 449.69 824.89 458.42 825.08
  Q 458.70 825.08 459.04 825.50
  L 459.04 828.25
  L 458.73 829.66
  A 1.00 1.00 0.0 0 1 457.75 830.45
  L 440.52 830.43
  Q 439.15 838.70 439.79 847.03
  A 1.01 1.00 88.4 0 0 440.77 847.96
  L 461.25 848.29
  L 461.29 850.75
  L 460.89 852.70
  A 1.01 1.00 -83.9 0 1 459.91 853.50
  L 434.10 853.50
  A 1.00 1.00 0.0 0 1 433.10 852.52
  C 432.76 836.72 433.42 822.35 432.98 805.39
  A 0.99 0.98 68.5 0 1 433.30 804.64
  L 433.75 804.21
  Z"
/>
<path fill="#cedfe4" d="
  M 577.78 804.08
  L 577.79 823.00
  Q 577.14 823.94 577.66 824.67
  A 0.80 0.79 -18.6 0 0 578.35 825.01
  Q 589.12 824.51 599.88 824.85
  C 601.09 824.89 601.45 824.27 600.71 823.25
  Q 601.38 814.00 600.79 804.35
  L 607.55 804.16
  L 607.48 852.52
  A 1.01 1.00 0.3 0 1 606.46 853.52
  L 601.98 853.45
  A 1.00 1.00 0.0 0 1 601.00 852.45
  L 601.00 831.50
  A 1.00 1.00 0.0 0 0 600.00 830.50
  L 578.77 830.50
  A 1.00 1.00 0.0 0 0 577.77 831.49
  L 577.62 852.51
  A 1.00 1.00 0.0 0 1 576.62 853.50
  L 572.01 853.51
  A 1.00 1.00 0.0 0 1 571.01 852.51
  L 570.96 804.40
  L 577.78 804.08
  Z"
/>
<path fill="#cedfe4" d="
  M 673.06 831.69
  L 678.29 841.25
  Q 680.63 848.13 679.29 840.25
  L 678.79 820.00
  L 678.94 805.27
  A 1.00 1.00 0.0 0 1 679.93 804.28
  L 685.18 804.25
  L 685.24 852.50
  A 1.00 1.00 0.0 0 1 684.24 853.50
  L 679.57 853.50
  A 0.99 0.98 -16.2 0 1 678.74 853.05
  Q 666.56 834.63 655.64 815.44
  Q 654.13 812.80 654.14 815.84
  L 654.30 852.49
  A 1.01 1.01 0.0 0 1 653.30 853.50
  L 649.23 853.51
  A 1.00 0.99 89.7 0 1 648.23 852.51
  L 648.22 804.69
  Q 651.65 803.88 654.91 804.24
  A 1.03 1.02 77.0 0 1 655.64 804.70
  L 673.06 831.69
  Z"
/>
<path fill="#cedfe4" d="
  M 812.35 804.09
  L 812.75 846.04
  Q 812.17 846.94 812.62 847.54
  A 0.98 0.97 71.4 0 0 813.43 847.95
  L 832.36 847.79
  Q 834.27 850.00 833.55 852.75
  A 1.00 0.99 7.0 0 1 832.58 853.50
  L 807.22 853.50
  A 1.00 1.00 0.0 0 1 806.25 852.74
  Q 806.13 852.26 806.21 851.75
  L 806.24 805.22
  A 1.00 0.99 89.4 0 1 807.21 804.22
  L 812.35 804.09
  Z"
/>
<path fill="#7095a3" d="
  M 1025.41 803.95
  Q 1027.25 804.21 1027.75 805.25
  Q 1032.23 814.66 1037.25 823.79
  L 1038.10 825.91
  Q 1038.91 827.94 1039.91 825.99
  L 1051.03 804.36
  A 1.01 1.00 25.3 0 1 1052.32 803.90
  Q 1053.97 804.62 1055.00 804.21
  Q 1056.19 803.89 1057.13 804.33
  A 1.00 1.00 0.0 0 1 1057.58 805.74
  L 1042.14 832.11
  A 1.04 0.98 -31.3 0 0 1042.00 832.62
  L 1042.00 852.50
  A 1.00 1.00 0.0 0 1 1041.00 853.50
  L 1036.56 853.50
  A 1.00 1.00 0.0 0 1 1035.58 852.71
  L 1035.21 851.00
  C 1035.61 845.58 1036.67 834.93 1034.07 830.15
  Q 1027.36 817.85 1020.64 805.62
  Q 1019.51 803.56 1021.78 804.18
  Q 1023.64 804.68 1025.41 803.95
  Z"
/>
<path fill="#144a53" d="
  M 441.27 809.77
  Q 440.37 815.98 440.74 822.31
  A 1.00 1.00 0.0 0 0 441.74 823.25
  L 458.48 823.25
  A 1.00 1.00 0.0 0 1 459.48 824.27
  L 459.46 825.25
  L 459.04 825.50
  Q 458.70 825.08 458.42 825.08
  Q 449.69 824.89 440.77 825.08
  A 1.00 0.99 89.2 0 1 439.75 824.08
  L 439.75 810.77
  A 1.00 0.99 82.4 0 1 440.48 809.81
  Q 440.96 809.67 441.27 809.77
  Z"
/>
<path fill="#00353a" d="
  M 383.67 810.00
  Q 384.72 830.18 384.20 850.26
  A 0.80 0.79 -9.8 0 1 383.68 850.99
  Q 383.41 851.10 383.10 851.09
  Q 382.42 830.56 383.67 810.00
  Z"
/>
<path fill="#144a53" d="
  M 43.63 816.38
  L 39.01 829.54
  A 1.00 1.00 0.0 0 0 39.94 830.87
  L 48.71 831.00
  Q 48.99 831.38 49.09 831.77
  A 1.01 1.00 -6.6 0 1 48.11 833.00
  L 36.40 833.00
  A 1.00 1.00 0.0 0 1 35.45 831.69
  L 41.41 813.31
  Q 42.31 810.54 42.95 813.39
  L 43.63 816.38
  Z"
/>
<path fill="#144a53" d="
  M 267.63 813.66
  L 262.22 829.66
  A 1.00 1.00 0.0 0 0 263.18 830.98
  L 273.50 830.84
  Q 274.15 831.79 273.74 832.50
  A 1.01 1.00 15.0 0 1 272.87 833.00
  L 261.16 833.00
  A 1.00 1.00 0.0 0 1 260.21 831.69
  L 266.38 812.66
  Q 267.22 810.07 267.62 812.76
  Q 267.69 813.20 267.63 813.66
  Z"
/>
<path fill="#144a53" d="
  M 110.41 812.85
  C 100.04 828.76 108.58 850.48 129.96 846.00
  C 130.67 849.79 117.22 848.18 115.29 847.71
  C 100.69 844.12 98.75 820.91 110.41 812.85
  Z"
/>
<path fill="#144a53" d="
  M 897.91 814.15
  Q 905.14 824.19 901.57 836.57
  C 898.41 847.57 887.42 853.60 877.63 844.89
  C 887.08 849.41 894.95 845.88 898.92 836.53
  Q 903.47 825.84 897.91 814.15
  Z"
/>
<path fill="#144a53" d="
  M 759.85 820.98
  Q 762.39 828.10 760.23 836.24
  C 756.71 849.45 740.91 854.63 733.35 841.36
  Q 742.22 850.35 752.00 844.67
  C 759.99 840.04 760.89 829.26 759.85 820.98
  Z"
/>
<path fill="#144a53" d="
  M 577.79 823.00
  L 600.71 823.25
  C 601.45 824.27 601.09 824.89 599.88 824.85
  Q 589.12 824.51 578.35 825.01
  A 0.80 0.79 -18.6 0 1 577.66 824.67
  Q 577.14 823.94 577.79 823.00
  Z"
/>
<path fill="#144a53" d="
  M 503.46 825.00
  C 502.47 836.67 508.85 845.92 520.68 846.51
  Q 526.15 846.78 531.36 845.00
  A 1.01 1.00 -19.6 0 1 532.62 845.59
  Q 533.46 847.77 533.04 850.00
  L 532.13 847.76
  A 1.01 0.99 70.2 0 0 530.92 847.18
  Q 527.33 848.23 523.76 848.62
  C 509.44 850.15 500.55 838.59 503.46 825.00
  Z"
/>
<path fill="#00353a" d="
  M 459.46 825.25
  Q 459.83 826.87 459.04 828.25
  L 459.04 825.50
  L 459.46 825.25
  Z"
/>
<path fill="#144a53" d="
  M 136.29 850.00
  L 136.07 828.89
  A 0.99 0.99 0.0 0 0 135.11 827.91
  L 123.04 827.50
  L 123.29 826.30
  A 1.01 1.00 -83.9 0 1 124.27 825.50
  L 138.03 825.50
  A 1.00 1.00 0.0 0 1 139.03 826.50
  L 139.03 848.15
  A 1.00 0.97 70.0 0 1 138.70 848.89
  Q 137.72 849.78 136.29 850.00
  Z"
/>
<path fill="#144a53" d="
  M 982.75 827.71
  L 970.05 827.91
  A 1.01 0.99 -85.5 0 0 969.08 828.75
  L 968.71 831.00
  L 967.22 830.73
  A 1.00 1.00 0.0 0 1 966.40 829.76
  L 966.35 826.53
  A 1.01 1.00 89.7 0 1 967.35 825.51
  L 981.42 825.49
  A 1.01 1.01 0.0 0 1 982.30 826.00
  Q 982.73 826.78 982.75 827.71
  Z"
/>
<path fill="#144a53" d="
  M 440.52 830.43
  L 440.81 844.89
  A 1.00 1.00 0.0 0 0 441.82 845.87
  L 460.73 845.70
  A 0.99 0.99 0.0 0 1 461.70 846.43
  Q 461.91 847.18 461.71 848.00
  L 461.25 848.29
  L 440.77 847.96
  A 1.01 1.00 88.4 0 1 439.79 847.03
  Q 439.15 838.70 440.52 830.43
  Z"
/>
<path fill="#144a53" d="
  M 975.94 832.76
  Q 976.84 832.59 977.98 832.86
  A 1.00 1.00 0.0 0 1 978.75 833.83
  L 978.75 846.62
  A 0.99 0.99 0.0 0 1 978.04 847.57
  Q 967.60 850.71 958.33 844.82
  Q 967.25 847.55 975.48 845.51
  A 1.00 0.99 -7.6 0 0 976.24 844.52
  L 975.94 832.76
  Z"
/>
<path fill="#144a53" d="
  M 36.25 838.04
  Q 33.45 847.98 32.50 850.25
  Q 31.85 851.81 29.40 851.13
  L 33.37 838.86
  A 0.99 0.99 0.0 0 1 33.84 838.29
  Q 34.92 837.70 36.25 838.04
  Z"
/>
<path fill="#00353a" d="
  M 259.39 837.99
  L 255.75 850.29
  A 1.01 1.00 5.2 0 1 254.89 851.00
  L 254.26 851.06
  Q 255.56 844.06 259.39 837.99
  Z"
/>
<path fill="#001813" d="
  M 679.29 840.25
  Q 680.63 848.13 678.29 841.25
  Q 679.59 842.03 679.29 840.25
  Z"
/>
<path fill="#144a53" d="
  M 832.36 847.79
  L 813.43 847.95
  A 0.98 0.97 71.4 0 1 812.62 847.54
  Q 812.17 846.94 812.75 846.04
  C 818.56 845.58 824.25 846.13 830.00 845.77
  Q 832.12 845.64 832.36 847.79
  Z"
/>
<path fill="#001813" d="
  M 461.71 848.00
  Q 462.12 849.51 461.29 850.75
  L 461.25 848.29
  L 461.71 848.00
  Z"
/>
</svg>
