<?xml version="1.0" encoding="UTF-8" standalone="no"?>
<!DOCTYPE svg PUBLIC "-//W3C//DTD SVG 1.1//EN" "http://www.w3.org/Graphics/SVG/1.1/DTD/svg11.dtd">
<svg xmlns="http://www.w3.org/2000/svg" version="1.1" viewBox="0 0 1080 1080">
<path fill="#07090c" d="
  M 842.51 882.96
  Q 838.81 885.19 835.39 887.88
  Q 824.95 896.08 814.60 904.40
  C 813.90 904.96 812.04 905.68 813.27 903.51
  Q 813.88 902.45 814.80 901.64
  Q 826.49 891.45 837.05 880.74
  Q 839.90 877.84 843.97 874.86
  C 849.60 870.74 854.03 866.78 858.60 861.00
  C 865.98 851.66 874.05 842.41 880.71 832.99
  Q 888.11 822.52 889.64 819.61
  Q 896.81 805.90 898.83 803.08
  C 910.90 786.23 919.78 767.81 931.10 750.56
  Q 933.30 747.20 934.59 743.50
  C 938.17 733.23 941.91 723.00 946.61 713.18
  Q 950.33 705.43 952.60 699.40
  C 956.02 690.30 960.13 681.04 962.56 672.07
  Q 965.59 660.92 967.81 649.56
  C 968.44 646.32 968.42 642.75 968.90 639.83
  Q 971.70 623.05 973.81 606.19
  C 976.69 583.17 975.58 559.00 975.09 537.68
  C 974.78 523.91 971.78 509.85 969.48 496.28
  C 967.48 484.53 968.15 474.75 964.95 463.89
  C 960.44 448.52 956.55 432.98 952.51 417.48
  C 949.60 406.32 945.62 395.85 941.68 385.14
  Q 939.67 379.68 936.46 373.75
  C 929.29 360.53 925.77 351.08 918.58 333.18
  Q 916.66 328.42 908.47 312.54
  Q 899.67 295.50 885.28 279.72
  C 861.98 254.16 839.86 228.42 810.74 208.27
  C 788.48 192.87 764.75 177.33 739.55 164.60
  Q 739.41 164.53 739.30 164.42
  C 739.19 164.31 733.70 159.15 738.47 161.30
  Q 757.11 169.71 774.96 179.68
  C 775.60 180.03 776.11 179.47 775.50 178.90
  Q 769.82 173.70 766.41 171.36
  Q 742.20 154.71 715.95 141.53
  Q 707.68 137.38 681.11 126.94
  Q 678.19 125.79 674.63 125.42
  C 668.76 124.80 662.97 123.08 657.37 122.90
  C 653.83 122.79 650.00 122.98 646.58 122.27
  Q 625.27 117.81 604.15 112.46
  A 0.80 0.80 0.0 0 1 603.67 111.25
  Q 604.01 110.73 603.31 110.48
  A 0.51 0.51 0.0 0 0 602.63 110.92
  Q 602.51 112.51 601.18 112.25
  Q 568.42 105.89 540.25 105.03
  Q 525.64 104.59 501.31 105.24
  C 489.61 105.55 477.92 107.06 466.24 108.38
  C 456.66 109.47 446.66 111.35 437.25 113.28
  C 400.39 120.84 362.87 133.63 330.04 152.11
  C 241.44 201.98 172.12 286.05 128.33 376.05
  Q 121.33 390.44 111.80 411.39
  C 107.09 421.75 105.11 433.94 102.29 444.98
  C 100.51 451.92 99.80 459.02 97.94 465.94
  Q 96.01 473.10 94.86 480.42
  Q 89.84 512.46 89.49 519.75
  C 88.84 533.54 87.47 547.97 87.52 561.07
  C 87.61 585.75 89.90 606.13 94.24 631.15
  C 97.55 650.28 100.72 667.39 105.94 685.22
  C 108.21 692.98 111.81 700.48 114.24 708.37
  Q 118.96 723.73 124.95 738.64
  C 128.36 747.13 134.44 755.95 137.97 762.54
  Q 139.47 765.34 139.51 769.40
  A 1.00 1.00 0.0 0 1 138.12 770.33
  Q 137.02 769.86 136.35 768.91
  Q 135.04 767.08 129.70 758.52
  C 129.00 757.39 128.45 758.27 128.95 759.23
  Q 153.00 805.01 174.79 838.71
  Q 178.72 844.79 186.52 852.57
  Q 188.22 854.26 189.18 856.53
  C 194.98 870.24 205.70 885.98 218.48 894.09
  Q 219.32 894.62 220.08 895.24
  Q 222.77 897.42 219.72 895.79
  Q 213.51 892.45 207.89 888.24
  Q 207.03 887.59 207.24 888.64
  C 207.74 891.12 219.34 901.99 221.29 903.79
  A 0.20 0.19 43.0 0 1 221.31 904.07
  L 221.19 904.19
  A 0.12 0.07 36.0 0 1 221.08 904.18
  C 215.92 901.20 210.48 899.69 206.14 895.39
  C 201.08 890.38 195.32 886.63 190.48 881.32
  Q 187.63 878.19 181.89 869.52
  Q 174.95 859.05 167.44 850.31
  C 165.23 847.74 162.07 845.99 160.00 843.25
  C 143.23 820.99 127.06 798.55 109.50 776.85
  Q 106.99 773.74 105.33 770.12
  C 94.01 745.39 84.03 719.28 77.18 692.94
  Q 75.97 688.27 73.77 683.45
  Q 69.75 674.62 66.45 663.85
  A 0.41 0.40 70.4 0 0 65.91 663.59
  C 64.46 664.18 70.04 682.56 70.61 685.11
  C 71.49 689.04 73.21 692.28 74.25 695.50
  C 79.01 710.27 83.53 725.19 89.02 739.64
  Q 93.24 750.78 97.52 761.89
  A 0.27 0.26 49.5 0 1 97.51 762.10
  C 97.38 762.38 97.16 762.26 97.02 762.07
  Q 91.75 754.86 85.83 748.17
  C 83.73 745.80 81.87 740.16 80.77 737.50
  C 71.24 714.36 60.09 687.61 56.40 661.84
  C 55.88 658.22 54.76 654.45 54.37 651.02
  Q 52.75 636.79 50.77 622.62
  Q 49.99 617.12 49.11 606.18
  C 48.51 598.84 47.23 591.55 46.66 584.24
  C 45.98 575.53 44.22 566.11 43.74 558.21
  C 42.24 533.74 41.72 506.43 44.48 480.96
  C 45.45 472.02 46.36 458.70 49.22 447.62
  C 49.67 445.88 49.54 444.01 50.00 442.32
  C 52.46 433.28 54.39 422.51 56.27 415.03
  Q 61.09 395.76 66.80 378.31
  C 67.53 376.06 69.08 373.87 69.41 371.46
  C 71.70 354.64 80.16 339.77 89.06 320.28
  C 99.74 296.89 119.97 270.49 129.48 255.49
  C 134.18 248.07 138.53 238.89 143.87 231.65
  C 162.71 206.13 184.58 183.32 211.28 166.03
  C 214.46 163.97 218.36 160.18 221.32 156.74
  Q 234.62 141.32 249.80 127.76
  C 254.19 123.84 260.27 121.73 265.44 118.85
  A 1.04 1.00 34.8 0 1 266.13 118.74
  Q 267.87 119.10 268.27 117.32
  A 1.02 1.00 -6.4 0 1 268.82 116.64
  Q 271.74 115.24 272.20 117.83
  Q 272.77 121.08 273.75 117.93
  Q 274.09 116.83 273.66 115.64
  A 1.03 1.02 -40.4 0 1 273.73 114.79
  Q 274.69 113.14 276.30 114.14
  A 1.01 1.01 0.0 0 0 277.30 114.17
  Q 290.00 107.35 302.37 100.01
  C 311.62 94.53 322.45 88.61 332.26 82.48
  C 335.48 80.47 347.54 74.17 353.24 74.88
  A 1.03 1.02 26.8 0 0 354.04 74.62
  Q 356.70 72.19 360.25 71.25
  C 369.24 68.87 379.63 64.56 390.99 62.47
  Q 396.77 61.41 411.49 56.46
  C 419.48 53.78 432.18 51.73 444.18 48.15
  C 449.00 46.71 454.33 46.08 460.00 44.99
  C 464.55 44.10 471.23 43.73 477.31 42.79
  C 503.94 38.66 533.14 40.22 559.52 43.19
  Q 566.93 44.03 574.02 44.06
  Q 599.12 44.18 624.11 46.46
  Q 634.48 47.41 643.84 49.55
  C 659.81 53.22 675.17 58.81 690.82 62.69
  Q 702.15 65.50 713.38 68.68
  C 719.93 70.54 726.25 73.51 731.76 76.49
  Q 733.13 77.23 734.35 76.79
  A 0.97 0.94 47.3 0 1 735.12 76.83
  L 752.90 85.36
  A 1.01 1.00 -81.6 0 1 753.46 86.12
  C 754.04 90.18 775.71 101.46 779.98 105.03
  A 0.65 0.65 0.0 0 0 780.67 105.11
  Q 781.42 104.76 780.67 104.07
  Q 774.72 98.64 767.24 93.66
  Q 761.31 89.72 767.85 92.54
  Q 785.96 100.36 800.46 111.78
  C 808.12 117.81 822.76 130.43 836.20 140.56
  C 844.61 146.90 852.13 151.29 857.83 156.16
  Q 871.86 168.15 884.33 181.71
  C 903.03 202.05 920.94 220.73 935.63 239.88
  C 950.10 258.74 962.51 279.41 973.49 300.48
  C 987.70 327.75 1001.24 355.57 1012.46 384.21
  C 1014.77 390.09 1016.98 396.96 1019.32 403.32
  C 1022.69 412.51 1023.73 422.04 1026.81 431.25
  C 1029.28 438.61 1031.77 445.54 1032.96 453.68
  Q 1034.08 461.31 1035.15 466.72
  Q 1035.55 468.76 1035.90 470.81
  Q 1038.35 484.99 1034.90 471.02
  Q 1029.53 449.24 1022.42 427.97
  Q 1021.22 424.38 1016.39 408.91
  Q 1010.85 391.18 1001.48 370.48
  C 983.86 331.60 965.61 295.71 942.79 260.38
  Q 938.23 253.32 932.31 246.30
  C 905.36 214.33 890.79 195.75 864.02 173.99
  Q 860.71 171.29 851.73 161.78
  C 847.60 157.41 843.29 157.06 838.31 154.36
  A 1.02 1.01 -35.3 0 0 837.65 154.25
  C 836.29 154.50 836.78 155.30 837.57 155.76
  C 848.75 162.26 856.80 172.96 868.52 181.02
  C 878.12 187.61 886.92 197.95 894.64 206.66
  C 897.28 209.63 900.51 212.45 902.74 215.46
  Q 908.46 223.18 913.41 231.43
  C 915.55 235.02 918.55 237.05 920.77 240.30
  Q 925.48 247.21 930.52 253.87
  C 936.59 261.90 940.82 271.31 945.67 280.07
  C 946.01 280.69 946.66 281.22 947.05 281.98
  C 955.21 297.77 965.45 312.21 973.56 327.94
  A 1.04 1.00 -55.2 0 1 973.66 328.56
  Q 973.26 331.09 975.00 333.02
  A 1.02 1.01 19.4 0 1 975.25 333.53
  Q 976.22 339.33 977.75 341.75
  C 979.22 344.07 978.87 345.88 979.49 347.67
  C 981.17 352.46 983.06 361.41 986.20 365.10
  Q 989.32 368.77 991.24 373.50
  C 995.26 383.42 1001.23 396.17 1004.37 408.42
  Q 1005.76 413.85 1008.46 430.00
  C 1008.82 432.16 1011.48 454.41 1009.36 453.86
  A 0.33 0.32 9.5 0 1 1009.11 453.52
  Q 1009.25 451.24 1007.22 450.42
  A 0.95 0.95 0.0 0 1 1006.70 449.93
  Q 1005.40 447.24 1006.00 444.32
  A 1.01 1.00 -56.0 0 0 1005.86 443.58
  C 1003.39 439.72 1004.08 436.01 1002.37 432.03
  A 1.02 1.01 -50.6 0 1 1002.31 431.41
  Q 1002.75 429.48 1001.54 427.94
  A 1.00 0.97 -66.6 0 1 1001.33 427.39
  C 1001.26 426.57 998.87 417.34 997.63 420.09
  A 0.80 0.79 -46.4 0 0 997.64 420.76
  L 1000.18 426.00
  A 0.98 0.97 -53.8 0 1 1000.27 426.59
  Q 999.90 429.00 1001.31 430.91
  A 1.01 1.00 36.1 0 1 1001.46 431.82
  C 1000.69 434.12 1002.10 435.52 1002.47 437.10
  C 1003.96 443.51 1004.26 450.18 1006.41 456.18
  Q 1007.98 460.58 1009.72 464.91
  C 1017.51 484.34 1019.51 504.04 1021.32 525.69
  Q 1023.37 550.24 1020.76 576.50
  Q 1020.73 576.77 1020.63 576.89
  Q 1020.34 577.20 1020.27 576.78
  Q 1019.22 570.73 1018.69 564.61
  C 1018.57 563.20 1017.90 564.88 1017.90 565.03
  Q 1017.92 587.26 1017.56 609.48
  C 1017.53 611.09 1018.60 612.64 1018.20 614.24
  C 1016.81 619.73 1014.32 626.36 1012.76 632.31
  Q 1008.16 649.85 1002.86 667.18
  C 999.99 676.56 994.77 685.57 990.53 694.48
  C 975.25 726.61 959.44 758.76 942.64 790.12
  Q 931.27 811.33 916.99 830.76
  C 913.63 835.32 910.39 838.94 905.81 842.88
  C 895.96 851.34 885.90 860.87 876.56 868.50
  Q 862.00 880.38 847.01 891.73
  C 841.55 895.87 837.28 901.84 831.79 905.79
  C 818.44 915.40 811.73 920.09 800.38 924.17
  A 1.01 1.00 76.0 0 1 799.05 923.37
  Q 798.81 921.70 800.77 920.26
  Q 810.48 913.13 820.08 905.84
  Q 822.34 904.12 822.75 902.24
  A 0.98 0.98 0.0 0 1 823.22 901.59
  C 825.15 900.46 826.09 898.54 827.40 897.31
  Q 834.05 891.08 841.40 885.69
  Q 842.47 884.90 843.32 883.93
  Q 846.06 880.82 842.51 882.96
  Z
  M 477.84 51.91
  Q 476.50 55.49 478.96 55.07
  C 481.18 54.69 502.49 51.98 501.96 50.69
  A 0.65 0.64 79.5 0 0 501.38 50.29
  Q 493.91 50.09 486.42 50.58
  C 484.00 50.74 481.87 52.41 479.14 51.34
  A 0.99 0.99 0.0 0 0 477.84 51.91
  Z
  M 536.63 54.79
  C 539.54 50.54 537.61 51.53 534.93 51.95
  Q 522.04 53.94 509.00 54.49
  C 505.81 54.63 499.36 57.90 494.88 58.74
  Q 477.40 61.99 461.28 69.55
  A 0.82 0.80 81.1 0 0 460.82 70.20
  Q 460.74 71.07 462.21 70.47
  C 467.54 68.30 471.89 66.87 477.24 66.12
  C 480.58 65.66 483.23 64.73 486.73 64.99
  C 495.81 65.69 504.66 60.26 513.98 58.78
  Q 525.29 56.97 535.97 55.21
  A 1.00 1.00 0.0 0 0 536.63 54.79
  Z
  M 458.18 55.57
  Q 458.42 55.31 458.22 54.90
  A 0.63 0.63 0.0 0 0 457.79 54.55
  Q 452.10 53.19 455.35 57.54
  A 0.99 0.99 0.0 0 0 456.78 57.71
  Q 457.50 57.12 457.89 56.21
  Q 458.14 55.62 458.18 55.57
  Z
  M 251.4585 135.8917
  A 1.31 0.74 2.7 0 0 250.1849 135.0908
  A 1.31 0.74 2.7 0 0 248.8415 135.7683
  A 1.31 0.74 2.7 0 0 250.1151 136.5692
  A 1.31 0.74 2.7 0 0 251.4585 135.8917
  Z
  M 217.31 231.42
  Q 218.26 232.27 217.89 230.75
  A 1.00 1.00 0.0 0 0 216.84 230.00
  Q 215.81 230.08 217.31 231.42
  Z
  M 136.25 331.46
  Q 136.40 331.98 136.84 331.66
  A 0.82 0.80 67.4 0 0 137.15 330.88
  C 136.90 329.36 138.11 328.85 138.74 327.88
  C 156.47 300.63 180.22 268.20 202.88 243.63
  Q 204.27 242.12 213.18 235.81
  C 214.22 235.08 214.39 235.15 215.53 235.51
  A 1.01 0.99 27.4 0 0 216.61 235.18
  C 218.30 233.07 216.17 232.96 214.86 233.60
  Q 208.09 236.89 206.21 238.22
  C 195.67 245.62 184.46 253.97 176.49 264.19
  Q 165.02 278.88 154.39 294.18
  C 147.62 303.92 143.44 314.88 136.70 324.94
  C 135.27 327.09 124.08 344.61 125.78 345.03
  A 0.51 0.51 0.0 0 0 126.36 344.76
  Q 130.05 337.41 135.55 331.30
  Q 136.05 330.74 136.25 331.46
  Z
  M 885.91 257.43
  C 886.96 256.71 873.11 240.74 872.27 239.74
  C 871.83 239.22 869.30 234.38 868.30 235.12
  A 0.53 0.52 57.2 0 0 868.16 235.79
  Q 875.12 248.01 885.59 257.41
  A 0.26 0.25 -41.0 0 0 885.91 257.43
  Z
  M 134.58 334.14
  L 133.89 335.17
  Q 132.77 336.81 134.63 336.13
  Q 135.68 335.75 135.75 334.54
  Q 135.89 332.23 134.58 334.14
  Z
  M 952.15 365.77
  Q 952.00 365.98 951.90 366.19
  C 950.62 369.00 969.96 408.03 973.15 414.43
  Q 973.79 415.71 974.11 414.31
  Q 974.22 413.83 974.01 413.25
  Q 965.19 388.90 953.51 365.89
  A 0.81 0.80 -39.8 0 0 952.15 365.77
  Z
  M 57.49 470.98
  C 54.84 483.22 50.71 499.66 51.85 513.02
  C 53.06 527.17 53.65 540.99 55.15 552.57
  Q 57.45 570.38 57.29 585.56
  C 57.19 594.57 59.53 603.96 60.73 612.91
  C 61.06 615.40 62.09 617.83 62.63 620.39
  Q 63.03 622.27 63.43 620.39
  Q 63.67 619.28 62.97 618.25
  Q 62.84 618.05 62.81 617.82
  Q 61.36 606.84 60.39 596.22
  C 59.54 586.91 59.69 575.61 58.95 565.31
  Q 58.70 561.76 58.70 549.69
  C 58.72 519.64 58.78 491.89 60.98 464.56
  Q 61.64 456.37 61.89 448.12
  Q 61.95 445.91 60.92 447.87
  Q 60.56 448.56 60.51 449.51
  C 60.17 456.55 59.18 463.19 57.49 470.98
  Z
  M 1005.40 550.39
  C 1006.93 547.50 1005.32 533.25 1005.08 530.31
  C 1004.01 517.09 1003.07 504.00 1000.80 490.92
  C 999.83 485.34 999.86 479.04 998.73 473.08
  C 997.06 464.28 996.30 458.53 995.04 451.22
  A 0.41 0.41 0.0 0 0 994.72 450.88
  C 993.85 450.71 995.26 465.66 995.78 467.30
  Q 997.62 473.12 997.61 479.20
  C 997.60 484.30 999.67 489.40 999.97 493.25
  Q 1000.77 503.28 1002.28 513.21
  C 1004.31 526.51 1003.83 537.85 1004.78 550.26
  Q 1004.87 551.39 1005.40 550.39
  Z
  M 70.40 546.50
  C 70.78 529.02 71.20 511.74 72.79 494.32
  C 72.88 493.34 73.82 492.01 73.92 490.83
  Q 75.37 473.78 77.76 456.78
  C 78.14 454.07 76.04 456.24 75.90 457.17
  C 73.66 472.27 71.86 487.38 69.83 502.51
  C 68.42 513.08 69.50 524.52 69.50 533.54
  Q 69.50 540.28 69.52 547.01
  Q 69.52 547.38 69.83 547.19
  L 70.09 547.04
  A 0.63 0.62 75.0 0 0 70.40 546.50
  Z
  M 988.43 596.75
  Q 986.57 604.51 985.59 611.90
  Q 985.37 613.54 986.33 612.20
  Q 986.40 612.10 986.46 611.97
  Q 989.77 604.92 990.00 596.96
  Q 990.23 589.23 988.43 596.75
  Z
  M 1002.71 633.43
  Q 1003.62 634.01 1004.44 633.38
  A 0.99 0.97 76.2 0 0 1004.82 632.74
  Q 1007.21 617.49 1008.10 602.07
  Q 1008.24 599.72 1007.01 600.24
  A 0.83 0.80 -2.1 0 0 1006.57 600.70
  C 1004.47 606.43 1001.21 612.46 1000.45 618.40
  C 1000.17 620.57 999.58 635.10 1000.65 635.01
  A 0.34 0.33 86.4 0 0 1000.95 634.66
  Q 1000.88 633.59 1001.92 633.31
  A 1.01 1.01 0.0 0 1 1002.71 633.43
  Z
  M 96.71 674.46
  C 95.84 670.10 94.32 666.14 93.43 661.78
  Q 92.69 658.21 91.52 654.76
  C 90.36 651.33 90.20 647.68 89.07 644.10
  C 88.66 642.80 88.45 644.23 88.49 644.47
  Q 90.97 659.55 95.76 674.06
  C 95.78 674.11 97.11 676.51 96.71 674.46
  Z
  M 97.5613 676.8068
  A 0.40 0.40 0.0 0 0 97.0614 676.5421
  L 96.8894 676.5950
  A 0.40 0.40 0.0 0 0 96.6247 677.0950
  L 101.5587 693.1332
  A 0.40 0.40 0.0 0 0 102.0586 693.3979
  L 102.2306 693.3450
  A 0.40 0.40 0.0 0 0 102.4953 692.8450
  L 97.5613 676.8068
  Z
  M 104.2583 716.2572
  A 1.79 0.51 72.5 0 0 104.2064 714.3966
  A 1.79 0.51 72.5 0 0 103.1817 712.8428
  A 1.79 0.51 72.5 0 0 103.2336 714.7034
  A 1.79 0.51 72.5 0 0 104.2583 716.2572
  Z
  M 914.3676 822.0259
  A 0.26 0.26 0.0 0 0 914.3139 821.6621
  L 914.0570 821.4714
  A 0.26 0.26 0.0 0 0 913.6932 821.5251
  L 897.3924 843.4741
  A 0.26 0.26 0.0 0 0 897.4461 843.8379
  L 897.7030 844.0286
  A 0.26 0.26 0.0 0 0 898.0668 843.9749
  L 914.3676 822.0259
  Z"
/>
<path fill="#07090c" d="
  M 600.15 189.23
  C 693.92 210.49 748.62 289.78 762.20 381.01
  Q 765.12 400.61 766.74 420.36
  C 767.36 427.93 769.44 436.55 769.38 445.07
  Q 769.28 458.52 770.34 471.93
  Q 770.67 476.18 770.36 480.43
  Q 769.58 490.74 768.58 501.04
  Q 768.35 503.43 770.21 501.92
  Q 777.00 496.37 786.03 496.37
  C 788.20 496.37 791.71 497.08 794.76 496.75
  Q 796.95 496.51 797.57 498.62
  C 798.50 501.83 800.33 504.39 800.68 507.73
  C 802.04 520.92 803.12 531.00 802.60 547.01
  C 801.94 567.18 799.00 587.11 794.43 606.76
  Q 793.63 610.19 793.50 614.45
  C 793.20 624.04 791.33 631.53 787.55 641.22
  C 784.36 649.43 782.08 655.44 778.51 665.89
  C 777.11 669.97 774.64 678.53 771.12 681.94
  C 769.59 683.42 764.35 690.87 762.23 687.64
  A 1.02 0.99 80.3 0 0 761.66 687.22
  L 756.85 685.87
  A 1.00 0.99 13.7 0 0 755.61 686.62
  Q 754.90 689.87 754.11 693.08
  Q 753.35 696.18 752.05 699.81
  Q 742.20 727.32 734.53 755.51
  C 730.78 769.29 725.85 781.04 717.43 799.13
  Q 713.78 806.96 709.17 814.31
  C 704.84 821.22 700.71 828.15 695.73 834.47
  Q 686.02 846.81 675.49 858.46
  A 1.02 1.02 0.0 0 0 675.23 859.14
  C 675.26 866.77 675.31 873.67 674.91 881.91
  C 673.79 904.76 675.88 926.66 681.82 948.28
  A 0.98 0.97 -89.0 0 0 682.47 948.96
  L 683.65 949.35
  A 1.02 1.00 -85.8 0 1 684.33 950.15
  L 685.02 954.57
  A 1.02 0.99 -75.4 0 0 685.37 955.19
  Q 687.87 957.25 687.89 960.44
  A 0.99 0.99 0.0 0 1 687.26 961.38
  Q 683.54 962.83 679.83 964.05
  C 678.11 964.61 678.89 965.28 679.93 965.06
  Q 683.45 964.30 686.99 963.62
  Q 687.92 963.44 687.15 963.99
  C 684.39 965.98 679.00 967.21 676.16 968.46
  Q 658.54 976.25 640.29 982.42
  C 639.30 982.76 627.16 984.16 629.64 985.61
  A 0.98 0.96 52.9 0 0 630.38 985.72
  Q 634.89 984.64 639.46 983.76
  C 642.89 983.10 646.28 981.08 649.26 980.53
  C 659.65 978.62 669.35 974.71 679.30 971.29
  Q 680.65 970.83 683.94 970.44
  Q 686.65 970.12 684.24 971.40
  Q 683.92 971.57 683.52 971.72
  C 659.00 980.94 640.69 986.68 619.39 994.56
  C 603.64 1000.39 587.12 1002.97 570.44 1004.18
  Q 565.47 1004.55 546.69 1003.85
  C 538.21 1003.53 526.92 1004.28 516.65 1002.09
  A 1.00 0.98 75.5 0 1 516.10 1001.76
  C 515.61 1001.18 515.20 1000.68 514.45 1000.43
  C 503.06 996.65 491.97 992.09 480.64 988.15
  Q 475.64 986.41 468.39 983.58
  C 462.94 981.45 457.34 979.74 452.06 977.43
  Q 439.21 971.82 426.00 967.10
  Q 425.95 967.09 423.93 966.68
  C 422.70 966.43 422.19 965.60 421.23 965.24
  Q 405.41 959.35 389.35 954.16
  A 1.02 1.01 -4.3 0 1 388.76 953.66
  L 386.67 949.58
  Q 385.63 947.54 387.97 945.98
  Q 391.31 943.76 387.58 945.04
  A 1.01 1.00 -8.8 0 1 386.25 944.07
  C 386.30 941.93 386.07 939.63 386.56 937.58
  C 390.54 920.72 392.22 907.13 395.10 891.98
  Q 395.84 888.05 395.66 884.45
  Q 394.95 870.72 394.26 856.42
  A 1.00 0.98 -72.5 0 0 393.88 855.68
  Q 390.99 853.42 387.87 849.18
  C 374.64 831.24 366.66 819.70 357.53 803.40
  C 351.09 791.93 346.03 779.45 340.52 767.31
  C 339.51 765.09 337.76 759.63 335.79 756.10
  Q 334.45 753.69 333.82 751.66
  C 330.19 740.03 326.05 729.88 320.97 715.31
  C 319.60 711.40 319.39 706.94 318.39 702.77
  Q 317.86 700.53 316.58 702.45
  C 315.08 704.71 311.05 703.05 308.94 702.67
  A 0.99 0.95 71.6 0 1 308.39 702.38
  Q 294.95 688.16 288.79 669.53
  Q 287.70 666.26 284.38 654.52
  C 283.10 650.00 282.52 643.58 280.31 638.28
  C 278.95 635.00 275.63 632.30 274.42 629.32
  C 269.37 616.98 264.88 607.30 264.88 595.58
  C 264.88 590.54 264.05 585.78 263.91 581.56
  C 263.17 558.78 262.42 536.02 261.45 513.25
  Q 261.22 507.69 263.92 501.53
  A 1.03 0.99 2.2 0 1 264.55 500.97
  C 275.48 497.74 282.47 492.07 292.70 501.83
  C 293.42 502.52 298.96 508.16 297.40 504.02
  C 294.88 497.28 294.96 490.00 294.12 484.09
  C 291.52 465.97 294.02 446.89 294.30 428.93
  Q 294.57 412.49 294.89 396.06
  Q 295.12 384.56 296.78 375.96
  Q 298.08 369.24 298.54 365.43
  C 300.08 352.81 302.92 341.88 308.06 329.40
  C 314.24 314.39 319.61 301.00 328.07 287.86
  Q 339.91 269.50 348.04 259.80
  C 355.61 250.77 366.42 242.36 375.54 233.53
  C 384.39 224.96 395.95 216.93 406.89 211.14
  C 429.23 199.31 450.50 190.22 475.26 186.18
  C 486.71 184.31 498.29 182.27 509.66 181.78
  C 529.40 180.94 549.29 181.06 568.88 184.00
  C 579.40 185.57 590.61 187.07 600.15 189.23
  Z
  M 496.36 509.56
  L 496.57 509.77
  A 1.00 1.00 0.0 0 0 497.98 509.77
  Q 498.36 509.40 498.50 508.74
  C 502.72 488.68 507.86 468.78 512.44 448.79
  A 1.02 1.02 0.0 0 1 513.51 448.01
  Q 514.55 448.10 515.57 448.43
  Q 515.75 448.48 515.94 448.47
  C 528.15 447.72 536.81 448.90 551.41 450.59
  A 1.01 1.00 86.2 0 1 552.27 451.35
  Q 557.02 470.78 561.29 490.33
  C 562.99 498.10 565.23 506.62 568.77 512.21
  Q 569.31 513.07 573.41 516.17
  A 1.03 1.00 -34.1 0 0 574.30 516.33
  L 578.96 514.95
  A 1.00 0.99 -12.6 0 0 579.66 513.86
  L 579.12 509.72
  A 1.02 1.01 -82.0 0 0 578.54 508.94
  Q 574.67 507.17 575.49 502.88
  A 0.64 0.64 0.0 0 1 576.08 502.36
  C 577.34 502.30 578.03 508.50 579.25 506.42
  C 580.49 504.32 575.79 490.61 575.43 489.19
  Q 571.72 474.49 564.42 458.04
  C 561.57 451.60 559.86 443.24 556.83 436.06
  Q 555.21 432.23 554.23 428.76
  Q 548.28 407.77 541.70 381.31
  C 540.99 378.46 539.32 372.61 535.47 377.11
  A 1.01 1.00 -57.7 0 1 534.30 377.38
  Q 532.42 376.53 529.32 375.95
  C 527.20 375.56 514.83 372.80 512.65 368.31
  A 0.99 0.98 79.0 0 0 511.83 367.75
  L 508.61 367.48
  A 0.99 0.98 18.2 0 0 507.67 367.95
  Q 505.38 371.72 502.54 368.66
  A 1.00 0.99 -49.5 0 0 500.97 368.79
  Q 500.31 369.79 499.93 371.49
  Q 495.43 391.51 491.93 411.73
  Q 491.44 414.55 490.84 420.29
  C 490.10 427.34 487.89 437.25 487.27 441.23
  C 484.81 457.01 481.81 472.92 481.08 488.91
  Q 480.66 498.07 480.25 507.25
  A 1.01 0.99 -75.4 0 0 480.79 508.19
  Q 482.75 509.19 484.96 508.90
  A 1.00 0.98 -77.3 0 0 485.67 508.44
  Q 487.49 505.54 487.77 502.13
  A 1.01 1.00 70.1 0 1 488.06 501.50
  C 489.16 500.41 488.72 504.78 488.63 505.86
  C 488.31 509.66 489.68 511.41 493.56 511.35
  Q 495.20 511.33 495.50 509.82
  Q 495.69 508.89 496.36 509.56
  Z
  M 609.11 391.16
  Q 608.67 390.21 610.07 389.66
  Q 610.31 389.56 610.48 389.36
  L 613.63 385.51
  Q 614.49 384.46 613.25 385.00
  Q 613.02 385.10 612.81 385.30
  C 603.86 393.63 593.16 401.08 588.87 412.95
  C 586.93 418.32 586.34 426.12 585.24 432.50
  C 582.36 449.28 589.78 472.27 599.18 487.12
  C 604.01 494.74 608.67 498.88 616.53 504.53
  C 619.72 506.82 624.87 512.07 629.24 513.43
  Q 646.50 518.82 666.49 514.51
  C 675.10 512.66 680.80 508.28 687.35 501.30
  C 691.51 496.85 696.37 492.66 699.76 487.62
  C 704.65 480.36 708.72 474.42 710.72 465.77
  Q 712.22 459.28 712.81 448.67
  C 713.37 438.54 712.85 426.10 707.78 416.98
  Q 700.21 403.37 687.59 392.64
  C 680.13 386.30 678.98 378.80 666.84 377.05
  C 662.93 376.48 658.95 375.33 655.35 374.77
  Q 649.89 373.91 644.38 372.88
  A 1.00 1.00 0.0 0 0 643.21 373.69
  Q 642.93 375.30 641.50 375.39
  C 630.92 376.08 617.79 384.32 610.12 391.36
  A 0.64 0.63 56.1 0 1 609.11 391.16
  Z
  M 371.94 517.64
  L 377.67 518.43
  A 1.00 0.99 -89.3 0 1 378.53 519.32
  Q 379.08 524.80 380.86 529.97
  A 1.01 1.00 3.0 0 0 381.40 530.56
  Q 385.87 532.53 385.93 527.77
  Q 385.98 523.99 386.03 520.26
  A 1.00 0.99 2.9 0 1 387.12 519.28
  C 400.09 520.53 415.52 519.06 427.52 514.50
  C 439.44 509.98 450.67 498.58 458.70 489.54
  C 465.85 481.50 474.15 462.98 471.40 451.83
  Q 466.41 431.62 454.01 413.06
  C 447.30 403.03 430.31 394.95 418.54 388.96
  Q 406.04 382.60 392.74 383.56
  C 385.81 384.06 379.58 383.86 373.05 384.96
  A 1.00 0.99 -10.3 0 1 371.90 384.17
  L 371.32 381.14
  A 1.00 1.00 0.0 0 0 370.19 380.34
  L 363.61 381.33
  A 0.99 0.99 0.0 0 0 362.84 381.92
  Q 361.89 384.13 362.32 386.55
  A 0.53 0.52 58.0 0 1 362.23 386.95
  C 361.86 387.45 361.61 387.12 361.57 386.67
  C 360.96 379.28 355.88 385.02 355.47 388.42
  A 1.02 1.00 -10.8 0 1 354.93 389.20
  C 351.18 391.10 350.83 392.32 354.05 395.11
  Q 356.77 397.48 355.62 401.55
  A 1.03 0.99 83.0 0 1 355.19 402.12
  L 353.60 403.14
  A 1.00 1.00 0.0 0 0 353.14 404.05
  Q 353.46 408.35 354.49 416.00
  Q 356.90 433.99 357.43 453.19
  C 357.96 472.61 360.03 491.75 361.08 511.05
  C 361.25 514.17 360.40 525.55 366.39 523.12
  A 1.01 1.00 -83.0 0 0 366.83 522.77
  Q 367.89 521.26 369.49 520.52
  A 1.05 1.03 -88.8 0 0 369.96 520.06
  L 370.91 518.18
  A 1.02 1.00 16.9 0 1 371.94 517.64
  Z
  M 558.67 679.12
  Q 559.45 679.86 559.63 681.09
  A 1.00 0.99 -7.1 0 0 560.73 681.94
  Q 563.92 681.57 568.09 682.14
  Q 574.89 683.05 581.55 681.96
  Q 585.63 681.28 588.52 681.38
  Q 604.32 681.90 620.14 681.44
  A 1.01 0.99 86.3 0 0 621.10 680.33
  L 620.36 673.18
  A 1.01 1.01 0.0 0 0 619.47 672.29
  Q 614.74 671.78 610.01 672.08
  C 606.80 672.29 603.36 671.76 599.96 672.23
  Q 596.22 672.75 593.99 672.63
  C 586.08 672.20 579.47 673.09 572.37 672.83
  A 1.00 1.00 0.0 0 1 571.40 671.85
  Q 570.80 643.45 570.52 617.55
  C 570.32 599.38 569.69 580.69 569.74 562.21
  C 569.75 557.35 572.87 555.37 568.20 550.76
  A 1.00 1.00 0.0 0 0 566.54 551.18
  C 566.15 552.46 565.45 557.34 564.14 556.98
  A 1.03 1.00 -54.4 0 0 563.30 557.13
  L 563.05 557.31
  A 0.51 0.51 0.0 0 1 562.25 556.96
  C 561.55 552.16 558.54 552.61 554.74 552.23
  A 1.01 1.01 0.0 0 0 553.65 553.06
  L 552.86 557.64
  A 0.64 0.63 -89.2 0 1 552.34 558.16
  Q 551.66 558.28 551.47 557.50
  Q 551.26 556.59 551.04 555.87
  Q 550.41 553.80 549.25 555.63
  Q 548.09 557.45 548.22 560.25
  Q 549.87 596.10 552.57 681.61
  A 1.01 1.01 0.0 0 0 553.24 682.53
  Q 554.57 682.99 555.96 682.22
  A 0.99 0.97 -6.9 0 0 556.44 681.62
  L 557.02 679.58
  A 1.00 1.00 0.0 0 1 558.67 679.12
  Z
  M 713.16 674.15
  Q 714.09 673.79 713.78 672.64
  Q 713.61 672.03 712.89 671.05
  Q 690.07 640.36 668.36 608.86
  Q 665.79 605.12 663.03 602.61
  A 1.00 0.99 -42.5 0 1 663.10 601.07
  Q 684.59 585.13 704.89 568.07
  C 706.68 566.57 708.22 564.86 709.71 563.17
  Q 710.28 562.53 710.46 559.76
  Q 710.61 557.60 708.70 556.99
  A 1.01 1.00 -84.2 0 1 708.01 556.14
  Q 707.82 554.23 705.94 555.73
  A 1.04 0.96 22.1 0 1 705.38 555.94
  L 701.52 556.17
  A 1.01 1.01 0.0 0 0 700.98 556.37
  Q 698.59 558.18 696.85 560.60
  C 692.24 567.01 685.86 569.37 679.87 574.00
  Q 672.71 579.53 671.56 580.36
  Q 658.29 589.90 646.46 601.12
  Q 644.79 602.71 644.77 600.40
  Q 644.64 577.43 641.54 554.66
  A 1.06 1.02 22.2 0 0 641.31 554.14
  Q 637.63 549.87 632.19 552.35
  A 1.01 1.01 0.0 0 0 631.63 553.02
  C 631.37 554.10 630.86 556.59 629.29 555.80
  A 1.00 1.00 0.0 0 1 628.75 555.06
  C 628.62 554.17 628.80 550.66 627.15 551.38
  A 1.01 0.99 0.6 0 0 626.64 551.87
  Q 626.07 553.06 624.98 553.76
  A 0.99 0.99 0.0 0 1 624.04 553.83
  Q 622.67 553.22 622.63 554.57
  Q 622.39 564.13 623.73 578.25
  Q 625.01 591.66 626.81 623.94
  Q 627.41 634.64 630.85 675.24
  C 631.11 678.32 633.17 680.45 636.14 678.30
  A 1.00 0.99 79.6 0 0 636.52 677.74
  L 636.99 675.91
  Q 638.06 671.80 638.25 676.04
  Q 638.29 676.86 638.25 677.69
  A 1.00 0.98 13.8 0 0 638.84 678.65
  Q 645.26 681.48 644.69 675.78
  A 1.02 1.01 84.5 0 1 645.59 674.68
  C 647.76 674.47 647.04 673.01 647.05 671.61
  C 647.15 652.90 645.98 634.01 645.17 615.35
  A 1.02 0.98 71.0 0 1 645.56 614.51
  L 653.02 608.82
  A 1.00 0.99 56.3 0 1 654.49 609.12
  Q 661.01 620.46 668.26 631.34
  C 679.81 648.71 691.17 666.19 702.78 683.52
  C 703.27 684.24 704.06 684.70 704.66 683.79
  A 1.00 0.99 55.5 0 0 704.80 683.03
  Q 704.17 680.05 707.22 680.28
  A 1.04 0.98 30.4 0 0 707.79 680.15
  L 712.59 677.40
  A 1.01 1.00 -32.1 0 0 712.92 675.97
  L 712.70 675.65
  A 1.00 1.00 0.0 0 1 713.16 674.15
  Z
  M 377.05 688.38
  Q 378.01 690.58 377.71 693.16
  A 1.00 0.99 -58.8 0 0 377.87 693.82
  C 378.64 695.00 379.09 693.69 379.08 693.05
  Q 378.84 666.40 378.36 639.75
  C 378.33 638.31 378.74 639.46 378.76 639.66
  Q 379.39 646.27 381.36 652.62
  C 381.51 653.10 382.09 653.86 381.99 652.50
  Q 380.68 635.36 378.85 617.15
  Q 378.59 614.59 381.16 614.62
  Q 392.57 614.74 404.82 614.39
  C 411.19 614.21 417.97 613.06 424.65 612.51
  A 0.99 0.99 0.0 0 0 425.56 611.63
  L 426.04 607.35
  A 1.00 1.00 0.0 0 0 425.06 606.23
  Q 419.14 606.19 413.30 607.04
  C 406.01 608.10 399.07 607.63 391.87 608.10
  C 387.82 608.36 383.93 607.62 379.95 607.45
  A 1.00 0.99 -89.7 0 1 379.00 606.48
  L 377.81 566.87
  A 1.01 1.01 0.0 0 1 378.72 565.84
  Q 397.81 563.99 416.98 563.58
  C 421.08 563.50 427.39 564.20 432.78 563.52
  C 437.68 562.89 435.74 567.93 436.88 568.37
  A 0.51 0.51 0.0 0 0 437.57 567.97
  L 439.05 557.64
  A 1.01 1.01 0.0 0 0 438.24 556.51
  C 435.66 556.04 433.21 556.63 430.64 556.14
  Q 421.02 554.30 411.29 555.35
  C 406.73 555.85 402.47 555.66 398.03 555.93
  C 395.30 556.09 392.93 554.94 390.05 555.10
  Q 389.83 555.12 389.64 555.22
  L 385.25 557.50
  A 1.00 1.00 0.0 0 1 384.38 557.52
  Q 381.41 556.16 378.13 556.16
  A 1.00 1.00 0.0 0 1 377.33 555.76
  L 376.51 554.67
  A 0.98 0.98 0.0 0 0 375.60 554.28
  L 369.15 554.96
  A 0.98 0.98 0.0 0 1 368.31 554.65
  L 366.91 553.17
  A 0.99 0.97 -25.3 0 0 366.04 552.87
  L 360.32 553.70
  A 1.02 0.98 -72.7 0 0 359.70 554.04
  Q 357.65 556.44 354.95 555.48
  A 1.00 1.00 0.0 0 0 353.62 556.32
  Q 353.44 558.00 353.65 560.57
  Q 359.09 625.56 364.64 690.56
  A 1.04 1.04 0.0 0 0 364.98 691.23
  Q 366.55 692.62 368.06 691.29
  A 0.99 0.98 40.4 0 1 369.26 691.20
  Q 371.62 692.73 374.20 691.51
  A 0.99 0.96 83.2 0 0 374.75 690.79
  L 375.15 688.60
  Q 375.74 685.37 377.05 688.38
  Z
  M 452.19 674.81
  C 455.44 678.90 460.06 680.69 464.55 683.04
  C 471.84 686.85 479.12 688.26 487.32 687.34
  C 492.22 686.79 497.30 684.17 503.01 683.71
  C 519.11 682.42 531.59 663.03 537.28 649.75
  C 545.92 629.62 544.00 607.96 532.01 589.45
  C 528.47 583.98 525.73 577.83 520.42 574.08
  Q 516.16 571.06 513.14 568.49
  C 507.92 564.05 503.19 562.34 496.67 561.13
  A 2.94 2.93 27.9 0 0 494.07 561.93
  Q 493.69 562.31 492.87 561.93
  C 490.54 560.83 491.93 559.55 488.01 559.63
  C 464.63 560.13 449.29 571.26 438.18 591.18
  C 429.23 607.25 429.24 630.53 433.68 647.84
  Q 433.72 647.98 433.79 648.11
  Q 438.04 655.12 443.48 661.20
  A 0.98 0.97 25.7 0 1 443.73 661.90
  C 443.53 668.20 449.48 671.40 452.19 674.81
  Z
  M 786.9799 636.1874
  A 1.04 0.65 61.9 0 0 787.0634 634.9638
  A 1.04 0.65 61.9 0 0 786.0001 634.3526
  A 1.04 0.65 61.9 0 0 785.9166 635.5762
  A 1.04 0.65 61.9 0 0 786.9799 636.1874
  Z
  M 315.5632 688.3383
  A 1.34 0.91 55.8 0 0 315.5626 686.7185
  A 1.34 0.91 55.8 0 0 314.0568 686.1217
  A 1.34 0.91 55.8 0 0 314.0574 687.7415
  A 1.34 0.91 55.8 0 0 315.5632 688.3383
  Z
  M 315.27 701.45
  Q 316.45 700.78 315.79 700.18
  A 0.64 0.64 0.0 0 0 315.00 700.12
  Q 314.33 700.57 314.53 701.17
  A 0.51 0.51 0.0 0 0 315.27 701.45
  Z
  M 640.90 966.65
  Q 640.09 967.58 639.84 968.65
  Q 639.38 970.64 641.23 969.79
  Q 650.00 965.77 662.05 959.30
  Q 663.14 958.72 662.29 958.34
  A 0.86 0.80 44.7 0 0 661.68 958.32
  L 641.26 966.14
  A 0.43 0.39 89.4 0 0 641.01 966.42
  Q 640.97 966.57 640.90 966.65
  Z"
/>
<path fill="#07090c" d="
  M 779.75 192.50
  Q 776.06 190.39 772.72 187.79
  Q 768.85 184.78 773.02 187.36
  Q 776.63 189.59 779.75 192.50
  Z"
/>
<path fill="#07090c" d="
  M 779.75 192.50
  L 781.70 193.70
  Q 783.64 194.90 781.51 194.08
  Q 780.43 193.66 779.75 192.50
  Z"
/>
<ellipse fill="#07090c" cx="0.00" cy="0.00" transform="translate(635.76,379.68) rotate(-25.6)" rx="6.75" ry="0.59"/>
<ellipse fill="#07090c" cx="0.00" cy="0.00" transform="translate(501.79,379.54) rotate(97.3)" rx="2.10" ry="0.94"/>
<path fill="#07090c" d="
  M 516.03 438.32
  A 1.00 1.00 0.0 0 1 515.17 437.10
  C 519.15 419.89 522.79 402.48 527.41 385.29
  A 1.00 1.00 0.0 0 1 528.90 384.70
  C 533.55 387.61 537.89 405.67 539.23 411.26
  C 541.67 421.40 545.50 430.77 549.13 440.69
  A 1.00 0.99 79.9 0 1 548.20 442.03
  C 544.88 442.04 542.37 440.23 539.17 440.24
  C 533.92 440.27 529.34 440.41 523.95 439.47
  Q 520.04 438.80 516.03 438.32
  Z"
/>
<path fill="#07090c" d="
  M 629.90 395.51
  Q 628.35 396.24 628.62 394.57
  A 1.03 1.01 -10.1 0 1 629.13 393.85
  C 637.87 389.19 644.27 388.16 653.27 386.83
  C 655.39 386.51 653.21 387.73 653.07 387.76
  Q 641.02 390.28 629.90 395.51
  Z"
/>
<path fill="#07090c" d="
  M 644.17 498.22
  C 639.60 494.15 634.75 489.59 631.11 484.66
  A 1.01 0.99 75.5 0 0 630.45 484.26
  L 629.21 484.09
  A 1.00 0.99 78.0 0 1 628.48 483.61
  C 625.77 478.97 622.47 474.92 620.52 469.85
  C 618.56 464.73 615.40 459.40 614.53 454.48
  Q 612.82 444.73 616.41 435.46
  Q 617.40 432.90 617.77 430.21
  C 619.47 417.76 627.39 408.11 636.14 399.67
  C 646.05 390.11 661.32 388.78 673.89 393.16
  C 683.92 396.65 694.24 416.06 698.34 424.87
  C 705.65 440.60 701.36 463.77 692.61 478.11
  C 686.99 487.32 679.91 495.84 669.41 498.77
  C 662.21 500.77 652.47 499.25 644.73 498.47
  A 0.97 0.95 68.4 0 1 644.17 498.22
  Z"
/>
<path fill="#07090c" d="
  M 386.25 506.05
  A 1.00 0.99 -89.4 0 1 385.27 505.04
  C 385.34 497.37 384.24 489.71 384.04 482.00
  C 383.76 471.31 382.44 460.80 382.20 451.31
  Q 381.62 428.25 380.58 419.93
  Q 379.15 408.56 379.45 397.39
  A 1.00 1.00 0.0 0 1 380.36 396.42
  Q 392.95 395.26 404.25 396.27
  C 423.18 397.98 441.91 413.86 446.89 432.20
  Q 448.60 438.47 449.46 449.93
  Q 450.46 463.32 447.84 476.72
  Q 447.79 476.97 447.63 477.17
  C 443.14 482.50 438.50 488.73 432.66 492.73
  Q 423.13 499.24 413.31 503.81
  C 406.00 507.21 394.40 506.19 386.25 506.05
  Z"
/>
<path fill="#07090c" d="
  M 616.55 408.08
  Q 617.88 406.64 619.34 405.30
  Q 620.39 404.34 620.19 405.75
  Q 620.15 406.00 620.12 406.26
  Q 620.04 407.03 619.68 407.64
  C 615.39 415.01 609.10 426.13 607.98 432.99
  C 607.72 434.61 605.94 446.86 605.05 447.08
  A 0.41 0.41 0.0 0 1 604.55 446.72
  C 603.45 433.84 604.06 421.39 613.19 411.68
  Q 615.68 409.02 616.55 408.08
  Z"
/>
<rect fill="#07090c" x="-0.41" y="-5.53" transform="translate(494.48,415.24) rotate(7.1)" width="0.82" height="11.06" rx="0.30"/>
<path fill="#07090c" d="
  M 610.05 441.09
  C 610.12 440.83 611.86 433.52 612.67 434.15
  A 0.21 0.20 22.1 0 1 612.75 434.33
  C 611.82 445.97 611.96 458.41 613.76 469.99
  Q 613.79 470.23 613.78 470.41
  Q 613.68 471.99 613.15 470.50
  C 610.12 462.02 607.67 449.88 610.05 441.09
  Z"
/>
<path fill="#07090c" d="
  M 461.32 476.05
  C 464.11 464.65 463.84 455.27 462.89 444.52
  Q 462.85 444.01 462.91 443.73
  Q 463.16 442.58 463.54 443.70
  C 467.62 455.62 468.81 465.48 461.93 476.06
  A 0.44 0.32 -63.3 0 1 461.54 476.26
  L 461.41 476.22
  A 0.14 0.13 -75.4 0 1 461.32 476.05
  Z"
/>
<path fill="#07090c" d="
  M 456.99 456.68
  Q 457.05 455.23 457.43 455.44
  C 457.83 455.66 457.92 460.43 457.95 461.20
  C 458.08 465.14 457.17 470.67 454.80 474.01
  Q 453.68 475.58 454.22 473.72
  Q 456.64 465.38 456.99 456.68
  Z"
/>
<path fill="#07090c" d="
  M 702.86 465.40
  Q 703.42 464.20 703.89 465.10
  A 1.03 1.02 38.8 0 1 703.97 465.83
  C 701.51 474.74 699.25 476.70 693.59 483.34
  Q 693.29 483.68 693.10 483.26
  A 0.42 0.41 -41.4 0 1 693.13 482.87
  Q 698.64 474.50 702.86 465.40
  Z"
/>
<path fill="#07090c" d="
  M 616.41 470.04
  Q 616.28 469.93 616.24 469.75
  Q 616.13 469.14 616.59 469.56
  Q 617.54 470.43 617.66 471.69
  Q 617.83 473.50 617.16 471.82
  L 616.50 470.17
  Q 616.47 470.10 616.41 470.04
  Z"
/>
<path fill="#07090c" d="
  M 446.57 485.83
  Q 447.08 485.23 447.76 484.80
  Q 450.03 483.34 448.65 485.66
  Q 444.56 492.57 438.47 497.57
  Q 432.85 502.18 427.97 504.77
  Q 424.94 506.39 421.64 507.32
  Q 412.34 509.95 421.08 505.83
  Q 425.62 503.69 428.20 501.95
  C 432.59 498.99 441.02 492.31 446.57 485.83
  Z"
/>
<ellipse fill="#07090c" cx="0.00" cy="0.00" transform="translate(692.40,488.14) rotate(-44.7)" rx="2.67" ry="0.55"/>
<path fill="#07090c" d="
  M 372.52 502.47
  C 372.57 503.16 373.49 506.02 371.92 504.85
  A 1.00 0.99 -71.0 0 1 371.52 504.01
  Q 371.90 494.68 372.52 502.47
  Z"
/>
<ellipse fill="#07090c" cx="0.00" cy="0.00" transform="translate(372.43,510.53) rotate(76.7)" rx="1.49" ry="0.96"/>
<path fill="#07090c" d="
  M 470.99 568.21
  C 474.89 567.26 485.48 564.47 485.92 566.18
  A 0.26 0.26 0.0 0 1 485.67 566.50
  C 477.26 566.68 465.20 569.92 459.87 576.96
  C 459.23 577.81 454.64 581.50 455.57 579.44
  A 0.99 0.95 -87.4 0 1 456.13 578.91
  C 459.23 577.75 459.81 575.22 461.90 573.51
  Q 467.33 569.09 470.99 568.21
  Z"
/>
<path fill="#07090c" d="
  M 676.07 580.02
  C 679.85 576.63 682.73 573.47 687.41 571.16
  Q 688.24 570.75 688.15 571.67
  Q 688.10 572.17 687.28 572.78
  Q 681.76 576.88 676.23 580.98
  Q 670.34 585.36 675.71 580.35
  Q 675.89 580.19 676.07 580.02
  Z"
/>
<ellipse fill="#07090c" cx="0.00" cy="0.00" transform="translate(480.16,573.29) rotate(-7.7)" rx="3.40" ry="0.34"/>
<path fill="#07090c" d="
  M 469.40 587.23
  Q 468.62 589.19 470.21 587.81
  Q 473.52 584.92 477.08 582.29
  Q 480.18 580.00 484.03 578.72
  C 491.99 576.05 499.63 573.49 507.07 577.64
  C 510.43 579.51 514.21 581.21 516.93 583.65
  C 528.28 593.81 534.78 612.33 537.29 626.57
  C 538.81 635.18 532.37 647.42 527.54 654.17
  C 520.21 664.38 509.01 670.49 497.02 673.81
  C 495.29 674.28 493.22 673.84 491.47 675.24
  A 0.98 0.95 -63.7 0 1 490.86 675.46
  C 486.62 675.50 492.77 674.66 491.92 673.58
  A 0.79 0.77 -14.4 0 0 491.38 673.27
  C 483.49 672.37 471.76 666.86 467.29 659.22
  C 464.66 654.74 462.79 652.44 458.41 647.43
  C 455.45 644.05 451.89 638.26 453.51 633.57
  A 1.01 0.98 44.2 0 0 453.49 632.85
  C 450.48 625.69 451.50 620.01 453.43 612.74
  C 454.77 607.70 454.61 602.33 458.31 597.31
  Q 466.15 586.67 477.21 578.49
  A 1.01 1.00 31.3 0 1 477.97 578.31
  Q 479.02 578.48 477.86 579.38
  Q 473.60 582.71 469.83 586.58
  Q 469.53 586.89 469.40 587.23
  Z"
/>
<path fill="#07090c" d="
  M 657.99 595.76
  C 658.61 596.76 654.11 596.77 657.50 595.59
  A 0.42 0.41 63.8 0 1 657.99 595.76
  Z"
/>
<path fill="#07090c" d="
  M 650.43 602.05
  Q 650.04 602.66 649.50 602.62
  Q 648.05 602.52 649.25 601.69
  L 651.24 600.30
  Q 652.74 599.26 651.70 600.76
  Q 651.29 601.34 650.69 601.77
  Q 650.53 601.88 650.43 602.05
  Z"
/>
<ellipse fill="#07090c" cx="0.00" cy="0.00" transform="translate(442.41,653.20) rotate(-22.1)" rx="1.20" ry="0.57"/>
<path fill="#07090c" d="
  M 465.80 681.22
  C 456.04 678.63 450.94 672.78 445.10 665.10
  A 0.33 0.33 0.0 0 1 445.30 664.58
  L 445.64 664.50
  A 1.05 1.04 61.6 0 1 446.56 664.78
  C 452.81 671.11 456.88 675.99 466.11 680.53
  A 0.32 0.31 -68.1 0 1 466.27 680.92
  L 466.19 681.19
  A 0.38 0.13 14.9 0 1 465.80 681.22
  Z"
/>
<path fill="#07090c" d="
  M 459.40 668.88
  Q 466.13 673.29 474.09 674.85
  A 1.02 1.00 -14.2 0 1 474.64 675.17
  L 476.41 677.16
  Q 478.44 679.45 475.44 678.80
  Q 471.94 678.04 468.89 676.13
  Q 465.03 673.71 461.17 671.27
  Q 459.87 670.44 458.90 669.52
  Q 455.64 666.42 459.40 668.88
  Z"
/>
<path fill="#07090c" d="
  M 472.93 668.66
  Q 472.65 669.15 471.84 668.45
  Q 471.19 667.88 472.05 667.74
  Q 472.34 667.69 472.55 667.94
  A 0.87 0.21 48.9 0 1 472.93 668.66
  Z"
/>
<ellipse fill="#07090c" cx="0.00" cy="0.00" transform="translate(709.07,671.31) rotate(48.3)" rx="3.34" ry="0.48"/>
<path fill="#07090c" d="
  M 484.36 678.98
  Q 484.14 678.89 483.94 678.77
  Q 480.06 676.53 484.53 676.91
  Q 485.46 676.99 486.40 676.99
  Q 487.31 677.00 487.78 677.44
  A 1.00 1.00 0.0 0 1 487.44 679.10
  Q 485.92 679.67 484.36 678.98
  Z"
/>
<path fill="#07090c" d="
  M 333.52 761.33
  C 333.45 760.63 333.15 756.53 334.11 756.91
  A 0.52 0.49 5.4 0 1 334.41 757.25
  Q 337.71 769.38 342.83 780.86
  A 0.34 0.33 58.3 0 1 342.74 781.25
  C 341.86 782.00 333.96 765.20 333.52 761.33
  Z"
/>
<path fill="#07090c" d="
  M 104.06 784.90
  C 121.17 805.64 133.24 822.84 147.51 841.55
  Q 147.90 842.05 147.48 841.97
  C 146.69 841.80 141.58 835.52 140.86 834.57
  Q 125.17 814.17 109.45 793.81
  Q 106.89 790.50 100.83 781.43
  Q 99.09 778.82 101.24 781.10
  Q 101.80 781.69 102.26 782.36
  Q 103.92 784.72 104.06 784.90
  Z"
/>
<rect fill="#07090c" x="-13.82" y="-0.43" transform="translate(223.09,891.53) rotate(44.9)" width="27.64" height="0.86" rx="0.27"/>
<rect fill="#07090c" x="-8.08" y="-0.56" transform="translate(746.31,953.00) rotate(-29.6)" width="16.16" height="1.12" rx="0.31"/>
<path fill="#07090c" d="
  M 378.44 977.56
  Q 375.97 976.61 377.44 974.20
  A 1.00 1.00 0.0 0 1 377.94 973.79
  C 381.66 972.39 384.50 962.74 385.18 959.64
  A 1.01 1.00 15.7 0 1 386.49 958.91
  Q 419.41 970.52 450.17 986.91
  C 456.07 990.05 461.98 992.67 467.92 995.48
  C 468.45 995.73 469.02 996.37 468.35 996.82
  A 0.82 0.81 34.2 0 1 467.74 996.93
  Q 461.52 995.67 455.23 994.79
  C 437.51 992.31 420.55 987.93 403.22 983.70
  C 397.24 982.24 386.10 980.52 378.44 977.56
  Z"
/>
<path fill="#07090c" d="
  M 630.77 1003.19
  C 624.82 1004.29 618.87 1005.05 612.96 1006.36
  Q 612.43 1006.48 611.90 1006.58
  Q 604.20 1007.96 611.65 1005.58
  L 615.15 1004.47
  Q 618.64 1003.36 614.98 1003.22
  Q 613.90 1003.18 612.86 1003.72
  A 1.00 0.98 35.4 0 1 612.22 1003.82
  Q 606.09 1002.71 599.83 1002.90
  A 0.25 0.25 0.0 0 1 599.60 1002.78
  C 599.49 1002.61 599.59 1002.43 599.78 1002.39
  Q 615.63 999.63 631.56 997.42
  C 639.54 996.31 647.36 992.90 655.16 990.70
  Q 657.44 990.06 659.92 988.47
  C 663.92 985.88 668.29 985.04 672.05 982.38
  Q 678.00 978.17 684.51 974.32
  A 1.02 1.01 43.4 0 1 685.49 974.30
  L 690.04 976.73
  A 1.01 0.98 14.9 0 1 690.57 977.62
  Q 690.55 978.91 692.19 978.79
  A 1.02 1.00 72.4 0 1 693.12 979.28
  Q 694.78 982.08 694.39 985.32
  Q 693.96 988.93 690.99 987.46
  Q 689.06 986.49 687.98 987.77
  Q 686.48 989.53 688.79 989.41
  Q 694.42 989.14 698.99 988.25
  Q 699.49 988.15 699.65 988.40
  A 0.27 0.26 -26.9 0 1 699.52 988.78
  Q 691.89 991.86 683.81 993.41
  A 1.00 1.00 0.0 0 0 683.08 993.97
  C 681.35 997.78 678.51 996.43 675.53 997.25
  Q 649.30 1004.49 620.56 1011.49
  A 1.00 1.00 0.0 0 1 619.67 1011.27
  L 619.13 1010.80
  Q 618.22 1010.01 619.42 1010.08
  Q 622.63 1010.28 625.47 1008.87
  C 625.78 1008.71 631.09 1004.02 631.21 1003.76
  Q 631.55 1003.04 630.77 1003.19
  Z
  M 677.56 984.81
  Q 679.26 983.83 684.78 983.74
  A 1.00 1.00 0.0 0 0 685.75 982.91
  Q 685.93 981.89 684.89 981.34
  A 1.03 0.98 -42.4 0 0 684.00 981.32
  Q 679.80 983.27 675.27 984.34
  Q 672.32 985.03 675.33 985.35
  Q 676.45 985.46 677.56 984.81
  Z"
/>
<path fill="#07090c" d="
  M 391.49 993.58
  C 391.41 994.73 399.20 997.94 400.60 997.79
  A 0.98 0.95 -26.5 0 1 401.36 998.03
  C 402.72 999.21 404.82 999.16 405.71 1000.10
  Q 405.98 1000.38 406.08 1000.71
  A 0.80 0.80 0.0 0 1 405.22 1001.75
  C 399.13 1000.94 395.08 997.08 388.83 996.33
  A 1.01 1.01 0.0 0 1 388.23 996.04
  Q 386.98 994.74 386.43 994.57
  Q 377.93 991.86 371.28 985.96
  A 1.00 0.99 28.9 0 1 370.98 984.93
  L 372.06 981.27
  A 1.01 1.00 87.6 0 1 372.64 980.63
  C 376.41 979.06 381.05 981.57 384.67 983.12
  Q 390.20 985.49 415.70 992.30
  Q 420.21 993.50 428.46 996.44
  Q 438.13 999.89 448.26 1001.70
  Q 450.81 1002.16 448.28 1002.71
  Q 447.65 1002.85 446.99 1002.69
  C 443.69 1001.93 440.57 1002.41 437.08 1001.96
  C 433.09 1001.44 429.60 1002.59 425.67 1002.13
  C 422.17 1001.73 418.24 1002.71 415.12 1001.88
  C 411.85 1001.00 405.28 998.63 402.65 996.67
  A 1.02 0.99 62.6 0 0 402.05 996.47
  Q 398.85 996.46 396.92 993.92
  A 1.04 1.01 -15.7 0 0 396.20 993.53
  L 391.93 993.20
  A 0.41 0.41 0.0 0 0 391.49 993.58
  Z
  M 385.1974 991.2074
  A 1.73 0.90 34.4 0 0 384.2785 989.4874
  A 1.73 0.90 34.4 0 0 382.3426 989.2526
  A 1.73 0.90 34.4 0 0 383.2615 990.9726
  A 1.73 0.90 34.4 0 0 385.1974 991.2074
  Z
  M 389.5528 992.2548
  A 1.76 0.95 20.1 0 0 388.2265 990.7579
  A 1.76 0.95 20.1 0 0 386.2472 991.0452
  A 1.76 0.95 20.1 0 0 387.5735 992.5421
  A 1.76 0.95 20.1 0 0 389.5528 992.2548
  Z"
/>
<path fill="#07090c" d="
  M 446.94 982.31
  Q 446.16 981.88 446.56 981.57
  A 0.34 0.32 -49.6 0 1 446.91 981.53
  C 450.49 983.33 453.38 984.62 457.38 985.28
  C 459.21 985.58 460.57 987.01 462.13 987.61
  Q 469.21 990.35 476.18 993.32
  C 477.94 994.07 481.31 993.56 482.48 994.78
  Q 482.76 995.08 483.01 995.47
  Q 484.04 997.10 484.78 995.31
  L 485.00 994.78
  Q 485.50 993.55 485.50 994.89
  L 485.50 997.35
  A 1.00 1.00 0.0 0 1 484.34 998.34
  Q 481.72 997.91 479.14 997.45
  Q 476.27 996.94 473.68 995.80
  Q 461.94 990.63 446.94 982.31
  Z"
/>
<path fill="#07090c" d="
  M 490.88 996.53
  Q 491.87 996.27 491.31 997.53
  Q 491.06 998.10 490.73 997.56
  L 490.57 997.29
  A 0.52 0.51 -23.1 0 1 490.88 996.53
  Z"
/>
<path fill="#07090c" d="
  M 489.02 1001.13
  C 490.20 998.35 492.59 1001.33 494.94 1001.06
  A 0.99 0.99 0.0 0 1 495.87 1001.48
  Q 496.58 1002.48 496.31 1003.79
  A 1.00 0.99 -77.5 0 1 495.11 1004.56
  Q 493.10 1004.10 490.27 1003.95
  Q 485.85 1003.72 481.55 1001.40
  A 0.98 0.96 -31.7 0 0 481.01 1001.28
  L 476.06 1001.56
  Q 475.06 1001.61 475.73 1000.87
  C 477.04 999.43 482.85 1001.19 484.05 1001.78
  A 1.02 1.02 0.0 0 0 484.93 1001.78
  L 485.79 1001.35
  A 1.02 1.02 0.0 0 1 486.53 1001.30
  L 487.81 1001.69
  A 0.99 0.99 0.0 0 0 489.02 1001.13
  Z"
/>
<path fill="#07090c" d="
  M 498.16 1001.84
  L 498.23 1001.25
  A 1.00 1.00 0.0 0 1 499.59 1000.44
  L 507.94 1003.76
  A 0.79 0.78 1.0 0 1 508.40 1004.23
  C 509.17 1006.34 504.53 1004.69 503.95 1004.52
  A 1.05 0.97 -47.2 0 0 503.29 1004.57
  Q 500.50 1005.74 497.60 1004.31
  A 0.80 0.79 -77.9 0 1 497.15 1003.61
  Q 497.14 1002.93 497.71 1002.56
  A 1.02 0.99 77.8 0 0 498.16 1001.84
  Z"
/>
<ellipse fill="#07090c" cx="0.00" cy="0.00" transform="translate(455.47,1002.85) rotate(35.9)" rx="1.96" ry="0.63"/>
<path fill="#07090c" d="
  M 545.46 1010.33
  Q 543.95 1008.79 546.10 1008.63
  Q 553.50 1008.09 561.49 1008.22
  Q 570.12 1008.36 588.31 1005.77
  A 0.27 0.27 0.0 0 1 588.61 1006.01
  C 588.72 1007.01 573.69 1011.34 571.17 1011.68
  C 565.48 1012.44 560.75 1012.84 552.63 1012.48
  C 548.98 1012.32 548.62 1013.56 545.46 1010.33
  Z"
/>
<path fill="#07090c" d="
  M 487.46 1016.57
  C 485.96 1016.51 470.31 1014.28 470.14 1013.94
  Q 470.02 1013.72 470.29 1013.77
  C 474.02 1014.40 477.48 1013.99 481.24 1014.12
  C 482.91 1014.18 484.32 1013.43 485.94 1013.56
  Q 494.85 1014.26 503.78 1013.78
  A 0.95 0.95 0.0 0 0 504.29 1013.61
  Q 506.43 1012.13 508.29 1013.72
  A 1.00 1.00 0.0 0 0 508.94 1013.96
  Q 517.90 1014.01 526.63 1015.59
  C 527.65 1015.78 526.35 1016.23 526.21 1016.23
  Q 506.84 1017.32 487.46 1016.57
  Z"
/>
</svg>
